<svg width="32" height="32" viewBox="0 0 32 32" fill="none" xmlns="http://www.w3.org/2000/svg">
<path d="M9.41652 7.99402L10.8305 6.58002C11.026 6.38403 11.026 6.068 10.8305 5.87302L10.1235 5.16551C9.92803 4.97053 9.612 4.97003 9.41652 5.16551L8.00201 6.58002L6.58852 5.16652C6.39253 4.97053 6.076 4.97053 5.88051 5.16551L5.17351 5.87302C4.97803 6.068 4.97853 6.38503 5.17452 6.58052L6.58802 7.99402L5.17698 9.40499C4.98149 9.60048 4.98149 9.91651 5.17698 10.112L5.88398 10.8195C6.07947 11.0145 6.39549 11.015 6.59098 10.8195L8.00196 9.40852L9.42295 10.83C9.61894 11.026 9.93547 11.026 10.131 10.8305L10.838 10.1235C11.0334 9.92803 11.0329 9.6115 10.8375 9.41551L9.41652 7.99402ZM8 0C3.58148 0 0 3.58153 0 7.9995C0 12.418 3.58148 15.9995 8 15.9995C12.4185 15.9995 16 12.418 16 7.9995C16 3.58204 12.4185 0 8 0ZM8 14.4995C4.41002 14.4995 1.50002 11.5895 1.50002 7.99955C1.50002 4.40957 4.41002 1.49952 8 1.49952C11.59 1.49952 14.5 4.40952 14.5 7.9995C14.5 11.5895 11.59 14.4995 8 14.4995Z" transform="scale(2)" fill="black"/>
</svg>
