<svg width="280" height="216" viewBox="0 0 280 216" fill="none" xmlns="http://www.w3.org/2000/svg">
<path d="M136.14 60.024C135.934 55.8732 134.39 51.897 131.852 48.5981C126.129 41.1572 125.014 35.2496 125.014 35.2496C120.521 23.4917 116.526 15.6573 113.59 10.6851C110.501 5.46356 105.159 1.94641 99.135 1.17309C87.0205 -0.391029 49.158 -0.391029 37.0434 1.17309C31.0232 1.95092 25.6812 5.46807 22.5923 10.6851C19.6565 15.6573 15.6666 23.4917 11.1689 35.2496C11.1689 35.2496 10.0533 41.1572 4.33062 48.5981C1.7975 51.897 0.248534 55.8732 0.0474754 60.024C-0.385661 69.0293 2.22641 71.0085 4.5627 91.3874C4.74655 92.9909 6.10264 94.1968 7.72155 94.1968H128.47C130.089 94.1968 131.445 92.9864 131.629 91.3874C132.285 85.6722 134.233 74.0802 134.233 74.0802C135.938 68.3171 136.31 63.62 136.14 60.024Z" transform="translate(3.8125) scale(2)" fill="#E95353"/>
<path d="M108.796 32.5862C105.252 23.7295 101.638 15.9957 98.0421 9.83047C95.3164 5.16826 90.5081 1.9133 85.1881 1.20108C73.047 -0.40697 35.7056 -0.393734 23.6519 1.20108C18.3319 1.9133 13.5234 5.16854 10.7977 9.83047C7.15325 16.0743 3.49132 23.9129 -3.18409e-07 32.5862C36.2084 35.4306 72.5832 35.4306 108.796 32.5862Z" transform="translate(31.166 4.38379) scale(2)" fill="#168DE2"/>
<path d="M15.1073 0.359791C13.7247 0.792359 12.4385 1.39981 11.3622 2.00276C9.40206 3.09516 7.38951 4.11322 5.28953 4.90852C1.80696 6.22819 1.21619 8.19868 1.21619 8.19868C1.11129 8.33414 1.01062 8.4696 0.914176 8.60928C-1.72835 12.5286 1.74097 17.7456 6.42679 17.0815C13.2039 16.1246 18.7864 14.1628 21.6215 13.0268C23.2447 12.3757 24.5133 11.0214 24.929 9.3215C24.9685 9.15985 25.0034 8.9982 25.0339 8.84077C26.0755 3.23063 20.5629 -1.33978 15.1073 0.359791Z" transform="translate(208.262 89.3193) scale(2)" fill="white"/>
<path d="M8.81397 -1.51261e-06H1.27553C0.1425 -1.51261e-06 -0.426278 1.36754 0.374291 2.17157L7.91272 9.7001C8.71329 10.4996 10.0871 9.9316 10.0871 8.80005V1.27152C10.0869 0.568029 9.5181 -1.51261e-06 8.81397 -1.51261e-06Z" transform="translate(235.332 152.845) scale(2)" fill="#FFE21F"/>
<path d="M17.6667 15.092C17.4828 16.7 16.1222 17.9102 14.5036 17.9102H8.94988e-07V26.3168C8.94988e-07 29.2924 2.41496 31.7087 5.39898 31.7087H14.5081C17.4876 31.7087 19.9071 29.2969 19.9071 26.3168V0C19.3076 3.64416 18.1438 10.928 17.6667 15.092Z" transform="translate(231.742 152.574) scale(2)" fill="#454545"/>
<path d="M14.0792 3.28566C13.6415 1.32812 11.7999 1.03132e-07 9.79154 1.03132e-07H6.15133C3.81927 1.03132e-07 1.92937 1.8877 1.92937 4.21641V6.80732H-4.06187e-06L1.10681 9.43342H5.35076C7.54718 9.43342 9.7216 8.96143 11.7167 8.04841C13.5147 7.22693 14.5211 5.26066 14.0792 3.28566Z" transform="translate(251.635 51.2139) scale(2)" fill="#ED6262"/>
<path d="M5.30705 10.6002C8.23806 10.6002 10.6141 8.22725 10.6141 5.30009C10.6141 2.37293 8.23806 0 5.30705 0C2.37605 0 0 2.37293 0 5.30009C0 8.22725 2.37605 10.6002 5.30705 10.6002Z" transform="translate(232.639 93.0186) scale(2)" fill="#FFBD49"/>
<path d="M3.89824 7.78623C6.05117 7.78623 7.79647 6.04322 7.79647 3.89312C7.79647 1.74301 6.05117 0 3.89824 0C1.7453 0 0 1.74301 0 3.89312C0 6.04322 1.7453 7.78623 3.89824 7.78623Z" transform="translate(214.105 104.196) scale(2)" fill="#FFDB6F"/>
<path d="M61.698 1.44385e-06L55.6034 10.5999H6.09465L1.27364e-06 1.44385e-06H61.698Z" transform="translate(78.3047 111.991) scale(2)" fill="#6F6F6F"/>
<path d="M24.251 8.61072C24.1591 8.47103 24.0584 8.33558 23.949 8.20012C23.949 8.20012 23.3583 6.22963 19.8757 4.90996C17.7757 4.11466 15.7674 3.09661 13.803 2.0042C12.7224 1.40126 11.4405 0.793802 10.0579 0.361234C4.6065 -1.34285 -0.910352 3.23178 0.126525 8.84221C0.157262 9.00386 0.192228 9.16129 0.227195 9.32294C0.642848 11.0225 1.91152 12.3771 3.53465 13.0282C6.36978 14.1643 11.9523 16.126 18.7339 17.083C23.424 17.747 26.8936 12.53 24.251 8.61072Z" transform="translate(21.4004 89.3174) scale(2)" fill="white"/>
<path d="M8.81162 -1.51261e-06H1.27318C0.568774 -1.51261e-06 2.32352e-07 0.568029 2.32352e-07 1.27152V8.80005C2.32352e-07 9.9316 1.37385 10.4996 2.17442 9.7001L9.71286 2.17157C10.5134 1.37205 9.94465 -1.51261e-06 8.81162 -1.51261e-06Z" transform="translate(24.4961 152.845) scale(2)" fill="#FFE21F"/>
<path d="M113.954 13.1402C106.105 -0.422375 97.0793 0.00146511 97.0793 0.00146511H30.4419C30.4419 0.00146511 21.4205 -0.422375 13.5671 13.1402H-1.46296e-07L0.166374 14.8879C0.319494 16.5309 1.69335 17.7762 3.3382 17.7762H124.188C125.833 17.7762 127.206 16.5309 127.36 14.8882L127.526 13.1404L113.954 13.1402Z" transform="translate(12.4746 152.842) scale(2)" fill="#777777"/>
<path d="M5.4032 17.9099C3.7843 17.9099 2.4237 16.6953 2.24013 15.0917C1.76328 10.9277 0.594998 3.63965 9.89649e-08 -4.81284e-07V26.3168C9.89649e-08 29.2924 2.41496 31.7087 5.39897 31.7087H14.5078C17.4873 31.7087 19.9068 29.2969 19.9068 26.3168V17.9102H5.4032V17.9099Z" transform="translate(8.44922 152.583) scale(2)" fill="#454545"/>
<path d="M12.2486 6.80732V4.21641C12.2486 1.88742 10.3584 1.03132e-07 8.0309 1.03132e-07H4.39097C2.38292 1.03132e-07 0.540957 1.3284 0.103308 3.28566C-0.338571 5.25615 0.672082 7.22693 2.46582 8.04391C4.46513 8.9572 6.63533 9.42892 8.83175 9.42892H13.0757L14.1825 6.80281H12.2486V6.80732Z" transform="translate(0 51.2136) scale(2)" fill="#ED6262"/>
<path d="M5.30705 10.6002C8.23806 10.6002 10.6141 8.22725 10.6141 5.30009C10.6141 2.37293 8.23806 0 5.30705 0C2.37605 0 0 2.37293 0 5.30009C0 8.22725 2.37605 10.6002 5.30705 10.6002Z" transform="translate(26.123 93.0186) scale(2)" fill="#FFBD49"/>
<path d="M3.89823 7.78623C6.05117 7.78623 7.79647 6.04322 7.79647 3.89312C7.79647 1.74301 6.05117 0 3.89823 0C1.7453 0 0 1.74301 0 3.89312C0 6.04322 1.7453 7.78623 3.89823 7.78623Z" transform="translate(50.3086 104.196) scale(2)" fill="#FFDB6F"/>
<path d="M58.0273 -2.33766e-06H1.59691C0.713153 -2.33766e-06 1.8244e-06 0.716437 1.8244e-06 1.59481C1.8244e-06 2.47741 0.713153 3.18963 1.59691 3.18963H58.0228C58.9066 3.18963 59.6197 2.47318 59.6197 1.59481C59.6243 0.712212 58.9066 -2.33766e-06 58.0273 -2.33766e-06Z" transform="translate(80.375 160.264) scale(2)" fill="#6F6F6F"/>
<path d="M58.0273 2.75019e-06H1.59691C0.713153 2.75019e-06 1.8244e-06 0.716442 1.8244e-06 1.59481C1.8244e-06 2.47741 0.713153 3.18962 1.59691 3.18962H58.0228C58.9066 3.18962 59.6197 2.47319 59.6197 1.59481C59.6243 0.712217 58.9066 2.75019e-06 58.0273 2.75019e-06Z" transform="translate(80.375 172.997) scale(2)" fill="#6F6F6F"/>
<path d="M102.885 13.6843V14.2303C102.885 16.4281 101.078 18.1891 98.8336 18.0973C96.7641 17.9663 95.1804 16.118 95.1804 14.0076V6.16898C95.1804 4.32071 93.6405 2.91374 91.7898 2.9619C91.7461 2.9619 91.7461 2.9619 91.7024 2.9619C91.7024 2.9619 91.7024 2.9619 91.6587 2.9619C89.808 2.91825 88.268 4.32522 88.268 6.16898V13.2604C88.268 15.4582 86.3736 17.2192 84.173 17.0837C82.1034 16.9964 80.5198 15.1045 80.5198 13.0377V6.87247C80.5198 5.0242 78.9798 3.48627 77.0854 3.48627H76.8229C75.0596 3.48627 73.6071 4.9369 73.6071 6.69786V14.7156C73.6071 16.9133 71.7564 18.6698 69.512 18.5825C67.4425 18.4515 65.9025 16.6033 65.9025 14.4928V3.74396C65.9025 2.03115 64.4063 0.580525 62.643 0.711478H62.3805C60.5735 0.711478 59.1255 2.1621 59.1255 3.92307V14.9121C59.1255 17.0226 57.4104 18.7791 55.2534 18.7791C53.1839 18.7791 51.4689 17.1099 51.4251 15.0434V5.81978C51.4251 3.70932 49.8415 1.86555 47.772 1.73009C45.5276 1.64279 43.7206 3.39925 43.7206 5.59701L43.6769 14.1174C43.6769 16.3152 41.8744 18.0716 39.6256 17.9843C37.5955 17.8576 36.0556 16.075 35.9941 14.0563V4.05853C35.9941 1.98299 34.4321 0.125991 32.3539 0.00376762C30.127 -0.0922647 28.2893 1.65969 28.2893 3.86195V14.3354C28.2281 16.4808 26.4256 18.1891 24.2159 18.1018C22.1464 17.9708 20.6064 16.1225 20.6064 14.0121V6.16898C20.6064 4.32071 19.0228 2.91374 17.1721 2.9619C17.1284 2.9619 17.1284 2.9619 17.1284 2.9619C17.0847 2.9619 17.0847 2.9619 17.0847 2.9619C15.1903 2.91825 13.6503 4.32522 13.6503 6.16898V13.2604C13.6503 15.4582 11.7996 17.2192 9.59895 17.0837C7.68254 17.0094 6.25624 15.4103 6.01147 13.5576C3.97691 17.7652 1.96011 22.3224 -3.01198e-07 27.1899C36.2084 30.0388 72.5877 30.0388 108.796 27.1899C106.844 22.3094 104.867 17.8089 102.885 13.6843Z" transform="translate(31.1562 15.167) scale(2)" fill="#3AA2EB"/>
</svg>
