<svg width="89" height="89" viewBox="0 0 89 89" fill="none" xmlns="http://www.w3.org/2000/svg">
<path d="M46.6138 98.6304H54.6855V109.399H46.6138V98.6304ZM75.4103 71.9153H88.5693V62.8021H75.4103V71.9153ZM29.177 109.381H37.2487V98.6304H29.177V109.381ZM75.4103 86.2626H88.5693V77.1528H75.4103V86.2626ZM177 35.401V141.611C177 161.082 161.072 177.01 141.599 177.01H35.3993C15.9263 177.01 1.31207e-07 161.082 1.31207e-07 141.611V35.401C-0.00166894 15.9279 15.9263 0 35.3993 0H141.599C161.072 0 177 15.9279 177 35.401ZM162.102 158.273H154.434V102.095H129.431V158.273H112.776V53.3936H71.0941V158.273H59.9831V90.8559H23.8661V158.273H14.9031C19.7685 164.263 27.0974 168.161 35.3993 168.161H141.599C149.898 168.161 157.227 164.263 162.102 158.273ZM95.2923 71.9153H108.465V62.8021H95.2923V71.9153ZM95.2923 86.2626H108.465V77.1528H95.2923V86.2626Z" transform="scale(0.5)" fill="#91DC5A"/>
</svg>
