<svg width="89" height="102" viewBox="0 0 89 102" fill="none" xmlns="http://www.w3.org/2000/svg">
<path d="M4.84519e-08 2.6164e-06V49.1666C4.84519e-08 52.7869 2.93521 55.7221 6.5555 55.7221H118C121.62 55.7221 124.555 52.7869 124.555 49.1666V2.6164e-06H4.84519e-08Z" transform="translate(13.1113 73.7499) scale(0.5)" fill="#EDEBED"/>
<path d="M124.557 -5.81423e-06H0V9.83325H124.557V-5.81423e-06Z" transform="translate(13.1118 73.7493) scale(0.5)" fill="#DBD9DC"/>
<path d="M6.5555 6.5559C2.93521 6.5559 5.93536e-07 9.4907 5.93536e-07 13.1114C5.93536e-07 16.7317 2.93521 19.6669 6.5555 19.6669C10.1758 19.6669 13.111 22.6017 13.111 26.2224V-2.85866e-06C13.1114 3.62108 10.1762 6.5559 6.5555 6.5559Z" transform="translate(0 31.1386) scale(0.5)" fill="#4B3F4E"/>
<path d="M6.55549 6.5555C2.93521 6.5555 1.84117e-06 3.62029 1.84117e-06 -4.84519e-08V26.2224C1.84117e-06 22.6017 2.93521 19.6669 6.55549 19.6669C10.1758 19.6669 13.111 16.7317 13.111 13.1114C13.111 9.49071 10.1758 6.5555 6.55549 6.5555Z" transform="translate(81.9443 31.1388) scale(0.5)" fill="#4B3F4E"/>
<path d="M137.666 150.778H13.111C5.87002 150.778 9.69038e-07 144.908 9.69038e-07 137.667V13.111C9.69038e-07 5.87002 5.87002 0 13.111 0H137.666C144.907 0 150.777 5.87002 150.777 13.111V137.666C150.777 144.908 144.907 150.778 137.666 150.778Z" transform="translate(6.55566) scale(0.5)" fill="#6F6571"/>
<path d="M140.944 124.555V19.6665C140.944 14.2359 136.541 9.83325 131.111 9.83325H26.222C24.4116 9.83325 22.9442 8.36584 22.9442 6.5555V0H13.111C5.87002 0 9.69038e-07 5.87002 9.69038e-07 13.111V137.666C9.69038e-07 144.907 5.87002 150.777 13.111 150.777H137.666C144.907 150.777 150.777 144.907 150.777 137.666V127.833H144.222C142.412 127.833 140.944 126.366 140.944 124.555Z" transform="translate(6.55566) scale(0.5)" fill="#5D5360"/>
<path d="M114.722 118H3.27775C1.46741 118 1.33243e-06 116.533 1.33243e-06 114.722V3.27775C1.33243e-06 1.46741 1.46741 3.63389e-07 3.27775 3.63389e-07H114.722C116.532 3.63389e-07 118 1.46741 118 3.27775V114.722C118 116.532 116.532 118 114.722 118Z" transform="translate(14.75 8.1944) scale(0.5)" fill="#EDEBED"/>
<path d="M-8.72134e-07 8.72134e-07V22.9442C-8.72134e-07 24.7542 1.4674 26.222 3.27775 26.222H95.0555C96.8658 26.222 98.3332 24.7542 98.3332 22.9442V8.72134e-07H-8.72134e-07Z" transform="translate(19.6665 75.3888) scale(0.5)" fill="#5D5360"/>
<path d="M98.3324 -1.93808e-06H1.93808e-06V6.55549H98.3324V-1.93808e-06Z" transform="translate(19.667 75.3886) scale(0.5)" fill="#4B3F4E"/>
<path d="M75.389 19.6665H3.27775C1.4674 19.6665 -4.84519e-08 18.1991 -4.84519e-08 16.3887V3.27775C-4.84519e-08 1.4674 1.4674 -8.72134e-07 3.27775 -8.72134e-07H75.3886C77.199 -8.72134e-07 78.6664 1.4674 78.6664 3.27775V16.3887C78.6667 18.1991 77.1993 19.6665 75.389 19.6665Z" transform="translate(24.5835 26.2222) scale(0.5)" fill="#5D5360"/>
<path d="M6.5555 13.111C10.176 13.111 13.111 10.176 13.111 6.55549C13.111 2.93499 10.176 0 6.5555 0C2.935 0 2.76176e-06 2.93499 2.76176e-06 6.55549C2.76176e-06 10.176 2.935 13.111 6.5555 13.111Z" transform="translate(24.5835 44.2492) scale(0.5)" fill="#C9C6CA"/>
<path d="M6.55549 13.111C10.176 13.111 13.111 10.176 13.111 6.55549C13.111 2.93499 10.176 0 6.55549 0C2.93499 0 0 2.93499 0 6.55549C0 10.176 2.93499 13.111 6.55549 13.111Z" transform="translate(57.3608 44.2492) scale(0.5)" fill="#C9C6CA"/>
<path d="M6.5555 13.111C10.176 13.111 13.111 10.176 13.111 6.55549C13.111 2.93499 10.176 0 6.5555 0C2.935 0 -2.56795e-06 2.93499 -2.56795e-06 6.55549C-2.56795e-06 10.176 2.935 13.111 6.5555 13.111Z" transform="translate(40.9722 44.2492) scale(0.5)" fill="#E6646E"/>
<path d="M6.5555 1.93808e-06H-2.90711e-06V19.6665H6.5555V1.93808e-06Z" transform="translate(29.5005 26.2224) scale(0.5)" fill="#4B3F4E"/>
<path d="M6.5555 1.93808e-06H2.66485e-06V19.6665H6.5555V1.93808e-06Z" transform="translate(36.0557 26.2224) scale(0.5)" fill="#4B3F4E"/>
<path d="M6.5555 1.93808e-06H2.18034e-06V19.6665H6.5555V1.93808e-06Z" transform="translate(42.6108 26.2224) scale(0.5)" fill="#4B3F4E"/>
<path d="M6.5555 1.93808e-06H-4.36067e-06V19.6665H6.5555V1.93808e-06Z" transform="translate(49.166 26.2224) scale(0.5)" fill="#4B3F4E"/>
<path d="M6.55549 1.93808e-06H0V19.6665H6.55549V1.93808e-06Z" transform="translate(55.7231 26.2224) scale(0.5)" fill="#4B3F4E"/>
<path d="M6.55549 19.6665H-7.7523e-07V-8.72134e-07H6.55549C8.36584 -8.72134e-07 9.83324 1.4674 9.83324 3.27775V16.3887C9.83324 18.1991 8.36584 19.6665 6.55549 19.6665Z" transform="translate(59 26.2222) scale(0.5)" fill="#E6646E"/>
<path d="M45.8889 111.445C24.1656 111.445 6.5555 93.8346 6.5555 72.1113V3.63389e-07H3.27775C1.46741 3.63389e-07 1.33243e-06 1.46741 1.33243e-06 3.27775V114.722C1.33243e-06 116.532 1.46741 118 3.27775 118H114.722C116.532 118 118 116.532 118 114.722V111.444H45.8889V111.445Z" transform="translate(14.75 8.1944) scale(0.5)" fill="#DBD9DC"/>
<path d="M2.5195e-06 8.72134e-07V16.3887C2.5195e-06 18.1987 1.46622 19.6665 3.27775 19.6665C5.08928 19.6665 6.5555 18.1987 6.5555 16.3887V8.72134e-07H2.5195e-06Z" transform="translate(27.8613 75.3888) scale(0.5)" fill="#DBD9DC"/>
<path d="M3.27775 6.5555C5.088 6.5555 6.5555 5.088 6.5555 3.27775C6.5555 1.4675 5.088 3.19783e-06 3.27775 3.19783e-06C1.46749 3.19783e-06 0 1.4675 0 3.27775C0 5.088 1.46749 6.5555 3.27775 6.5555Z" transform="translate(27.8613 81.9441) scale(0.5)" fill="#C9C6CA"/>
<path d="M3.27775 6.5555C5.088 6.5555 6.5555 5.088 6.5555 3.27775C6.5555 1.4675 5.088 -4.55448e-06 3.27775 -4.55448e-06C1.46749 -4.55448e-06 0 1.4675 0 3.27775C0 5.088 1.46749 6.5555 3.27775 6.5555Z" transform="translate(27.8613 77.0283) scale(0.5)" fill="#C9C6CA"/>
<path d="M9.20586e-07 8.72134e-07V16.3887C9.20586e-07 18.1987 1.46621 19.6665 3.27775 19.6665C5.08968 19.6665 6.55549 18.1987 6.55549 16.3887V8.72134e-07H9.20586e-07Z" transform="translate(37.6943 75.3888) scale(0.5)" fill="#DBD9DC"/>
<path d="M3.27775 6.5555C5.088 6.5555 6.5555 5.088 6.5555 3.27775C6.5555 1.4675 5.088 3.19783e-06 3.27775 3.19783e-06C1.4675 3.19783e-06 0 1.4675 0 3.27775C0 5.088 1.4675 6.5555 3.27775 6.5555Z" transform="translate(37.6953 81.9441) scale(0.5)" fill="#C9C6CA"/>
<path d="M3.27775 6.5555C5.088 6.5555 6.5555 5.088 6.5555 3.27775C6.5555 1.4675 5.088 -4.55448e-06 3.27775 -4.55448e-06C1.4675 -4.55448e-06 0 1.4675 0 3.27775C0 5.088 1.4675 6.5555 3.27775 6.5555Z" transform="translate(37.6953 77.0283) scale(0.5)" fill="#C9C6CA"/>
<path d="M-3.48854e-06 8.72134e-07V16.3887C-3.48854e-06 18.1987 1.46621 19.6665 3.27774 19.6665C5.08928 19.6665 6.5555 18.1987 6.5555 16.3887V8.72134e-07H-3.48854e-06Z" transform="translate(47.5278 75.3888) scale(0.5)" fill="#DBD9DC"/>
<path d="M3.27774 6.5555C5.08799 6.5555 6.5555 5.088 6.5555 3.27775C6.5555 1.4675 5.08799 3.19783e-06 3.27774 3.19783e-06C1.46749 3.19783e-06 -2.6164e-06 1.4675 -2.6164e-06 3.27775C-2.6164e-06 5.088 1.46749 6.5555 3.27774 6.5555Z" transform="translate(47.5269 81.9441) scale(0.5)" fill="#C9C6CA"/>
<path d="M3.27774 6.5555C5.08799 6.5555 6.5555 5.088 6.5555 3.27775C6.5555 1.4675 5.08799 -4.55448e-06 3.27774 -4.55448e-06C1.46749 -4.55448e-06 -2.6164e-06 1.4675 -2.6164e-06 3.27775C-2.6164e-06 5.088 1.46749 6.5555 3.27774 6.5555Z" transform="translate(47.5269 77.0283) scale(0.5)" fill="#C9C6CA"/>
<path d="M9.69038e-07 8.72134e-07V16.3887C9.69038e-07 18.1987 1.46621 19.6665 3.27775 19.6665C5.08928 19.6665 6.55549 18.1987 6.55549 16.3887V8.72134e-07H9.69038e-07Z" transform="translate(57.3613 75.3888) scale(0.5)" fill="#DBD9DC"/>
<path d="M3.27775 6.5555C5.088 6.5555 6.5555 5.088 6.5555 3.27775C6.5555 1.4675 5.088 3.19783e-06 3.27775 3.19783e-06C1.4675 3.19783e-06 4.65138e-06 1.4675 4.65138e-06 3.27775C4.65138e-06 5.088 1.4675 6.5555 3.27775 6.5555Z" transform="translate(57.3604 81.9441) scale(0.5)" fill="#C9C6CA"/>
<path d="M3.27775 6.5555C5.088 6.5555 6.5555 5.088 6.5555 3.27775C6.5555 1.4675 5.088 -4.55448e-06 3.27775 -4.55448e-06C1.4675 -4.55448e-06 4.65138e-06 1.4675 4.65138e-06 3.27775C4.65138e-06 5.088 1.4675 6.5555 3.27775 6.5555Z" transform="translate(57.3604 77.0283) scale(0.5)" fill="#C9C6CA"/>
</svg>
