<svg width="354" height="354" viewBox="0 0 354 354" fill="none" xmlns="http://www.w3.org/2000/svg">
<path d="M88.5 177C137.377 177 177 137.377 177 88.5C177 39.6228 137.377 0 88.5 0C39.6228 0 0 39.6228 0 88.5C0 137.377 39.6228 177 88.5 177Z" transform="scale(2)" fill="#54C0EB"/>
<path d="M-2.12662e-06 -5.31655e-07L49.0583 21.8811" transform="translate(198.184 87.5242) scale(2)" stroke="white" stroke-width="0.5" stroke-miterlimit="10"/>
<path d="M4.25324e-06 -5.31655e-07L49.0583 21.8811" transform="translate(182.016 87.5242) scale(2)" stroke="white" stroke-width="0.5" stroke-miterlimit="10"/>
<path d="M0 1.06331e-06L56.5843 21.7417" transform="translate(89.1953 86.9668) scale(2)" stroke="white" stroke-width="0.5" stroke-miterlimit="10"/>
<path d="M0 -1.06331e-06L58.3961 22.0205" transform="translate(72.4727 87.2456) scale(2)" stroke="white" stroke-width="0.5" stroke-miterlimit="10"/>
<path d="M1.67244 0H0V8.64095H1.67244V0Z" transform="translate(196.512 83.6221) scale(2)" fill="#2B3B4E"/>
<path d="M4.59921 1.53307H0.696848C0.278738 1.53307 -2.12662e-06 1.25433 -2.12662e-06 0.836221V0.69685C-2.12662e-06 0.27874 0.278738 -5.31655e-07 0.696848 -5.31655e-07H4.59921C5.01732 -5.31655e-07 5.29606 0.27874 5.29606 0.69685V0.836221C5.43544 1.11496 5.01732 1.53307 4.59921 1.53307Z" transform="translate(192.609 86.1306) scale(2)" fill="#E6E9EE"/>
<path d="M4.59921 1.53307H0.696848C0.278738 1.53307 -2.12662e-06 1.25433 -2.12662e-06 0.836223V0.696849C-2.12662e-06 0.278739 0.278738 -1.06331e-06 0.696848 -1.06331e-06H4.59921C5.01732 -1.06331e-06 5.29606 0.278739 5.29606 0.696849V0.836223C5.43544 1.25433 5.01732 1.53307 4.59921 1.53307Z" transform="translate(192.609 91.4265) scale(2)" fill="#E6E9EE"/>
<path d="M1.67244 0H2.12662e-06V8.64095H1.67244V0Z" transform="translate(179.508 83.6221) scale(2)" fill="#2B3B4E"/>
<path d="M4.59922 1.53307H0.696848C0.278738 1.53307 -2.12662e-06 1.25433 -2.12662e-06 0.836221V0.69685C-2.12662e-06 0.27874 0.278738 -5.31655e-07 0.696848 -5.31655e-07H4.59922C5.01733 -5.31655e-07 5.29607 0.27874 5.29607 0.69685V0.836221C5.29607 1.11496 5.01733 1.53307 4.59922 1.53307Z" transform="translate(175.883 86.1306) scale(2)" fill="#E6E9EE"/>
<path d="M4.59922 1.53307H0.696848C0.278738 1.53307 -2.12662e-06 1.25433 -2.12662e-06 0.836223V0.696849C-2.12662e-06 0.278739 0.278738 -1.06331e-06 0.696848 -1.06331e-06H4.59922C5.01733 -1.06331e-06 5.29607 0.278739 5.29607 0.696849V0.836223C5.29607 1.25433 5.01733 1.53307 4.59922 1.53307Z" transform="translate(175.883 91.4265) scale(2)" fill="#E6E9EE"/>
<path d="M1.67244 0H0V8.64095H1.67244V0Z" transform="translate(82.2266 83.6221) scale(2)" fill="#2B3B4E"/>
<path d="M4.59921 1.53307H0.696851C0.278741 1.53307 1.06331e-06 1.25433 1.06331e-06 0.836221V0.69685C1.06331e-06 0.27874 0.278741 -5.31655e-07 0.696851 -5.31655e-07H4.59921C5.01732 -5.31655e-07 5.29606 0.27874 5.29606 0.69685V0.836221C5.29606 1.11496 5.01732 1.53307 4.59921 1.53307Z" transform="translate(78.6055 86.1306) scale(2)" fill="#E6E9EE"/>
<path d="M4.59921 1.53307H0.696851C0.278741 1.53307 1.06331e-06 1.25433 1.06331e-06 0.836223V0.696849C1.06331e-06 0.278739 0.278741 -1.06331e-06 0.696851 -1.06331e-06H4.59921C5.01732 -1.06331e-06 5.29606 0.278739 5.29606 0.696849V0.836223C5.29606 1.25433 5.01732 1.53307 4.59921 1.53307Z" transform="translate(78.6055 91.4265) scale(2)" fill="#E6E9EE"/>
<path d="M1.67244 0H0V8.64095H1.67244V0Z" transform="translate(65.2266 83.6221) scale(2)" fill="#2B3B4E"/>
<path d="M4.59921 1.53307H0.696851C0.278741 1.53307 5.31655e-07 1.25433 5.31655e-07 0.836221V0.69685C5.31655e-07 0.27874 0.278741 -5.31655e-07 0.696851 -5.31655e-07H4.59921C5.01732 -5.31655e-07 5.29606 0.27874 5.29606 0.69685V0.836221C5.43543 1.11496 5.01732 1.53307 4.59921 1.53307Z" transform="translate(61.6016 86.1306) scale(2)" fill="#E6E9EE"/>
<path d="M4.59921 1.53307H0.696851C0.278741 1.53307 5.31655e-07 1.25433 5.31655e-07 0.836223V0.696849C5.31655e-07 0.278739 0.278741 -1.06331e-06 0.696851 -1.06331e-06H4.59921C5.01732 -1.06331e-06 5.29606 0.278739 5.29606 0.696849V0.836223C5.43543 1.25433 5.01732 1.53307 4.59921 1.53307Z" transform="translate(61.6016 91.4265) scale(2)" fill="#E6E9EE"/>
<path d="M5.85354 2.12662e-06H2.12662e-06V80.974H5.85354V2.12662e-06Z" transform="translate(126.547 91.7056) scale(2)" fill="#324A5E"/>
<path d="M81.9496 5.85354H1.11496C0.55748 5.85354 1.06331e-06 5.43543 1.06331e-06 4.73858V1.11496C1.06331e-06 0.557482 0.41811 -2.12662e-06 1.11496 -2.12662e-06H81.9496C82.5071 -2.12662e-06 83.0646 0.418112 83.0646 1.11496V4.73858C83.0646 5.43543 82.6465 5.85354 81.9496 5.85354Z" transform="translate(49.3359 99.2314) scale(2)" fill="#2B3B4E"/>
<path d="M11.5677 1.95118V65.3646C7.66536 64.6677 3.76299 63.5528 2.12662e-06 62.4378V1.95118C2.12662e-06 0.836223 0.836219 0 1.95118 0H9.61653C10.7315 0 11.5677 0.836223 11.5677 1.95118Z" transform="translate(120.973 220.205) scale(2)" fill="#2B3B4E"/>
<path d="M1.25433 0H4.25324e-06V6.82914H1.25433V0Z" transform="translate(294.906 128.22) scale(2)" fill="#324A5E"/>
<path d="M3.62362 1.25433H0.557476C0.278736 1.25433 4.25324e-06 0.975592 4.25324e-06 0.696851V0.557478C4.25324e-06 0.278738 0.278736 1.06331e-06 0.557476 1.06331e-06H3.62362C3.90236 1.06331e-06 4.18111 0.278738 4.18111 0.557478V0.696851C4.18111 0.975592 3.90236 1.25433 3.62362 1.25433Z" transform="translate(292.117 130.172) scale(2)" fill="#E6E9EE"/>
<path d="M3.62362 1.3937H0.557476C0.278736 1.3937 4.25324e-06 1.11496 4.25324e-06 0.836222V0.55748C4.25324e-06 0.27874 0.278736 -2.12662e-06 0.557476 -2.12662e-06H3.62362C3.90236 -2.12662e-06 4.18111 0.27874 4.18111 0.55748V0.696848C4.18111 1.11496 3.90236 1.3937 3.62362 1.3937Z" transform="translate(292.117 134.074) scale(2)" fill="#E6E9EE"/>
<path d="M1.25433 0H-2.12662e-06V6.82914H1.25433V0Z" transform="translate(281.805 128.22) scale(2)" fill="#324A5E"/>
<path d="M3.62362 1.25433H0.557482C0.278742 1.25433 0 0.975592 0 0.696851V0.557478C0 0.278738 0.278742 1.06331e-06 0.557482 1.06331e-06H3.62362C3.90236 1.06331e-06 4.1811 0.278738 4.1811 0.557478V0.696851C4.1811 0.975592 4.04173 1.25433 3.62362 1.25433Z" transform="translate(278.738 130.172) scale(2)" fill="#E6E9EE"/>
<path d="M3.62362 1.3937H0.557482C0.278742 1.3937 0 1.11496 0 0.836222V0.55748C0 0.27874 0.278742 -2.12662e-06 0.557482 -2.12662e-06H3.62362C3.90236 -2.12662e-06 4.1811 0.27874 4.1811 0.55748V0.696848C4.1811 1.11496 4.04173 1.3937 3.62362 1.3937Z" transform="translate(278.738 134.074) scale(2)" fill="#E6E9EE"/>
<path d="M1.25433 0H-4.25324e-06V6.82914H1.25433V0Z" transform="translate(205.434 128.22) scale(2)" fill="#324A5E"/>
<path d="M3.62362 1.25433H0.55748C0.27874 1.25433 -2.12662e-06 0.975592 -2.12662e-06 0.696851V0.557478C-2.12662e-06 0.278738 0.27874 1.06331e-06 0.55748 1.06331e-06H3.62362C3.90236 1.06331e-06 4.1811 0.278738 4.1811 0.557478V0.696851C4.32047 0.975592 4.04173 1.25433 3.62362 1.25433Z" transform="translate(202.363 130.172) scale(2)" fill="#E6E9EE"/>
<path d="M3.62362 1.3937H0.55748C0.27874 1.3937 -2.12662e-06 1.11496 -2.12662e-06 0.836222V0.55748C-2.12662e-06 0.27874 0.27874 -2.12662e-06 0.55748 -2.12662e-06H3.62362C3.90236 -2.12662e-06 4.1811 0.27874 4.1811 0.55748V0.696848C4.32047 1.11496 4.04173 1.3937 3.62362 1.3937Z" transform="translate(202.363 134.074) scale(2)" fill="#E6E9EE"/>
<path d="M1.25433 0H2.12662e-06V6.82914H1.25433V0Z" transform="translate(192.051 128.22) scale(2)" fill="#324A5E"/>
<path d="M3.62362 1.25433H0.557485C0.278744 1.25433 2.12662e-06 0.975592 2.12662e-06 0.696851V0.557478C2.12662e-06 0.278738 0.278744 1.06331e-06 0.557485 1.06331e-06H3.62362C3.90236 1.06331e-06 4.1811 0.278738 4.1811 0.557478V0.696851C4.1811 0.975592 3.90236 1.25433 3.62362 1.25433Z" transform="translate(189.262 130.172) scale(2)" fill="#E6E9EE"/>
<path d="M3.62362 1.3937H0.557485C0.278744 1.3937 2.12662e-06 1.11496 2.12662e-06 0.836222V0.55748C2.12662e-06 0.27874 0.278744 -2.12662e-06 0.557485 -2.12662e-06H3.62362C3.90236 -2.12662e-06 4.1811 0.27874 4.1811 0.55748V0.696848C4.1811 1.11496 3.90236 1.3937 3.62362 1.3937Z" transform="translate(189.262 134.074) scale(2)" fill="#E6E9EE"/>
<path d="M4.59921 0H-4.25324e-06V63.5528H4.59921V0Z" transform="translate(240.273 134.632) scale(2)" fill="#324A5E"/>
<path d="M64.2496 4.59921H0.836218C0.418108 4.59921 0 4.1811 0 3.76299V0.836221C0 0.41811 0.418108 2.12662e-06 0.836218 2.12662e-06H64.2496C64.6677 2.12662e-06 65.0858 0.41811 65.0858 0.836221V3.76299C65.0858 4.32047 64.6677 4.59921 64.2496 4.59921Z" transform="translate(179.789 140.485) scale(2)" fill="#2B3B4E"/>
<path d="M9.05905 1.53307V50.5913C6.13228 51.985 3.06614 53.2394 -2.12662e-06 54.3543V1.53307C-2.12662e-06 0.696848 0.696846 0 1.53307 0H7.52598C8.36221 0 9.05905 0.557478 9.05905 1.53307Z" transform="translate(235.812 235.536) scale(2)" fill="#2B3B4E"/>
</svg>
