<svg width="89" height="89" viewBox="0 0 89 89" fill="none" xmlns="http://www.w3.org/2000/svg">
<path d="M94.5269 12.4986H-3.37966e-07V6.24912C-3.37966e-07 2.79769 2.79804 0 6.24912 0H94.5269C97.9784 0 100.776 2.79804 100.776 6.24912C100.776 9.70055 97.9784 12.4986 94.5269 12.4986Z" transform="translate(9.14062) scale(0.5)" fill="#6D7F84"/>
<path d="M94.5273 12.4986H-7.18179e-07V6.24912C-7.18179e-07 2.79769 2.79804 1.16176e-07 6.24912 1.16176e-07H94.5269C97.9784 1.16176e-07 100.776 2.79804 100.776 6.24912C100.776 9.70055 97.9787 12.4986 94.5273 12.4986Z" transform="translate(33.582 4.70197) scale(0.5)" fill="#829399"/>
<path d="M34.3018 117.174H-2.48194e-07L0.205916 100.865L1.47014 3.06282e-07H32.8317L34.3018 117.174Z" transform="translate(5.29004 10.2174) scale(0.5)" fill="#C51200"/>
<path d="M12.4515 3.06282e-07V100.865H1.74264e-07L1.26422 3.06282e-07H12.4515Z" transform="translate(5.39355 10.2174) scale(0.5)" fill="#AA0A02"/>
<path d="M33.7131 24.5054H6.33687e-08L0.238447 4.51528L0.241909 4.20103L0.292782 -5.0695e-06H33.4169L33.7131 24.5054Z" transform="translate(5.43945 45.2687) scale(0.5)" fill="#E9EAEF"/>
<path d="M32.4776 24.5061H1.05614e-08L0.292436 -9.29408e-07H32.1814L32.4776 24.5061Z" transform="translate(5.74805 20.7631) scale(0.5)" fill="#E9EAEF"/>
<path d="M11.7435 -9.29408e-07V24.5061H1.05614e-08L0.292436 -9.29408e-07H11.7435Z" transform="translate(5.74805 20.7631) scale(0.5)" fill="#D6D6D8"/>
<path d="M12.3612 -5.0695e-06V24.5054H6.33687e-08L0.238447 4.51528L0.241909 4.20103L0.296242 -5.0695e-06H12.3612Z" transform="translate(5.43945 45.2687) scale(0.5)" fill="#D6D6D8"/>
<path d="M2.07004e-06 117.173H34.3018L32.831 -5.91441e-07H1.47083L2.07004e-06 117.173Z" transform="translate(29.9746 14.7328) scale(0.5)" fill="#E9EAEF"/>
<path d="M-2.28127e-06 24.5054H32.478L32.1838 1.18288e-06H0.294514L-2.28127e-06 24.5054Z" transform="translate(30.4307 25.2794) scale(0.5)" fill="#C51200"/>
<path d="M12.4512 -5.91441e-07V100.865H2.11229e-06L1.26422 -5.91441e-07H12.4512Z" transform="translate(30.0781 14.7328) scale(0.5)" fill="#D6D6D8"/>
<path d="M11.7431 -8.87162e-07V24.5054H-1.35187e-06L0.292435 -8.87162e-07H11.7431Z" transform="translate(30.4326 25.2789) scale(0.5)" fill="#AA0A02"/>
<path d="M141.681 1.52085e-06V35.3193L106.361 1.52085e-06V35.3193L71.0425 1.52085e-06V35.3193H3.46548e-09V108.282H177V35.3193L141.681 1.52085e-06Z" transform="translate(0 34.455) scale(0.5)" fill="#CBD0D8"/>
<path d="M21.1315 0H0V42.8015H21.1315V0Z" transform="translate(70.2285 60.0048) scale(0.5)" fill="#A0D9F2"/>
<path d="M21.1315 0H2.19678e-06V42.8015H21.1315V0Z" transform="translate(37.8555 60.0048) scale(0.5)" fill="#A0D9F2"/>
<path d="M21.1315 0H1.94331e-06V42.8015H21.1315V0Z" transform="translate(54.042 60.0048) scale(0.5)" fill="#A0D9F2"/>
<path d="M23.2979 47.1378H2.16749C0.970752 47.1378 3.9711e-06 46.1671 3.9711e-06 44.9704V2.16748C3.9711e-06 0.970744 0.970752 -3.9711e-06 2.16749 -3.9711e-06H23.2979C24.4947 -3.9711e-06 25.4654 0.970744 25.4654 2.16748V44.9704C25.4654 46.1674 24.4947 47.1378 23.2979 47.1378ZM4.33497 42.8032H21.1308V4.33496H4.33497V42.8032Z" transform="translate(69.1445 58.9209) scale(0.5)" fill="#525C66"/>
<path d="M4.33462 0H0V42.8015H4.33462V0Z" transform="translate(74.4277 60.0048) scale(0.5)" fill="#525C66"/>
<path d="M21.1315 4.56255e-06H0V4.33462H21.1315V4.56255e-06Z" transform="translate(70.2285 69.6223) scale(0.5)" fill="#525C66"/>
<path d="M23.2979 47.1378H2.16749C0.970749 47.1378 1.64759e-06 46.1671 1.64759e-06 44.9704V2.16748C1.64759e-06 0.970744 0.970749 -3.9711e-06 2.16749 -3.9711e-06H23.2979C24.4947 -3.9711e-06 25.4654 0.970744 25.4654 2.16748V44.9704C25.4651 46.1674 24.4947 47.1378 23.2979 47.1378ZM4.33462 42.8032H21.1305V4.33496H4.33462V42.8032Z" transform="translate(36.7715 58.9209) scale(0.5)" fill="#525C66"/>
<path d="M4.33462 0H0V42.8015H4.33462V0Z" transform="translate(42.0547 60.0048) scale(0.5)" fill="#525C66"/>
<path d="M21.1315 4.56255e-06H2.19678e-06V4.33462H21.1315V4.56255e-06Z" transform="translate(37.8555 69.6223) scale(0.5)" fill="#525C66"/>
<path d="M23.2979 47.1378H2.16748C0.970744 47.1378 -3.88661e-06 46.1671 -3.88661e-06 44.9704V2.16748C-3.88661e-06 0.970744 0.970744 -3.9711e-06 2.16748 -3.9711e-06H23.2979C24.4947 -3.9711e-06 25.4654 0.970744 25.4654 2.16748V44.9704C25.4654 46.1674 24.4947 47.1378 23.2979 47.1378ZM4.33463 42.8032H21.1305V4.33496H4.33463V42.8032Z" transform="translate(52.958 58.9209) scale(0.5)" fill="#525C66"/>
<path d="M4.33462 0H0V42.8015H4.33462V0Z" transform="translate(58.2412 60.0048) scale(0.5)" fill="#525C66"/>
<path d="M47.5227 0H0V57.1817H47.5227V0Z" transform="translate(6.16016 60.0048) scale(0.5)" fill="#C51200"/>
<path d="M21.1315 4.56255e-06H1.94331e-06V4.33462H21.1315V4.56255e-06Z" transform="translate(54.042 69.6223) scale(0.5)" fill="#525C66"/>
<path d="M51.8573 59.3495H47.5227V4.33462H4.33462V59.3495H2.11229e-08V2.16748C2.11229e-08 0.970746 0.970748 -1.52085e-06 2.16748 -1.52085e-06H49.6902C50.8869 -1.52085e-06 51.8577 0.970746 51.8577 2.16748V59.3495H51.8573Z" transform="translate(5.07617 58.9211) scale(0.5)" fill="#525C66"/>
<path d="M4.33462 0H0V57.1817H4.33462V0Z" transform="translate(17.2666 60.0048) scale(0.5)" fill="#525C66"/>
</svg>
