<svg width="197" height="89" viewBox="0 0 197 89" fill="none" xmlns="http://www.w3.org/2000/svg">
<path d="M5.9 0V53.69C5.9 55.165 5.31 56.64 4.13 57.82L1.77 60.18C0.59 61.36 0 62.835 0 64.31V64.9C0 68.145 2.655 70.8 5.9 70.8H6.49C7.965 70.8 9.44 70.21 10.62 69.03L12.98 66.67C14.16 65.49 15.635 64.9 17.11 64.9H71.095C72.57 64.9 74.045 65.49 75.225 66.67L77.585 69.03C78.765 70.21 80.24 70.8 81.715 70.8H82.6C85.845 70.8 88.5 68.145 88.5 64.9V64.31C88.5 62.835 87.91 61.36 86.73 60.18L84.37 57.82C83.19 56.64 82.6 55.165 82.6 53.69V0" transform="translate(0 53.1) scale(0.5)" fill="#867668"/>
<path d="M53.1 106.2C82.4263 106.2 106.2 82.4263 106.2 53.1C106.2 23.7737 82.4263 0 53.1 0C23.7737 0 0 23.7737 0 53.1C0 82.4263 23.7737 106.2 53.1 106.2Z" transform="translate(35.4004) scale(0.5)" fill="#A7A9AB"/>
<path d="M0 12.095C6.785 40.71 35.4 58.115 64.015 51.33C83.78 46.61 99.12 30.975 103.25 11.21L62.54 1.18C59 0.295 55.46 1.12534e-06 51.92 1.12534e-06H51.625C47.79 1.12534e-06 43.955 0.590001 40.12 1.475L1.475 11.505L0 12.095Z" transform="translate(36.1377 26.6975) scale(0.5)" fill="#867668"/>
<path d="M8.85 35.4C3.835 35.4 0 31.565 0 26.55C0 21.535 3.835 17.7 8.85 17.7H9.44C7.67 12.98 10.325 7.965 14.75 6.49C19.175 5.015 24.485 7.375 25.96 11.8C26.255 12.685 26.55 13.865 26.55 14.75C26.55 9.735 30.385 5.9 35.4 5.9C40.415 5.9 44.25 9.735 44.25 14.75V11.8C44.25 5.31 49.56 0 56.05 0C62.54 0 67.85 5.31 67.85 11.8C67.85 13.865 67.26 15.93 66.375 17.7H67.85C72.865 17.7 76.7 21.535 76.7 26.55C76.7 31.565 72.865 35.4 67.85 35.4H8.85Z" transform="translate(2.9502 23.6) scale(0.5)" fill="#976750"/>
<path d="M88.5 23.6V5.9C88.5 2.655 85.845 0 82.6 0H5.9C2.655 0 0 2.655 0 5.9V23.6H88.5Z" transform="translate(0 41.3) scale(0.5)" fill="#ADA08F"/>
<path d="M5.9 -2.25067e-06H0V21.24H5.9V-2.25067e-06Z" transform="translate(20.6504 69.03) scale(0.5)" fill="#976750"/>
<path d="M17.7 0H0V5.9H17.7V0Z" transform="translate(17.7002 78.175) scale(0.5)" fill="#976750"/>
<path d="M14.75 0H0V5.9H14.75V0Z" transform="translate(2.9502 57.525) scale(0.5)" fill="#ADA08F"/>
<path d="M14.75 0H0V5.9H14.75V0Z" transform="translate(33.9248 57.525) scale(0.5)" fill="#ADA08F"/>
<path d="M14.75 0H0V5.9H14.75V0Z" transform="translate(2.9502 78.175) scale(0.5)" fill="#ADA08F"/>
<path d="M14.75 0H0V5.9H14.75V0Z" transform="translate(33.9248 78.175) scale(0.5)" fill="#ADA08F"/>
<path d="M88.5 0H0V5.9H88.5V0Z" transform="translate(0 45.725) scale(0.5)" fill="#867668"/>
<path d="M5.9 0H0V68.44H5.9V0Z" transform="translate(60.4746 14.455) scale(0.5)" fill="#976750"/>
<path d="M64.9 16.815L59.885 11.8H55.165C54.28 11.8 53.69 11.505 53.1 10.915L48.085 5.9H20.945L15.93 10.915C15.34 11.505 14.75 11.8 13.865 11.8H9.14501L4.13 16.815L-2.25067e-06 12.685L5.9 6.785C6.49 6.195 7.08 5.9 7.965 5.9H12.685L17.7 0.884998C18.29 0.294998 18.88 0 19.765 0H49.265C50.15 0 50.74 0.294998 51.33 0.884998L56.345 5.9H61.065C61.95 5.9 62.54 6.195 63.13 6.785L69.03 12.685L64.9 16.815Z" transform="translate(44.6924 30.975) scale(0.5)" fill="#724D35"/>
<path d="M41.3 11.8H35.4C34.515 11.8 33.925 11.505 33.335 10.915L28.32 5.9H12.98L7.965 10.915C7.375 11.505 6.785 11.8 5.9 11.8H0V5.9H4.72L9.735 0.884998C10.325 0.294998 10.915 0 11.8 0H29.5C30.385 0 30.975 0.294998 31.565 0.884998L36.58 5.9H41.3V11.8Z" transform="translate(51.625 36.875) scale(0.5)" fill="#724D35"/>
<path d="M0 17.7V11.8C0 5.31 5.31 0 11.8 0V5.9C11.8 12.39 6.49 17.7 0 17.7Z" transform="translate(61.9502 5.90002) scale(0.5)" fill="#89A74D"/>
<path d="M0 0C6.49 0 11.8 5.31 11.8 11.8V17.7C5.31 17.7 0 12.39 0 5.9V0Z" transform="translate(56.0498 8.84998) scale(0.5)" fill="#4E6F3A"/>
<path d="M0 17.7V11.8C0 5.31 5.31 0 11.8 0V5.9C11.8 12.39 6.49 17.7 0 17.7Z" transform="translate(22.125 60.475) scale(0.5)" fill="#89A74D"/>
<path d="M0 0C6.49 0 11.8 5.31 11.8 11.8V17.7C5.31 17.7 0 12.39 0 5.9V0Z" transform="translate(16.2246 63.425) scale(0.5)" fill="#4E6F3A"/>
<path d="M37.4646 0H-2.47574e-06V5.9H37.4646V0Z" transform="translate(159.626 36.2603) scale(0.499995) rotate(135)" fill="#7D828C"/>
<path d="M29.5 59C45.7924 59 59 45.7924 59 29.5C59 13.2076 45.7924 0 29.5 0C13.2076 0 0 13.2076 0 29.5C0 45.7924 13.2076 59 29.5 59Z" transform="translate(108.5 58.75) scale(0.5)" fill="#7D828C"/>
<path d="M20.65 0C9.145 0 0 9.145 0 20.65V30.09C15.93 26.845 31.565 37.17 34.81 53.1C35.105 55.165 35.4 56.935 35.4 59H47.2V0H20.65Z" transform="translate(120.3 44) scale(0.5)" fill="#BF7D2C"/>
<path d="M11.8 23.6C18.317 23.6 23.6 18.317 23.6 11.8C23.6 5.28304 18.317 0 11.8 0C5.28304 0 0 5.28304 0 11.8C0 18.317 5.28304 23.6 11.8 23.6Z" transform="translate(117.35 67.6) scale(0.5)" fill="#A4A5A6"/>
<path d="M11.8 0H0V29.5H11.8V0Z" transform="translate(135.05 38.1) scale(0.5)" fill="#7D828C"/>
<path d="M5.9 0H0V26.55H5.9V0Z" transform="translate(136.525 24.825) scale(0.5)" fill="#5C6373"/>
<path d="M0 11.8H76.7V0H11.8L0 11.8Z" transform="translate(146.85 14.5) scale(0.5)" fill="#7D828C"/>
<path d="M35.4 70.8C54.9509 70.8 70.8 54.9509 70.8 35.4C70.8 15.8491 54.9509 0 35.4 0C15.8491 0 0 15.8491 0 35.4C0 54.9509 15.8491 70.8 35.4 70.8Z" transform="translate(161.6 52.85) scale(0.5)" fill="#7D828C"/>
<path d="M11.8 47.2C11.8 27.73 27.435 11.8 46.61 11.8C48.675 11.8 50.445 11.8 52.51 12.39L53.1 11.8V0H32.45L0 23.6V53.1H11.8L12.39 52.51C12.095 50.74 11.8 48.97 11.8 47.2Z" transform="translate(155.7 46.95) scale(0.5)" fill="#DFA738"/>
<path d="M20.65 11.8L29.5 17.7H41.3V0H11.8L0 11.8H20.65Z" transform="translate(176.35 41.05) scale(0.5)" fill="#BF7D2C"/>
<path d="M26.55 68.145H2.95C1.18 68.145 0 66.965 0 65.195V29.795H5.9V62.245H23.6V29.795C23.6 28.91 24.19 28.025 24.78 27.435L62.54 -1.12534e-06L66.08 4.72L29.5 31.27V65.195C29.5 66.965 28.32 68.145 26.55 68.145Z" transform="translate(142.425 43.8525) scale(0.5)" fill="#7D828C"/>
<path d="M17.7 35.4C27.4754 35.4 35.4 27.4754 35.4 17.7C35.4 7.92456 27.4754 0 17.7 0C7.92456 0 0 7.92456 0 17.7C0 27.4754 7.92456 35.4 17.7 35.4Z" transform="translate(170.45 61.7) scale(0.5)" fill="#A4A5A6"/>
<path d="M20.65 0V17.7C20.65 19.47 19.47 20.65 17.7 20.65H0C0 18.585 0.295001 16.52 0.885001 14.75H14.75V0.884998C16.815 0.294998 18.585 0 20.65 0Z" transform="translate(120.3 44) scale(0.5)" fill="#7D828C"/>
<path d="M0 23.6V35.4H17.7V0H5.9V23.6H0Z" transform="translate(138 41.05) scale(0.5)" fill="#5C6373"/>
<path d="M5.9 0H3.78113e-06V16.815H5.9V0Z" transform="translate(162.716 37.1323) scale(0.499995) rotate(135)" fill="#7D828C"/>
<path d="M0 32.45V20.65H17.7V0H35.4V20.65L23.6 32.45H0Z" transform="translate(164.55 30.725) scale(0.5)" fill="#656A73"/>
<path d="M23.6 0H0V5.9H23.6V0Z" transform="translate(143.899 63.175) scale(0.5)" fill="#7D828C"/>
<path d="M23.6 0H0V5.9H23.6V0Z" transform="translate(143.899 69.075) scale(0.5)" fill="#7D828C"/>
<path d="M11.8 10.915H0V5.015H10.62L15.635 -2.25067e-06L19.765 4.13L13.865 10.03C13.275 10.62 12.685 10.915 11.8 10.915Z" transform="translate(146.85 48.8675) scale(0.5)" fill="#7D828C"/>
<path d="M5.9 0H0V20.65H5.9V0Z" transform="translate(179.3 20.4) scale(0.5)" fill="#7D828C"/>
</svg>
