<svg width="110" height="80" viewBox="0 0 110 80" fill="none" xmlns="http://www.w3.org/2000/svg">
<path d="M199.977 3.40939e-07H20.0196C8.98047 3.40939e-07 0 8.96502 0 19.9805V140.02C0 151.035 8.98047 160 20.0196 160H199.977C211.016 160 220 151.035 220 140.02V19.9805C220 8.96502 211.016 3.40939e-07 199.977 3.40939e-07Z" transform="scale(0.5)" fill="#314E55"/>
<path d="M204 132.02C204 138.625 198.606 144 191.977 144H12.0197C5.39086 144 1.3113e-08 138.625 1.3113e-08 132.02V11.9805C1.3113e-08 5.37496 5.39043 -1.28508e-06 12.0197 -1.28508e-06H191.977C198.606 -1.28508e-06 204 5.37496 204 11.9805V132.02Z" transform="translate(4.01562 4.00024) scale(0.5)" fill="white"/>
<path d="M184 -1.49489e-06H3.99995C1.78922 -1.49489e-06 2.6226e-08 1.78922 2.6226e-08 3.99996V40.0001V76.0002V112C2.6226e-08 114.211 1.78922 116 3.99995 116H184C186.21 116 188 114.211 188 112V76.0002V40.0001V3.99996C188 1.78879 186.211 -1.49489e-06 184 -1.49489e-06Z" transform="translate(7.99023 12.0009) scale(0.5)" fill="#314E55"/>
<path d="M11.9999 30.8645C5.11757 29.0761 -3.14712e-07 22.8671 -3.14712e-07 15.4322C-3.14712e-07 7.99734 5.118 1.78879 11.9999 -1.2064e-06V30.8645Z" transform="translate(48.0273 34.2842) scale(0.5)" fill="#5ECB66"/>
<path d="M-4.61578e-06 -1.2064e-06C6.88229 1.78879 11.9999 7.99777 11.9999 15.4322C11.9999 22.8667 6.88186 29.0757 -4.61578e-06 30.8645V-1.2064e-06Z" transform="translate(58.002 34.2842) scale(0.5)" fill="#5ECB66"/>
<path d="M11.9999 0H0V28.0002H11.9999V0Z" transform="translate(12.0059 34.0007) scale(0.5)" fill="#5ECB66"/>
<path d="M-1.96696e-07 72.0001H15.9999C18.2106 72.0001 19.9998 70.2109 19.9998 68.0002V32.0001C19.9998 29.7894 18.2106 28.0001 15.9999 28.0001H-1.96696e-07V1.57356e-07H84.0001V28.3611C72.6675 30.2741 64.0003 40.1306 64.0003 51.9999C64.0003 63.8692 72.668 73.7253 84.0001 75.6387V99.9998H-1.96696e-07V72.0001Z" transform="translate(12.0068 15.9997) scale(0.5)" fill="#5ECB66"/>
<path d="M-4.61579e-06 99.9998V75.6387C11.3326 73.7257 19.9998 63.8691 19.9998 51.9999C19.9998 40.1306 11.3322 30.2745 -4.61579e-06 28.3611V1.57356e-07H80.0002V28.0001H64.0003C61.7896 28.0001 60.0004 29.7893 60.0004 32.0001V68.0001C60.0004 70.2109 61.7896 72.0001 64.0003 72.0001H80.0002V100H-4.61579e-06V99.9998Z" transform="translate(58.002 15.9992) scale(0.5)" fill="#5ECB66"/>
<path d="M11.9999 0H-5.55991e-06V28.0002H11.9999V0Z" transform="translate(91.9912 34.0007) scale(0.5)" fill="#5ECB66"/>
</svg>
