<svg width="272" height="216" viewBox="0 0 272 216" fill="none" xmlns="http://www.w3.org/2000/svg">
<path d="M3.64775e-07 6.4933e-08V9.39125C3.64775e-07 11.9855 2.09867 14.0869 4.68954 14.0869H14.0686C16.6595 14.0869 18.7582 11.9855 18.7582 9.39125V6.4933e-08H3.64775e-07Z" transform="translate(18.7559 187.826) scale(2)" fill="#555160"/>
<path d="M14.0689 32.8696L1.37406 45.5807C0.494852 46.4613 0 47.6563 0 48.9005V84.5218C0 89.7081 4.19947 93.913 9.37908 93.913H126.619C131.799 93.913 135.998 89.7081 135.998 84.5218V48.9005C135.998 47.656 135.503 46.461 134.624 45.5807L121.929 32.8694L106.812 2.59662C106.017 1.00482 104.395 -1.05516e-07 102.617 -1.05516e-07H31.2304C29.3546 -1.05516e-07 27.6594 1.11998 26.9207 2.84557L14.0689 32.8696Z" transform="scale(2)" fill="#FFBC05"/>
<path d="M0 4.69563C0 7.28986 2.09867 9.39125 4.68954 9.39125H14.0686V4.69563C14.0686 2.1014 11.9699 3.89598e-07 9.37908 3.89598e-07H4.68954C2.09867 3.89598e-07 0 2.10113 0 4.69563Z" transform="translate(0 42.2605) scale(2)" fill="#FFBC05"/>
<path d="M-9.07885e-07 4.69563V9.39125H9.37908C11.9699 9.39125 14.0686 7.28986 14.0686 4.69563C14.0686 2.1014 11.9699 3.89598e-07 9.37908 3.89598e-07H4.68981C2.09867 3.89598e-07 -9.07885e-07 2.10113 -9.07885e-07 4.69563Z" transform="translate(243.861 42.2603) scale(2)" fill="#FFBC05"/>
<path d="M-1.29698e-07 35.2596H70.3439C75.5235 35.2596 79.723 31.0547 79.723 25.8684V2.46746e-06C59.3068 22.4874 30.3509 35.2926 -1.29698e-07 35.2596Z" transform="translate(112.549 117.307) scale(2)" fill="#E38100"/>
<path d="M53.9304 -7.79197e-07L60.9648 7.04357L51.5855 32.8699H9.37935L-7.13338e-07 7.04357L7.03444 -7.79197e-07H53.9304Z" transform="translate(75.0332 103.304) scale(2)" fill="#2B2733"/>
<path d="M28.1375 11.7392L23.448 5.84397e-07H3.64775e-07V11.7392H28.1375Z" transform="translate(18.7617 145.565) scale(2)" fill="#2B2733"/>
<path d="M7.13338e-07 11.7392L4.68954 5.84397e-07H28.1375V11.7392H7.13338e-07Z" transform="translate(196.961 145.564) scale(2)" fill="#2B2733"/>
<path d="M3.64775e-07 7.04357V-7.79196e-07H10.0639C13.9 -7.79196e-07 17.3467 2.33837 18.7725 5.90257L21.1033 11.7392H4.68981C2.09867 11.7392 3.64775e-07 9.63807 3.64775e-07 7.04357Z" transform="translate(18.7559 103.305) scale(2)" fill="#EDEDEE"/>
<path d="M4.68981 0H0V33.614H4.68981V0Z" transform="matrix(-1.95549 0.41952 -0.418481 -1.95571 112.441 168.064)" fill="#555160"/>
<path d="M4.68745 2.01291e-06H0V32.9649H4.68745V2.01291e-06Z" transform="matrix(-1.99499 0.142784 -0.142416 -1.99501 126.611 168.726)" fill="#555160"/>
<path d="M4.68954 0H0V32.8696H4.68954V0Z" transform="translate(131.305 103.305) scale(2)" fill="#555160"/>
<path d="M32.9407 -2.65882e-06H0V4.68505H32.9407V-2.65882e-06Z" transform="matrix(-0.141817 1.99501 -1.99499 -0.142183 159.295 103.665)" fill="#555160"/>
<path d="M33.6143 0H0V4.68981H33.6143V0Z" transform="matrix(-0.41948 1.95551 -1.95529 -0.420521 182.807 104.316)" fill="#555160"/>
<path d="M55.9401 37.5655H10.4509L-1.91304e-06 8.78804L8.77665 -1.55839e-06H57.614L66.3907 8.78804L55.9401 37.5655ZM13.7337 32.8699H52.6573L60.9648 9.99499L55.6726 4.69589H10.7183L5.42611 9.99499L13.7337 32.8699Z" transform="translate(69.6035 98.6074) scale(2)" fill="#555160"/>
<path d="M9.37935 2.59732e-07H75.0334L84.4128 23.4784H-8.43036e-07L9.37935 2.59732e-07Z" transform="translate(51.5859 18.7817) scale(2)" fill="#23AEC8"/>
<path d="M37.6667 2.59732e-07C27.1667 10.7296 14.2492 18.7804 8.7546e-07 23.4784H55.1238L45.7447 2.59732e-07H37.6667Z" transform="translate(110.164 18.7817) scale(2)" fill="#1967A3"/>
<path d="M21.1033 7.04357V-7.79196e-07H11.0395C7.20338 -7.79196e-07 3.75668 2.33837 2.33082 5.90257L-7.13338e-07 11.7392H16.4135C19.0047 11.7392 21.1033 9.63807 21.1033 7.04357Z" transform="translate(211.031 103.305) scale(2)" fill="#EDEDEE"/>
<path d="M12.6853 -1.36359e-06C10.3568 4.89988 5.42106 8.02259 9.72733e-07 8.02498H9.37908C11.9699 8.02498 14.0686 5.92119 14.0686 3.32936C14.0662 2.07799 13.5693 0.880611 12.6853 -1.36359e-06Z" transform="translate(243.863 44.9941) scale(2)" fill="#E38100"/>
<path d="M9.6888 -1.36359e-06C7.81989 3.92565 4.24197 6.76644 3.64775e-08 7.69625C0.539211 7.90982 1.11375 8.02259 1.69307 8.02498H11.0722V3.32936C11.0724 2.08038 10.5752 0.880611 9.6888 -1.36359e-06Z" transform="translate(5.99609 44.9941) scale(2)" fill="#E38100"/>
<path d="M17.8535 12.1429C18.4397 11.3448 18.7563 10.382 18.7584 9.39125V6.4933e-08H3.64775e-07V2.46524C7.02515 3.10382 13.4779 6.60207 17.8535 12.1429Z" transform="translate(18.7559 187.826) scale(2)" fill="#3B3944"/>
<path d="M6.48489e-08 6.4933e-08V9.39125C6.48489e-08 11.9855 2.09867 14.0869 4.68954 14.0869H14.0686C16.6595 14.0869 18.7582 11.9855 18.7582 9.39125V6.4933e-08H6.48489e-08Z" transform="translate(215.721 187.826) scale(2)" fill="#555160"/>
<path d="M17.8535 12.1429C18.4397 11.3448 18.7563 10.382 18.7584 9.39125V6.4933e-08H-1.81577e-06V2.46524C7.02515 3.10382 13.4781 6.60207 17.8535 12.1429Z" transform="translate(215.721 187.826) scale(2)" fill="#3B3944"/>
</svg>
