<svg width="89" height="89" viewBox="0 0 89 89" fill="none" xmlns="http://www.w3.org/2000/svg">
<path d="M100.3 0V29.5H0V0" transform="translate(11.7998 73.75) scale(0.5)" fill="#B6B3B8"/>
<path d="M0 59H53.1V0H0" transform="translate(59 59) scale(0.5)" fill="#D3D2D6"/>
<path d="M0 17.7H59V0H0" transform="translate(59 50.15) scale(0.5)" fill="#46709C"/>
<path d="M59 0H0V112.1H59V0Z" transform="translate(23.6001 11.8) scale(0.5)" fill="white"/>
<path d="M11.8 0H0V23.6H11.8" transform="scale(0.5)" fill="#46709C"/>
<path d="M0 0H76.7V23.6H0" transform="translate(23.6001) scale(0.5)" fill="#46709C"/>
<path d="M5.9 0H0V29.5H5.9V0Z" transform="translate(2.9502 72.275) scale(0.5)" fill="#B6B3B8"/>
<path d="M17.7 0H0V5.9H17.7V0Z" transform="translate(0 85.55) scale(0.5)" fill="#B6B3B8"/>
<path d="M23.6 0H0V17.7H23.6V0Z" transform="translate(17.6997 79.65) scale(0.5)" fill="#789DC3"/>
<path d="M11.8 0H0V5.9H11.8V0Z" transform="translate(33.9248 78.175) scale(0.5)" fill="#789DC3"/>
<path d="M11.8 0H0V5.9H11.8V0Z" transform="translate(42.7749 78.175) scale(0.5)" fill="#789DC3"/>
<path d="M11.8 0H0V5.9H11.8V0Z" transform="translate(51.6245 78.175) scale(0.5)" fill="#789DC3"/>
<path d="M123.9 135.7V147.5H0V135.7H11.8V0H47.2V135.7H123.9Z" transform="scale(0.5)" fill="#D3D2D6"/>
<path d="M5.9 0H0V17.7H5.9V0Z" transform="translate(13.2749 4.42499) scale(0.5)" fill="#C1272D"/>
<path d="M17.7 0H0V5.9H17.7V0Z" transform="translate(10.3247 7.375) scale(0.5)" fill="#C1272D"/>
<path d="M11.8 0H0V112.1H11.8V0Z" transform="translate(53.1001 11.8) scale(0.5)" fill="#D3D2D6"/>
<path d="M11.8 0H0V5.9H11.8V0Z" transform="translate(28.0249 16.225) scale(0.5)" fill="#789DC3"/>
<path d="M5.9 0H0V112.1H5.9V0Z" transform="translate(36.875 11.8) scale(0.5)" fill="#789DC3"/>
<path d="M11.8 0H0V5.9H11.8V0Z" transform="translate(42.7749 16.225) scale(0.5)" fill="#789DC3"/>
<path d="M59 0H0V5.9H59V0Z" transform="translate(23.6001 22.125) scale(0.5)" fill="#789DC3"/>
<path d="M11.8 0H0V5.9H11.8V0Z" transform="translate(28.0249 28.025) scale(0.5)" fill="#789DC3"/>
<path d="M11.8 0H0V5.9H11.8V0Z" transform="translate(42.7749 28.025) scale(0.5)" fill="#789DC3"/>
<path d="M59 0H0V5.9H59V0Z" transform="translate(23.6001 33.925) scale(0.5)" fill="#789DC3"/>
<path d="M11.8 0H0V5.9H11.8V0Z" transform="translate(28.0249 39.825) scale(0.5)" fill="#789DC3"/>
<path d="M11.8 0H0V5.9H11.8V0Z" transform="translate(42.7749 39.825) scale(0.5)" fill="#789DC3"/>
<path d="M59 0H0V5.9H59V0Z" transform="translate(23.6001 45.725) scale(0.5)" fill="#789DC3"/>
<path d="M11.8 0H0V5.9H11.8V0Z" transform="translate(28.0249 51.625) scale(0.5)" fill="#789DC3"/>
<path d="M11.8 0H0V5.9H11.8V0Z" transform="translate(42.7749 51.625) scale(0.5)" fill="#789DC3"/>
<path d="M59 0H0V5.9H59V0Z" transform="translate(23.6001 57.525) scale(0.5)" fill="#789DC3"/>
<path d="M17.7 0H0V5.9H17.7V0Z" transform="translate(0 76.7) scale(0.5)" fill="#B6B3B8"/>
<path d="M35.4 0H0V5.9H35.4V0Z" transform="translate(5.8999 28.025) scale(0.5)" fill="#789DC3"/>
<path d="M35.4 0H0V5.9H35.4V0Z" transform="translate(5.8999 39.825) scale(0.5)" fill="#789DC3"/>
<path d="M35.4 0H0V5.9H35.4V0Z" transform="translate(5.8999 51.625) scale(0.5)" fill="#789DC3"/>
<path d="M5.9 0H0V70.8H5.9V0Z" transform="translate(13.2749 29.5) scale(0.5)" fill="#789DC3"/>
<path d="M35.4 0H0V5.9H35.4V0Z" transform="translate(5.8999 63.425) scale(0.5)" fill="#789DC3"/>
<path d="M64.9 0H0V5.9H64.9V0Z" transform="translate(23.6001 4.42499) scale(0.5)" fill="#789DC3"/>
<path d="M5.9 0H0V23.6H5.9V0Z" transform="translate(54.5747) scale(0.5)" fill="#789DC3"/>
<path d="M11.8 0H0V5.9H11.8V0Z" transform="translate(75.2251 63.425) scale(0.5)" fill="#789DC3"/>
<path d="M11.8 0H0V5.9H11.8V0Z" transform="translate(66.375 63.425) scale(0.5)" fill="#789DC3"/>
<path d="M38.35 0H0V5.9H38.35V0Z" transform="translate(66.375 69.325) scale(0.5)" fill="#789DC3"/>
<path d="M38.35 0H0V5.9H38.35V0Z" transform="translate(61.9497 75.225) scale(0.5)" fill="#789DC3"/>
<path d="M38.35 0H0V5.9H38.35V0Z" transform="translate(66.375 81.125) scale(0.5)" fill="#789DC3"/>
</svg>
