<svg width="872" height="872" viewBox="0 0 872 872" fill="none" xmlns="http://www.w3.org/2000/svg">
<path d="M95.1414 3.18782e-07H193.521V198.734H-3.44337e-07V3.18782e-07H26.6497" transform="translate(48.9648 46.1191) scale(4)" fill="#ECEDF2"/>
<path d="M95.1414 3.18782e-07H193.521V20.4325H-3.44337e-07V3.18782e-07H26.6497" transform="translate(48.9648 46.1191) scale(4)" fill="#C6CAD5"/>
<path d="M81.0054 15.4722H205.76H214.45C216.41 15.4722 217.999 13.8815 217.999 11.9185V3.55372C217.999 1.59118 216.41 1.23609e-07 214.45 1.23609e-07H90.1538H56.1104H3.54889C1.58902 1.23609e-07 0 1.59075 0 3.55372V11.9189C0 13.8815 1.58859 15.4726 3.54889 15.4726H12.2391H59.1722" transform="translate(0.00390625 15.1753) scale(4)" fill="#525C66"/>
<path d="M40.0942 80.2973C62.2376 80.2973 80.1884 62.3222 80.1884 40.1487C80.1884 17.9752 62.2376 0 40.0942 0C17.9508 0 0 17.9752 0 40.1487C0 62.3222 17.9508 80.2973 40.0942 80.2973Z" transform="translate(132.176 17.8184) scale(4)" fill="#C6CAD5"/>
<path d="M40.0942 80.2973C62.2376 80.2973 80.1884 62.3222 80.1884 40.1487C80.1884 17.9752 62.2376 0 40.0942 0C17.9508 0 0 17.9752 0 40.1487C0 62.3222 17.9508 80.2973 40.0942 80.2973Z" transform="translate(132.176) scale(4)" fill="white"/>
<path d="M48.6039 17.3414H34.8362C33.8561 17.3414 33.0611 16.5458 33.0611 15.5639V1.7775C33.0611 0.796015 32.2666 -1.95173e-07 31.286 -1.95173e-07H19.0929C18.1128 -1.95173e-07 17.3178 0.795589 17.3178 1.7775V15.5643C17.3178 16.5458 16.5233 17.3418 15.5427 17.3418H1.77509C0.794936 17.3418 1.19543e-06 18.1374 1.19543e-06 19.1193V31.329C1.19543e-06 32.3105 0.79451 33.1065 1.77509 33.1065H15.5427C16.5229 33.1065 17.3178 33.9021 17.3178 34.884V48.6704C17.3178 49.6518 18.1123 50.4479 19.0929 50.4479H31.286C32.2662 50.4479 33.0611 49.6523 33.0611 48.6704V34.884C33.0611 33.9025 33.8556 33.1065 34.8362 33.1065H48.6039C49.584 33.1065 50.379 32.3109 50.379 31.329V19.1193C50.379 18.1374 49.5844 17.3414 48.6039 17.3414Z" transform="translate(191.789 59.7021) scale(4)" fill="#D81616"/>
<path d="M21.6825 0H4.36593e-06V39.6473H21.6825V0Z" transform="translate(535.672 375.093) scale(4)" fill="#A0D9F2"/>
<path d="M21.6825 0H0V39.6473H21.6825V0Z" transform="translate(249.602 375.093) scale(4)" fill="#A0D9F2"/>
<path d="M21.6825 0H3.01457e-06V39.6473H21.6825V0Z" transform="translate(678.691 375.093) scale(4)" fill="#A0D9F2"/>
<path d="M21.6825 0H0V39.6473H21.6825V0Z" transform="translate(392.629 375.093) scale(4)" fill="#A0D9F2"/>
<path d="M21.6825 0H0V39.6473H21.6825V0Z" transform="translate(106.586 375.093) scale(4)" fill="#A0D9F2"/>
<path d="M21.6825 2.08184e-06H0V39.6473H21.6825V2.08184e-06Z" transform="translate(249.602 587.575) scale(4)" fill="#A0D9F2"/>
<path d="M21.6825 2.08184e-06H0V39.6473H21.6825V2.08184e-06Z" transform="translate(392.629 587.575) scale(4)" fill="#A0D9F2"/>
<path d="M21.6825 2.08184e-06H0V39.6473H21.6825V2.08184e-06Z" transform="translate(106.586 587.575) scale(4)" fill="#A0D9F2"/>
<path d="M21.6825 0H4.36593e-06V39.6473H21.6825V0Z" transform="translate(535.672 162.587) scale(4)" fill="#A0D9F2"/>
<path d="M21.6825 0H3.01457e-06V39.6473H21.6825V0Z" transform="translate(678.691 162.587) scale(4)" fill="#A0D9F2"/>
<path d="M24.3517 44.993H2.66922C1.19517 44.993 3.01457e-06 43.7958 3.01457e-06 42.3201V2.67285C3.01457e-06 1.19679 1.19559 -7.28644e-07 2.66922 -7.28644e-07H24.3517C25.8258 -7.28644e-07 27.021 1.19722 27.021 2.67285V42.3201C27.021 43.7962 25.8254 44.993 24.3517 44.993ZM5.33846 39.6469H21.6821V5.34571H5.33846V39.6469Z" transform="translate(524.992 364.402) scale(4)" fill="white"/>
<path d="M24.3517 44.993H2.66923C1.19517 44.993 3.1705e-06 43.7958 3.1705e-06 42.3201V2.67285C3.1705e-06 1.19679 1.1956 -7.28644e-07 2.66923 -7.28644e-07H24.3517C25.8258 -7.28644e-07 27.021 1.19722 27.021 2.67285V42.3201C27.021 43.7962 25.8254 44.993 24.3517 44.993ZM5.33846 39.6469H21.6821V5.34571H5.33846V39.6469Z" transform="translate(238.918 364.402) scale(4)" fill="white"/>
<path d="M24.3518 44.993H2.66922C1.19517 44.993 4.67778e-06 43.7958 4.67778e-06 42.3201V2.67285C4.67778e-06 1.19679 1.19559 -7.28644e-07 2.66922 -7.28644e-07H24.3518C25.8258 -7.28644e-07 27.021 1.19722 27.021 2.67285V42.3201C27.021 43.7962 25.8258 44.993 24.3518 44.993ZM5.33846 39.6469H21.6821V5.34571H5.33846V39.6469Z" transform="translate(668.031 364.402) scale(4)" fill="white"/>
<path d="M24.3517 44.993H2.66922C1.19517 44.993 -1.66321e-06 43.7958 -1.66321e-06 42.3201V2.67285C-1.66321e-06 1.19679 1.19559 -7.28644e-07 2.66922 -7.28644e-07H24.3517C25.8258 -7.28644e-07 27.021 1.19722 27.021 2.67285V42.3201C27.021 43.7962 25.8254 44.993 24.3517 44.993ZM5.33846 39.6469H21.6821V5.34571H5.33846V39.6469Z" transform="translate(381.941 364.402) scale(4)" fill="white"/>
<path d="M24.3513 44.993H2.66923C1.19517 44.993 1.16945e-07 43.7958 1.16945e-07 42.3201V2.67285C1.16945e-07 1.19679 1.1956 -7.28644e-07 2.66923 -7.28644e-07H24.3517C25.8258 -7.28644e-07 27.021 1.19722 27.021 2.67285V42.3201C27.021 43.7962 25.8258 44.993 24.3513 44.993ZM5.33845 39.6469H21.6821V5.34571H5.33845V39.6469Z" transform="translate(95.8906 364.402) scale(4)" fill="white"/>
<path d="M57.4393 -4.89232e-06H-4.67778e-06V55.6316L57.4393 60.087V-4.89232e-06Z" transform="translate(535.668 587.583) scale(4)" fill="#A0D9F2"/>
<path d="M62.7782 60.5321H57.4393V5.34571H5.33888V60.5321H0V2.67285C0 1.19679 1.1956 2.81048e-06 2.66923 2.81048e-06H60.1085C61.5826 2.81048e-06 62.7777 1.19722 62.7777 2.67285L62.7782 60.5321Z" transform="translate(525.012 576.89) scale(4)" fill="white"/>
<path d="M24.3517 44.993H2.66923C1.19517 44.993 3.1705e-06 43.7958 3.1705e-06 42.3201V2.67285C3.1705e-06 1.19679 1.1956 5.82915e-06 2.66923 5.82915e-06H24.3517C25.8258 5.82915e-06 27.021 1.19722 27.021 2.67285V42.3201C27.021 43.7958 25.8254 44.993 24.3517 44.993ZM5.33846 39.6469H21.6821V5.34571H5.33846V39.6469Z" transform="translate(238.961 576.892) scale(4)" fill="white"/>
<path d="M24.3517 44.993H2.66922C1.19517 44.993 -1.66321e-06 43.7958 -1.66321e-06 42.3201V2.67285C-1.66321e-06 1.19679 1.19559 5.82915e-06 2.66922 5.82915e-06H24.3517C25.8258 5.82915e-06 27.021 1.19722 27.021 2.67285V42.3201C27.021 43.7958 25.8254 44.993 24.3517 44.993ZM5.33846 39.6469H21.6821V5.34571H5.33846V39.6469Z" transform="translate(381.988 576.892) scale(4)" fill="white"/>
<path d="M24.3513 44.993H2.66923C1.19517 44.993 1.16945e-07 43.7958 1.16945e-07 42.3201V2.67285C1.16945e-07 1.19679 1.1956 5.82915e-06 2.66923 5.82915e-06H24.3517C25.8258 5.82915e-06 27.021 1.19722 27.021 2.67285V42.3201C27.021 43.7958 25.8258 44.993 24.3513 44.993ZM5.33845 39.6469H21.6821V5.34571H5.33845V39.6469Z" transform="translate(95.9336 576.892) scale(4)" fill="white"/>
<path d="M24.3517 44.9938H2.66922C1.19517 44.9938 3.01457e-06 43.7966 3.01457e-06 42.321V2.67286C3.01457e-06 1.1968 1.19559 -5.46483e-07 2.66922 -5.46483e-07H24.3517C25.8258 -5.46483e-07 27.021 1.19722 27.021 2.67286V42.3201C27.021 43.7966 25.8254 44.9938 24.3517 44.9938ZM5.33846 39.6477H21.6821V5.34614H5.33846V39.6477Z" transform="translate(525.012 151.906) scale(4)" fill="white"/>
<path d="M24.3518 44.9938H2.66922C1.19517 44.9938 4.67778e-06 43.7966 4.67778e-06 42.321V2.67286C4.67778e-06 1.1968 1.19559 -5.46483e-07 2.66922 -5.46483e-07H24.3518C25.8258 -5.46483e-07 27.021 1.19722 27.021 2.67286V42.3201C27.021 43.7966 25.8258 44.9938 24.3518 44.9938ZM5.33846 39.6477H21.6821V5.34614H5.33846V39.6477Z" transform="translate(668.035 151.906) scale(4)" fill="white"/>
<path d="M57.4405 4.68414e-06H4.36593e-06V5.34614H57.4405V4.68414e-06Z" transform="translate(535.715 631.24) scale(4)" fill="white"/>
<path d="M5.33887 -3.01867e-06H-4.78173e-06V46.4968H5.33887V-3.01867e-06Z" transform="translate(639.883 641.929) scale(4)" fill="white"/>
<path d="M21.6842 6.24552e-06H0V5.34613H21.6842V6.24552e-06Z" transform="translate(249.641 627.673) scale(4)" fill="white"/>
<path d="M21.6842 15.3656H-2.39087e-06V10.0195H19.015V-5.82915e-06H24.3539V12.6923C24.3534 14.1688 23.1583 15.3656 21.6842 15.3656Z" transform="translate(392.68 587.591) scale(4)" fill="white"/>
<path d="M21.68 6.24552e-06H0V5.34613H21.68V6.24552e-06Z" transform="translate(106.594 627.673) scale(4)" fill="white"/>
<path d="M21.68 15.3699H-3.95012e-06V10.0237H19.0103V-1.45729e-06H24.3492V12.6966C24.3496 14.1727 23.1544 15.3699 21.68 15.3699Z" transform="translate(678.746 375.087) scale(4)" fill="white"/>
<path d="M21.6842 0H0V5.34614H21.6842V0Z" transform="translate(392.672 415.19) scale(4)" fill="white"/>
<path d="M21.68 0H0V5.34614H21.68V0Z" transform="translate(106.594 415.19) scale(4)" fill="white"/>
<path d="M21.6842 0H0V5.34614H21.6842V0Z" transform="translate(249.641 415.19) scale(4)" fill="white"/>
<path d="M21.6842 0H-2.80667e-06V5.34614H21.6842V0Z" transform="translate(535.695 415.19) scale(4)" fill="white"/>
<path d="M21.68 15.3699H-3.95012e-06V10.0237H19.0103V1.04092e-06H24.3492V12.6966C24.3496 14.1731 23.1544 15.3699 21.68 15.3699Z" transform="translate(678.746 162.603) scale(4)" fill="white"/>
<path d="M21.6842 0H-2.80667e-06V5.34613H21.6842V0Z" transform="translate(535.695 202.704) scale(4)" fill="white"/>
<path d="M211.473 2.81048e-06H6.52638C2.92214 2.81048e-06 0 2.92611 0 6.53483V15.4722H217.999V6.53483C217.999 2.92611 215.077 2.81048e-06 211.473 2.81048e-06Z" transform="translate(0 810.109) scale(4)" fill="#423E3E"/>
</svg>
