<svg width="89" height="89" viewBox="0 0 89 89" fill="none" xmlns="http://www.w3.org/2000/svg">
<path d="M77.2478 2.58827e-07H157.125V161.357H-2.79576e-07V2.58827e-07H21.6376" transform="translate(4.96973 4.68066) scale(0.5)" fill="#ECEDF2"/>
<path d="M77.2478 2.58827e-07H157.125V16.5897H-2.79576e-07V2.58827e-07H21.6376" transform="translate(4.96973 4.68066) scale(0.5)" fill="#C6CAD5"/>
<path d="M65.7705 12.5623H167.062H174.118C175.709 12.5623 176.999 11.2707 176.999 9.67694V2.88536C176.999 1.29192 175.709 1.00362e-07 174.118 1.00362e-07H73.1982H45.5575H2.88144C1.29017 1.00362e-07 0 1.29157 0 2.88536V9.67728C0 11.2707 1.28982 12.5626 2.88144 12.5626H9.93725H48.0435" transform="translate(0.000488281 1.54016) scale(0.5)" fill="#525C66"/>
<path d="M32.5535 65.1956C50.5324 65.1956 65.1071 50.601 65.1071 32.5978C65.1071 14.5945 50.5324 0 32.5535 0C14.5747 0 0 14.5945 0 32.5978C0 50.601 14.5747 65.1956 32.5535 65.1956Z" transform="translate(13.4146 1.80841) scale(0.5)" fill="#C6CAD5"/>
<path d="M32.5535 65.1956C50.5324 65.1956 65.1071 50.601 65.1071 32.5978C65.1071 14.5945 50.5324 0 32.5535 0C14.5747 0 0 14.5945 0 32.5978C0 50.601 14.5747 65.1956 32.5535 65.1956Z" transform="translate(13.4146) scale(0.5)" fill="white"/>
<path d="M39.4628 14.0799H28.2844C27.4886 14.0799 26.8432 13.434 26.8432 12.6367V1.4432C26.8432 0.646306 26.1981 -1.58466e-07 25.402 -1.58466e-07H15.502C14.7062 -1.58466e-07 14.0608 0.64596 14.0608 1.4432V12.6371C14.0608 13.434 13.4157 14.0803 12.6196 14.0803H1.44124C0.645429 14.0803 9.70604e-07 14.7262 9.70604e-07 15.5235V25.4368C9.70604e-07 26.2337 0.645084 26.88 1.44124 26.88H12.6196C13.4154 26.88 14.0608 27.526 14.0608 28.3232V39.5168C14.0608 40.3137 14.7059 40.96 15.502 40.96H25.402C26.1978 40.96 26.8432 40.314 26.8432 39.5168V28.3232C26.8432 27.5263 27.4883 26.88 28.2844 26.88H39.4628C40.2586 26.88 40.904 26.2341 40.904 25.4368V15.5235C40.904 14.7262 40.2589 14.0799 39.4628 14.0799Z" transform="translate(19.4648 6.0592) scale(0.5)" fill="#D81616"/>
<path d="M17.6046 0H3.54481e-06V32.1907H17.6046V0Z" transform="translate(54.3657 38.0685) scale(0.5)" fill="#A0D9F2"/>
<path d="M17.6046 0H0V32.1907H17.6046V0Z" transform="translate(25.332 38.0685) scale(0.5)" fill="#A0D9F2"/>
<path d="M17.6046 0H2.44761e-06V32.1907H17.6046V0Z" transform="translate(68.8809 38.0685) scale(0.5)" fill="#A0D9F2"/>
<path d="M17.6046 0H0V32.1907H17.6046V0Z" transform="translate(39.8481 38.0685) scale(0.5)" fill="#A0D9F2"/>
<path d="M17.6046 0H0V32.1907H17.6046V0Z" transform="translate(10.8174 38.0685) scale(0.5)" fill="#A0D9F2"/>
<path d="M17.6046 0H0V32.1907H17.6046V0Z" transform="translate(25.332 59.6335) scale(0.5)" fill="#A0D9F2"/>
<path d="M17.6046 0H0V32.1907H17.6046V0Z" transform="translate(39.8481 59.6335) scale(0.5)" fill="#A0D9F2"/>
<path d="M17.6046 0H0V32.1907H17.6046V0Z" transform="translate(10.8174 59.6335) scale(0.5)" fill="#A0D9F2"/>
<path d="M17.6046 0H3.54481e-06V32.1907H17.6046V0Z" transform="translate(54.3657 16.5012) scale(0.5)" fill="#A0D9F2"/>
<path d="M17.6046 0H2.44761e-06V32.1907H17.6046V0Z" transform="translate(68.8809 16.5012) scale(0.5)" fill="#A0D9F2"/>
<path d="M19.7718 36.531H2.16721C0.970387 36.531 2.44761e-06 35.559 2.44761e-06 34.3608V2.17016C2.44761e-06 0.971708 0.970732 -5.91605e-07 2.16721 -5.91605e-07H19.7718C20.9687 -5.91605e-07 21.9391 0.972054 21.9391 2.17016V34.3608C21.9391 35.5593 20.9683 36.531 19.7718 36.531ZM4.33443 32.1903H17.6043V4.34032H4.33443V32.1903Z" transform="translate(53.2817 36.9835) scale(0.5)" fill="white"/>
<path d="M19.7718 36.531H2.16722C0.970392 36.531 2.57421e-06 35.559 2.57421e-06 34.3608V2.17016C2.57421e-06 0.971708 0.970738 -5.91605e-07 2.16722 -5.91605e-07H19.7718C20.9687 -5.91605e-07 21.939 0.972054 21.939 2.17016V34.3608C21.939 35.5593 20.9683 36.531 19.7718 36.531ZM4.33443 32.1903H17.6043V4.34032H4.33443V32.1903Z" transform="translate(24.248 36.9835) scale(0.5)" fill="white"/>
<path d="M19.7718 36.531H2.16721C0.970388 36.531 3.79801e-06 35.559 3.79801e-06 34.3608V2.17016C3.79801e-06 0.971708 0.970734 -5.91605e-07 2.16721 -5.91605e-07H19.7718C20.9687 -5.91605e-07 21.939 0.972054 21.939 2.17016V34.3608C21.939 35.5593 20.9687 36.531 19.7718 36.531ZM4.33444 32.1903H17.6043V4.34032H4.33444V32.1903Z" transform="translate(67.7988 36.9835) scale(0.5)" fill="white"/>
<path d="M19.7718 36.531H2.16721C0.970388 36.531 -1.35041e-06 35.559 -1.35041e-06 34.3608V2.17016C-1.35041e-06 0.971708 0.970734 -5.91605e-07 2.16721 -5.91605e-07H19.7718C20.9687 -5.91605e-07 21.9391 0.972054 21.9391 2.17016V34.3608C21.9391 35.5593 20.9683 36.531 19.7718 36.531ZM4.33444 32.1903H17.6043V4.34032H4.33444V32.1903Z" transform="translate(38.7637 36.9835) scale(0.5)" fill="white"/>
<path d="M19.7715 36.531H2.16722C0.970391 36.531 9.49504e-08 35.559 9.49504e-08 34.3608V2.17016C9.49504e-08 0.971708 0.970737 -5.91605e-07 2.16722 -5.91605e-07H19.7718C20.9687 -5.91605e-07 21.9391 0.972054 21.9391 2.17016V34.3608C21.9391 35.5593 20.9687 36.531 19.7715 36.531ZM4.33443 32.1903H17.6043V4.34032H4.33443V32.1903Z" transform="translate(9.73193 36.9835) scale(0.5)" fill="white"/>
<path d="M46.6365 -3.97221e-06H-3.79802e-06V45.1687L46.6365 48.7863V-3.97221e-06Z" transform="translate(54.3652 59.6343) scale(0.5)" fill="#A0D9F2"/>
<path d="M50.9713 49.1476H46.6365V4.34032H4.33478V49.1476H0V2.17016C0 0.971705 0.970741 2.28191e-06 2.16722 2.28191e-06H48.8037C50.0005 2.28191e-06 50.9709 0.972051 50.9709 2.17016L50.9713 49.1476Z" transform="translate(53.2837 58.549) scale(0.5)" fill="white"/>
<path d="M19.7718 36.531H2.16722C0.970392 36.531 2.57421e-06 35.5589 2.57421e-06 34.3608V2.17016C2.57421e-06 0.971708 0.970738 4.73284e-06 2.16722 4.73284e-06H19.7718C20.9687 4.73284e-06 21.939 0.972054 21.939 2.17016V34.3608C21.939 35.5589 20.9683 36.531 19.7718 36.531ZM4.33443 32.1903H17.6043V4.34033H4.33443V32.1903Z" transform="translate(24.2524 58.5492) scale(0.5)" fill="white"/>
<path d="M19.7718 36.531H2.16721C0.970388 36.531 -1.35041e-06 35.5589 -1.35041e-06 34.3608V2.17016C-1.35041e-06 0.971708 0.970734 4.73284e-06 2.16721 4.73284e-06H19.7718C20.9687 4.73284e-06 21.9391 0.972054 21.9391 2.17016V34.3608C21.9391 35.5589 20.9683 36.531 19.7718 36.531ZM4.33444 32.1903H17.6043V4.34033H4.33444V32.1903Z" transform="translate(38.7681 58.5492) scale(0.5)" fill="white"/>
<path d="M19.7715 36.531H2.16722C0.970391 36.531 9.49504e-08 35.5589 9.49504e-08 34.3608V2.17016C9.49504e-08 0.971708 0.970737 4.73284e-06 2.16722 4.73284e-06H19.7718C20.9687 4.73284e-06 21.9391 0.972054 21.9391 2.17016V34.3608C21.9391 35.5589 20.9687 36.531 19.7715 36.531ZM4.33443 32.1903H17.6043V4.34033H4.33443V32.1903Z" transform="translate(9.73633 58.5492) scale(0.5)" fill="white"/>
<path d="M19.7718 36.5317H2.16721C0.970387 36.5317 2.44761e-06 35.5596 2.44761e-06 34.3615V2.17016C2.44761e-06 0.971711 0.970732 -4.43704e-07 2.16721 -4.43704e-07H19.7718C20.9687 -4.43704e-07 21.9391 0.972057 21.9391 2.17016V34.3608C21.9391 35.5596 20.9683 36.5317 19.7718 36.5317ZM4.33443 32.191H17.6043V4.34067H4.33443V32.191Z" transform="translate(53.2837 15.4171) scale(0.5)" fill="white"/>
<path d="M19.7718 36.5317H2.16721C0.970388 36.5317 3.79801e-06 35.5596 3.79801e-06 34.3615V2.17016C3.79801e-06 0.971711 0.970734 -4.43704e-07 2.16721 -4.43704e-07H19.7718C20.9687 -4.43704e-07 21.939 0.972057 21.939 2.17016V34.3608C21.939 35.5596 20.9687 36.5317 19.7718 36.5317ZM4.33444 32.191H17.6043V4.34067H4.33444V32.191Z" transform="translate(67.7993 15.4171) scale(0.5)" fill="white"/>
<path d="M46.6375 3.80318e-06H3.54481e-06V4.34067H46.6375V3.80318e-06Z" transform="translate(54.3701 64.0651) scale(0.5)" fill="white"/>
<path d="M4.33477 -2.45094e-06H-3.88241e-06V37.752H4.33477V-2.45094e-06Z" transform="translate(64.9424 65.1499) scale(0.5)" fill="white"/>
<path d="M17.606 5.0709e-06H0V4.34066H17.606V5.0709e-06Z" transform="translate(25.3359 63.7031) scale(0.5)" fill="white"/>
<path d="M17.606 12.4757H-1.94121e-06V8.13508H15.4388V-4.73284e-06H19.7736V10.3052C19.7732 11.504 18.8028 12.4757 17.606 12.4757Z" transform="translate(39.8535 59.6351) scale(0.5)" fill="white"/>
<path d="M17.6025 5.0709e-06H0V4.34066H17.6025V5.0709e-06Z" transform="translate(10.8184 63.7031) scale(0.5)" fill="white"/>
<path d="M17.6025 12.4792H-3.20721e-06V8.13855H15.435V-1.18321e-06H19.7698V10.3087C19.7701 11.5072 18.7997 12.4792 17.6025 12.4792Z" transform="translate(68.8862 38.0679) scale(0.5)" fill="white"/>
<path d="M17.606 0H0V4.34067H17.606V0Z" transform="translate(39.8525 42.1381) scale(0.5)" fill="white"/>
<path d="M17.6025 0H0V4.34067H17.6025V0Z" transform="translate(10.8184 42.1381) scale(0.5)" fill="white"/>
<path d="M17.606 0H0V4.34067H17.606V0Z" transform="translate(25.3359 42.1381) scale(0.5)" fill="white"/>
<path d="M17.606 0H-2.27881e-06V4.34067H17.606V0Z" transform="translate(54.3682 42.1381) scale(0.5)" fill="white"/>
<path d="M17.6025 12.4792H-3.20721e-06V8.13854H15.435V8.45151e-07H19.7698V10.3087C19.7701 11.5075 18.7997 12.4792 17.6025 12.4792Z" transform="translate(68.8862 16.5027) scale(0.5)" fill="white"/>
<path d="M17.606 0H-2.27881e-06V4.34067H17.606V0Z" transform="translate(54.3682 20.5726) scale(0.5)" fill="white"/>
<path d="M171.7 2.28191e-06H5.29894C2.37256 2.28191e-06 0 2.37579 0 5.3058V12.5623H176.999V5.3058C176.999 2.37579 174.627 2.28191e-06 171.7 2.28191e-06Z" transform="translate(0 82.2187) scale(0.5)" fill="#423E3E"/>
</svg>
