<svg width="354" height="354" viewBox="0 0 354 354" fill="none" xmlns="http://www.w3.org/2000/svg">
<path d="M100.3 0V29.5H0V0" transform="translate(47.1992 295) scale(2)" fill="#B6B3B8"/>
<path d="M0 59H53.1V0H0" transform="translate(236 236) scale(2)" fill="#D3D2D6"/>
<path d="M0 17.7H59V0H0" transform="translate(236 200.6) scale(2)" fill="#46709C"/>
<path d="M59 0H0V112.1H59V0Z" transform="translate(94.4004 47.2) scale(2)" fill="white"/>
<path d="M11.8 0H0V23.6H11.8" transform="scale(2)" fill="#46709C"/>
<path d="M0 0H76.7V23.6H0" transform="translate(94.4004) scale(2)" fill="#46709C"/>
<path d="M5.9 0H0V29.5H5.9V0Z" transform="translate(11.8008 289.1) scale(2)" fill="#B6B3B8"/>
<path d="M17.7 0H0V5.9H17.7V0Z" transform="translate(0 342.2) scale(2)" fill="#B6B3B8"/>
<path d="M23.6 0H0V17.7H23.6V0Z" transform="translate(70.7988 318.6) scale(2)" fill="#789DC3"/>
<path d="M11.8 0H0V5.9H11.8V0Z" transform="translate(135.699 312.7) scale(2)" fill="#789DC3"/>
<path d="M11.8 0H0V5.9H11.8V0Z" transform="translate(171.1 312.7) scale(2)" fill="#789DC3"/>
<path d="M11.8 0H0V5.9H11.8V0Z" transform="translate(206.498 312.7) scale(2)" fill="#789DC3"/>
<path d="M123.9 135.7V147.5H0V135.7H11.8V0H47.2V135.7H123.9Z" transform="scale(2)" fill="#D3D2D6"/>
<path d="M5.9 0H0V17.7H5.9V0Z" transform="translate(53.0996 17.7) scale(2)" fill="#C1272D"/>
<path d="M17.7 0H0V5.9H17.7V0Z" transform="translate(41.2988 29.5) scale(2)" fill="#C1272D"/>
<path d="M11.8 0H0V112.1H11.8V0Z" transform="translate(212.4 47.2) scale(2)" fill="#D3D2D6"/>
<path d="M11.8 0H0V5.9H11.8V0Z" transform="translate(112.1 64.8999) scale(2)" fill="#789DC3"/>
<path d="M5.9 0H0V112.1H5.9V0Z" transform="translate(147.5 47.2) scale(2)" fill="#789DC3"/>
<path d="M11.8 0H0V5.9H11.8V0Z" transform="translate(171.1 64.8999) scale(2)" fill="#789DC3"/>
<path d="M59 0H0V5.9H59V0Z" transform="translate(94.4004 88.5) scale(2)" fill="#789DC3"/>
<path d="M11.8 0H0V5.9H11.8V0Z" transform="translate(112.1 112.1) scale(2)" fill="#789DC3"/>
<path d="M11.8 0H0V5.9H11.8V0Z" transform="translate(171.1 112.1) scale(2)" fill="#789DC3"/>
<path d="M59 0H0V5.9H59V0Z" transform="translate(94.4004 135.7) scale(2)" fill="#789DC3"/>
<path d="M11.8 0H0V5.9H11.8V0Z" transform="translate(112.1 159.3) scale(2)" fill="#789DC3"/>
<path d="M11.8 0H0V5.9H11.8V0Z" transform="translate(171.1 159.3) scale(2)" fill="#789DC3"/>
<path d="M59 0H0V5.9H59V0Z" transform="translate(94.4004 182.9) scale(2)" fill="#789DC3"/>
<path d="M11.8 0H0V5.9H11.8V0Z" transform="translate(112.1 206.5) scale(2)" fill="#789DC3"/>
<path d="M11.8 0H0V5.9H11.8V0Z" transform="translate(171.1 206.5) scale(2)" fill="#789DC3"/>
<path d="M59 0H0V5.9H59V0Z" transform="translate(94.4004 230.1) scale(2)" fill="#789DC3"/>
<path d="M17.7 0H0V5.9H17.7V0Z" transform="translate(0 306.8) scale(2)" fill="#B6B3B8"/>
<path d="M35.4 0H0V5.9H35.4V0Z" transform="translate(23.5996 112.1) scale(2)" fill="#789DC3"/>
<path d="M35.4 0H0V5.9H35.4V0Z" transform="translate(23.5996 159.3) scale(2)" fill="#789DC3"/>
<path d="M35.4 0H0V5.9H35.4V0Z" transform="translate(23.5996 206.5) scale(2)" fill="#789DC3"/>
<path d="M5.9 0H0V70.8H5.9V0Z" transform="translate(53.0996 118) scale(2)" fill="#789DC3"/>
<path d="M35.4 0H0V5.9H35.4V0Z" transform="translate(23.5996 253.7) scale(2)" fill="#789DC3"/>
<path d="M64.9 0H0V5.9H64.9V0Z" transform="translate(94.4004 17.7) scale(2)" fill="#789DC3"/>
<path d="M5.9 0H0V23.6H5.9V0Z" transform="translate(218.299) scale(2)" fill="#789DC3"/>
<path d="M11.8 0H0V5.9H11.8V0Z" transform="translate(300.9 253.7) scale(2)" fill="#789DC3"/>
<path d="M11.8 0H0V5.9H11.8V0Z" transform="translate(265.5 253.7) scale(2)" fill="#789DC3"/>
<path d="M38.35 0H0V5.9H38.35V0Z" transform="translate(265.5 277.3) scale(2)" fill="#789DC3"/>
<path d="M38.35 0H0V5.9H38.35V0Z" transform="translate(247.799 300.9) scale(2)" fill="#789DC3"/>
<path d="M38.35 0H0V5.9H38.35V0Z" transform="translate(265.5 324.5) scale(2)" fill="#789DC3"/>
</svg>
