<svg width="64" height="66" viewBox="0 0 64 66" fill="none" xmlns="http://www.w3.org/2000/svg">
<circle cx="16" cy="16" r="16" transform="translate(0 2) scale(2)" fill="#C9C9C9"/>
<path d="M4.08 21.552C4.176 21.552 4.312 21.488 4.488 21.36C4.664 21.232 5.064 20.888 5.688 20.328L6.096 20.376L6.48 21.216C5.456 22.32 4.624 23.112 3.984 23.592C3.36 24.056 2.824 24.288 2.376 24.288C1.992 24.288 1.712 24.192 1.536 24C1.36 23.808 1.272 23.512 1.272 23.112C2.04 18.456 2.424 15.896 2.424 15.432C2.424 15.112 2.352 14.88 2.208 14.736C2.064 14.592 1.832 14.52 1.512 14.52H0.672L0.888 13.128C1.88 13.128 3.4 13.064 5.448 12.936L5.736 13.296C5.4 14.432 5.072 15.776 4.752 17.328C4.432 18.864 4.184 20.24 4.008 21.456L4.08 21.552ZM4.104 10.728C3.64 10.728 3.28 10.6 3.024 10.344C2.784 10.072 2.664 9.712 2.664 9.264C2.664 8.656 2.864 8.152 3.264 7.752C3.664 7.336 4.16 7.128 4.752 7.128C5.216 7.128 5.576 7.264 5.832 7.536C6.088 7.808 6.216 8.16 6.216 8.592C6.216 9.2 6.016 9.712 5.616 10.128C5.216 10.528 4.712 10.728 4.104 10.728Z" transform="translate(26) scale(2)" fill="black"/>
</svg>
