<svg width="472" height="216" viewBox="0 0 472 216" fill="none" xmlns="http://www.w3.org/2000/svg">
<path d="M8.75404 2.72048e-06H0V16.4695H8.75404V2.72048e-06Z" transform="translate(25.3398 81.3306) scale(2)" fill="#2A2E2F"/>
<path d="M4.28486 34.8035H12.6628H69.251V27.5382L61.7137 19.0249C61.7137 14.4637 60.9689 9.9396 59.5086 5.62353L58.277 1.99089L27.7004 8.50148e-07L17.0509 4.34579L4.28486 20.8004L4.72639e-06 33.1617L4.28486 34.8035Z" transform="translate(324.177 99.3687) scale(2)" fill="#231F20"/>
<path d="M1.09719e-06 26.58L7.69206 1.10688L43.9841 2.60713e-06L63.9628 31.9361L57.082 35.4425L51.3148 36.7351L1.09719e-06 26.58Z" transform="translate(61.4951 102.742) scale(2)" fill="#231F20"/>
<path d="M0.00737429 63.523V39.7065H74.229V-7.36797e-07L109.644 2.00576C113.774 2.23605 117.491 4.5761 119.519 8.20131L131.503 29.6406L190.554 37.7082C197.339 38.6368 202.811 43.7552 204.22 50.5079C204.242 50.6119 204.264 50.7085 204.286 50.8125L169.344 48.9627L159.624 53.1971L146.223 74.109L143.332 79.6657L74.7526 78.3434L61.8759 60.0835L54.5157 52.1422L41.9045 49.7576L20.0968 50.025L13.2676 69.0797L-1.40666e-07 68.2849V63.523H0.00737429V63.523Z" transform="translate(39.0156 1.6665) scale(2)" fill="#FFD93B"/>
<path d="M-6.75198e-07 40.5317L3.90873 6.8351C4.36598 2.89788 7.69946 -0.051321 11.6377 0.000679961L74.2216 0.840124V40.5392H-6.75198e-07V40.5317Z" transform="translate(39.0283) scale(2)" fill="#3F4347"/>
<path d="M53.0258 26.736H3.80523C1.61486 26.736 -0.125628 24.8788 0.00712125 22.6725L1.14286 3.59551C1.26086 1.57489 2.92023 -3.51396e-06 4.9336 -3.51396e-06H53.0258C55.1276 -3.51396e-06 56.8312 1.71604 56.8312 3.83323V22.9102C56.8312 25.02 55.1276 26.736 53.0258 26.736Z" transform="translate(61.9619 14.5474) scale(2)" fill="#2A2E2F"/>
<path d="M3.26345e-06 34.0607V-2.04036e-06L36.6166 1.47832C38.5119 1.5526 40.2082 2.67434 41.0342 4.39038L53.6748 30.5841V65.8111H0.744871L3.26345e-06 34.0607Z" transform="translate(187.486 12.9409) scale(2)" fill="#F4C534"/>
<path d="M42.1552 23.4765L31.2181 2.43831C30.96 1.80687 30.4217 1.39085 29.8169 1.36114L1.68886 0.00168315C0.766992 -0.0428893 -2.64452e-06 0.803983 -2.64452e-06 1.86629V24.2639C-2.64452e-06 25.2965 0.722744 26.1286 1.62249 26.1286H40.6802C41.8749 26.1286 42.6567 24.7097 42.1552 23.4765Z" transform="translate(198.029 22.2373) scale(2)" fill="#2A2E2F"/>
<path d="M63.0999 30.6509C61.9199 30.6509 60.7841 29.9749 60.2531 28.8309C56.3297 20.3993 47.0077 9.09276 46.9192 8.98133C46.9119 8.9739 46.9045 8.96648 46.9045 8.95905C45.577 7.32473 43.63 6.32184 41.5281 6.32184H17.3826C15.3324 6.32184 13.4222 7.5253 12.5225 9.38248L7.64029 19.4633C6.88067 21.0307 5.00006 21.6845 3.44395 20.9193C1.88783 20.1541 -0.619648 21.6993 0.139971 20.1319L6.88067 6.61157C8.82765 2.59263 12.9502 3.45728e-06 17.3826 3.45728e-06H42.2509C46.0859 3.45728e-06 49.6553 1.87947 51.8457 5.04411C52.9372 6.36642 64.5158 21.4616 68.6089 30.2572C69.3464 31.8395 66.013 29.6109 64.4421 30.3538C63.9996 30.5618 63.5497 30.6509 63.0999 30.6509Z" transform="translate(55.1465 95.3851) scale(2)" fill="#2A2E2F"/>
<path d="M61.4644 11.4848H67.7553C67.5857 5.12582 62.4011 4.53413e-07 56.0512 4.53413e-07H27.1193C22.923 4.53413e-07 18.911 1.79775 16.1085 4.93267C11.7426 9.81335 5.45911 17.933 0.304021 28.9052C-0.440848 30.4875 0.230265 32.367 1.80113 33.1173C2.23625 33.3253 2.69351 33.4218 3.14338 33.4218C4.32337 33.4218 5.45172 32.7533 5.98272 31.6092C10.8133 21.3279 16.6911 13.7283 20.7769 9.15962C22.392 7.35444 24.7003 6.32185 27.1193 6.32185H56.0512C58.9348 6.3367 61.2948 8.61732 61.4644 11.4848Z" transform="translate(318.028 95.3682) scale(2)" fill="#2A2E2F"/>
<path d="M78.5359 2.38043e-06H2.92586e-06V10.2888H78.5359V2.38043e-06Z" transform="translate(175.652 152.987) scale(2)" fill="#2A2E2F"/>
<path d="M23.3122 46.9643C36.1871 46.9643 46.6243 36.451 46.6243 23.4822C46.6243 10.5133 36.1871 7.0279e-06 23.3122 7.0279e-06C10.4372 7.0279e-06 0 10.5133 0 23.4822C0 36.451 10.4372 46.9643 23.3122 46.9643Z" transform="translate(71.9688 122.071) scale(2)" fill="#3F4347"/>
<path d="M13.9018 28.0063C21.5795 28.0063 27.8035 21.7369 27.8035 14.0031C27.8035 6.26942 21.5795 0 13.9018 0C6.22403 0 0 6.26942 0 14.0031C0 21.7369 6.22403 28.0063 13.9018 28.0063Z" transform="translate(90.7891 141.029) scale(2)" fill="#939799"/>
<path d="M23.3122 46.9643C36.1871 46.9643 46.6243 36.451 46.6243 23.4822C46.6243 10.5133 36.1871 7.0279e-06 23.3122 7.0279e-06C10.4372 7.0279e-06 0 10.5133 0 23.4822C0 36.451 10.4372 46.9643 23.3122 46.9643Z" transform="translate(345.134 122.071) scale(2)" fill="#3F4347"/>
<path d="M13.9018 28.0063C21.5795 28.0063 27.8035 21.7369 27.8035 14.0031C27.8035 6.26942 21.5795 0 13.9018 0C6.22403 0 -5.62663e-06 6.26942 -5.62663e-06 14.0031C-5.62663e-06 21.7369 6.22403 28.0063 13.9018 28.0063Z" transform="translate(363.956 141.029) scale(2)" fill="#939799"/>
<path d="M5.10348 15.8826H2.3632e-06V-4.08073e-06H5.10348C9.45471 -4.08073e-06 12.9873 3.55836 12.9873 7.94131C12.9873 12.3243 9.45471 15.8826 5.10348 15.8826Z" transform="translate(446.025 125.31) scale(2)" fill="#2A2E2F"/>
<path d="M11.1436 47.4845H4.06361C1.82162 47.4845 0 45.657 0 43.3912V4.09323C0 1.8349 1.82162 2.04036e-06 4.06361 2.04036e-06H11.1436C13.3929 2.04036e-06 15.2072 1.8349 15.2072 4.09323V43.3912C15.2146 45.657 13.3929 47.4845 11.1436 47.4845Z" transform="translate(0 44.5005) scale(2)" fill="#3F4347"/>
<path d="M1.79211 5.66768e-07H19.9493L14.8089 12.1831H1.79211C0.803871 12.1831 9.84663e-08 11.3734 9.84663e-08 10.378V1.81261C9.84663e-08 0.80973 0.803871 5.66768e-07 1.79211 5.66768e-07Z" transform="translate(31.876 131.535) scale(2)" fill="#2A2E2F"/>
<path d="M-6.75197e-07 1.7003e-06V19.5301H6.28346V1.7003e-06" transform="translate(440.963 118.014) scale(2)" fill="#2A2E2F"/>
</svg>
