<svg width="204" height="504" viewBox="0 0 204 504" fill="none" xmlns="http://www.w3.org/2000/svg">
<path d="M8.01914 80.0133C3.59061 80.0133 4.99541e-06 76.4288 4.99541e-06 72.0063V8.00707C4.99541e-06 3.58521 3.58995 -3.13754e-06 8.01914 -3.13754e-06C12.4483 -3.13754e-06 16.0383 3.58455 16.0383 8.00707V72.0066C16.038 76.4285 12.448 80.0133 8.01914 80.0133Z" transform="translate(106.986 263.96) scale(3)" fill="#4F4F4F"/>
<path d="M8.01914 80.0133C3.59061 80.0133 3.0617e-06 76.4288 3.0617e-06 72.0063V8.00707C3.0617e-06 3.58521 3.58995 -3.13754e-06 8.01914 -3.13754e-06C12.4477 -3.13754e-06 16.0383 3.58455 16.0383 8.00707V72.0066C16.038 76.4285 12.4477 80.0133 8.01914 80.0133Z" transform="translate(48.9023 263.96) scale(3)" fill="#4F4F4F"/>
<path d="M67.9948 15.7106C67.9512 7.04782 60.7466 0 51.9348 0C47.5838 0 21.3793 0 16.06 0C7.24821 0 0.0435625 7.04782 0 15.7106C0 15.7218 0 15.733 0 15.7442V64.7633C0 68.4484 2.99162 71.4358 6.68255 71.4358C10.3732 71.4358 13.3651 68.4487 13.3651 64.7633V15.7663C13.3793 14.4973 14.6604 13.3447 16.0607 13.3447H16.3013V64.0795H51.6962V13.3447H51.9351C53.3354 13.3447 54.6168 14.4977 54.6307 15.7663V64.7633C54.6307 68.4484 57.6223 71.4358 61.3132 71.4358C65.0038 71.4358 67.9958 68.4487 67.9958 64.7633V15.7439C67.9951 15.733 67.9951 15.7218 67.9948 15.7106Z" transform="translate(0.00878906 95.7415) scale(3)" fill="#4F4F4F"/>
<path d="M33.9989 15.7106C33.9554 7.04782 26.7507 -1.10618e-06 17.9389 -1.10618e-06C15.8201 -1.10618e-06 2.10685 -1.10618e-06 1.45028e-06 -1.10618e-06V64.0799H17.6999V13.3447H17.9389C19.3391 13.3447 20.6206 14.4977 20.6345 15.7663V64.7633C20.6345 68.4483 23.6261 71.4358 27.317 71.4358C31.0076 71.4358 33.9996 68.4487 33.9996 64.7633V15.7439C33.9993 15.733 33.9993 15.7218 33.9989 15.7106Z" transform="translate(102 95.7415) scale(3)" fill="#4F4F4F"/>
<path d="M-2.65884e-06 2.17214e-06V3.44152C-2.65884e-06 7.12656 2.99162 10.114 6.68255 10.114C10.3732 10.114 13.3651 7.12689 13.3651 3.44152V2.17214e-06H-2.65884e-06Z" transform="translate(0 279.707) scale(3)" fill="white"/>
<path d="M-4.51198e-06 2.17214e-06V3.44152C-4.51198e-06 7.12656 2.99163 10.114 6.68256 10.114C10.3732 10.114 13.3651 7.12689 13.3651 3.44152V2.17214e-06H-4.51198e-06Z" transform="translate(163.89 279.707) scale(3)" fill="white"/>
<path d="M-2.65884e-06 -4.18338e-06V0.171685C-2.65884e-06 3.85673 2.99162 6.84417 6.68255 6.84417C10.3732 6.84417 13.3651 3.85706 13.3651 0.171685V-4.18338e-06H-2.65884e-06Z" transform="translate(0 289.517) scale(3)" fill="#BD7962"/>
<path d="M-4.51198e-06 -4.18338e-06V0.171685C-4.51198e-06 3.85673 2.99163 6.84417 6.68256 6.84417C10.3732 6.84417 13.3651 3.85706 13.3651 0.171685V-4.18338e-06H-4.51198e-06Z" transform="translate(163.89 289.517) scale(3)" fill="#BD7962"/>
<path d="M13.8496 27.6574C21.4985 27.6574 27.6992 21.4661 27.6992 13.8287C27.6992 6.19133 21.4985 0 13.8496 0C6.20068 0 3.38399e-06 6.19133 3.38399e-06 13.8287C3.38399e-06 21.4661 6.20068 27.6574 13.8496 27.6574Z" transform="translate(60.4424) scale(3)" fill="#BD7962"/>
<path d="M-4.99542e-06 -1.10618e-06L10.1963 26.7176L20.3949 -1.10618e-06H-4.99542e-06Z" transform="translate(71.4023 95.7415) scale(3)" fill="white"/>
<path d="M9.19981 9.09481L6.93456 4.98138L8.88696 1.43639C9.24206 0.791511 8.77409 1.04585e-06 8.03617 1.04585e-06H1.49155C0.754615 1.04585e-06 0.285326 0.790852 0.640757 1.43639L2.59975 4.99325L0.340771 9.09547C0.027912 9.66356 -0.0737348 10.3236 0.0533228 10.9592L1.44666 18.0219L4.76435 26.7176L8.08533 18.0202L9.4866 10.9599C9.61465 10.3229 9.513 9.66257 9.19981 9.09481Z" transform="translate(87.709 95.7429) scale(3)" fill="#252D5C"/>
<path d="M4.4348 9.09481L2.16954 4.98138L4.12194 1.43639C4.47704 0.791511 4.00941 1.04585e-06 3.27115 1.04585e-06H3.78684e-06V26.712V26.7176L3.32099 18.0202L4.72225 10.9599C4.84964 10.3229 4.74799 9.66257 4.4348 9.09481Z" transform="translate(102.003 95.7429) scale(3)" fill="#252D5C"/>
<path d="M8.82735 0H2.57828e-06V2.71856H8.82735V0Z" transform="translate(116.807 157.33) scale(3)" fill="#252D5C"/>
</svg>
