<svg width="1030" height="504" viewBox="0 0 1030 504" fill="none" xmlns="http://www.w3.org/2000/svg">
<path d="M7.80793 28.6541C3.4963 28.6541 9.19286e-07 25.1306 9.19286e-07 20.7808V7.8733C9.19286e-07 3.52455 3.4953 -4.82031e-06 7.80793 -4.82031e-06C12.1206 -4.82031e-06 15.6159 3.52354 15.6159 7.8733V20.7808C15.6149 25.1296 12.1196 28.6541 7.80793 28.6541Z" transform="translate(63.3711 48.719) scale(2)" fill="#896746"/>
<path d="M7.80793 28.6541C3.4963 28.6541 -1.83857e-06 25.1306 -1.83857e-06 20.7808V7.8733C-1.83857e-06 3.52455 3.49529 -4.82031e-06 7.80793 -4.82031e-06C12.1206 -4.82031e-06 15.6159 3.52354 15.6159 7.8733V20.7808C15.6159 25.1296 12.1196 28.6541 7.80793 28.6541Z" transform="translate(198.332 48.7183) scale(2)" fill="#896746"/>
<path d="M7.80793 28.6541C3.4953 28.6541 7.35429e-07 25.1306 7.35429e-07 20.7808V7.8733C7.35429e-07 3.52455 3.49429 -4.82031e-06 7.80793 -4.82031e-06C12.1206 -4.82031e-06 15.6159 3.52354 15.6159 7.8733V20.7808C15.6159 25.1296 12.1206 28.6541 7.80793 28.6541Z" transform="translate(799.943 48.7183) scale(2)" fill="#896746"/>
<path d="M7.80794 28.6541C3.49531 28.6541 1.27474e-05 25.1306 1.27474e-05 20.7808V7.8733C1.27474e-05 3.52455 3.4943 -4.82031e-06 7.80794 -4.82031e-06C12.1216 -4.82031e-06 15.6159 3.52354 15.6159 7.8733V20.7808C15.6159 25.1296 12.1206 28.6541 7.80794 28.6541Z" transform="translate(935.008 48.7183) scale(2)" fill="#896746"/>
<path d="M163.085 1.97757e-06H-2.94172e-06V41.107H163.085V1.97757e-06Z" transform="translate(351.012 416.938) scale(2)" fill="#A07852"/>
<path d="M144.095 15.7467H8.58506C3.84369 15.7467 -6.98654e-06 12.2231 -6.98654e-06 7.87333C-6.98654e-06 3.52457 3.84369 -9.88787e-06 8.58506 -9.88787e-06H144.094C148.836 -9.88787e-06 152.68 3.52355 152.68 7.87333C152.681 12.2231 148.838 15.7467 144.095 15.7467Z" transform="translate(361.383 442.632) scale(2)" fill="#896746"/>
<path d="M498.487 1.06295e-05V112.169C498.487 116.806 494.758 120.567 490.159 120.567H8.32807C3.72926 120.567 2.29822e-08 116.806 2.29822e-08 112.169V1.06295e-05H498.487Z" transform="translate(15.6211 179.071) scale(2)" fill="#FFDAA7"/>
<path d="M208.202 8.40465e-06H7.35427e-06V93.2261H208.202V8.40465e-06Z" transform="translate(305.93 233.767) scale(2)" fill="#FFC373"/>
<path d="M498.487 -1.48317e-05H0V28.2674H498.487V-1.48317e-05Z" transform="translate(15.6211 191.774) scale(2)" fill="#FFC373"/>
<path d="M506.59 56.0984H4.52702C1.08495 56.0984 -1.09294 52.3753 0.568846 49.3368L25.2005 4.33963C26.6665 1.66254 29.4589 -4.94392e-07 32.4913 -4.94392e-07H478.625C481.657 -4.94392e-07 484.451 1.66254 485.916 4.33963L510.547 49.3368C512.21 52.3753 510.031 56.0984 506.59 56.0984Z" transform="translate(2.98145 90.2802) scale(2)" fill="#A07852"/>
<path d="M98.0598 6.67428e-06V56.0972H-7.10913e-06V39.6348C-7.10913e-06 32.0248 6.11801 25.8555 13.6649 25.8555L39.3056 6.67428e-06H98.0588H98.0598Z" transform="translate(273.17 90.2812) scale(2)" fill="#896746"/>
<path d="M-3.67713e-06 6.67428e-06V56.0972H98.0606V39.6348C98.0606 32.0248 91.9426 25.8555 84.3957 25.8555L58.755 6.67428e-06H-3.67713e-06Z" transform="translate(558.932 90.281) scale(2)" fill="#896746"/>
<path d="M193.887 94.2776H-4.16741e-06L91.0549 2.45965C94.3072 -0.819887 99.5807 -0.819887 102.833 2.45965L193.887 94.2776Z" transform="translate(320.201) scale(2)" fill="#FFDAA7"/>
<path d="M19.9143 -4.69672e-06L-4.16741e-06 20.0802H193.887L173.974 -4.69672e-06H19.9143Z" transform="translate(320.201 148.393) scale(2)" fill="#FFC373"/>
<path d="M23.3815 -6.92148e-06H-2.81913e-06V115.974H23.3815V-6.92148e-06Z" transform="translate(327.592 236.49) scale(2)" fill="#FFDAA7"/>
<path d="M23.3815 -6.92149e-06H-2.81913e-06V17.877H23.3815V-6.92149e-06Z" transform="translate(327.592 236.49) scale(2)" fill="#FFC373"/>
<path d="M23.3806 -6.92148e-06H1.17669e-05V115.974H23.3806V-6.92148e-06Z" transform="translate(653.795 236.49) scale(2)" fill="#FFDAA7"/>
<path d="M23.3806 -6.92149e-06H1.17669e-05V17.877H23.3806V-6.92149e-06Z" transform="translate(653.795 236.49) scale(2)" fill="#FFC373"/>
<path d="M196.855 8.3978V29.5178C196.855 34.1571 193.118 37.9156 188.527 37.9156H8.32804C3.73728 37.9156 -9.8057e-07 34.1571 -9.8057e-07 29.5178V8.3978C-9.8057e-07 3.75846 3.73728 5.6855e-06 8.32804 5.6855e-06H188.526C193.118 5.6855e-06 196.855 3.75745 196.855 8.3978Z" transform="translate(317.248 172.491) scale(2)" fill="#FFDAA7"/>
<path d="M196.855 0.0415281V15.7031C196.605 15.7345 196.355 15.7446 196.106 15.7446H0.749057C0.499035 15.7446 0.249025 15.7345 6.12859e-06 15.7031V0.0415281C0.250029 0.01014 0.500039 -9.88787e-07 0.749057 -9.88787e-07H196.105C196.355 -9.88787e-07 196.605 0.01014 196.855 0.0415281Z" transform="translate(317.248 194.03) scale(2)" fill="#B9DEEF"/>
<path d="M28.0757 14.1499V50.5863H-1.47085e-05V14.1499C-1.47085e-05 6.32925 6.28768 7.16869e-06 14.0323 7.16869e-06C17.9051 7.16869e-06 21.4235 1.58561 23.9639 4.14626C26.5043 6.69679 28.0757 10.2446 28.0757 14.1499Z" transform="translate(776.428 258.38) scale(2)" fill="#B9DEEF"/>
<path d="M28.0757 1.06294e-05H-1.25022e-05V15.3052H28.0757V1.06294e-05Z" transform="translate(776.424 328.926) scale(2)" fill="#9FCDDD"/>
<path d="M28.0757 14.1499V50.5863H-7.5994e-06V14.1499C-7.5994e-06 6.32925 6.28767 7.16869e-06 14.0434 7.16869e-06C17.9162 7.16869e-06 21.4245 1.58561 23.9639 4.14626C26.5043 6.69679 28.0757 10.2446 28.0757 14.1499Z" transform="translate(895.141 258.379) scale(2)" fill="#B9DEEF"/>
<path d="M28.0757 1.06294e-05H-5.39313e-06V15.3052H28.0757V1.06294e-05Z" transform="translate(895.133 328.926) scale(2)" fill="#9FCDDD"/>
<path d="M28.0757 14.1499V50.5863H-1.86921e-06V14.1499C-1.86921e-06 6.32925 6.28769 7.16869e-06 14.0323 7.16869e-06C17.9051 7.16869e-06 21.4235 1.58561 23.9639 4.14626C26.5043 6.69679 28.0757 10.2446 28.0757 14.1499Z" transform="translate(76.9727 258.379) scale(2)" fill="#B9DEEF"/>
<path d="M28.0757 1.06294e-05H0V15.3052H28.0757V1.06294e-05Z" transform="translate(76.9727 328.926) scale(2)" fill="#9FCDDD"/>
<path d="M28.0757 14.1499V50.5863H1.40957e-06V14.1499C1.40957e-06 6.32925 6.28769 7.16869e-06 14.0434 7.16869e-06C17.9162 7.16869e-06 21.4245 1.58561 23.9639 4.14626C26.5043 6.69679 28.0757 10.2446 28.0757 14.1499Z" transform="translate(195.678 258.379) scale(2)" fill="#B9DEEF"/>
<path d="M28.0757 1.06294e-05H3.61585e-06V15.3052H28.0757V1.06294e-05Z" transform="translate(195.672 328.926) scale(2)" fill="#9FCDDD"/>
<path d="M73.5366 8.39778V63.9282H3.79971e-06V8.39778C3.79971e-06 3.76047 3.72924 1.1081e-05 8.32804 1.1081e-05H65.2086C69.8084 -0.00100143 73.5366 3.75945 73.5366 8.39778Z" transform="translate(440.613 292.363) scale(2)" fill="#A07852"/>
<path d="M15.6149 5.9327e-06H0V63.9282H15.6149V5.9327e-06Z" transform="translate(498.438 292.353) scale(2)" fill="#896746"/>
<path d="M36.2251 15.7467H7.80793C3.4963 15.7467 5.148e-06 12.2231 5.148e-06 7.87334C5.148e-06 3.52356 3.4953 -2.47197e-07 7.80793 -2.47197e-07H36.2251C40.5378 -2.47197e-07 44.0331 3.52356 44.0331 7.87334C44.0331 12.2231 40.5368 15.7467 36.2251 15.7467Z" transform="translate(470.059 110.148) scale(2)" fill="#A07852"/>
<path d="M140.873 15.7467H7.80792C3.49529 15.7467 1.96114e-06 12.2231 1.96114e-06 7.87335C1.96114e-06 3.52358 3.49429 1.40902e-05 7.80792 1.40902e-05H140.873C145.185 1.40902e-05 148.681 3.52358 148.681 7.87335C148.681 12.2231 145.186 15.7467 140.873 15.7467Z" transform="translate(730.803 343.794) scale(2)" fill="#FFC373"/>
<path d="M140.873 15.7467H7.80791C3.49629 15.7467 0 12.2231 0 7.87335C0 3.52358 3.49529 1.40902e-05 7.80791 1.40902e-05H140.873C145.184 1.40902e-05 148.681 3.52358 148.681 7.87335C148.681 12.2231 145.184 15.7467 140.873 15.7467Z" transform="translate(0 343.794) scale(2)" fill="#FFC373"/>
<path d="M32.3441 22.8109H8.32802C3.72924 22.8109 -2.20628e-06 19.0504 -2.20628e-06 14.4131V8.39779C-2.20628e-06 3.76048 3.72924 5.4383e-06 8.32802 5.4383e-06H32.3441C36.9429 5.4383e-06 40.6721 3.76048 40.6721 8.39779V14.4131C40.6721 19.0504 36.9439 22.8109 32.3441 22.8109Z" transform="translate(309.504 458.378) scale(2)" fill="#FFC373"/>
<path d="M32.3441 22.8109H8.328C3.72922 22.8109 1.37279e-05 19.0504 1.37279e-05 14.4131V8.39779C1.37279e-05 3.76048 3.72922 5.4383e-06 8.328 5.4383e-06H32.3441C36.9429 5.4383e-06 40.6721 3.76048 40.6721 8.39779V14.4131C40.6721 19.0504 36.9429 22.8109 32.3441 22.8109Z" transform="translate(637.359 458.378) scale(2)" fill="#FFC373"/>
<path d="M73.5477 5.68549e-06H0V9.07312H73.5477V5.68549e-06Z" transform="translate(440.605 402.074) scale(2)" fill="#896746"/>
</svg>
