<?xml version="1.0" encoding="iso-8859-1"?>
<!-- Generator: Adobe Illustrator 19.0.0, SVG Export Plug-In . SVG Version: 6.00 Build 0)  -->
<svg version="1.1" id="Capa_1" xmlns="http://www.w3.org/2000/svg" xmlns:xlink="http://www.w3.org/1999/xlink" x="0px" y="0px"
	 viewBox="0 0 426.667 426.667" style="enable-background:new 0 0 426.667 426.667;" xml:space="preserve">
<g>
	<polygon style="fill:#3A556A;" points="89.444,99.292 341.329,99.292 269.208,165.932 141.952,165.932 	"/>
	<rect y="316.81" style="fill:#3A556A;" width="426.667" height="10.564"/>
</g>
<rect x="11.58" y="163.722" style="fill:#E1E6E9;" width="152.166" height="153.092"/>
<polyline style="fill:#64798A;" points="11.579,163.737 89.444,99.292 163.746,163.737 "/>
<polyline style="fill:#E1E6E9;" points="25.598,166.371 89.444,109.264 149.727,166.371 "/>
<rect x="25.984" y="174.367" style="fill:#2D93BA;" width="30.775" height="56.162"/>
<polygon style="fill:#27A2DB;" points="25.969,230.529 25.969,174.367 56.743,174.367 "/>
<g>
	<rect x="40.465" y="174.145" style="fill:#EBF0F3;" width="1.788" height="56.384"/>
	<rect x="25.984" y="187.743" style="fill:#EBF0F3;" width="30.775" height="2.679"/>
</g>
<rect x="25.075" y="242.045" style="fill:#2D93BA;" width="30.775" height="56.162"/>
<polygon style="fill:#27A2DB;" points="25.076,298.206 25.076,242.044 55.851,242.044 "/>
<g>
	<rect x="39.573" y="241.802" style="fill:#EBF0F3;" width="1.788" height="56.384"/>
	<rect x="25.079" y="255.438" style="fill:#EBF0F3;" width="30.775" height="2.679"/>
</g>
<rect x="72.96" y="174.367" style="fill:#2D93BA;" width="30.775" height="56.162"/>
<polygon style="fill:#27A2DB;" points="72.965,230.529 72.965,174.367 103.739,174.367 "/>
<g>
	<rect x="87.462" y="174.145" style="fill:#EBF0F3;" width="1.788" height="56.384"/>
	<rect x="72.96" y="187.743" style="fill:#EBF0F3;" width="30.775" height="2.679"/>
</g>
<rect x="72.96" y="242.045" style="fill:#2D93BA;" width="30.775" height="56.162"/>
<polygon style="fill:#27A2DB;" points="72.965,298.206 72.965,242.044 103.739,242.044 "/>
<g>
	<rect x="87.462" y="241.802" style="fill:#EBF0F3;" width="1.788" height="56.384"/>
	<rect x="72.96" y="255.438" style="fill:#EBF0F3;" width="30.775" height="2.679"/>
</g>
<rect x="119.467" y="174.367" style="fill:#2D93BA;" width="30.775" height="56.162"/>
<polygon style="fill:#27A2DB;" points="119.473,230.529 119.473,174.367 150.248,174.367 "/>
<g>
	<rect x="133.973" y="174.145" style="fill:#EBF0F3;" width="1.788" height="56.384"/>
	<rect x="119.467" y="187.743" style="fill:#EBF0F3;" width="30.775" height="2.679"/>
</g>
<rect x="119.467" y="242.045" style="fill:#2D93BA;" width="30.775" height="56.162"/>
<polygon style="fill:#27A2DB;" points="119.473,298.206 119.473,242.044 150.248,242.044 "/>
<g>
	<rect x="133.973" y="241.802" style="fill:#EBF0F3;" width="1.788" height="56.384"/>
	<rect x="119.467" y="255.438" style="fill:#EBF0F3;" width="30.775" height="2.679"/>
</g>
<rect x="163.755" y="164.277" style="fill:#D5D6DB;" width="99.716" height="152.533"/>
<polyline style="fill:#64798A;" points="163.746,164.294 214.772,99.292 263.463,164.294 "/>
<polyline style="fill:#D5D6DB;" points="172.933,166.928 214.772,109.82 254.276,166.928 "/>
<rect x="221.086" y="174.922" style="fill:#2D93BA;" width="30.775" height="56.162"/>
<polygon style="fill:#27A2DB;" points="221.084,231.085 221.084,174.923 251.859,174.923 "/>
<g>
	<rect x="235.563" y="174.704" style="fill:#EBF0F3;" width="1.788" height="56.384"/>
	<rect x="221.086" y="188.298" style="fill:#EBF0F3;" width="30.775" height="2.679"/>
</g>
<rect x="175.36" y="174.922" style="fill:#2D93BA;" width="30.775" height="56.162"/>
<polygon style="fill:#27A2DB;" points="175.35,231.085 175.35,174.923 206.124,174.923 "/>
<g>
	<rect x="189.824" y="174.704" style="fill:#EBF0F3;" width="1.788" height="56.384"/>
	<rect x="175.36" y="188.298" style="fill:#EBF0F3;" width="30.775" height="2.679"/>
</g>
<rect x="178.833" y="256.778" style="fill:#64798A;" width="68.523" height="60.032"/>
<rect x="211.2" y="256.778" style="fill:#3A556A;" width="3.84" height="60.032"/>
<rect x="263.467" y="164.277" style="fill:#E1E6E9;" width="152.166" height="152.533"/>
<polyline style="fill:#64798A;" points="263.463,164.294 341.329,99.292 415.631,164.294 "/>
<polyline style="fill:#E1E6E9;" points="277.483,166.928 341.329,109.82 401.611,166.928 "/>
<rect x="277.845" y="174.922" style="fill:#2D93BA;" width="30.775" height="56.162"/>
<polygon style="fill:#27A2DB;" points="277.853,231.085 277.853,174.923 308.628,174.923 "/>
<g>
	<rect x="292.352" y="174.704" style="fill:#EBF0F3;" width="1.788" height="56.384"/>
	<rect x="277.845" y="188.298" style="fill:#EBF0F3;" width="30.775" height="2.679"/>
</g>
<rect x="276.962" y="242.6" style="fill:#2D93BA;" width="30.775" height="56.162"/>
<polygon style="fill:#27A2DB;" points="276.961,298.762 276.961,242.6 307.735,242.6 "/>
<g>
	<rect x="291.456" y="242.378" style="fill:#EBF0F3;" width="1.788" height="56.384"/>
	<rect x="276.962" y="255.993" style="fill:#EBF0F3;" width="30.775" height="2.679"/>
</g>
<rect x="324.864" y="174.922" style="fill:#2D93BA;" width="30.775" height="56.162"/>
<polygon style="fill:#27A2DB;" points="324.849,231.085 324.849,174.923 355.624,174.923 "/>
<g>
	<rect x="339.328" y="174.704" style="fill:#EBF0F3;" width="1.788" height="56.384"/>
	<rect x="324.864" y="188.298" style="fill:#EBF0F3;" width="30.775" height="2.679"/>
</g>
<rect x="324.864" y="242.6" style="fill:#2D93BA;" width="30.775" height="56.162"/>
<polygon style="fill:#27A2DB;" points="324.849,298.762 324.849,242.6 355.624,242.6 "/>
<g>
	<rect x="339.328" y="242.378" style="fill:#EBF0F3;" width="1.788" height="56.384"/>
	<rect x="324.864" y="255.993" style="fill:#EBF0F3;" width="30.775" height="2.679"/>
</g>
<rect x="371.371" y="174.922" style="fill:#2D93BA;" width="30.775" height="56.162"/>
<polygon style="fill:#27A2DB;" points="371.358,231.085 371.358,174.923 402.132,174.923 "/>
<g>
	<rect x="385.835" y="174.704" style="fill:#EBF0F3;" width="1.788" height="56.384"/>
	<rect x="371.371" y="188.298" style="fill:#EBF0F3;" width="30.775" height="2.679"/>
</g>
<rect x="371.371" y="242.6" style="fill:#2D93BA;" width="30.775" height="56.162"/>
<polygon style="fill:#27A2DB;" points="371.358,298.762 371.358,242.6 402.132,242.6 "/>
<g>
	<rect x="385.835" y="242.378" style="fill:#EBF0F3;" width="1.788" height="56.384"/>
	<rect x="371.371" y="255.993" style="fill:#EBF0F3;" width="30.775" height="2.679"/>
</g>
<g>
	<path style="fill:#27A2DB;" d="M340.736,142.134h13.448c-0.263-7.325-6.124-13.185-13.448-13.448V142.134z"/>
	<path style="fill:#27A2DB;" d="M339.737,142.134v-13.448c-7.325,0.263-13.185,6.124-13.448,13.448H339.737z"/>
	<path style="fill:#27A2DB;" d="M340.736,143.133v13.448c7.325-0.263,13.185-6.124,13.448-13.448H340.736z"/>
	<path style="fill:#27A2DB;" d="M339.737,143.133h-13.448c0.263,7.325,6.124,13.185,13.448,13.448V143.133z"/>
	<path style="fill:#27A2DB;" d="M88.274,141.522h16.479c-0.322-8.975-7.504-16.157-16.479-16.479V141.522z"/>
	<path style="fill:#27A2DB;" d="M87.05,141.522v-16.479c-8.975,0.322-16.157,7.504-16.479,16.479H87.05z"/>
	<path style="fill:#27A2DB;" d="M88.274,142.746v16.479c8.975-0.322,16.157-7.504,16.479-16.479H88.274z"/>
	<path style="fill:#27A2DB;" d="M87.05,142.746H70.571c0.322,8.975,7.504,16.157,16.479,16.479V142.746z"/>
</g>
<g>
</g>
<g>
</g>
<g>
</g>
<g>
</g>
<g>
</g>
<g>
</g>
<g>
</g>
<g>
</g>
<g>
</g>
<g>
</g>
<g>
</g>
<g>
</g>
<g>
</g>
<g>
</g>
<g>
</g>
</svg>
