<svg width="89" height="89" viewBox="0 0 89 89" fill="none" xmlns="http://www.w3.org/2000/svg">
<path d="M177 88.5C177 39.6306 137.369 0 88.5 0C39.6306 0 0 39.6306 0 88.5C0 137.369 39.6306 177 88.5 177C137.369 177 177 137.369 177 88.5Z" transform="scale(0.5)" fill="#48A1AF"/>
<path d="M63.7443 58.0369C88.7854 58.0369 111.401 47.6209 127.489 30.9268C126.49 25.5405 125.491 20.6179 124.528 17.5858C121.496 7.84764 95.5629 0 63.6016 0C31.6403 0 5.99274 7.84764 2.9607 17.5858C2.03325 20.6179 0.998791 25.5048 5.44298e-07 30.9268C16.0877 47.6209 38.7031 58.0369 63.7443 58.0369Z" transform="translate(12.3779 59.4816) scale(0.5)" fill="#7D7547"/>
<path d="M10.794 6.34945C10.366 5.85006 9.75955 5.56469 9.15314 5.24365C8.8321 5.10096 8.54672 4.92262 8.19001 4.85127C7.8333 4.74426 7.40525 4.74426 7.01287 4.67292C6.19244 4.60158 5.51468 4.35188 5.15797 3.78114C4.80126 3.2104 4.90827 2.14027 4.65858 1.42685C4.55156 1.07014 4.33753 0.820433 4.05216 0.642078C3.76679 0.463722 3.48143 0.285371 3.12472 0.178358C2.76801 0.0713444 2.4113 2.17719e-06 1.94757 2.17719e-06C1.51952 2.17719e-06 1.02013 0.0356733 0.449392 0.178358L0.0926806 0.570742C-0.0143327 1.17715 -0.0143371 1.64087 0.021334 2.10459C0.0570051 2.53265 0.164023 2.92503 0.271036 3.24607C0.41372 3.56711 0.592074 3.88815 0.770429 4.13785C0.984456 4.38755 1.23415 4.60157 1.59086 4.70858C2.30428 4.88694 3.37442 4.70859 3.94515 5.02963C4.55156 5.35067 4.83693 5.99275 4.94394 6.81318C5.01528 7.20557 5.08663 7.63361 5.19364 7.99033C5.30066 8.34704 5.47901 8.63241 5.65736 8.91778C5.9784 9.52419 6.33512 10.1306 6.87019 10.4873C7.40526 10.8797 8.04733 11.1294 8.79643 11.2721C9.54552 11.4148 10.4016 11.4861 11.4718 11.2721L11.8285 10.8797C11.9712 9.77388 11.8641 8.95345 11.6501 8.20435C11.5431 7.49093 11.2221 6.84885 10.794 6.34945Z" transform="translate(59.917 74.3029) scale(0.5)" fill="#E0CD7C"/>
<path d="M10.5517 8.63241C10.088 8.38271 9.58857 8.20435 9.05351 7.99032C8.01905 7.59794 7.16294 7.06288 6.66354 6.20677C6.12847 5.35066 6.12847 4.06651 5.77176 3.10339C5.59341 2.60399 5.27237 2.24727 4.91566 1.89056C4.55895 1.56952 4.16656 1.24848 3.73851 0.998786C3.31046 0.749089 2.81107 0.499393 2.276 0.321038C1.74093 0.142682 1.13452 0 0.421097 0L0.0287185 0.356711C-0.0426237 1.07013 0.0287196 1.67655 0.135733 2.21161C0.242746 2.78235 0.421097 3.28174 0.599453 3.74547C0.813479 4.20919 1.06318 4.63725 1.34855 5.02963C1.63392 5.42201 1.95496 5.77872 2.41868 6.02841C3.31046 6.52781 4.63029 6.70617 5.37938 7.31258C6.16415 7.91898 6.5922 8.84643 6.8419 9.91656C6.87757 10.0949 6.91324 10.2376 6.98458 10.416C9.08918 10.5943 11.1938 10.7013 13.334 10.737C12.8703 10.2733 12.3352 9.8809 11.8002 9.48851C11.4078 9.16747 11.0154 8.88211 10.5517 8.63241Z" transform="translate(36.8701 83.1136) scale(0.5)" fill="#E0CD7C"/>
<path d="M12.144 0.294852C11.5733 0.0808259 11.1096 0.0451591 10.6458 0.00948802C10.2178 -0.0261831 9.82541 0.0451548 9.46869 0.116497C9.11198 0.187839 8.79095 0.330526 8.50558 0.508881C8.22021 0.687237 7.97051 0.901266 7.82782 1.25798C7.54245 1.93573 7.57812 3.00586 7.18574 3.54092C6.79336 4.11166 6.11561 4.29002 5.29518 4.29002C4.90279 4.29002 4.47474 4.29002 4.11803 4.36137C3.76132 4.43271 3.44028 4.57539 3.11924 4.6824C2.47716 4.9321 1.83508 5.18179 1.40702 5.64552C0.9433 6.10924 0.622262 6.75132 0.372564 7.46475C0.122866 8.17817 -0.0554891 8.9986 0.0158531 10.1401L0.336891 10.5681C1.40702 10.8535 2.26313 10.8535 3.01222 10.7822C3.76132 10.6752 4.43907 10.4611 5.00981 10.1401C5.58054 9.78337 5.93725 9.21264 6.32964 8.6419C6.50799 8.35653 6.72202 8.07116 6.8647 7.75012C7.00739 7.39341 7.07873 7.00102 7.18574 6.60864C7.3641 5.78821 7.68514 5.1818 8.32722 4.89643C8.93363 4.61106 9.96809 4.86076 10.7172 4.71808C11.0739 4.64674 11.3593 4.46837 11.5733 4.21867C11.7873 3.96898 12.0013 3.68361 12.144 3.36257C12.2867 3.04153 12.4294 2.68482 12.5007 2.2211C12.5721 1.79305 12.6077 1.32932 12.5364 0.687237L12.144 0.294852Z" transform="translate(34.6465 69.4647) scale(0.5)" fill="#E0CD7C"/>
<path d="M17.2291 12.3515C16.9438 11.9234 16.6584 11.4954 16.3017 11.1387C15.9807 10.782 15.5883 10.4609 15.0889 10.2826C14.1258 9.89017 12.8059 9.89017 11.9498 9.35511C11.0937 8.85571 10.523 7.99961 10.0949 6.92948C9.8809 6.43008 9.66687 5.89501 9.41718 5.43129C9.16748 4.96756 8.84643 4.57518 8.56106 4.1828C7.95465 3.36236 7.34825 2.57759 6.52781 1.97119C5.74305 1.40045 4.8156 0.936725 3.81681 0.580014C3.31741 0.401659 2.78235 0.258981 2.21161 0.151968C1.64087 0.0449545 1.03446 -0.0263963 0.356707 0.00927475L-4.35438e-06 0.401659C0.0713378 1.07941 0.214024 1.65015 0.39238 2.22089C0.570735 2.75595 0.784769 3.29102 1.03447 3.75474C1.53386 4.71786 2.1046 5.5383 2.78235 6.28739C3.4601 7.00081 4.35187 7.50021 5.24365 7.99961C5.6717 8.24931 6.09975 8.499 6.59915 8.67736C7.09854 8.85571 7.63362 8.99839 8.16869 9.14108C9.23882 9.39078 10.1663 9.8545 10.8083 10.6393C11.4504 11.424 11.6288 12.7082 12.1282 13.6356C12.3779 14.0994 12.7346 14.4561 13.1626 14.7414C13.555 15.0268 14.0187 15.2765 14.4825 15.4905C14.9462 15.7046 15.4813 15.8829 16.0163 15.9899C16.5871 16.0969 17.1935 16.1683 17.9069 16.0969L18.2636 15.7046C18.2279 14.9911 18.0852 14.3847 17.9069 13.8497C17.7285 13.2789 17.5145 12.7795 17.2291 12.3515Z" transform="translate(46.5146 63.1867) scale(0.5)" fill="#603616"/>
<path d="M6.56348 5.70017C7.7763 5.77151 8.95345 5.55748 10.1663 5.37913C10.7727 5.27212 11.3791 5.20077 11.9855 4.98674C12.5919 4.80839 13.1983 4.55869 13.8047 4.309C15.0175 3.8096 16.1947 3.52423 17.4075 3.70258C18.6203 3.84527 19.8331 4.73705 21.0103 5.05809C21.6167 5.23645 22.2231 5.27212 22.8295 5.20077C23.4359 5.1651 24.0423 5.05809 24.6487 4.91541C25.2551 4.77272 25.8615 4.55869 26.468 4.27332C27.0744 3.98795 27.6808 3.63125 28.2872 3.09618V2.56111C27.6808 2.02605 27.0744 1.705 26.468 1.38396C25.8615 1.09859 25.2551 0.88457 24.6487 0.741886C24.0423 0.599202 23.4359 0.492193 22.8295 0.456522C22.2231 0.385179 21.6167 0.420848 21.0103 0.599204C19.7975 0.955915 18.6203 1.81202 17.4075 1.99037C16.1947 2.16873 14.9819 1.91903 13.8047 1.38396C13.1983 1.13426 12.5919 0.884568 11.9855 0.706213C11.3791 0.527857 10.7727 0.420844 10.1663 0.349502C8.95345 0.135475 7.74063 -0.0785492 6.56348 0.0284641C5.95707 0.0641352 5.35067 0.171153 4.74426 0.278166C4.13785 0.385179 3.53144 0.563533 2.92503 0.777559C2.31862 0.991586 1.71221 1.20561 1.1058 1.52665C0.749093 1.70501 0.392382 1.91903 0 2.13306C1.42684 3.27453 2.85369 4.34467 4.35187 5.4148C4.45889 5.45047 4.60157 5.48614 4.70858 5.48614C5.35066 5.55748 5.95707 5.6645 6.56348 5.70017Z" transform="translate(16.5869 77.7488) scale(0.5)" fill="#603616"/>
<path d="M17.8356 0.599199C16.8368 0.955911 15.8736 1.81201 14.8748 1.99037C13.8761 2.16873 12.8773 1.91903 11.9141 1.38397C11.4148 1.13427 10.9154 0.884575 10.416 0.706219C9.91656 0.527864 9.41717 0.420851 8.91778 0.349508C7.91899 0.135482 6.92019 -0.0785536 5.95707 0.0284597C4.95828 0.0998019 3.95949 0.385173 2.99637 0.777555C2.49698 0.991582 1.99758 1.20561 1.49818 1.52665C0.998786 1.81202 0.499398 2.16873 2.17719e-06 2.63246V3.16752C0.499398 3.63125 0.998786 3.98796 1.49818 4.27333C1.99758 4.5587 2.49698 4.80839 2.99637 5.02241C3.99516 5.4148 4.99395 5.6645 5.95707 5.77151C6.95586 5.84285 7.95466 5.62883 8.91778 5.45047C9.41717 5.34346 9.91656 5.27211 10.416 5.05809C10.9154 4.87973 11.4148 4.63004 11.9141 4.38034C12.9129 3.88094 13.8761 3.59557 14.8748 3.77393C15.8736 3.91661 16.8724 4.80839 17.8356 5.12943C18.3349 5.30779 18.8343 5.34346 19.3337 5.27212C19.7618 5.23644 20.1542 5.1651 20.5822 5.02241C20.1898 3.3102 19.7975 1.81202 19.4408 0.599199C19.4408 0.563528 19.4051 0.527862 19.4051 0.492191C19.3694 0.492191 19.3694 0.492191 19.3337 0.492191C18.8343 0.385177 18.3349 0.420844 17.8356 0.599199Z" transform="translate(64.9395 67.9927) scale(0.5)" fill="#603616"/>
<path d="M0.677751 2.96071C0.927449 3.42443 1.21282 3.85248 1.53386 4.20919C1.8549 4.60158 2.21161 4.92261 2.711 5.13663C3.67412 5.60036 4.95828 5.67171 5.77872 6.27811C6.59915 6.84885 7.13422 7.74063 7.45526 8.81076C7.63361 9.34583 7.81197 9.88089 8.026 10.3446C8.24002 10.844 8.52539 11.2364 8.81076 11.6645C9.3815 12.5206 9.91656 13.3767 10.6657 13.9831C11.4147 14.6252 12.3065 15.1245 13.3053 15.5526C13.8047 15.7666 14.3041 15.945 14.8748 16.0877C15.4456 16.2304 16.0163 16.3374 16.6941 16.3374L17.0865 15.945C17.0508 15.2672 16.9438 14.6608 16.8011 14.1258C16.6584 13.555 16.48 13.0556 16.266 12.5562C15.838 11.5574 15.3386 10.7013 14.6965 9.91657C14.0544 9.16748 13.1983 8.59674 12.3422 8.06167C11.9141 7.7763 11.5218 7.49093 11.0224 7.2769C10.5586 7.06287 10.0236 6.88453 9.48851 6.70617C8.41838 6.38513 7.5266 5.88573 6.95586 5.02963C6.38513 4.20919 6.27811 2.88936 5.81439 1.96191C5.60036 1.49818 5.24365 1.10581 4.85127 0.82044C4.45889 0.4994 4.0665 0.214024 3.60278 -2.17719e-06C2.35429 0.39238 1.14148 0.820433 0 1.24849C0 1.31983 0.0356706 1.39117 0.0356706 1.42684C0.249697 1.99758 0.463725 2.49698 0.677751 2.96071Z" transform="translate(20.8672 62.3174) scale(0.5)" fill="#2D2825"/>
<path d="M5.74305 20.9389C6.09976 19.8331 6.13543 18.656 6.20677 17.4788C6.24244 16.9081 6.27811 16.3017 6.24244 15.6953C6.20677 15.0889 6.06409 14.4825 5.95708 13.8404C5.70738 12.5919 5.70737 11.4148 6.1711 10.3446C6.59915 9.27449 7.70495 8.34704 8.31136 7.2769C8.6324 6.74184 8.77509 6.20677 8.84643 5.63603C8.91777 5.06529 8.95345 4.49456 8.95345 3.88815C8.91778 3.28174 8.84643 2.67533 8.70375 2.06892C8.56106 1.42684 8.34703 0.784762 7.95465 0.107011L7.41958 2.17719e-06C6.7775 0.428055 6.31378 0.927451 5.88573 1.42685C5.45768 1.92624 5.13664 2.42563 4.85127 2.9607C4.5659 3.49577 4.35188 4.03083 4.17352 4.5659C3.99517 5.10096 3.88815 5.67171 3.92382 6.27812C3.99516 7.49093 4.5659 8.81076 4.45889 9.95224C4.38755 11.1294 3.85248 12.1638 3.06772 13.1983C2.71101 13.6977 2.31862 14.1971 1.99758 14.7322C1.67654 15.2672 1.46252 15.8023 1.24849 16.3374C0.784764 17.4075 0.321038 18.4776 0.142682 19.6191C0.0356689 20.1898 0 20.7606 0 21.367C0 21.9734 4.35332e-06 22.5441 0.0713466 23.1505C0.107018 23.4002 0.142684 23.6856 0.178356 23.9353C1.74788 23.6856 3.28174 23.3646 4.77993 23.0435C4.85127 22.8652 4.95828 22.7225 5.02963 22.5441C5.35067 22.0447 5.56469 21.474 5.74305 20.9389Z" transform="translate(51.4551 75.9081) scale(0.5)" fill="#2D2825"/>
<path d="M32.2823 -2.17719e-06H-2.17719e-06V8.45405H32.2823V-2.17719e-06Z" transform="translate(36.1885 57.9477) scale(0.5)" fill="#443E26"/>
<path d="M15.4356 -2.17719e-06C14.9362 -2.17719e-06 14.4011 -2.17719e-06 13.9017 -2.17719e-06C13.759 -2.17719e-06 13.6164 -2.17719e-06 13.5093 -2.17719e-06C13.117 -2.17719e-06 12.7602 -2.17719e-06 12.3679 -2.17719e-06C12.2965 -2.17719e-06 12.1895 -2.17719e-06 12.1182 -2.17719e-06C7.90897 0.07134 3.91381 0.285371 0.239689 0.606411C-2.25729 0.820437 15.5783 41.4141 15.5783 41.4141C15.5783 41.4141 32.7361 0.856111 30.8098 0.642084C26.2082 0.249702 21.143 -2.17719e-06 15.4356 -2.17719e-06Z" transform="translate(36.4609 59.4637) scale(0.5)" fill="#C9DEE2"/>
<path d="M16.1233 -2.17719e-06L2.17719e-06 45.9087L31.1765 6.95586L16.1233 -2.17719e-06Z" transform="translate(44.25 57.9477) scale(0.5)" fill="#68603A"/>
<path d="M15.1602 -2.17719e-06L31.2122 45.9087L2.17719e-06 6.95586L15.1602 -2.17719e-06Z" transform="translate(28.6436 57.9477) scale(0.5)" fill="#68603A"/>
<path d="M27.7521 2.17719e-06H-1.0886e-06C4.3162 13.0556 0.35671 19.0127 0.35671 19.0127C0.35671 19.0127 6.38513 21.1886 13.8761 21.1886C21.367 21.1886 27.3954 19.0127 27.3954 19.0127C27.3954 19.0127 23.4359 13.0556 27.7521 2.17719e-06Z" transform="translate(37.3115 50.3141) scale(0.5)" fill="#E2A379"/>
<path d="M62.9952 40.5224C62.9952 7.56227 48.9051 -5.44298e-07 31.4976 -5.44298e-07C14.1258 -5.44298e-07 1.0886e-06 7.56227 1.0886e-06 40.5224C1.0886e-06 51.6874 2.21161 60.4268 5.52902 67.1687C12.8059 82.0079 25.3978 87.1802 31.4976 87.1802C37.5973 87.1802 50.1892 82.0079 57.4661 67.1687C60.7836 60.4268 62.9952 51.6874 62.9952 40.5224Z" transform="translate(28.501 10.9867) scale(0.5)" fill="#F4B382"/>
<path d="M2.17719e-06 -6.10352e-06H0.178358C0.107015 -6.10352e-06 0.0713444 -6.10352e-06 2.17719e-06 -6.10352e-06Z" transform="translate(44.1611 52.2404) scale(0.5)" fill="#191919"/>
<path d="M0.178358 -6.10352e-06C0.107015 -6.10352e-06 0.0713444 -6.10352e-06 2.17719e-06 -6.10352e-06H0.178358Z" transform="translate(44.25 52.2404) scale(0.5)" fill="#191919"/>
<path d="M7.38128 21.6167C4.38491 22.1161 2.24465 21.6524 0.568107 11.7358C-1.10843 1.81923 1.17451 0.499398 4.17089 2.17719e-06L7.38128 21.6167Z" transform="translate(26.7012 31.7651) scale(0.5)" fill="#F4B382"/>
<path d="M-2.17719e-06 21.6167C2.99637 22.1161 5.10097 21.6524 6.81318 11.7358C8.52539 1.81923 6.20677 0.499398 3.2104 2.17719e-06L-2.17719e-06 21.6167Z" transform="translate(58.126 31.7651) scale(0.5)" fill="#F4B382"/>
<path d="M19.0484 2.47921C19.0484 3.40666 14.8035 5.86797 9.52419 5.86797C4.24486 5.86797 -2.17719e-06 3.37099 -2.17719e-06 2.47921C-2.17719e-06 1.90847 3.03204 0.303277 5.02963 0.017908C6.31378 -0.160447 9.48851 1.05237 9.48851 1.05237C9.48851 1.05237 12.6276 -0.160447 13.9117 0.017908C15.9806 0.303277 19.0484 2.47921 19.0484 2.47921Z" transform="translate(39.4883 44.5978) scale(0.5)" fill="#E5A173"/>
<path d="M19.0484 0C19.0484 0.927449 14.8035 4.42321 9.52419 4.42321C4.24486 4.42321 -2.17719e-06 0.891778 -2.17719e-06 0C-2.17719e-06 0 3.88815 0.46372 9.52419 0.46372C15.1602 0.46372 19.0484 0 19.0484 0Z" transform="translate(39.4883 45.8373) scale(0.5)" fill="#D89364"/>
<path d="M62.9952 41.4141C62.9952 8.45405 52.1868 -5.44298e-07 31.4976 -5.44298e-07C10.8083 -5.44298e-07 1.0886e-06 8.45405 1.0886e-06 41.4141L14.1971 29.607C14.1971 29.607 23.6499 29.607 31.4976 29.607C39.3452 29.607 47.9776 17.0151 47.9776 17.0151L62.9952 41.4141Z" transform="translate(28.501 10.5408) scale(0.5)" fill="#30302E"/>
<path d="M71.1044 5.28779C59.6896 -3.9867 24.732 -0.41959 7.60984 10.9952C-9.51229 22.4099 7.60984 30.2576 7.60984 30.2576H71.1044C71.1044 30.2576 82.5191 14.5623 71.1044 5.28779Z" transform="translate(24.3936 9.32373) scale(0.5)" fill="#603616"/>
<path d="M9.80955 19.6191C15.2272 19.6191 19.6191 15.2272 19.6191 9.80955C19.6191 4.39189 15.2272 0 9.80955 0C4.39189 0 2.17719e-06 4.39189 2.17719e-06 9.80955C2.17719e-06 15.2272 4.39189 19.6191 9.80955 19.6191Z" transform="translate(39.3447 12.0568) scale(0.5)" fill="#D61E1E"/>
<path d="M13.4837 0H0V3.60278H13.4837V0Z" transform="translate(40.8789 16.0698) scale(0.5)" fill="#E6E7E8"/>
<path d="M3.60278 0H2.17719e-06V13.4837H3.60278V0Z" transform="translate(43.3584 13.5907) scale(0.5)" fill="#E6E7E8"/>
<path d="M1.99758 0.784765C0.499395 4.67291 -2.17719e-06 9.48851 -2.17719e-06 14.1614C-2.17719e-06 14.1614 3.13906 13.4837 3.13906 15.0889L4.13785 24.9341L5.52902 24.2564C5.45768 16.052 7.27691 2.17719e-06 7.27691 2.17719e-06L1.99758 0.784765Z" transform="translate(28.5195 24.7201) scale(0.5)" fill="#30302E"/>
<path d="M5.27932 0.142685C6.7775 4.03084 7.2769 8.84643 7.2769 13.5193C7.2769 13.5193 4.13785 12.8416 4.13785 14.4468L3.13905 24.292L1.74788 23.6143C1.81922 15.4099 0 -2.17719e-06 0 -2.17719e-06L5.27932 0.142685Z" transform="translate(56.3604 25.0411) scale(0.5)" fill="#30302E"/>
</svg>
