<svg width="474" height="294" viewBox="0 0 474 294" fill="none" xmlns="http://www.w3.org/2000/svg">
<path d="M32.9983 2.04246L25.9857 -1.21858e-06L12.3565 4.05658L-2.49552e-08 5.2622V7.73434L13.3701 11.6285L39.3559 3.89415V1.4221L32.9983 2.04246Z" transform="translate(251.246 256.144) scale(3)" fill="#31978C"/>
<path d="M25.9857 6.60924e-07L-2.49552e-08 7.73423L13.3701 11.6284L39.3559 3.89414L25.9857 6.60924e-07Z" transform="translate(251.246 248.727) scale(3)" fill="#3EA69B"/>
<path d="M7.97012 9.48771L0.0188983 7.17183C0.977276 6.88656 0.968826 6.4266 -2.77279e-07 6.14438L20.6251 0.00558306C21.5939 0.287803 23.1562 0.285264 24.1147 -1.23923e-06L32.0659 2.31588C31.1076 2.60114 31.116 3.06111 32.0848 3.34333L11.4597 9.48212C10.4908 9.1999 8.9285 9.20244 7.97012 9.48771Z" transform="translate(262.151 251.937) scale(3)" fill="#44C4A1"/>
<path d="M9.35265 0.639171C11.8714 1.37281 12.3177 2.44247 10.3492 3.02831C8.38073 3.61415 4.7431 3.49445 2.2243 2.76081C-0.29449 2.02718 -0.740699 0.957516 1.22776 0.371672C3.19622 -0.214171 6.83377 -0.0944653 9.35265 0.639171Z" transform="translate(292.915 261.07) scale(3)" fill="#3EA69B"/>
<path d="M1.9531 0.097611C2.4033 0.228739 2.4073 0.442517 1.96191 0.575083C1.51652 0.707649 0.790475 0.708833 0.340271 0.577706C-0.109933 0.446578 -0.113932 0.2328 0.331457 0.100234C0.776754 -0.0324163 1.50281 -0.0335165 1.9531 0.097611Z" transform="translate(337.125 256.144) scale(3)" fill="#3EA69B"/>
<path d="M1.9531 0.0975795C2.4033 0.228707 2.4073 0.442486 1.96191 0.575052C1.51652 0.707618 0.790475 0.708803 0.340271 0.577675C-0.109933 0.446547 -0.11393 0.232768 0.331458 0.100203C0.776755 -0.0323633 1.5028 -0.0335482 1.9531 0.0975795Z" transform="translate(276.557 274.17) scale(3)" fill="#3EA69B"/>
<path d="M7.75467 2.52391L7.10785 2.33551C6.22416 2.54988 5.1831 2.67018 3.98568 2.69615L3.85466 2.2812C4.77669 2.26072 5.53854 2.18518 6.1422 2.0543L4.42298 1.55356C3.60299 1.70373 2.90956 1.78663 2.34278 1.8022C1.7761 1.81776 1.23722 1.75119 0.726322 1.60238C0.215425 1.45357 -0.026348 1.27938 0.00227242 1.07939C0.0312562 0.879486 0.31428 0.690914 0.851888 0.513511L0.408772 0.384414L0.96946 0.217502L1.4213 0.349052C2.11164 0.171649 2.94081 0.0551591 3.90954 9.50079e-07L4.15477 0.407087C3.49123 0.441095 2.90256 0.515458 2.38721 0.630428L4.05301 1.1156L4.07945 1.10773C4.91116 0.95427 5.62041 0.870094 6.20726 0.855374C6.79511 0.840485 7.34726 0.908503 7.86397 1.05892C8.38105 1.2095 8.621 1.38614 8.58311 1.5885C8.54595 1.79112 8.2443 1.9851 7.67753 2.17122L8.31535 2.357L7.75467 2.52391ZM1.41639 1.04208C1.39995 1.12507 1.49126 1.19537 1.68924 1.25307C1.88722 1.31077 2.10219 1.33885 2.33415 1.33758C2.56584 1.33657 2.89911 1.30256 3.33287 1.23607L1.79972 0.789555C1.5604 0.874831 1.43247 0.958923 1.41639 1.04208ZM7.14737 1.62446C7.17517 1.53631 7.08595 1.46203 6.87898 1.40179C6.67236 1.34164 6.44413 1.31297 6.19454 1.31584C5.94422 1.31897 5.59097 1.35721 5.1344 1.43056L6.72924 1.89509C6.98037 1.80313 7.11929 1.71295 7.14737 1.62446Z" transform="translate(297.457 261.98) scale(3)" fill="#44C4A1"/>
<path d="M32.9983 2.04246L25.9857 -1.05335e-06L12.3565 4.05659L-2.49552e-08 5.26228V7.73434L13.3701 11.6285L39.3559 3.89415V1.4221L32.9983 2.04246Z" transform="translate(251.246 247.432) scale(3)" fill="#31978C"/>
<path d="M25.9857 -4.64714e-07L-2.49552e-08 7.73434L13.3701 11.6285L39.3559 3.89415L25.9857 -4.64714e-07Z" transform="translate(251.246 240.016) scale(3)" fill="#3EA69B"/>
<path d="M7.97012 9.48766L0.0188983 7.17185C0.977276 6.88659 0.968826 6.42662 -2.77279e-07 6.1444L20.6251 0.00558384C21.5939 0.287805 23.1562 0.285266 24.1147 -4.75041e-07L32.0659 2.31589C31.1076 2.60116 31.116 3.06112 32.0848 3.34334L11.4597 9.48216C10.4908 9.19994 8.9285 9.20239 7.97012 9.48766Z" transform="translate(262.151 243.227) scale(3)" fill="#44C4A1"/>
<path d="M9.35265 0.639209C11.8714 1.37285 12.3177 2.44251 10.3492 3.02836C8.38073 3.6142 4.7431 3.49449 2.2243 2.76086C-0.29449 2.02722 -0.740699 0.957554 1.22776 0.371709C3.19613 -0.21422 6.83377 -0.0944299 9.35265 0.639209Z" transform="translate(292.915 252.36) scale(3)" fill="#3EA69B"/>
<path d="M1.9531 0.0975798C2.4033 0.228707 2.4073 0.442486 1.96191 0.575052C1.51652 0.707618 0.790475 0.708803 0.340271 0.577675C-0.109933 0.446548 -0.113932 0.232766 0.331457 0.1002C0.776754 -0.0323656 1.50281 -0.0335479 1.9531 0.0975798Z" transform="translate(337.125 247.433) scale(3)" fill="#3EA69B"/>
<path d="M1.9531 0.0975797C2.4033 0.228707 2.4073 0.442486 1.96191 0.575052C1.51652 0.707618 0.790475 0.708803 0.340271 0.577675C-0.109933 0.446547 -0.11393 0.232769 0.331458 0.100203C0.776846 -0.0323631 1.5028 -0.033548 1.9531 0.0975797Z" transform="translate(276.557 265.459) scale(3)" fill="#3EA69B"/>
<path d="M7.75467 2.52391L7.10785 2.33551C6.22416 2.54988 5.1831 2.67018 3.98568 2.69615L3.85466 2.2812C4.77669 2.26072 5.53854 2.18518 6.1422 2.0543L4.42298 1.55356C3.60299 1.70373 2.90956 1.78663 2.34278 1.8022C1.7761 1.81776 1.23722 1.75119 0.726322 1.60238C0.215425 1.45357 -0.026348 1.27938 0.00227242 1.07939C0.0312562 0.879483 0.31428 0.690914 0.851888 0.513511L0.408772 0.384414L0.96946 0.217502L1.4213 0.349052C2.11164 0.171649 2.94081 0.0551592 3.90954 1.11531e-06L4.15477 0.407087C3.49123 0.441095 2.90256 0.515458 2.38721 0.630342L4.05301 1.11551L4.07945 1.10765C4.91116 0.954185 5.62041 0.870009 6.20726 0.855289C6.79511 0.8404 7.34726 0.908418 7.86397 1.05883C8.38105 1.20942 8.621 1.38606 8.58311 1.58842C8.54595 1.79103 8.2443 1.98502 7.67753 2.17113L8.31535 2.35691L7.75467 2.52391ZM1.41639 1.04208C1.39995 1.12507 1.49126 1.19537 1.68924 1.25307C1.88722 1.31077 2.10219 1.33885 2.33415 1.33758C2.56584 1.33657 2.89911 1.30256 3.33287 1.23607L1.79972 0.789556C1.5604 0.874831 1.43247 0.959008 1.41639 1.04208ZM7.14737 1.62454C7.17517 1.53639 7.08595 1.46211 6.87898 1.40188C6.67236 1.34173 6.44413 1.31305 6.19454 1.31593C5.94422 1.31906 5.59097 1.3573 5.1344 1.43064L6.72924 1.89517C6.98037 1.80313 7.11929 1.71295 7.14737 1.62454Z" transform="translate(297.457 253.269) scale(3)" fill="#44C4A1"/>
<path d="M32.9983 2.04246L25.9857 4.02752e-07L12.3565 4.05659L-2.49552e-08 5.26228V7.73434L13.3701 11.6285L39.3559 3.89424V1.42219L32.9983 2.04246Z" transform="translate(251.246 238.721) scale(3)" fill="#31978C"/>
<path d="M25.9857 -2.99482e-07L-2.49552e-08 7.73434L13.3701 11.6285L39.3559 3.89424L25.9857 -2.99482e-07Z" transform="translate(251.246 231.305) scale(3)" fill="#3EA69B"/>
<path d="M7.97012 9.48766L0.0188983 7.17185C0.977276 6.88659 0.968826 6.42662 -2.77279e-07 6.1444L20.6251 0.00558401C21.5939 0.287805 23.1562 0.285266 24.1147 -3.0981e-07L32.0659 2.3158C31.1076 2.60107 31.116 3.06103 32.0848 3.34326L11.4597 9.48207C10.4908 9.19994 8.9285 9.20239 7.97012 9.48766Z" transform="translate(262.151 234.516) scale(3)" fill="#44C4A1"/>
<path d="M9.35265 0.639171C11.8714 1.37281 12.3177 2.44247 10.3492 3.02831C8.38073 3.61416 4.7431 3.49445 2.2243 2.76081C-0.29449 2.02718 -0.740699 0.957516 1.22776 0.371673C3.19613 -0.214171 6.83377 -0.094465 9.35265 0.639171Z" transform="translate(292.915 243.648) scale(3)" fill="#3EA69B"/>
<path d="M1.9531 0.0975787C2.4033 0.228706 2.4073 0.442487 1.96191 0.575052C1.51652 0.707618 0.790475 0.708803 0.340271 0.577675C-0.109933 0.446548 -0.113932 0.232768 0.331457 0.100202C0.776754 -0.0323642 1.50281 -0.033549 1.9531 0.0975787Z" transform="translate(337.125 238.721) scale(3)" fill="#3EA69B"/>
<path d="M1.9531 0.0976416C2.4033 0.22877 2.4073 0.442552 1.96191 0.575118C1.51652 0.707684 0.790475 0.708869 0.340271 0.577741C-0.109933 0.446613 -0.11393 0.232831 0.331458 0.100265C0.776755 -0.0323862 1.5028 -0.0335711 1.9531 0.0976416Z" transform="translate(276.557 256.748) scale(3)" fill="#3EA69B"/>
<path d="M7.75467 2.52391L7.10785 2.33551C6.22416 2.54988 5.1831 2.67018 3.98568 2.69615L3.85466 2.28119C4.77669 2.26072 5.53854 2.18518 6.1422 2.0543L4.42298 1.55356C3.60299 1.70373 2.90956 1.78663 2.34278 1.8022C1.7761 1.81776 1.23722 1.75119 0.726322 1.60238C0.215425 1.45357 -0.026348 1.27938 0.00227242 1.07939C0.0312562 0.879484 0.31428 0.690915 0.851888 0.513512L0.408772 0.384415L0.96946 0.217503L1.4213 0.349053C2.11164 0.171565 2.94081 0.0551574 3.90954 -7.02232e-07L4.15477 0.407088C3.49123 0.441096 2.90256 0.515459 2.38721 0.630343L4.05301 1.11551L4.07945 1.10765C4.91116 0.954186 5.62041 0.87001 6.20726 0.85529C6.79511 0.840401 7.34726 0.908418 7.86397 1.05883C8.38105 1.20942 8.621 1.38606 8.58311 1.58842C8.54595 1.79103 8.2443 1.98502 7.67753 2.17113L8.31535 2.35691L7.75467 2.52391ZM1.41639 1.04208C1.39995 1.12507 1.49126 1.19537 1.68924 1.25307C1.88722 1.31077 2.10219 1.33885 2.33415 1.33758C2.56584 1.33657 2.89911 1.30256 3.33287 1.23607L1.79972 0.789556C1.5604 0.874747 1.43247 0.958921 1.41639 1.04208ZM7.14737 1.62446C7.17517 1.53631 7.08595 1.46203 6.87898 1.40179C6.67236 1.34165 6.44413 1.31297 6.19454 1.31584C5.94422 1.31897 5.59097 1.35721 5.1344 1.43056L6.72924 1.89509C6.98037 1.80304 7.11929 1.71286 7.14737 1.62446Z" transform="translate(297.457 244.557) scale(3)" fill="#44C4A1"/>
<path d="M32.9983 2.04255L25.9857 5.67983e-07L12.3565 4.05667L-2.49552e-08 5.26228V7.73434L13.3701 11.6285L39.3559 3.89424V1.42219L32.9983 2.04255Z" transform="translate(251.246 230.01) scale(3)" fill="#31978C"/>
<path d="M25.9857 4.64712e-07L-2.49552e-08 7.73423L13.3701 11.6284L39.3559 3.89414L25.9857 4.64712e-07Z" transform="translate(251.246 222.595) scale(3)" fill="#3EA69B"/>
<path d="M7.97012 9.48766L0.0188983 7.17185C0.977276 6.88659 0.968826 6.42662 -2.77279e-07 6.1444L20.6251 0.00558288C21.5939 0.287804 23.1562 0.285267 24.1147 -1.44578e-07L32.0659 2.3158C31.1076 2.60107 31.116 3.06103 32.0848 3.34326L11.4597 9.48207C10.4908 9.19994 8.9285 9.20239 7.97012 9.48766Z" transform="translate(262.151 225.804) scale(3)" fill="#44C4A1"/>
<path d="M9.35265 0.639146C11.8714 1.37278 12.3177 2.44245 10.3492 3.02829C8.38073 3.61413 4.7431 3.49443 2.2243 2.76079C-0.29449 2.02715 -0.740699 0.95749 1.22776 0.371646C3.19613 -0.214198 6.83377 -0.0944068 9.35265 0.639146Z" transform="translate(292.915 234.938) scale(3)" fill="#3EA69B"/>
<path d="M1.9531 0.0976432C2.4033 0.228771 2.4073 0.442552 1.96191 0.575118C1.51652 0.707685 0.790475 0.708868 0.340271 0.57774C-0.109933 0.446612 -0.113932 0.232831 0.331457 0.100265C0.776754 -0.0323859 1.50281 -0.0335695 1.9531 0.0976432Z" transform="translate(337.125 230.011) scale(3)" fill="#3EA69B"/>
<path d="M1.9531 0.0976094C2.4033 0.228737 2.4073 0.442518 1.96191 0.575084C1.51652 0.70765 0.790475 0.708834 0.340271 0.577707C-0.109933 0.446579 -0.11393 0.232798 0.331458 0.100232C0.776755 -0.0324178 1.5028 -0.0335181 1.9531 0.0976094Z" transform="translate(276.557 248.037) scale(3)" fill="#3EA69B"/>
<path d="M7.75467 2.52391L7.10785 2.33551C6.22416 2.54988 5.1831 2.67018 3.98568 2.69615L3.85466 2.28119C4.77669 2.26072 5.53854 2.18518 6.1422 2.0543L4.42298 1.55356C3.60299 1.70373 2.90956 1.78663 2.34278 1.8022C1.7761 1.81777 1.23722 1.75119 0.726322 1.60238C0.215425 1.45357 -0.026348 1.27938 0.00227242 1.07939C0.0312562 0.879484 0.31428 0.690915 0.851888 0.513512L0.408772 0.384415L0.96946 0.217502L1.4213 0.349053C2.11164 0.17165 2.94081 0.0551576 3.90954 -5.37001e-07L4.15477 0.407088C3.49123 0.441096 2.90256 0.515458 2.38721 0.630427L4.05301 1.1156L4.07945 1.10773C4.91116 0.95427 5.62041 0.870094 6.20726 0.855374C6.79511 0.840485 7.34726 0.908502 7.86397 1.05892C8.38105 1.2095 8.621 1.38614 8.58311 1.5885C8.54595 1.79112 8.2443 1.9851 7.67753 2.17122L8.31535 2.35699L7.75467 2.52391ZM1.41639 1.04208C1.39995 1.12507 1.49126 1.19538 1.68924 1.25307C1.88722 1.31077 2.10219 1.33885 2.33415 1.33758C2.56584 1.33657 2.89911 1.30256 3.33287 1.23607L1.79972 0.789557C1.5604 0.874832 1.43247 0.958923 1.41639 1.04208ZM7.14737 1.62446C7.17517 1.53631 7.08595 1.46203 6.87898 1.40179C6.67236 1.34165 6.44413 1.31297 6.19454 1.31584C5.94422 1.31897 5.59097 1.35721 5.1344 1.43056L6.72924 1.89509C6.98037 1.80304 7.11929 1.71286 7.14737 1.62446Z" transform="translate(297.457 235.846) scale(3)" fill="#44C4A1"/>
<path d="M32.9983 2.04246L25.9857 4.13078e-08L12.3565 4.05657L-2.49552e-08 5.26218V7.73431L13.3701 11.6284L39.3559 3.89414V1.4221L32.9983 2.04246Z" transform="translate(251.246 221.3) scale(3)" fill="#31978C"/>
<path d="M25.9857 6.29943e-07L-2.49552e-08 7.73423L13.3701 11.6284L39.3559 3.89414L25.9857 6.29943e-07Z" transform="translate(251.246 213.883) scale(3)" fill="#3EA69B"/>
<path d="M7.97012 9.48766L0.0188983 7.17185C0.977276 6.88659 0.968826 6.42662 -2.77279e-07 6.1444L20.6251 0.00558365C21.5939 0.287805 23.1562 0.285267 24.1147 6.19619e-07L32.0659 2.3158C31.1076 2.60107 31.116 3.06103 32.0848 3.34326L11.4597 9.48207C10.4908 9.19985 8.9285 9.20239 7.97012 9.48766Z" transform="translate(262.151 217.094) scale(3)" fill="#44C4A1"/>
<path d="M9.35265 0.639208C11.8714 1.37285 12.3177 2.44251 10.3492 3.02836C8.38073 3.6142 4.7431 3.49449 2.2243 2.76086C-0.29449 2.02722 -0.740699 0.957553 1.22776 0.371708C3.19613 -0.214222 6.83377 -0.0944301 9.35265 0.639208Z" transform="translate(292.915 226.227) scale(3)" fill="#3EA69B"/>
<path d="M1.9531 0.097611C2.4033 0.228738 2.4073 0.442518 1.96191 0.575084C1.51652 0.70765 0.790475 0.708833 0.340271 0.577706C-0.109933 0.446578 -0.113932 0.232798 0.331457 0.100233C0.776754 -0.0324176 1.50281 -0.0335166 1.9531 0.097611Z" transform="translate(337.125 221.3) scale(3)" fill="#3EA69B"/>
<path d="M1.9531 0.0975795C2.4033 0.228707 2.4073 0.442487 1.96191 0.575053C1.51652 0.707619 0.790475 0.708803 0.340271 0.577675C-0.109933 0.446547 -0.11393 0.232767 0.331458 0.100201C0.776755 -0.0323646 1.5028 -0.0335482 1.9531 0.0975795Z" transform="translate(276.557 239.326) scale(3)" fill="#3EA69B"/>
<path d="M7.75467 2.52391L7.10785 2.33551C6.22416 2.54988 5.1831 2.67018 3.98568 2.69615L3.85466 2.2812C4.77669 2.26072 5.53854 2.18518 6.1422 2.0543L4.42298 1.55356C3.60299 1.70373 2.90956 1.78663 2.34278 1.8022C1.7761 1.81777 1.23722 1.75119 0.726322 1.60238C0.215425 1.45357 -0.026348 1.27938 0.00227242 1.07939C0.0312562 0.879484 0.31428 0.690915 0.851888 0.513512L0.408772 0.384415L0.96946 0.217502L1.4213 0.349053C2.11164 0.17165 2.94081 0.0551578 3.90954 -3.7177e-07L4.15477 0.407088C3.49123 0.441096 2.90256 0.515458 2.38721 0.630427L4.05301 1.1156L4.07945 1.10773C4.91116 0.95427 5.62041 0.870094 6.20726 0.855374C6.79511 0.840485 7.34726 0.908501 7.86397 1.05892C8.38105 1.2095 8.621 1.38614 8.58311 1.5885C8.54595 1.79112 8.2443 1.9851 7.67753 2.17122L8.31535 2.357L7.75467 2.52391ZM1.41639 1.04208C1.39995 1.12507 1.49126 1.19538 1.68924 1.25307C1.88722 1.31077 2.10219 1.33885 2.33415 1.33758C2.56584 1.33657 2.89911 1.30256 3.33287 1.23607L1.79972 0.789557C1.5604 0.874832 1.43247 0.958923 1.41639 1.04208ZM7.14737 1.62446C7.17517 1.53631 7.08595 1.46203 6.87898 1.4018C6.67236 1.34165 6.44413 1.31297 6.19454 1.31584C5.94422 1.31897 5.59097 1.35721 5.1344 1.43056L6.72924 1.89509C6.98037 1.80313 7.11929 1.71295 7.14737 1.62446Z" transform="translate(297.457 227.135) scale(3)" fill="#44C4A1"/>
<path d="M-3.54916e-07 1.77928V15.8697L5.97803 14.0904V-5.47329e-07L-3.54916e-07 1.77928Z" transform="translate(321.185 234.552) scale(3)" fill="white"/>
<path d="M-1.28657e-06 0.183578V14.2739L0.616929 14.0903V-1.23923e-07L-1.28657e-06 0.183578Z" transform="translate(323.326 238.704) scale(3)" fill="#FCD462"/>
<path d="M1.02038e-06 0.183579V14.274L0.616929 14.0904V2.78828e-07L1.02038e-06 0.183579Z" transform="translate(335.13 235.19) scale(3)" fill="#FCD462"/>
<path d="M32.9983 2.04246L25.9857 -1.21858e-06L12.3565 4.05658L-2.49552e-08 5.2622V7.73434L13.3701 11.6285L39.3559 3.89415V1.4221L32.9983 2.04246Z" transform="translate(355.932 175.938) scale(3)" fill="#31978C"/>
<path d="M25.9857 6.60924e-07L-2.49552e-08 7.73423L13.3701 11.6284L39.3559 3.89414L25.9857 6.60924e-07Z" transform="translate(355.932 168.521) scale(3)" fill="#3EA69B"/>
<path d="M7.97012 9.48771L0.0188983 7.17183C0.977276 6.88656 0.968826 6.4266 -2.77279e-07 6.14438L20.6251 0.00558306C21.5939 0.287803 23.1562 0.285264 24.1147 -1.23923e-06L32.0659 2.31588C31.1076 2.60114 31.116 3.06111 32.0848 3.34333L11.4597 9.48212C10.4908 9.1999 8.9285 9.20244 7.97012 9.48771Z" transform="translate(366.838 171.731) scale(3)" fill="#44C4A1"/>
<path d="M9.35265 0.639171C11.8714 1.37281 12.3177 2.44247 10.3492 3.02831C8.38073 3.61415 4.7431 3.49445 2.2243 2.76081C-0.29449 2.02718 -0.740699 0.957516 1.22776 0.371672C3.19622 -0.214171 6.83377 -0.0944653 9.35265 0.639171Z" transform="translate(397.601 180.864) scale(3)" fill="#3EA69B"/>
<path d="M1.9531 0.097611C2.4033 0.228739 2.4073 0.442517 1.96191 0.575083C1.51652 0.707649 0.790475 0.708833 0.340271 0.577706C-0.109933 0.446578 -0.113932 0.2328 0.331457 0.100234C0.776754 -0.0324163 1.50281 -0.0335165 1.9531 0.097611Z" transform="translate(441.81 175.938) scale(3)" fill="#3EA69B"/>
<path d="M1.9531 0.0975795C2.4033 0.228707 2.4073 0.442486 1.96191 0.575052C1.51652 0.707618 0.790475 0.708803 0.340271 0.577675C-0.109933 0.446547 -0.11393 0.232768 0.331458 0.100203C0.776755 -0.0323633 1.5028 -0.0335482 1.9531 0.0975795Z" transform="translate(381.242 193.964) scale(3)" fill="#3EA69B"/>
<path d="M7.75467 2.52391L7.10785 2.33551C6.22416 2.54988 5.1831 2.67018 3.98568 2.69615L3.85466 2.2812C4.77669 2.26072 5.53854 2.18518 6.1422 2.0543L4.42298 1.55356C3.60299 1.70373 2.90956 1.78663 2.34278 1.8022C1.7761 1.81776 1.23722 1.75119 0.726322 1.60238C0.215425 1.45357 -0.026348 1.27938 0.00227242 1.07939C0.0312562 0.879486 0.31428 0.690914 0.851888 0.513511L0.408772 0.384414L0.96946 0.217502L1.4213 0.349052C2.11164 0.171649 2.94081 0.0551591 3.90954 9.50079e-07L4.15477 0.407087C3.49123 0.441095 2.90256 0.515458 2.38721 0.630428L4.05301 1.1156L4.07945 1.10773C4.91116 0.95427 5.62041 0.870094 6.20726 0.855374C6.79511 0.840485 7.34726 0.908503 7.86397 1.05892C8.38105 1.2095 8.621 1.38614 8.58311 1.5885C8.54595 1.79112 8.2443 1.9851 7.67753 2.17122L8.31535 2.357L7.75467 2.52391ZM1.41639 1.04208C1.39995 1.12507 1.49126 1.19537 1.68924 1.25307C1.88722 1.31077 2.10219 1.33885 2.33415 1.33758C2.56584 1.33657 2.89911 1.30256 3.33287 1.23607L1.79972 0.789555C1.5604 0.874831 1.43247 0.958923 1.41639 1.04208ZM7.14737 1.62446C7.17517 1.53631 7.08595 1.46203 6.87898 1.40179C6.67236 1.34164 6.44413 1.31297 6.19454 1.31584C5.94422 1.31897 5.59097 1.35721 5.1344 1.43056L6.72924 1.89509C6.98037 1.80313 7.11929 1.71295 7.14737 1.62446Z" transform="translate(402.142 181.774) scale(3)" fill="#44C4A1"/>
<path d="M32.9983 2.04246L25.9857 -1.05335e-06L12.3565 4.05659L-2.49552e-08 5.26228V7.73434L13.3701 11.6285L39.3559 3.89415V1.4221L32.9983 2.04246Z" transform="translate(355.932 167.226) scale(3)" fill="#31978C"/>
<path d="M25.9857 -4.64714e-07L-2.49552e-08 7.73434L13.3701 11.6285L39.3559 3.89415L25.9857 -4.64714e-07Z" transform="translate(355.932 159.81) scale(3)" fill="#3EA69B"/>
<path d="M7.97012 9.48766L0.0188983 7.17185C0.977276 6.88659 0.968826 6.42662 -2.77279e-07 6.1444L20.6251 0.00558384C21.5939 0.287805 23.1562 0.285266 24.1147 -4.75041e-07L32.0659 2.31589C31.1076 2.60116 31.116 3.06112 32.0848 3.34334L11.4597 9.48216C10.4908 9.19994 8.9285 9.20239 7.97012 9.48766Z" transform="translate(366.838 163.021) scale(3)" fill="#44C4A1"/>
<path d="M9.35265 0.639209C11.8714 1.37285 12.3177 2.44251 10.3492 3.02836C8.38073 3.6142 4.7431 3.49449 2.2243 2.76086C-0.29449 2.02722 -0.740699 0.957554 1.22776 0.371709C3.19613 -0.21422 6.83377 -0.0944299 9.35265 0.639209Z" transform="translate(397.601 172.154) scale(3)" fill="#3EA69B"/>
<path d="M1.9531 0.0975798C2.4033 0.228707 2.4073 0.442486 1.96191 0.575052C1.51652 0.707618 0.790475 0.708803 0.340271 0.577675C-0.109933 0.446548 -0.113932 0.232766 0.331457 0.1002C0.776754 -0.0323656 1.50281 -0.0335479 1.9531 0.0975798Z" transform="translate(441.81 167.227) scale(3)" fill="#3EA69B"/>
<path d="M1.9531 0.0975797C2.4033 0.228707 2.4073 0.442486 1.96191 0.575052C1.51652 0.707618 0.790475 0.708803 0.340271 0.577675C-0.109933 0.446547 -0.11393 0.232769 0.331458 0.100203C0.776846 -0.0323631 1.5028 -0.033548 1.9531 0.0975797Z" transform="translate(381.242 185.253) scale(3)" fill="#3EA69B"/>
<path d="M7.75467 2.52391L7.10785 2.33551C6.22416 2.54988 5.1831 2.67018 3.98568 2.69615L3.85466 2.2812C4.77669 2.26072 5.53854 2.18518 6.1422 2.0543L4.42298 1.55356C3.60299 1.70373 2.90956 1.78663 2.34278 1.8022C1.7761 1.81776 1.23722 1.75119 0.726322 1.60238C0.215425 1.45357 -0.026348 1.27938 0.00227242 1.07939C0.0312562 0.879483 0.31428 0.690914 0.851888 0.513511L0.408772 0.384414L0.96946 0.217502L1.4213 0.349052C2.11164 0.171649 2.94081 0.0551592 3.90954 1.11531e-06L4.15477 0.407087C3.49123 0.441095 2.90256 0.515458 2.38721 0.630342L4.05301 1.11551L4.07945 1.10765C4.91116 0.954185 5.62041 0.870009 6.20726 0.855289C6.79511 0.8404 7.34726 0.908418 7.86397 1.05883C8.38105 1.20942 8.621 1.38606 8.58311 1.58842C8.54595 1.79103 8.2443 1.98502 7.67753 2.17113L8.31535 2.35691L7.75467 2.52391ZM1.41639 1.04208C1.39995 1.12507 1.49126 1.19537 1.68924 1.25307C1.88722 1.31077 2.10219 1.33885 2.33415 1.33758C2.56584 1.33657 2.89911 1.30256 3.33287 1.23607L1.79972 0.789556C1.5604 0.874831 1.43247 0.959008 1.41639 1.04208ZM7.14737 1.62454C7.17517 1.53639 7.08595 1.46211 6.87898 1.40188C6.67236 1.34173 6.44413 1.31305 6.19454 1.31593C5.94422 1.31906 5.59097 1.3573 5.1344 1.43064L6.72924 1.89517C6.98037 1.80313 7.11929 1.71295 7.14737 1.62454Z" transform="translate(402.142 173.062) scale(3)" fill="#44C4A1"/>
<path d="M32.9983 2.04246L25.9857 4.02752e-07L12.3565 4.05659L-2.49552e-08 5.26228V7.73434L13.3701 11.6285L39.3559 3.89424V1.42219L32.9983 2.04246Z" transform="translate(355.932 158.515) scale(3)" fill="#31978C"/>
<path d="M25.9857 -2.99482e-07L-2.49552e-08 7.73434L13.3701 11.6285L39.3559 3.89424L25.9857 -2.99482e-07Z" transform="translate(355.932 151.099) scale(3)" fill="#3EA69B"/>
<path d="M7.97012 9.48766L0.0188983 7.17185C0.977276 6.88659 0.968826 6.42662 -2.77279e-07 6.1444L20.6251 0.00558401C21.5939 0.287805 23.1562 0.285266 24.1147 -3.0981e-07L32.0659 2.3158C31.1076 2.60107 31.116 3.06103 32.0848 3.34326L11.4597 9.48207C10.4908 9.19994 8.9285 9.20239 7.97012 9.48766Z" transform="translate(366.838 154.31) scale(3)" fill="#44C4A1"/>
<path d="M9.35265 0.639171C11.8714 1.37281 12.3177 2.44247 10.3492 3.02831C8.38073 3.61416 4.7431 3.49445 2.2243 2.76081C-0.29449 2.02718 -0.740699 0.957516 1.22776 0.371673C3.19613 -0.214171 6.83377 -0.094465 9.35265 0.639171Z" transform="translate(397.601 163.442) scale(3)" fill="#3EA69B"/>
<path d="M1.9531 0.0975787C2.4033 0.228706 2.4073 0.442487 1.96191 0.575052C1.51652 0.707618 0.790475 0.708803 0.340271 0.577675C-0.109933 0.446548 -0.113932 0.232768 0.331457 0.100202C0.776754 -0.0323642 1.50281 -0.033549 1.9531 0.0975787Z" transform="translate(441.81 158.515) scale(3)" fill="#3EA69B"/>
<path d="M1.9531 0.0976416C2.4033 0.22877 2.4073 0.442552 1.96191 0.575118C1.51652 0.707684 0.790475 0.708869 0.340271 0.577741C-0.109933 0.446613 -0.11393 0.232831 0.331458 0.100265C0.776755 -0.0323862 1.5028 -0.0335711 1.9531 0.0976416Z" transform="translate(381.242 176.542) scale(3)" fill="#3EA69B"/>
<path d="M7.75467 2.52391L7.10785 2.33551C6.22416 2.54988 5.1831 2.67018 3.98568 2.69615L3.85466 2.28119C4.77669 2.26072 5.53854 2.18518 6.1422 2.0543L4.42298 1.55356C3.60299 1.70373 2.90956 1.78663 2.34278 1.8022C1.7761 1.81776 1.23722 1.75119 0.726322 1.60238C0.215425 1.45357 -0.026348 1.27938 0.00227242 1.07939C0.0312562 0.879484 0.31428 0.690915 0.851888 0.513512L0.408772 0.384415L0.96946 0.217503L1.4213 0.349053C2.11164 0.171565 2.94081 0.0551574 3.90954 -7.02232e-07L4.15477 0.407088C3.49123 0.441096 2.90256 0.515459 2.38721 0.630343L4.05301 1.11551L4.07945 1.10765C4.91116 0.954186 5.62041 0.87001 6.20726 0.85529C6.79511 0.840401 7.34726 0.908418 7.86397 1.05883C8.38105 1.20942 8.621 1.38606 8.58311 1.58842C8.54595 1.79103 8.2443 1.98502 7.67753 2.17113L8.31535 2.35691L7.75467 2.52391ZM1.41639 1.04208C1.39995 1.12507 1.49126 1.19537 1.68924 1.25307C1.88722 1.31077 2.10219 1.33885 2.33415 1.33758C2.56584 1.33657 2.89911 1.30256 3.33287 1.23607L1.79972 0.789556C1.5604 0.874747 1.43247 0.958921 1.41639 1.04208ZM7.14737 1.62446C7.17517 1.53631 7.08595 1.46203 6.87898 1.40179C6.67236 1.34165 6.44413 1.31297 6.19454 1.31584C5.94422 1.31897 5.59097 1.35721 5.1344 1.43056L6.72924 1.89509C6.98037 1.80304 7.11929 1.71286 7.14737 1.62446Z" transform="translate(402.142 164.351) scale(3)" fill="#44C4A1"/>
<path d="M32.9983 2.04255L25.9857 5.67983e-07L12.3565 4.05667L-2.49552e-08 5.26228V7.73434L13.3701 11.6285L39.3559 3.89424V1.42219L32.9983 2.04255Z" transform="translate(355.932 149.804) scale(3)" fill="#31978C"/>
<path d="M25.9857 4.64712e-07L-2.49552e-08 7.73423L13.3701 11.6284L39.3559 3.89414L25.9857 4.64712e-07Z" transform="translate(355.932 142.389) scale(3)" fill="#3EA69B"/>
<path d="M7.97012 9.48766L0.0188983 7.17185C0.977276 6.88659 0.968826 6.42662 -2.77279e-07 6.1444L20.6251 0.00558288C21.5939 0.287804 23.1562 0.285267 24.1147 -1.44578e-07L32.0659 2.3158C31.1076 2.60107 31.116 3.06103 32.0848 3.34326L11.4597 9.48207C10.4908 9.19994 8.9285 9.20239 7.97012 9.48766Z" transform="translate(366.838 145.598) scale(3)" fill="#44C4A1"/>
<path d="M9.35265 0.639146C11.8714 1.37278 12.3177 2.44245 10.3492 3.02829C8.38073 3.61413 4.7431 3.49443 2.2243 2.76079C-0.29449 2.02715 -0.740699 0.95749 1.22776 0.371646C3.19613 -0.214198 6.83377 -0.0944068 9.35265 0.639146Z" transform="translate(397.601 154.731) scale(3)" fill="#3EA69B"/>
<path d="M1.9531 0.0976432C2.4033 0.228771 2.4073 0.442552 1.96191 0.575118C1.51652 0.707685 0.790475 0.708868 0.340271 0.57774C-0.109933 0.446612 -0.113932 0.232831 0.331457 0.100265C0.776754 -0.0323859 1.50281 -0.0335695 1.9531 0.0976432Z" transform="translate(441.81 149.805) scale(3)" fill="#3EA69B"/>
<path d="M1.9531 0.0976094C2.4033 0.228737 2.4073 0.442518 1.96191 0.575084C1.51652 0.70765 0.790475 0.708834 0.340271 0.577707C-0.109933 0.446579 -0.11393 0.232798 0.331458 0.100232C0.776755 -0.0324178 1.5028 -0.0335181 1.9531 0.0976094Z" transform="translate(381.242 167.831) scale(3)" fill="#3EA69B"/>
<path d="M7.75467 2.52391L7.10785 2.33551C6.22416 2.54988 5.1831 2.67018 3.98568 2.69615L3.85466 2.28119C4.77669 2.26072 5.53854 2.18518 6.1422 2.0543L4.42298 1.55356C3.60299 1.70373 2.90956 1.78663 2.34278 1.8022C1.7761 1.81777 1.23722 1.75119 0.726322 1.60238C0.215425 1.45357 -0.026348 1.27938 0.00227242 1.07939C0.0312562 0.879484 0.31428 0.690915 0.851888 0.513512L0.408772 0.384415L0.96946 0.217502L1.4213 0.349053C2.11164 0.17165 2.94081 0.0551576 3.90954 -5.37001e-07L4.15477 0.407088C3.49123 0.441096 2.90256 0.515458 2.38721 0.630427L4.05301 1.1156L4.07945 1.10773C4.91116 0.95427 5.62041 0.870094 6.20726 0.855374C6.79511 0.840485 7.34726 0.908502 7.86397 1.05892C8.38105 1.2095 8.621 1.38614 8.58311 1.5885C8.54595 1.79112 8.2443 1.9851 7.67753 2.17122L8.31535 2.35699L7.75467 2.52391ZM1.41639 1.04208C1.39995 1.12507 1.49126 1.19538 1.68924 1.25307C1.88722 1.31077 2.10219 1.33885 2.33415 1.33758C2.56584 1.33657 2.89911 1.30256 3.33287 1.23607L1.79972 0.789557C1.5604 0.874832 1.43247 0.958923 1.41639 1.04208ZM7.14737 1.62446C7.17517 1.53631 7.08595 1.46203 6.87898 1.40179C6.67236 1.34165 6.44413 1.31297 6.19454 1.31584C5.94422 1.31897 5.59097 1.35721 5.1344 1.43056L6.72924 1.89509C6.98037 1.80304 7.11929 1.71286 7.14737 1.62446Z" transform="translate(402.142 155.64) scale(3)" fill="#44C4A1"/>
<path d="M32.9983 2.04246L25.9857 4.13078e-08L12.3565 4.05657L-2.49552e-08 5.26218V7.73431L13.3701 11.6284L39.3559 3.89414V1.4221L32.9983 2.04246Z" transform="translate(355.932 141.094) scale(3)" fill="#31978C"/>
<path d="M25.9857 6.29943e-07L-2.49552e-08 7.73423L13.3701 11.6284L39.3559 3.89414L25.9857 6.29943e-07Z" transform="translate(355.932 133.677) scale(3)" fill="#3EA69B"/>
<path d="M7.97012 9.48766L0.0188983 7.17185C0.977276 6.88659 0.968826 6.42662 -2.77279e-07 6.1444L20.6251 0.00558365C21.5939 0.287805 23.1562 0.285267 24.1147 6.19619e-07L32.0659 2.3158C31.1076 2.60107 31.116 3.06103 32.0848 3.34326L11.4597 9.48207C10.4908 9.19985 8.9285 9.20239 7.97012 9.48766Z" transform="translate(366.838 136.888) scale(3)" fill="#44C4A1"/>
<path d="M9.35265 0.639208C11.8714 1.37285 12.3177 2.44251 10.3492 3.02836C8.38073 3.6142 4.7431 3.49449 2.2243 2.76086C-0.29449 2.02722 -0.740699 0.957553 1.22776 0.371708C3.19613 -0.214222 6.83377 -0.0944301 9.35265 0.639208Z" transform="translate(397.601 146.021) scale(3)" fill="#3EA69B"/>
<path d="M1.9531 0.097611C2.4033 0.228738 2.4073 0.442518 1.96191 0.575084C1.51652 0.70765 0.790475 0.708833 0.340271 0.577706C-0.109933 0.446578 -0.113932 0.232798 0.331457 0.100233C0.776754 -0.0324176 1.50281 -0.0335166 1.9531 0.097611Z" transform="translate(441.81 141.094) scale(3)" fill="#3EA69B"/>
<path d="M1.9531 0.0975795C2.4033 0.228707 2.4073 0.442487 1.96191 0.575053C1.51652 0.707619 0.790475 0.708803 0.340271 0.577675C-0.109933 0.446547 -0.11393 0.232767 0.331458 0.100201C0.776755 -0.0323646 1.5028 -0.0335482 1.9531 0.0975795Z" transform="translate(381.242 159.12) scale(3)" fill="#3EA69B"/>
<path d="M7.75467 2.52391L7.10785 2.33551C6.22416 2.54988 5.1831 2.67018 3.98568 2.69615L3.85466 2.2812C4.77669 2.26072 5.53854 2.18518 6.1422 2.0543L4.42298 1.55356C3.60299 1.70373 2.90956 1.78663 2.34278 1.8022C1.7761 1.81777 1.23722 1.75119 0.726322 1.60238C0.215425 1.45357 -0.026348 1.27938 0.00227242 1.07939C0.0312562 0.879484 0.31428 0.690915 0.851888 0.513512L0.408772 0.384415L0.96946 0.217502L1.4213 0.349053C2.11164 0.17165 2.94081 0.0551578 3.90954 -3.7177e-07L4.15477 0.407088C3.49123 0.441096 2.90256 0.515458 2.38721 0.630427L4.05301 1.1156L4.07945 1.10773C4.91116 0.95427 5.62041 0.870094 6.20726 0.855374C6.79511 0.840485 7.34726 0.908501 7.86397 1.05892C8.38105 1.2095 8.621 1.38614 8.58311 1.5885C8.54595 1.79112 8.2443 1.9851 7.67753 2.17122L8.31535 2.357L7.75467 2.52391ZM1.41639 1.04208C1.39995 1.12507 1.49126 1.19538 1.68924 1.25307C1.88722 1.31077 2.10219 1.33885 2.33415 1.33758C2.56584 1.33657 2.89911 1.30256 3.33287 1.23607L1.79972 0.789557C1.5604 0.874832 1.43247 0.958923 1.41639 1.04208ZM7.14737 1.62446C7.17517 1.53631 7.08595 1.46203 6.87898 1.4018C6.67236 1.34165 6.44413 1.31297 6.19454 1.31584C5.94422 1.31897 5.59097 1.35721 5.1344 1.43056L6.72924 1.89509C6.98037 1.80313 7.11929 1.71295 7.14737 1.62446Z" transform="translate(402.142 146.929) scale(3)" fill="#44C4A1"/>
<path d="M-3.54916e-07 1.77928V15.8697L5.97803 14.0904V-5.47329e-07L-3.54916e-07 1.77928Z" transform="translate(425.871 154.345) scale(3)" fill="white"/>
<path d="M-1.28657e-06 0.183578V14.2739L0.616929 14.0903V-1.23923e-07L-1.28657e-06 0.183578Z" transform="translate(428.011 158.498) scale(3)" fill="#FCD462"/>
<path d="M1.02038e-06 0.183579V14.274L0.616929 14.0904V2.78828e-07L1.02038e-06 0.183579Z" transform="translate(439.815 154.984) scale(3)" fill="#FCD462"/>
<path d="M32.9983 2.04246L25.9857 -1.21858e-06L12.3565 4.05658L-2.49552e-08 5.2622V7.73434L13.3701 11.6285L39.3559 3.89415V1.4221L32.9983 2.04246Z" transform="translate(0 152.172) scale(3)" fill="#31978C"/>
<path d="M25.9857 6.60924e-07L-2.49552e-08 7.73423L13.3701 11.6284L39.3559 3.89414L25.9857 6.60924e-07Z" transform="translate(0 144.756) scale(3)" fill="#3EA69B"/>
<path d="M7.97012 9.48771L0.0188983 7.17183C0.977276 6.88656 0.968826 6.4266 -2.77279e-07 6.14438L20.6251 0.00558306C21.5939 0.287803 23.1562 0.285264 24.1147 -1.23923e-06L32.0659 2.31588C31.1076 2.60114 31.116 3.06111 32.0848 3.34333L11.4597 9.48212C10.4908 9.1999 8.9285 9.20244 7.97012 9.48771Z" transform="translate(10.9058 147.966) scale(3)" fill="#44C4A1"/>
<path d="M9.35265 0.639171C11.8714 1.37281 12.3177 2.44247 10.3492 3.02831C8.38073 3.61415 4.7431 3.49445 2.2243 2.76081C-0.29449 2.02718 -0.740699 0.957516 1.22776 0.371672C3.19622 -0.214171 6.83377 -0.0944653 9.35265 0.639171Z" transform="translate(41.6689 157.099) scale(3)" fill="#3EA69B"/>
<path d="M1.9531 0.097611C2.4033 0.228739 2.4073 0.442517 1.96191 0.575083C1.51652 0.707649 0.790475 0.708833 0.340271 0.577706C-0.109933 0.446578 -0.113932 0.2328 0.331457 0.100234C0.776754 -0.0324163 1.50281 -0.0335165 1.9531 0.097611Z" transform="translate(85.8779 152.173) scale(3)" fill="#3EA69B"/>
<path d="M1.9531 0.0975795C2.4033 0.228707 2.4073 0.442486 1.96191 0.575052C1.51652 0.707618 0.790475 0.708803 0.340271 0.577675C-0.109933 0.446547 -0.11393 0.232768 0.331458 0.100203C0.776755 -0.0323633 1.5028 -0.0335482 1.9531 0.0975795Z" transform="translate(25.3096 170.199) scale(3)" fill="#3EA69B"/>
<path d="M7.75467 2.52391L7.10785 2.33551C6.22416 2.54988 5.1831 2.67018 3.98568 2.69615L3.85466 2.2812C4.77669 2.26072 5.53854 2.18518 6.1422 2.0543L4.42298 1.55356C3.60299 1.70373 2.90956 1.78663 2.34278 1.8022C1.7761 1.81776 1.23722 1.75119 0.726322 1.60238C0.215425 1.45357 -0.026348 1.27938 0.00227242 1.07939C0.0312562 0.879486 0.31428 0.690914 0.851888 0.513511L0.408772 0.384414L0.96946 0.217502L1.4213 0.349052C2.11164 0.171649 2.94081 0.0551591 3.90954 9.50079e-07L4.15477 0.407087C3.49123 0.441095 2.90256 0.515458 2.38721 0.630428L4.05301 1.1156L4.07945 1.10773C4.91116 0.95427 5.62041 0.870094 6.20726 0.855374C6.79511 0.840485 7.34726 0.908503 7.86397 1.05892C8.38105 1.2095 8.621 1.38614 8.58311 1.5885C8.54595 1.79112 8.2443 1.9851 7.67753 2.17122L8.31535 2.357L7.75467 2.52391ZM1.41639 1.04208C1.39995 1.12507 1.49126 1.19537 1.68924 1.25307C1.88722 1.31077 2.10219 1.33885 2.33415 1.33758C2.56584 1.33657 2.89911 1.30256 3.33287 1.23607L1.79972 0.789555C1.5604 0.874831 1.43247 0.958923 1.41639 1.04208ZM7.14737 1.62446C7.17517 1.53631 7.08595 1.46203 6.87898 1.40179C6.67236 1.34164 6.44413 1.31297 6.19454 1.31584C5.94422 1.31897 5.59097 1.35721 5.1344 1.43056L6.72924 1.89509C6.98037 1.80313 7.11929 1.71295 7.14737 1.62446Z" transform="translate(46.21 158.009) scale(3)" fill="#44C4A1"/>
<path d="M32.9983 2.04246L25.9857 -1.05335e-06L12.3565 4.05659L-2.49552e-08 5.26228V7.73434L13.3701 11.6285L39.3559 3.89415V1.4221L32.9983 2.04246Z" transform="translate(0 143.461) scale(3)" fill="#31978C"/>
<path d="M25.9857 -4.64714e-07L-2.49552e-08 7.73434L13.3701 11.6285L39.3559 3.89415L25.9857 -4.64714e-07Z" transform="translate(0 136.044) scale(3)" fill="#3EA69B"/>
<path d="M7.97012 9.48766L0.0188983 7.17185C0.977276 6.88659 0.968826 6.42662 -2.77279e-07 6.1444L20.6251 0.00558384C21.5939 0.287805 23.1562 0.285266 24.1147 -4.75041e-07L32.0659 2.31589C31.1076 2.60116 31.116 3.06112 32.0848 3.34334L11.4597 9.48216C10.4908 9.19994 8.9285 9.20239 7.97012 9.48766Z" transform="translate(10.9058 139.256) scale(3)" fill="#44C4A1"/>
<path d="M9.35265 0.639209C11.8714 1.37285 12.3177 2.44251 10.3492 3.02836C8.38073 3.6142 4.7431 3.49449 2.2243 2.76086C-0.29449 2.02722 -0.740699 0.957554 1.22776 0.371709C3.19613 -0.21422 6.83377 -0.0944299 9.35265 0.639209Z" transform="translate(41.6689 148.388) scale(3)" fill="#3EA69B"/>
<path d="M1.9531 0.0975798C2.4033 0.228707 2.4073 0.442486 1.96191 0.575052C1.51652 0.707618 0.790475 0.708803 0.340271 0.577675C-0.109933 0.446548 -0.113932 0.232766 0.331457 0.1002C0.776754 -0.0323656 1.50281 -0.0335479 1.9531 0.0975798Z" transform="translate(85.8779 143.461) scale(3)" fill="#3EA69B"/>
<path d="M1.9531 0.0975797C2.4033 0.228707 2.4073 0.442486 1.96191 0.575052C1.51652 0.707618 0.790475 0.708803 0.340271 0.577675C-0.109933 0.446547 -0.11393 0.232769 0.331458 0.100203C0.776846 -0.0323631 1.5028 -0.033548 1.9531 0.0975797Z" transform="translate(25.3096 161.487) scale(3)" fill="#3EA69B"/>
<path d="M7.75467 2.52391L7.10785 2.33551C6.22416 2.54988 5.1831 2.67018 3.98568 2.69615L3.85466 2.2812C4.77669 2.26072 5.53854 2.18518 6.1422 2.0543L4.42298 1.55356C3.60299 1.70373 2.90956 1.78663 2.34278 1.8022C1.7761 1.81776 1.23722 1.75119 0.726322 1.60238C0.215425 1.45357 -0.026348 1.27938 0.00227242 1.07939C0.0312562 0.879483 0.31428 0.690914 0.851888 0.513511L0.408772 0.384414L0.96946 0.217502L1.4213 0.349052C2.11164 0.171649 2.94081 0.0551592 3.90954 1.11531e-06L4.15477 0.407087C3.49123 0.441095 2.90256 0.515458 2.38721 0.630342L4.05301 1.11551L4.07945 1.10765C4.91116 0.954185 5.62041 0.870009 6.20726 0.855289C6.79511 0.8404 7.34726 0.908418 7.86397 1.05883C8.38105 1.20942 8.621 1.38606 8.58311 1.58842C8.54595 1.79103 8.2443 1.98502 7.67753 2.17113L8.31535 2.35691L7.75467 2.52391ZM1.41639 1.04208C1.39995 1.12507 1.49126 1.19537 1.68924 1.25307C1.88722 1.31077 2.10219 1.33885 2.33415 1.33758C2.56584 1.33657 2.89911 1.30256 3.33287 1.23607L1.79972 0.789556C1.5604 0.874831 1.43247 0.959008 1.41639 1.04208ZM7.14737 1.62454C7.17517 1.53639 7.08595 1.46211 6.87898 1.40188C6.67236 1.34173 6.44413 1.31305 6.19454 1.31593C5.94422 1.31906 5.59097 1.3573 5.1344 1.43064L6.72924 1.89517C6.98037 1.80313 7.11929 1.71295 7.14737 1.62454Z" transform="translate(46.21 149.297) scale(3)" fill="#44C4A1"/>
<path d="M32.9983 2.04246L25.9857 4.02752e-07L12.3565 4.05659L-2.49552e-08 5.26228V7.73434L13.3701 11.6285L39.3559 3.89424V1.42219L32.9983 2.04246Z" transform="translate(0 134.75) scale(3)" fill="#31978C"/>
<path d="M25.9857 -2.99482e-07L-2.49552e-08 7.73434L13.3701 11.6285L39.3559 3.89424L25.9857 -2.99482e-07Z" transform="translate(0 127.333) scale(3)" fill="#3EA69B"/>
<path d="M7.97012 9.48766L0.0188983 7.17185C0.977276 6.88659 0.968826 6.42662 -2.77279e-07 6.1444L20.6251 0.00558401C21.5939 0.287805 23.1562 0.285266 24.1147 -3.0981e-07L32.0659 2.3158C31.1076 2.60107 31.116 3.06103 32.0848 3.34326L11.4597 9.48207C10.4908 9.19994 8.9285 9.20239 7.97012 9.48766Z" transform="translate(10.9058 130.545) scale(3)" fill="#44C4A1"/>
<path d="M9.35265 0.639171C11.8714 1.37281 12.3177 2.44247 10.3492 3.02831C8.38073 3.61416 4.7431 3.49445 2.2243 2.76081C-0.29449 2.02718 -0.740699 0.957516 1.22776 0.371673C3.19613 -0.214171 6.83377 -0.094465 9.35265 0.639171Z" transform="translate(41.6689 139.677) scale(3)" fill="#3EA69B"/>
<path d="M1.9531 0.0975787C2.4033 0.228706 2.4073 0.442487 1.96191 0.575052C1.51652 0.707618 0.790475 0.708803 0.340271 0.577675C-0.109933 0.446548 -0.113932 0.232768 0.331457 0.100202C0.776754 -0.0323642 1.50281 -0.033549 1.9531 0.0975787Z" transform="translate(85.8779 134.75) scale(3)" fill="#3EA69B"/>
<path d="M1.9531 0.0976416C2.4033 0.22877 2.4073 0.442552 1.96191 0.575118C1.51652 0.707684 0.790475 0.708869 0.340271 0.577741C-0.109933 0.446613 -0.11393 0.232831 0.331458 0.100265C0.776755 -0.0323862 1.5028 -0.0335711 1.9531 0.0976416Z" transform="translate(25.3096 152.777) scale(3)" fill="#3EA69B"/>
<path d="M7.75467 2.52391L7.10785 2.33551C6.22416 2.54988 5.1831 2.67018 3.98568 2.69615L3.85466 2.28119C4.77669 2.26072 5.53854 2.18518 6.1422 2.0543L4.42298 1.55356C3.60299 1.70373 2.90956 1.78663 2.34278 1.8022C1.7761 1.81776 1.23722 1.75119 0.726322 1.60238C0.215425 1.45357 -0.026348 1.27938 0.00227242 1.07939C0.0312562 0.879484 0.31428 0.690915 0.851888 0.513512L0.408772 0.384415L0.96946 0.217503L1.4213 0.349053C2.11164 0.171565 2.94081 0.0551574 3.90954 -7.02232e-07L4.15477 0.407088C3.49123 0.441096 2.90256 0.515459 2.38721 0.630343L4.05301 1.11551L4.07945 1.10765C4.91116 0.954186 5.62041 0.87001 6.20726 0.85529C6.79511 0.840401 7.34726 0.908418 7.86397 1.05883C8.38105 1.20942 8.621 1.38606 8.58311 1.58842C8.54595 1.79103 8.2443 1.98502 7.67753 2.17113L8.31535 2.35691L7.75467 2.52391ZM1.41639 1.04208C1.39995 1.12507 1.49126 1.19537 1.68924 1.25307C1.88722 1.31077 2.10219 1.33885 2.33415 1.33758C2.56584 1.33657 2.89911 1.30256 3.33287 1.23607L1.79972 0.789556C1.5604 0.874747 1.43247 0.958921 1.41639 1.04208ZM7.14737 1.62446C7.17517 1.53631 7.08595 1.46203 6.87898 1.40179C6.67236 1.34165 6.44413 1.31297 6.19454 1.31584C5.94422 1.31897 5.59097 1.35721 5.1344 1.43056L6.72924 1.89509C6.98037 1.80304 7.11929 1.71286 7.14737 1.62446Z" transform="translate(46.21 140.586) scale(3)" fill="#44C4A1"/>
<path d="M32.9983 2.04255L25.9857 5.67983e-07L12.3565 4.05667L-2.49552e-08 5.26228V7.73434L13.3701 11.6285L39.3559 3.89424V1.42219L32.9983 2.04255Z" transform="translate(0 126.039) scale(3)" fill="#31978C"/>
<path d="M25.9857 4.64712e-07L-2.49552e-08 7.73423L13.3701 11.6284L39.3559 3.89414L25.9857 4.64712e-07Z" transform="translate(0 118.623) scale(3)" fill="#3EA69B"/>
<path d="M7.97012 9.48766L0.0188983 7.17185C0.977276 6.88659 0.968826 6.42662 -2.77279e-07 6.1444L20.6251 0.00558288C21.5939 0.287804 23.1562 0.285267 24.1147 -1.44578e-07L32.0659 2.3158C31.1076 2.60107 31.116 3.06103 32.0848 3.34326L11.4597 9.48207C10.4908 9.19994 8.9285 9.20239 7.97012 9.48766Z" transform="translate(10.9058 121.834) scale(3)" fill="#44C4A1"/>
<path d="M9.35265 0.639146C11.8714 1.37278 12.3177 2.44245 10.3492 3.02829C8.38073 3.61413 4.7431 3.49443 2.2243 2.76079C-0.29449 2.02715 -0.740699 0.95749 1.22776 0.371646C3.19613 -0.214198 6.83377 -0.0944068 9.35265 0.639146Z" transform="translate(41.6689 130.966) scale(3)" fill="#3EA69B"/>
<path d="M1.9531 0.0976432C2.4033 0.228771 2.4073 0.442552 1.96191 0.575118C1.51652 0.707685 0.790475 0.708868 0.340271 0.57774C-0.109933 0.446612 -0.113932 0.232831 0.331457 0.100265C0.776754 -0.0323859 1.50281 -0.0335695 1.9531 0.0976432Z" transform="translate(85.8779 126.04) scale(3)" fill="#3EA69B"/>
<path d="M1.9531 0.0976094C2.4033 0.228737 2.4073 0.442518 1.96191 0.575084C1.51652 0.70765 0.790475 0.708834 0.340271 0.577707C-0.109933 0.446579 -0.11393 0.232798 0.331458 0.100232C0.776755 -0.0324178 1.5028 -0.0335181 1.9531 0.0976094Z" transform="translate(25.3096 144.066) scale(3)" fill="#3EA69B"/>
<path d="M7.75467 2.52391L7.10785 2.33551C6.22416 2.54988 5.1831 2.67018 3.98568 2.69615L3.85466 2.28119C4.77669 2.26072 5.53854 2.18518 6.1422 2.0543L4.42298 1.55356C3.60299 1.70373 2.90956 1.78663 2.34278 1.8022C1.7761 1.81777 1.23722 1.75119 0.726322 1.60238C0.215425 1.45357 -0.026348 1.27938 0.00227242 1.07939C0.0312562 0.879484 0.31428 0.690915 0.851888 0.513512L0.408772 0.384415L0.96946 0.217502L1.4213 0.349053C2.11164 0.17165 2.94081 0.0551576 3.90954 -5.37001e-07L4.15477 0.407088C3.49123 0.441096 2.90256 0.515458 2.38721 0.630427L4.05301 1.1156L4.07945 1.10773C4.91116 0.95427 5.62041 0.870094 6.20726 0.855374C6.79511 0.840485 7.34726 0.908502 7.86397 1.05892C8.38105 1.2095 8.621 1.38614 8.58311 1.5885C8.54595 1.79112 8.2443 1.9851 7.67753 2.17122L8.31535 2.35699L7.75467 2.52391ZM1.41639 1.04208C1.39995 1.12507 1.49126 1.19538 1.68924 1.25307C1.88722 1.31077 2.10219 1.33885 2.33415 1.33758C2.56584 1.33657 2.89911 1.30256 3.33287 1.23607L1.79972 0.789557C1.5604 0.874832 1.43247 0.958923 1.41639 1.04208ZM7.14737 1.62446C7.17517 1.53631 7.08595 1.46203 6.87898 1.40179C6.67236 1.34165 6.44413 1.31297 6.19454 1.31584C5.94422 1.31897 5.59097 1.35721 5.1344 1.43056L6.72924 1.89509C6.98037 1.80304 7.11929 1.71286 7.14737 1.62446Z" transform="translate(46.21 131.875) scale(3)" fill="#44C4A1"/>
<path d="M32.9983 2.04246L25.9857 4.13078e-08L12.3565 4.05657L-2.49552e-08 5.26218V7.73431L13.3701 11.6284L39.3559 3.89414V1.4221L32.9983 2.04246Z" transform="translate(0 117.329) scale(3)" fill="#31978C"/>
<path d="M25.9857 6.29943e-07L-2.49552e-08 7.73423L13.3701 11.6284L39.3559 3.89414L25.9857 6.29943e-07Z" transform="translate(0 109.912) scale(3)" fill="#3EA69B"/>
<path d="M7.97012 9.48766L0.0188983 7.17185C0.977276 6.88659 0.968826 6.42662 -2.77279e-07 6.1444L20.6251 0.00558365C21.5939 0.287805 23.1562 0.285267 24.1147 6.19619e-07L32.0659 2.3158C31.1076 2.60107 31.116 3.06103 32.0848 3.34326L11.4597 9.48207C10.4908 9.19985 8.9285 9.20239 7.97012 9.48766Z" transform="translate(10.9058 113.123) scale(3)" fill="#44C4A1"/>
<path d="M9.35265 0.639208C11.8714 1.37285 12.3177 2.44251 10.3492 3.02836C8.38073 3.6142 4.7431 3.49449 2.2243 2.76086C-0.29449 2.02722 -0.740699 0.957553 1.22776 0.371708C3.19613 -0.214222 6.83377 -0.0944301 9.35265 0.639208Z" transform="translate(41.6689 122.255) scale(3)" fill="#3EA69B"/>
<path d="M1.9531 0.097611C2.4033 0.228738 2.4073 0.442518 1.96191 0.575084C1.51652 0.70765 0.790475 0.708833 0.340271 0.577706C-0.109933 0.446578 -0.113932 0.232798 0.331457 0.100233C0.776754 -0.0324176 1.50281 -0.0335166 1.9531 0.097611Z" transform="translate(85.8779 117.328) scale(3)" fill="#3EA69B"/>
<path d="M1.9531 0.0975795C2.4033 0.228707 2.4073 0.442487 1.96191 0.575053C1.51652 0.707619 0.790475 0.708803 0.340271 0.577675C-0.109933 0.446547 -0.11393 0.232767 0.331458 0.100201C0.776755 -0.0323646 1.5028 -0.0335482 1.9531 0.0975795Z" transform="translate(25.3096 135.355) scale(3)" fill="#3EA69B"/>
<path d="M7.75467 2.52391L7.10785 2.33551C6.22416 2.54988 5.1831 2.67018 3.98568 2.69615L3.85466 2.2812C4.77669 2.26072 5.53854 2.18518 6.1422 2.0543L4.42298 1.55356C3.60299 1.70373 2.90956 1.78663 2.34278 1.8022C1.7761 1.81777 1.23722 1.75119 0.726322 1.60238C0.215425 1.45357 -0.026348 1.27938 0.00227242 1.07939C0.0312562 0.879484 0.31428 0.690915 0.851888 0.513512L0.408772 0.384415L0.96946 0.217502L1.4213 0.349053C2.11164 0.17165 2.94081 0.0551578 3.90954 -3.7177e-07L4.15477 0.407088C3.49123 0.441096 2.90256 0.515458 2.38721 0.630427L4.05301 1.1156L4.07945 1.10773C4.91116 0.95427 5.62041 0.870094 6.20726 0.855374C6.79511 0.840485 7.34726 0.908501 7.86397 1.05892C8.38105 1.2095 8.621 1.38614 8.58311 1.5885C8.54595 1.79112 8.2443 1.9851 7.67753 2.17122L8.31535 2.357L7.75467 2.52391ZM1.41639 1.04208C1.39995 1.12507 1.49126 1.19538 1.68924 1.25307C1.88722 1.31077 2.10219 1.33885 2.33415 1.33758C2.56584 1.33657 2.89911 1.30256 3.33287 1.23607L1.79972 0.789557C1.5604 0.874832 1.43247 0.958923 1.41639 1.04208ZM7.14737 1.62446C7.17517 1.53631 7.08595 1.46203 6.87898 1.4018C6.67236 1.34165 6.44413 1.31297 6.19454 1.31584C5.94422 1.31897 5.59097 1.35721 5.1344 1.43056L6.72924 1.89509C6.98037 1.80313 7.11929 1.71295 7.14737 1.62446Z" transform="translate(46.21 123.164) scale(3)" fill="#44C4A1"/>
<path d="M-3.54916e-07 1.77928V15.8697L5.97803 14.0904V-5.47329e-07L-3.54916e-07 1.77928Z" transform="translate(69.939 130.58) scale(3)" fill="white"/>
<path d="M-1.28657e-06 0.183578V14.2739L0.616929 14.0903V-1.23923e-07L-1.28657e-06 0.183578Z" transform="translate(72.0791 134.733) scale(3)" fill="#FCD462"/>
<path d="M1.02038e-06 0.183579V14.274L0.616929 14.0904V2.78828e-07L1.02038e-06 0.183579Z" transform="translate(83.8828 131.219) scale(3)" fill="#FCD462"/>
<path d="M32.9983 2.04246L25.9857 -1.21858e-06L12.3565 4.05658L-2.49552e-08 5.2622V7.73434L13.3701 11.6285L39.3559 3.89415V1.4221L32.9983 2.04246Z" transform="translate(86.7393 259.114) scale(3)" fill="#31978C"/>
<path d="M25.9857 6.60924e-07L-2.49552e-08 7.73423L13.3701 11.6284L39.3559 3.89414L25.9857 6.60924e-07Z" transform="translate(86.7393 251.698) scale(3)" fill="#3EA69B"/>
<path d="M7.97012 9.48771L0.0188983 7.17183C0.977276 6.88656 0.968826 6.4266 -2.77279e-07 6.14438L20.6251 0.00558306C21.5939 0.287803 23.1562 0.285264 24.1147 -1.23923e-06L32.0659 2.31588C31.1076 2.60114 31.116 3.06111 32.0848 3.34333L11.4597 9.48212C10.4908 9.1999 8.9285 9.20244 7.97012 9.48771Z" transform="translate(97.645 254.908) scale(3)" fill="#44C4A1"/>
<path d="M9.35265 0.639171C11.8714 1.37281 12.3177 2.44247 10.3492 3.02831C8.38073 3.61415 4.7431 3.49445 2.2243 2.76081C-0.29449 2.02718 -0.740699 0.957516 1.22776 0.371672C3.19622 -0.214171 6.83377 -0.0944653 9.35265 0.639171Z" transform="translate(128.408 264.041) scale(3)" fill="#3EA69B"/>
<path d="M1.9531 0.097611C2.4033 0.228739 2.4073 0.442517 1.96191 0.575083C1.51652 0.707649 0.790475 0.708833 0.340271 0.577706C-0.109933 0.446578 -0.113932 0.2328 0.331457 0.100234C0.776754 -0.0324163 1.50281 -0.0335165 1.9531 0.097611Z" transform="translate(172.617 259.115) scale(3)" fill="#3EA69B"/>
<path d="M1.9531 0.0975795C2.4033 0.228707 2.4073 0.442486 1.96191 0.575052C1.51652 0.707618 0.790475 0.708803 0.340271 0.577675C-0.109933 0.446547 -0.11393 0.232768 0.331458 0.100203C0.776755 -0.0323633 1.5028 -0.0335482 1.9531 0.0975795Z" transform="translate(112.05 277.141) scale(3)" fill="#3EA69B"/>
<path d="M7.75467 2.52391L7.10785 2.33551C6.22416 2.54988 5.1831 2.67018 3.98568 2.69615L3.85466 2.2812C4.77669 2.26072 5.53854 2.18518 6.1422 2.0543L4.42298 1.55356C3.60299 1.70373 2.90956 1.78663 2.34278 1.8022C1.7761 1.81776 1.23722 1.75119 0.726322 1.60238C0.215425 1.45357 -0.026348 1.27938 0.00227242 1.07939C0.0312562 0.879486 0.31428 0.690914 0.851888 0.513511L0.408772 0.384414L0.96946 0.217502L1.4213 0.349052C2.11164 0.171649 2.94081 0.0551591 3.90954 9.50079e-07L4.15477 0.407087C3.49123 0.441095 2.90256 0.515458 2.38721 0.630428L4.05301 1.1156L4.07945 1.10773C4.91116 0.95427 5.62041 0.870094 6.20726 0.855374C6.79511 0.840485 7.34726 0.908503 7.86397 1.05892C8.38105 1.2095 8.621 1.38614 8.58311 1.5885C8.54595 1.79112 8.2443 1.9851 7.67753 2.17122L8.31535 2.357L7.75467 2.52391ZM1.41639 1.04208C1.39995 1.12507 1.49126 1.19537 1.68924 1.25307C1.88722 1.31077 2.10219 1.33885 2.33415 1.33758C2.56584 1.33657 2.89911 1.30256 3.33287 1.23607L1.79972 0.789555C1.5604 0.874831 1.43247 0.958923 1.41639 1.04208ZM7.14737 1.62446C7.17517 1.53631 7.08595 1.46203 6.87898 1.40179C6.67236 1.34164 6.44413 1.31297 6.19454 1.31584C5.94422 1.31897 5.59097 1.35721 5.1344 1.43056L6.72924 1.89509C6.98037 1.80313 7.11929 1.71295 7.14737 1.62446Z" transform="translate(132.951 264.95) scale(3)" fill="#44C4A1"/>
<path d="M32.9983 2.04246L25.9857 -1.05335e-06L12.3565 4.05659L-2.49552e-08 5.26228V7.73434L13.3701 11.6285L39.3559 3.89415V1.4221L32.9983 2.04246Z" transform="translate(86.7393 250.403) scale(3)" fill="#31978C"/>
<path d="M25.9857 -4.64714e-07L-2.49552e-08 7.73434L13.3701 11.6285L39.3559 3.89415L25.9857 -4.64714e-07Z" transform="translate(86.7393 242.986) scale(3)" fill="#3EA69B"/>
<path d="M7.97012 9.48766L0.0188983 7.17185C0.977276 6.88659 0.968826 6.42662 -2.77279e-07 6.1444L20.6251 0.00558384C21.5939 0.287805 23.1562 0.285266 24.1147 -4.75041e-07L32.0659 2.31589C31.1076 2.60116 31.116 3.06112 32.0848 3.34334L11.4597 9.48216C10.4908 9.19994 8.9285 9.20239 7.97012 9.48766Z" transform="translate(97.645 246.198) scale(3)" fill="#44C4A1"/>
<path d="M9.35265 0.639209C11.8714 1.37285 12.3177 2.44251 10.3492 3.02836C8.38073 3.6142 4.7431 3.49449 2.2243 2.76086C-0.29449 2.02722 -0.740699 0.957554 1.22776 0.371709C3.19613 -0.21422 6.83377 -0.0944299 9.35265 0.639209Z" transform="translate(128.408 255.33) scale(3)" fill="#3EA69B"/>
<path d="M1.9531 0.0975798C2.4033 0.228707 2.4073 0.442486 1.96191 0.575052C1.51652 0.707618 0.790475 0.708803 0.340271 0.577675C-0.109933 0.446548 -0.113932 0.232766 0.331457 0.1002C0.776754 -0.0323656 1.50281 -0.0335479 1.9531 0.0975798Z" transform="translate(172.617 250.403) scale(3)" fill="#3EA69B"/>
<path d="M1.9531 0.0975797C2.4033 0.228707 2.4073 0.442486 1.96191 0.575052C1.51652 0.707618 0.790475 0.708803 0.340271 0.577675C-0.109933 0.446547 -0.11393 0.232769 0.331458 0.100203C0.776846 -0.0323631 1.5028 -0.033548 1.9531 0.0975797Z" transform="translate(112.05 268.429) scale(3)" fill="#3EA69B"/>
<path d="M7.75467 2.52391L7.10785 2.33551C6.22416 2.54988 5.1831 2.67018 3.98568 2.69615L3.85466 2.2812C4.77669 2.26072 5.53854 2.18518 6.1422 2.0543L4.42298 1.55356C3.60299 1.70373 2.90956 1.78663 2.34278 1.8022C1.7761 1.81776 1.23722 1.75119 0.726322 1.60238C0.215425 1.45357 -0.026348 1.27938 0.00227242 1.07939C0.0312562 0.879483 0.31428 0.690914 0.851888 0.513511L0.408772 0.384414L0.96946 0.217502L1.4213 0.349052C2.11164 0.171649 2.94081 0.0551592 3.90954 1.11531e-06L4.15477 0.407087C3.49123 0.441095 2.90256 0.515458 2.38721 0.630342L4.05301 1.11551L4.07945 1.10765C4.91116 0.954185 5.62041 0.870009 6.20726 0.855289C6.79511 0.8404 7.34726 0.908418 7.86397 1.05883C8.38105 1.20942 8.621 1.38606 8.58311 1.58842C8.54595 1.79103 8.2443 1.98502 7.67753 2.17113L8.31535 2.35691L7.75467 2.52391ZM1.41639 1.04208C1.39995 1.12507 1.49126 1.19537 1.68924 1.25307C1.88722 1.31077 2.10219 1.33885 2.33415 1.33758C2.56584 1.33657 2.89911 1.30256 3.33287 1.23607L1.79972 0.789556C1.5604 0.874831 1.43247 0.959008 1.41639 1.04208ZM7.14737 1.62454C7.17517 1.53639 7.08595 1.46211 6.87898 1.40188C6.67236 1.34173 6.44413 1.31305 6.19454 1.31593C5.94422 1.31906 5.59097 1.3573 5.1344 1.43064L6.72924 1.89517C6.98037 1.80313 7.11929 1.71295 7.14737 1.62454Z" transform="translate(132.951 256.239) scale(3)" fill="#44C4A1"/>
<path d="M32.9983 2.04246L25.9857 4.02752e-07L12.3565 4.05659L-2.49552e-08 5.26228V7.73434L13.3701 11.6285L39.3559 3.89424V1.42219L32.9983 2.04246Z" transform="translate(86.7393 241.692) scale(3)" fill="#31978C"/>
<path d="M25.9857 -2.99482e-07L-2.49552e-08 7.73434L13.3701 11.6285L39.3559 3.89424L25.9857 -2.99482e-07Z" transform="translate(86.7393 234.275) scale(3)" fill="#3EA69B"/>
<path d="M7.97012 9.48766L0.0188983 7.17185C0.977276 6.88659 0.968826 6.42662 -2.77279e-07 6.1444L20.6251 0.00558401C21.5939 0.287805 23.1562 0.285266 24.1147 -3.0981e-07L32.0659 2.3158C31.1076 2.60107 31.116 3.06103 32.0848 3.34326L11.4597 9.48207C10.4908 9.19994 8.9285 9.20239 7.97012 9.48766Z" transform="translate(97.645 237.487) scale(3)" fill="#44C4A1"/>
<path d="M9.35265 0.639171C11.8714 1.37281 12.3177 2.44247 10.3492 3.02831C8.38073 3.61416 4.7431 3.49445 2.2243 2.76081C-0.29449 2.02718 -0.740699 0.957516 1.22776 0.371673C3.19613 -0.214171 6.83377 -0.094465 9.35265 0.639171Z" transform="translate(128.408 246.619) scale(3)" fill="#3EA69B"/>
<path d="M1.9531 0.0975787C2.4033 0.228706 2.4073 0.442487 1.96191 0.575052C1.51652 0.707618 0.790475 0.708803 0.340271 0.577675C-0.109933 0.446548 -0.113932 0.232768 0.331457 0.100202C0.776754 -0.0323642 1.50281 -0.033549 1.9531 0.0975787Z" transform="translate(172.617 241.692) scale(3)" fill="#3EA69B"/>
<path d="M1.9531 0.0976416C2.4033 0.22877 2.4073 0.442552 1.96191 0.575118C1.51652 0.707684 0.790475 0.708869 0.340271 0.577741C-0.109933 0.446613 -0.11393 0.232831 0.331458 0.100265C0.776755 -0.0323862 1.5028 -0.0335711 1.9531 0.0976416Z" transform="translate(112.05 259.718) scale(3)" fill="#3EA69B"/>
<path d="M7.75467 2.52391L7.10785 2.33551C6.22416 2.54988 5.1831 2.67018 3.98568 2.69615L3.85466 2.28119C4.77669 2.26072 5.53854 2.18518 6.1422 2.0543L4.42298 1.55356C3.60299 1.70373 2.90956 1.78663 2.34278 1.8022C1.7761 1.81776 1.23722 1.75119 0.726322 1.60238C0.215425 1.45357 -0.026348 1.27938 0.00227242 1.07939C0.0312562 0.879484 0.31428 0.690915 0.851888 0.513512L0.408772 0.384415L0.96946 0.217503L1.4213 0.349053C2.11164 0.171565 2.94081 0.0551574 3.90954 -7.02232e-07L4.15477 0.407088C3.49123 0.441096 2.90256 0.515459 2.38721 0.630343L4.05301 1.11551L4.07945 1.10765C4.91116 0.954186 5.62041 0.87001 6.20726 0.85529C6.79511 0.840401 7.34726 0.908418 7.86397 1.05883C8.38105 1.20942 8.621 1.38606 8.58311 1.58842C8.54595 1.79103 8.2443 1.98502 7.67753 2.17113L8.31535 2.35691L7.75467 2.52391ZM1.41639 1.04208C1.39995 1.12507 1.49126 1.19537 1.68924 1.25307C1.88722 1.31077 2.10219 1.33885 2.33415 1.33758C2.56584 1.33657 2.89911 1.30256 3.33287 1.23607L1.79972 0.789556C1.5604 0.874747 1.43247 0.958921 1.41639 1.04208ZM7.14737 1.62446C7.17517 1.53631 7.08595 1.46203 6.87898 1.40179C6.67236 1.34165 6.44413 1.31297 6.19454 1.31584C5.94422 1.31897 5.59097 1.35721 5.1344 1.43056L6.72924 1.89509C6.98037 1.80304 7.11929 1.71286 7.14737 1.62446Z" transform="translate(132.951 247.528) scale(3)" fill="#44C4A1"/>
<path d="M32.9983 2.04255L25.9857 5.67983e-07L12.3565 4.05667L-2.49552e-08 5.26228V7.73434L13.3701 11.6285L39.3559 3.89424V1.42219L32.9983 2.04255Z" transform="translate(86.7393 232.981) scale(3)" fill="#31978C"/>
<path d="M25.9857 4.64712e-07L-2.49552e-08 7.73423L13.3701 11.6284L39.3559 3.89414L25.9857 4.64712e-07Z" transform="translate(86.7393 225.565) scale(3)" fill="#3EA69B"/>
<path d="M7.97012 9.48766L0.0188983 7.17185C0.977276 6.88659 0.968826 6.42662 -2.77279e-07 6.1444L20.6251 0.00558288C21.5939 0.287804 23.1562 0.285267 24.1147 -1.44578e-07L32.0659 2.3158C31.1076 2.60107 31.116 3.06103 32.0848 3.34326L11.4597 9.48207C10.4908 9.19994 8.9285 9.20239 7.97012 9.48766Z" transform="translate(97.645 228.775) scale(3)" fill="#44C4A1"/>
<path d="M9.35265 0.639146C11.8714 1.37278 12.3177 2.44245 10.3492 3.02829C8.38073 3.61413 4.7431 3.49443 2.2243 2.76079C-0.29449 2.02715 -0.740699 0.95749 1.22776 0.371646C3.19613 -0.214198 6.83377 -0.0944068 9.35265 0.639146Z" transform="translate(128.408 237.908) scale(3)" fill="#3EA69B"/>
<path d="M1.9531 0.0976432C2.4033 0.228771 2.4073 0.442552 1.96191 0.575118C1.51652 0.707685 0.790475 0.708868 0.340271 0.57774C-0.109933 0.446612 -0.113932 0.232831 0.331457 0.100265C0.776754 -0.0323859 1.50281 -0.0335695 1.9531 0.0976432Z" transform="translate(172.617 232.981) scale(3)" fill="#3EA69B"/>
<path d="M1.9531 0.0976094C2.4033 0.228737 2.4073 0.442518 1.96191 0.575084C1.51652 0.70765 0.790475 0.708834 0.340271 0.577707C-0.109933 0.446579 -0.11393 0.232798 0.331458 0.100232C0.776755 -0.0324178 1.5028 -0.0335181 1.9531 0.0976094Z" transform="translate(112.05 251.008) scale(3)" fill="#3EA69B"/>
<path d="M7.75467 2.52391L7.10785 2.33551C6.22416 2.54988 5.1831 2.67018 3.98568 2.69615L3.85466 2.28119C4.77669 2.26072 5.53854 2.18518 6.1422 2.0543L4.42298 1.55356C3.60299 1.70373 2.90956 1.78663 2.34278 1.8022C1.7761 1.81777 1.23722 1.75119 0.726322 1.60238C0.215425 1.45357 -0.026348 1.27938 0.00227242 1.07939C0.0312562 0.879484 0.31428 0.690915 0.851888 0.513512L0.408772 0.384415L0.96946 0.217502L1.4213 0.349053C2.11164 0.17165 2.94081 0.0551576 3.90954 -5.37001e-07L4.15477 0.407088C3.49123 0.441096 2.90256 0.515458 2.38721 0.630427L4.05301 1.1156L4.07945 1.10773C4.91116 0.95427 5.62041 0.870094 6.20726 0.855374C6.79511 0.840485 7.34726 0.908502 7.86397 1.05892C8.38105 1.2095 8.621 1.38614 8.58311 1.5885C8.54595 1.79112 8.2443 1.9851 7.67753 2.17122L8.31535 2.35699L7.75467 2.52391ZM1.41639 1.04208C1.39995 1.12507 1.49126 1.19538 1.68924 1.25307C1.88722 1.31077 2.10219 1.33885 2.33415 1.33758C2.56584 1.33657 2.89911 1.30256 3.33287 1.23607L1.79972 0.789557C1.5604 0.874832 1.43247 0.958923 1.41639 1.04208ZM7.14737 1.62446C7.17517 1.53631 7.08595 1.46203 6.87898 1.40179C6.67236 1.34165 6.44413 1.31297 6.19454 1.31584C5.94422 1.31897 5.59097 1.35721 5.1344 1.43056L6.72924 1.89509C6.98037 1.80304 7.11929 1.71286 7.14737 1.62446Z" transform="translate(132.951 238.817) scale(3)" fill="#44C4A1"/>
<path d="M32.9983 2.04246L25.9857 4.13078e-08L12.3565 4.05657L-2.49552e-08 5.26218V7.73431L13.3701 11.6284L39.3559 3.89414V1.4221L32.9983 2.04246Z" transform="translate(86.7393 224.271) scale(3)" fill="#31978C"/>
<path d="M25.9857 6.29943e-07L-2.49552e-08 7.73423L13.3701 11.6284L39.3559 3.89414L25.9857 6.29943e-07Z" transform="translate(86.7393 216.853) scale(3)" fill="#3EA69B"/>
<path d="M7.97012 9.48766L0.0188983 7.17185C0.977276 6.88659 0.968826 6.42662 -2.77279e-07 6.1444L20.6251 0.00558365C21.5939 0.287805 23.1562 0.285267 24.1147 6.19619e-07L32.0659 2.3158C31.1076 2.60107 31.116 3.06103 32.0848 3.34326L11.4597 9.48207C10.4908 9.19985 8.9285 9.20239 7.97012 9.48766Z" transform="translate(97.645 220.065) scale(3)" fill="#44C4A1"/>
<path d="M9.35265 0.639208C11.8714 1.37285 12.3177 2.44251 10.3492 3.02836C8.38073 3.6142 4.7431 3.49449 2.2243 2.76086C-0.29449 2.02722 -0.740699 0.957553 1.22776 0.371708C3.19613 -0.214222 6.83377 -0.0944301 9.35265 0.639208Z" transform="translate(128.408 229.198) scale(3)" fill="#3EA69B"/>
<path d="M1.9531 0.097611C2.4033 0.228738 2.4073 0.442518 1.96191 0.575084C1.51652 0.70765 0.790475 0.708833 0.340271 0.577706C-0.109933 0.446578 -0.113932 0.232798 0.331457 0.100233C0.776754 -0.0324176 1.50281 -0.0335166 1.9531 0.097611Z" transform="translate(172.617 224.271) scale(3)" fill="#3EA69B"/>
<path d="M1.9531 0.0975795C2.4033 0.228707 2.4073 0.442487 1.96191 0.575053C1.51652 0.707619 0.790475 0.708803 0.340271 0.577675C-0.109933 0.446547 -0.11393 0.232767 0.331458 0.100201C0.776755 -0.0323646 1.5028 -0.0335482 1.9531 0.0975795Z" transform="translate(112.05 242.297) scale(3)" fill="#3EA69B"/>
<path d="M7.75467 2.52391L7.10785 2.33551C6.22416 2.54988 5.1831 2.67018 3.98568 2.69615L3.85466 2.2812C4.77669 2.26072 5.53854 2.18518 6.1422 2.0543L4.42298 1.55356C3.60299 1.70373 2.90956 1.78663 2.34278 1.8022C1.7761 1.81777 1.23722 1.75119 0.726322 1.60238C0.215425 1.45357 -0.026348 1.27938 0.00227242 1.07939C0.0312562 0.879484 0.31428 0.690915 0.851888 0.513512L0.408772 0.384415L0.96946 0.217502L1.4213 0.349053C2.11164 0.17165 2.94081 0.0551578 3.90954 -3.7177e-07L4.15477 0.407088C3.49123 0.441096 2.90256 0.515458 2.38721 0.630427L4.05301 1.1156L4.07945 1.10773C4.91116 0.95427 5.62041 0.870094 6.20726 0.855374C6.79511 0.840485 7.34726 0.908501 7.86397 1.05892C8.38105 1.2095 8.621 1.38614 8.58311 1.5885C8.54595 1.79112 8.2443 1.9851 7.67753 2.17122L8.31535 2.357L7.75467 2.52391ZM1.41639 1.04208C1.39995 1.12507 1.49126 1.19538 1.68924 1.25307C1.88722 1.31077 2.10219 1.33885 2.33415 1.33758C2.56584 1.33657 2.89911 1.30256 3.33287 1.23607L1.79972 0.789557C1.5604 0.874832 1.43247 0.958923 1.41639 1.04208ZM7.14737 1.62446C7.17517 1.53631 7.08595 1.46203 6.87898 1.4018C6.67236 1.34165 6.44413 1.31297 6.19454 1.31584C5.94422 1.31897 5.59097 1.35721 5.1344 1.43056L6.72924 1.89509C6.98037 1.80313 7.11929 1.71295 7.14737 1.62446Z" transform="translate(132.951 230.106) scale(3)" fill="#44C4A1"/>
<path d="M-3.54916e-07 1.77928V15.8697L5.97803 14.0904V-5.47329e-07L-3.54916e-07 1.77928Z" transform="translate(156.678 237.522) scale(3)" fill="white"/>
<path d="M-1.28657e-06 0.183578V14.2739L0.616929 14.0903V-1.23923e-07L-1.28657e-06 0.183578Z" transform="translate(158.82 241.675) scale(3)" fill="#FCD462"/>
<path d="M1.02038e-06 0.183579V14.274L0.616929 14.0904V2.78828e-07L1.02038e-06 0.183579Z" transform="translate(170.624 238.16) scale(3)" fill="#FCD462"/>
<path d="M18.113 3.26281C17.7691 0.985712 16.508 2.46583 13.6421 3.14896C10.6614 2.46583 9.51505 0.985712 9.05649 3.26281C3.89773 2.01041 -5.24777e-07 -3.34077 -5.24777e-07 3.14896C-5.24777e-07 10.4357 7.22227 20.7965 13.2981 20.7965C13.4128 20.7965 13.5274 20.7965 13.6421 20.7965C13.7567 20.7965 13.8713 20.7965 13.986 20.7965C19.9472 20.7965 27.2841 10.4357 27.2841 3.14896C27.1695 -3.34077 23.2718 2.12426 18.113 3.26281Z" transform="translate(192.224) scale(3)" fill="#D8BA8F"/>
<path d="M14.559 3.26281C14.2151 0.985712 13.298 2.46583 10.8906 3.14896C8.59784 2.46583 7.5661 0.985712 7.22218 3.26281C3.09522 2.01041 7.87156e-07 -3.34077 7.87156e-07 3.14896C7.87156e-07 10.4357 5.73189 20.7965 10.5467 20.7965C10.6613 20.7965 10.6613 20.7965 10.776 20.7965C10.8906 20.7965 10.8906 20.7965 11.0052 20.7965C15.82 20.7965 21.5519 10.4357 21.5519 3.14896C21.8958 -3.34077 18.686 2.12426 14.559 3.26281Z" transform="translate(200.133) scale(3)" fill="#C1A580"/>
<path d="M66.8288 36.7754C67.4019 35.1814 67.6312 33.4736 67.6312 31.538C67.6312 17.3061 53.3015 4.16952e-07 35.5326 4.16952e-07C17.7638 4.16952e-07 3.43407 17.4199 3.43407 31.538C3.43407 33.4736 3.66335 35.2953 4.23654 36.7754C1.25596 38.7109 -0.463611 41.1019 0.109578 43.0374C0.912043 45.9977 6.52929 47.1362 12.949 45.6561C18.7955 48.2748 26.7055 49.0718 35.5326 49.0718C44.3598 49.0718 52.2698 48.2748 58.1163 45.6561C64.536 47.1362 70.1533 45.9977 70.9557 43.0374C71.5289 41.1019 69.8093 38.7109 66.8288 36.7754Z" transform="translate(128.615 61.7065) scale(3)" fill="#D8BA8F"/>
<path d="M66.8288 34.7259C67.4019 33.132 67.6312 31.4241 67.6312 29.4886C67.6312 15.2566 53.3015 -4.51697e-07 35.5326 -4.51697e-07C17.7638 -4.51697e-07 3.43407 15.3705 3.43407 29.4886C3.43407 31.4241 3.66335 33.2458 4.23654 34.7259C1.25596 36.6615 -0.463611 39.0524 0.109578 40.988C0.912043 43.9482 6.52929 45.0868 12.949 43.6067C18.7955 46.2253 26.7055 47.0223 35.5326 47.0223C44.3598 47.0223 52.2698 46.2253 58.1163 43.6067C64.536 45.0868 70.1533 43.9482 70.9557 40.988C71.5289 39.0524 69.8093 36.6615 66.8288 34.7259Z" transform="translate(128.615 67.8552) scale(3)" fill="#C1A580"/>
<path d="M16.508 2.17189C16.508 3.42429 15.4762 4.33513 14.3299 4.33513H2.17814C0.917111 4.33513 7.87163e-07 3.31044 7.87163e-07 2.17189C7.87163e-07 0.919492 1.03175 0.00865649 2.17814 0.00865649H14.2152C15.4762 -0.105198 16.508 0.919492 16.508 2.17189Z" transform="translate(210.447 54.5083) scale(3)" fill="#FFB000"/>
<path d="M12.1517 1.48011C12.1517 0.910839 12.0371 0.455418 11.8078 -4.51694e-07H0.343916C0.114638 0.455418 3.4985e-07 0.910839 3.4985e-07 1.48011C3.4985e-07 2.61866 0.458555 3.5295 1.14639 4.44033H10.8907C11.6931 3.64335 12.1517 2.61866 12.1517 1.48011Z" transform="translate(216.983 54.1926) scale(3)" fill="#FF7300"/>
<path d="M0.458553 4.09879C0.458553 2.0494 2.06349 0.455422 4.12698 0.455422C4.24162 0.455422 4.4709 0.455422 4.58554 0.455422C4.12698 0.113855 3.55379 4.16951e-07 2.9806 4.16951e-07C1.37566 4.16951e-07 -8.74622e-08 1.36626 -8.74622e-08 2.96024C-8.74622e-08 3.52952 0.229276 4.0988 0.458553 4.55422C0.458553 4.32651 0.458553 4.21265 0.458553 4.09879Z" transform="translate(166.777 104.402) scale(3)" fill="#D8BA8F"/>
<path d="M2.4317 7.28672C0.597484 5.23733 0.826761 2.04939 3.00489 0.341566C3.11953 0.227711 3.34881 0.113856 3.46344 1.2856e-06C2.66098 0.113856 1.97315 0.341566 1.39995 0.910841C-0.319622 2.39096 -0.434262 4.89577 0.9414 6.48974C1.51459 7.05902 2.08778 7.51444 2.89025 7.74215C2.66098 7.51444 2.54634 7.40058 2.4317 7.28672Z" transform="translate(156.04 132.411) scale(3)" fill="#D8BA8F"/>
<path d="M0.0859789 2.04895C0.544536 0.796538 1.92021 0.22726 3.18124 0.682682C3.29588 0.682682 3.29588 0.796538 3.41051 0.796538C3.18124 0.454971 2.95196 0.22726 2.60804 0.113405C1.57629 -0.228161 0.544536 0.22726 0.200618 1.1381C0.0859793 1.47967 0.0859789 1.82124 0.0859789 2.1628C-0.0286603 2.27666 -0.0286603 2.1628 0.0859789 2.04895Z" transform="translate(190.247 91.4238) scale(3)" fill="#D8BA8F"/>
<path d="M0.458553 0.302499C2.40741 0.985631 3.43915 3.03503 2.75132 4.97057C2.75132 5.08443 2.63668 5.19828 2.52204 5.31214C2.9806 4.97057 3.32452 4.51515 3.55379 3.94587C4.12698 2.46575 3.20988 0.757918 1.71958 0.188641C1.14639 -0.0390703 0.573194 -0.0390686 2.09909e-06 0.0747869C0.229279 0.188642 0.343915 0.188643 0.458553 0.302499Z" transform="translate(285.425 107.594) scale(3)" fill="#D8BA8F"/>
<path d="M0.573193 1.42519C3.09525 0.400491 6.07585 1.6529 7.1076 4.15772C7.22224 4.38544 7.22224 4.49929 7.22224 4.727C7.33688 4.04387 7.33688 3.24688 6.99297 2.44989C6.1905 0.400491 3.89772 -0.510353 1.83422 0.286636C1.03175 0.628202 0.458555 1.08363 -5.24775e-07 1.6529C0.229277 1.6529 0.458555 1.53905 0.573193 1.42519Z" transform="translate(250.686 87.49) scale(3)" fill="#D8BA8F"/>
<path d="M0.229277 0.113853C1.26102 0.910836 1.37566 2.39095 0.573191 3.41564C0.458553 3.5295 0.458552 3.5295 0.343914 3.64335C0.687829 3.5295 1.03175 3.30179 1.26102 3.07408C1.94885 2.27709 1.83422 1.13855 1.03175 0.455421C0.687831 0.113857 0.343915 4.16948e-07 -5.24773e-07 4.16948e-07C0.114638 4.16948e-07 0.229277 0.113853 0.229277 0.113853Z" transform="translate(297.117 135.144) scale(3)" fill="#D8BA8F"/>
<path d="M5.8125 7.05664H2.11523V10.0801H6.41016V11H0.990234V2.46875H6.35156V3.39453H2.11523V6.13672H5.8125V7.05664ZM9.76758 6.97461L11.1738 4.66016H12.4395L10.3652 7.79492L12.5039 11H11.25L9.78516 8.62695L8.32031 11H7.06055L9.19922 7.79492L7.125 4.66016H8.37891L9.76758 6.97461ZM16.0195 10.2324C16.4062 10.2324 16.7441 10.1152 17.0332 9.88086C17.3223 9.64648 17.4824 9.35352 17.5137 9.00195H18.5391C18.5195 9.36523 18.3945 9.71094 18.1641 10.0391C17.9336 10.3672 17.625 10.6289 17.2383 10.8242C16.8555 11.0195 16.4492 11.1172 16.0195 11.1172C15.1562 11.1172 14.4688 10.8301 13.957 10.2559C13.4492 9.67773 13.1953 8.88867 13.1953 7.88867V7.70703C13.1953 7.08984 13.3086 6.54102 13.5352 6.06055C13.7617 5.58008 14.0859 5.20703 14.5078 4.94141C14.9336 4.67578 15.4355 4.54297 16.0137 4.54297C16.7246 4.54297 17.3145 4.75586 17.7832 5.18164C18.2559 5.60742 18.5078 6.16016 18.5391 6.83984H17.5137C17.4824 6.42969 17.3262 6.09375 17.0449 5.83203C16.7676 5.56641 16.4238 5.43359 16.0137 5.43359C15.4629 5.43359 15.0352 5.63281 14.7305 6.03125C14.4297 6.42578 14.2793 6.99805 14.2793 7.74805V7.95312C14.2793 8.68359 14.4297 9.24609 14.7305 9.64062C15.0312 10.0352 15.4609 10.2324 16.0195 10.2324ZM22.3887 11.1172C21.5293 11.1172 20.8301 10.8359 20.291 10.2734C19.752 9.70703 19.4824 8.95117 19.4824 8.00586V7.80664C19.4824 7.17773 19.6016 6.61719 19.8398 6.125C20.082 5.62891 20.418 5.24219 20.8477 4.96484C21.2812 4.68359 21.75 4.54297 22.2539 4.54297C23.0781 4.54297 23.7188 4.81445 24.1758 5.35742C24.6328 5.90039 24.8613 6.67773 24.8613 7.68945V8.14062H20.5664C20.582 8.76562 20.7637 9.27148 21.1113 9.6582C21.4629 10.041 21.9082 10.2324 22.4473 10.2324C22.8301 10.2324 23.1543 10.1543 23.4199 9.99805C23.6855 9.8418 23.918 9.63477 24.1172 9.37695L24.7793 9.89258C24.248 10.709 23.4512 11.1172 22.3887 11.1172ZM22.2539 5.43359C21.8164 5.43359 21.4492 5.59375 21.1523 5.91406C20.8555 6.23047 20.6719 6.67578 20.6016 7.25H23.7773V7.16797C23.7461 6.61719 23.5977 6.19141 23.332 5.89062C23.0664 5.58594 22.707 5.43359 22.2539 5.43359ZM29.8125 9.31836C29.8125 9.02539 29.7012 8.79883 29.4785 8.63867C29.2598 8.47461 28.875 8.33398 28.3242 8.2168C27.7773 8.09961 27.3418 7.95898 27.0176 7.79492C26.6973 7.63086 26.459 7.43555 26.3027 7.20898C26.1504 6.98242 26.0742 6.71289 26.0742 6.40039C26.0742 5.88086 26.293 5.44141 26.7305 5.08203C27.1719 4.72266 27.7344 4.54297 28.418 4.54297C29.1367 4.54297 29.7188 4.72852 30.1641 5.09961C30.6133 5.4707 30.8379 5.94531 30.8379 6.52344H29.748C29.748 6.22656 29.6211 5.9707 29.3672 5.75586C29.1172 5.54102 28.8008 5.43359 28.418 5.43359C28.0234 5.43359 27.7148 5.51953 27.4922 5.69141C27.2695 5.86328 27.1582 6.08789 27.1582 6.36523C27.1582 6.62695 27.2617 6.82422 27.4688 6.95703C27.6758 7.08984 28.0488 7.2168 28.5879 7.33789C29.1309 7.45898 29.5703 7.60352 29.9062 7.77148C30.2422 7.93945 30.4902 8.14258 30.6504 8.38086C30.8145 8.61523 30.8965 8.90234 30.8965 9.24219C30.8965 9.80859 30.6699 10.2637 30.2168 10.6074C29.7637 10.9473 29.1758 11.1172 28.4531 11.1172C27.9453 11.1172 27.4961 11.0273 27.1055 10.8477C26.7148 10.668 26.4082 10.418 26.1855 10.0977C25.9668 9.77344 25.8574 9.42383 25.8574 9.04883H26.9414C26.9609 9.41211 27.1055 9.70117 27.375 9.91602C27.6484 10.127 28.0078 10.2324 28.4531 10.2324C28.8633 10.2324 29.1914 10.1504 29.4375 9.98633C29.6875 9.81836 29.8125 9.5957 29.8125 9.31836ZM36 9.31836C36 9.02539 35.8887 8.79883 35.666 8.63867C35.4473 8.47461 35.0625 8.33398 34.5117 8.2168C33.9648 8.09961 33.5293 7.95898 33.2051 7.79492C32.8848 7.63086 32.6465 7.43555 32.4902 7.20898C32.3379 6.98242 32.2617 6.71289 32.2617 6.40039C32.2617 5.88086 32.4805 5.44141 32.918 5.08203C33.3594 4.72266 33.9219 4.54297 34.6055 4.54297C35.3242 4.54297 35.9062 4.72852 36.3516 5.09961C36.8008 5.4707 37.0254 5.94531 37.0254 6.52344H35.9355C35.9355 6.22656 35.8086 5.9707 35.5547 5.75586C35.3047 5.54102 34.9883 5.43359 34.6055 5.43359C34.2109 5.43359 33.9023 5.51953 33.6797 5.69141C33.457 5.86328 33.3457 6.08789 33.3457 6.36523C33.3457 6.62695 33.4492 6.82422 33.6562 6.95703C33.8633 7.08984 34.2363 7.2168 34.7754 7.33789C35.3184 7.45898 35.7578 7.60352 36.0938 7.77148C36.4297 7.93945 36.6777 8.14258 36.8379 8.38086C37.002 8.61523 37.084 8.90234 37.084 9.24219C37.084 9.80859 36.8574 10.2637 36.4043 10.6074C35.9512 10.9473 35.3633 11.1172 34.6406 11.1172C34.1328 11.1172 33.6836 11.0273 33.293 10.8477C32.9023 10.668 32.5957 10.418 32.373 10.0977C32.1543 9.77344 32.0449 9.42383 32.0449 9.04883H33.1289C33.1484 9.41211 33.293 9.70117 33.5625 9.91602C33.8359 10.127 34.1953 10.2324 34.6406 10.2324C35.0508 10.2324 35.3789 10.1504 35.625 9.98633C35.875 9.81836 36 9.5957 36 9.31836Z" transform="translate(179.461 124.765) scale(3)" fill="black"/>
</svg>
