<svg width="92" height="89" viewBox="0 0 92 89" fill="none" xmlns="http://www.w3.org/2000/svg">
<path d="M151.852 1.14751e-07V158.454H148.538L125.887 148.419L101.01 158.454H6.16786e-07V1.14751e-07H151.852Z" transform="translate(13.3838 9.27209) scale(0.5)" fill="#3496F7"/>
<path d="M80.4472 0H0V73.4796H80.4472V0Z" transform="translate(20.5059 43.8307) scale(0.5)" fill="#E6E6E6"/>
<path d="M73.0857 -1.95077e-06H0V65.9818H73.0857V-1.95077e-06Z" transform="translate(22.3457 45.6711) scale(0.5)" fill="#2D4151"/>
<path d="M47.5279 0H5.16379e-06V89.3385H47.5279V0Z" transform="translate(63.8887 43.8307) scale(0.5)" fill="#E6E6E6"/>
<path d="M40.166 -1.95077e-06H5.50804e-06V65.9818H40.166V-1.95077e-06Z" transform="translate(65.7295 45.6711) scale(0.5)" fill="#2D4151"/>
<path d="M40.166 4.70479e-06H5.50804e-06V12.1777H40.166V4.70479e-06Z" transform="translate(65.7295 80.5706) scale(0.5)" fill="#3496F7"/>
<path d="M32.8046 0H2.52452e-06V4.8163H32.8046V0Z" transform="translate(67.5693 82.4109) scale(0.5)" fill="#E6E6E6"/>
<path d="M106.949 0H0V75.1481H106.949V0Z" transform="translate(1.78906 5.60828) scale(0.5)" fill="#2E8CCC"/>
<path d="M160.816 0H0V5.99839H160.816V0Z" transform="translate(11.1416 6.27289) scale(0.5)" fill="#2278B2"/>
<path d="M106.949 2.29502e-07H-5.37895e-09V170.76H31.723V75.1481H106.949V59.6069L94.5543 32.5658L106.949 13.8012V2.29502e-07Z" transform="translate(1.78906 3.11926) scale(0.5)" fill="#E6E6E6"/>
<path d="M97.1338 0H0V45.8053H97.1338V0Z" transform="translate(6.69629 10.0201) scale(0.5)" fill="#2D4151"/>
<path d="M4.49856 0H0V56.8479H4.49856V0Z" transform="translate(23.0557 8.38397) scale(0.5)" fill="#E6E6E6"/>
<path d="M4.49856 0H0V56.8479H4.49856V0Z" transform="translate(42.4824 8.38397) scale(0.5)" fill="#E6E6E6"/>
<path d="M15.4933 -4.59004e-07L20.2809 9.7012L30.987 11.257L23.2401 18.8083L25.069 29.4707L15.4933 24.4363L5.91802 29.4707L7.74639 18.8083L-9.18007e-07 11.257L10.7056 9.7012L15.4933 -4.59004e-07Z" transform="translate(65.3203 14.2144) scale(0.5)" fill="white"/>
<path d="M114.105 0H0V6.23857H114.105V0Z" transform="scale(0.5)" fill="#666666"/>
<path opacity="0.2" d="M23.8154 -5.02035e-07V41.631H-4.59004e-07C-4.59004e-07 41.631 20.898 34.9455 23.8154 -5.02035e-07Z" transform="translate(9.65918 10.9291) scale(0.5)" fill="#FCFAFA"/>
<path opacity="0.2" d="M23.8154 -5.02035e-07V41.631H1.31964e-06C1.31964e-06 41.631 20.898 34.9455 23.8154 -5.02035e-07Z" transform="translate(29.3721 10.9291) scale(0.5)" fill="#FCFAFA"/>
<path opacity="0.2" d="M28.2313 2.8114e-06V49.3502H-2.35239e-06C-2.35239e-06 49.3502 24.7729 41.4252 28.2313 2.8114e-06Z" transform="translate(43.5996 52.9096) scale(0.5)" fill="#FCFAFA"/>
<path opacity="0.2" d="M28.2313 2.8114e-06V49.3502H-1.14751e-06C-1.14751e-06 49.3502 24.7729 41.4252 28.2313 2.8114e-06Z" transform="translate(70.7227 52.9096) scale(0.5)" fill="#FCFAFA"/>
<path opacity="0.2" d="M28.2313 2.8114e-06V49.3502H7.74568e-07C7.74568e-07 49.3502 24.7729 41.4252 28.2313 2.8114e-06Z" transform="translate(24.2051 52.9096) scale(0.5)" fill="#FCFAFA"/>
<path d="M5.3507 0.000472143C5.92741 0.000472143 6.45479 0.0432383 6.93233 0.128312C7.40987 0.213855 7.81784 0.366614 8.15579 0.587523C8.49373 0.808433 8.75552 1.10689 8.94024 1.48479C9.12495 1.86269 9.21709 2.34446 9.21709 2.92917C9.21709 3.5228 9.1245 4.01773 8.93978 4.41348C8.75459 4.80971 8.49326 5.12697 8.15531 5.3648C7.8169 5.6031 7.40892 5.77231 6.93138 5.87101C6.45337 5.96972 5.92554 6.01907 5.34882 6.01907H3.26569V8.63473C3.26569 9.05023 3.76533 9.25798 4.76412 9.25798V10.0274H2.8114e-06V9.25798C0.800916 9.25798 1.20137 9.0507 1.20137 8.63614V1.41805C1.20137 1.00349 0.800916 0.796212 2.8114e-06 0.796212V-1.20488e-06L5.3507 0.000472143ZM3.26523 1.13416V4.91312H5.11428C5.84281 4.91312 6.36453 4.74626 6.67992 4.41208C6.99483 4.07836 7.15229 3.58578 7.15229 2.93574C7.15229 2.36702 6.99483 1.92426 6.67992 1.6084C6.365 1.29255 5.84329 1.13416 5.11428 1.13416H3.26523Z" transform="translate(58.9004 36.0383) scale(0.5)" fill="white"/>
<path d="M5.20923 2.23764e-06C5.92883 2.23764e-06 6.5972 0.0902412 7.2134 0.269789C7.82959 0.449336 8.36071 0.743571 8.80582 1.15249C9.2514 1.56141 9.59968 2.09817 9.85208 2.76325C10.104 3.42832 10.23 4.24616 10.23 5.21628C10.23 6.01625 10.1223 6.73726 9.90613 7.37978C9.69039 8.02229 9.36655 8.57034 8.9346 9.02438C8.50265 9.47842 7.95837 9.82858 7.30128 10.0758C6.64419 10.323 5.87948 10.4467 5.00712 10.4467C4.29645 10.4467 3.63513 10.3611 3.02317 10.1905C2.4112 10.0199 1.88243 9.73693 1.43733 9.34117C0.991747 8.94588 0.641102 8.42933 0.384471 7.79104C0.127841 7.15276 -1.37701e-06 6.36688 -1.37701e-06 5.43201C-1.37701e-06 4.59632 0.0986974 3.84382 0.297046 3.17451C0.494454 2.50521 0.805145 1.9346 1.22816 1.4627C1.65118 0.990803 2.19076 0.629356 2.84784 0.377425C3.50399 0.125965 4.29128 2.23764e-06 5.20923 2.23764e-06ZM5.2769 1.1069C4.71899 1.1069 4.23769 1.19009 3.83301 1.35648C3.42832 1.52287 3.09743 1.76351 2.84127 2.07843C2.58464 2.39334 2.39568 2.78016 2.27442 3.2389C2.15315 3.69811 2.09205 4.21984 2.09205 4.80454C2.09205 5.71356 2.15973 6.45807 2.29463 7.03808C2.42952 7.61855 2.62318 8.07729 2.87511 8.41476C3.12704 8.75224 3.43303 8.98631 3.79306 9.1165C4.15263 9.24717 4.5573 9.3125 5.00758 9.3125C5.60169 9.3125 6.10086 9.2246 6.50602 9.04928C6.9107 8.87397 7.23454 8.61781 7.47754 8.27987C7.72054 7.94239 7.89585 7.52408 8.00396 7.02492C8.11206 6.52575 8.16612 5.95186 8.16612 5.30417C8.16612 4.46706 8.09656 3.77896 7.95697 3.2389C7.81737 2.69885 7.62183 2.2716 7.3699 1.95669C7.11797 1.64225 6.81434 1.42134 6.45901 1.29537C6.10227 1.16988 5.70885 1.1069 5.2769 1.1069Z" transform="translate(63.9346 35.9372) scale(0.5)" fill="white"/>
<path d="M4.76412 0.795276C3.76532 0.795276 3.2657 1.00208 3.2657 1.41617V8.97409H5.91097C6.25314 8.97409 6.55865 8.92661 6.82892 8.83261C7.09871 8.73813 7.33278 8.58068 7.53066 8.36024C7.72854 8.1398 7.88834 7.84557 8.01007 7.4766C8.13134 7.10764 8.21454 6.64419 8.25966 6.08628L9.15034 6.18076L8.8265 10.0274H4.24578e-06V9.25797C0.800918 9.25797 1.20137 9.0507 1.20137 8.63614V1.41805C1.20137 1.00349 0.800918 0.796215 4.24578e-06 0.796215V1.60651e-06H4.76412V0.795276Z" transform="translate(69.4873 36.039) scale(0.5)" fill="white"/>
<path d="M4.4807 0.796216C3.67979 0.796216 3.27933 1.00349 3.27933 1.41805V8.63614C3.27933 9.0507 3.67979 9.25797 4.4807 9.25797V10.0274H-5.73754e-06V9.25797C0.809838 9.25797 1.21453 9.0507 1.21453 8.63614V1.41805C1.21453 1.00349 0.809368 0.796216 -5.73754e-06 0.796216V2.12289e-06H4.4807V0.796216Z" transform="translate(74.5693 36.0385) scale(0.5)" fill="white"/>
<path d="M9.48875 3.53595L8.5036 3.6168C8.32358 2.86101 7.97952 2.25374 7.47096 1.795C6.9624 1.33626 6.3039 1.10689 5.49358 1.10689C4.89995 1.10689 4.39139 1.2103 3.96837 1.41758C3.54536 1.62439 3.2013 1.91251 2.93574 2.281C2.67018 2.64997 2.47466 3.09085 2.34869 3.60364C2.22273 4.11643 2.15974 4.67904 2.15974 5.29054C2.15974 5.96549 2.23823 6.55255 2.39568 7.05171C2.55314 7.55134 2.77359 7.96495 3.05701 8.2935C3.34043 8.62204 3.67791 8.86692 4.06897 9.02908C4.46049 9.19077 4.89432 9.27208 5.37139 9.27208C6.3072 9.27208 7.04512 9.05399 7.5847 8.61734C8.12476 8.18116 8.51582 7.56685 8.75882 6.77534L9.66313 7.08554C9.53669 7.51749 9.36373 7.93581 9.14329 8.3405C8.92285 8.74565 8.63708 9.10522 8.28645 9.42014C7.93534 9.73505 7.5081 9.98933 7.00424 10.183C6.50038 10.3762 5.90204 10.473 5.20923 10.473C4.4807 10.473 3.80105 10.3691 3.17123 10.1623C2.5414 9.95502 1.99054 9.63963 1.51817 9.21615C1.0458 8.79266 0.674475 8.25872 0.404684 7.61479C0.134892 6.97039 2.29502e-07 6.21178 2.29502e-07 5.33754C2.29502e-07 4.42759 0.132539 3.63701 0.3981 2.96582C0.663191 2.2951 1.02747 1.74095 1.49137 1.30383C1.95481 0.866716 2.49674 0.540523 3.11764 0.324314C3.73853 0.108105 4.40408 -9.75382e-07 5.11522 -9.75382e-07C5.84375 -9.75382e-07 6.46652 0.109513 6.98449 0.328072C7.50198 0.546631 7.89116 0.797151 8.15202 1.07963L8.4895 0.229838H9.48829L9.48875 3.53595Z" transform="translate(77.3213 35.9238) scale(0.5)" fill="white"/>
<path d="M8.96139 3.0368L8.01666 3.09085C7.90902 1.73249 7.33277 1.05284 6.28933 1.05284H3.26617V4.31901H4.80454C5.34412 4.31901 5.65481 3.77472 5.73566 2.68569H6.58592L6.38334 6.8966H5.56033C5.47056 5.78077 5.18714 5.22286 4.71007 5.22286H3.26617V8.97455H5.80333C7.31491 8.97455 8.15155 8.01195 8.31371 6.08628L9.28524 6.18076L8.96139 10.0274H4.47528e-06V9.25797C0.800918 9.25797 1.20137 9.0507 1.20137 8.63614V1.41805C1.20137 1.00349 0.800918 0.796216 4.47528e-06 0.796216V2.12289e-06H8.96139V3.0368Z" transform="translate(82.5928 36.0385) scale(0.5)" fill="white"/>
<path d="M4.7002 -2.92615e-06H0V72.2777H4.7002V-2.92615e-06Z" transform="translate(39.4424 44.4316) scale(0.5)" fill="#E6E6E6"/>
<path d="M103.628 0H0V3.76016H103.628V0Z" transform="translate(3.4502 14.6712) scale(0.5)" fill="#E6E6E6"/>
<path d="M75.4593 -2.92615e-06H0V3.76015H75.4593V-2.92615e-06Z" transform="translate(21.7529 54.3021) scale(0.5)" fill="#E6E6E6"/>
<path d="M13.8623 -2.75402e-06H0V6.26677H13.8623V-2.75402e-06Z" transform="translate(1.78906 57.7487) scale(0.5)" fill="#CCCCCC"/>
<path d="M13.8623 4.59004e-06H0V6.26677H13.8623V4.59004e-06Z" transform="translate(5.70508 61.6654) scale(0.5)" fill="#CCCCCC"/>
<path d="M13.8623 4.24578e-06H0V6.26677H13.8623V4.24578e-06Z" transform="translate(10.7188 82.9733) scale(0.5)" fill="#CCCCCC"/>
<path d="M13.8623 -2.92615e-06H0V6.26677H13.8623V-2.92615e-06Z" transform="translate(14.793 35.5013) scale(0.5)" fill="#CCCCCC"/>
<path d="M13.8623 0H0V6.26677H13.8623V0Z" transform="translate(48.3203 4.62897) scale(0.5)" fill="#CCCCCC"/>
</svg>
