<svg width="354" height="354" viewBox="0 0 354 354" fill="none" xmlns="http://www.w3.org/2000/svg">
<path d="M177 88.5C177 39.6306 137.369 0 88.5 0C39.6306 0 0 39.6306 0 88.5C0 137.369 39.6306 177 88.5 177C137.369 177 177 137.369 177 88.5Z" transform="scale(2)" fill="#48A1AF"/>
<path d="M0.67775 6.56348L14.0901 16.5871L27.7164 6.56348L28.3942 1.89056L14.1258 0L1.0886e-06 1.89056L0.67775 6.56348Z" transform="translate(148.605 226.155) scale(2)" fill="#C7C8C9"/>
<path d="M63.7443 58.0369C88.7854 58.0369 111.401 47.6209 127.489 30.9268C126.49 25.5405 125.491 20.6179 124.528 17.5858C121.496 7.84764 95.5629 0 63.6016 0C31.6403 0 5.99274 7.84764 2.9607 17.5858C2.03325 20.6179 0.998791 25.5048 5.44298e-07 30.9268C16.0877 47.6209 38.7031 58.0369 63.7443 58.0369Z" transform="translate(49.5117 237.926) scale(2)" fill="#E4E9ED"/>
<path d="M22.4728 2.17719e-06H0V3.74547H22.4728V2.17719e-06Z" transform="translate(100.094 309.34) scale(2)" fill="#C9DEE2"/>
<path d="M20.7606 4.35438e-06C19.9758 0.107018 19.1911 0.249693 18.442 0.392378C17.5145 0.535062 16.5871 0.713426 15.6596 0.891782C15.0532 0.998795 14.4468 1.14148 13.8761 1.24849C12.9486 1.42685 12.0212 1.64087 11.1294 1.8549C10.523 1.99758 9.95224 2.14027 9.3815 2.28295C8.45405 2.53265 7.5266 2.74668 6.6705 2.99637C6.09976 3.17473 5.52902 3.31741 4.95828 3.49577C4.03083 3.78114 3.13906 4.06651 2.24728 4.38755C1.46251 4.67291 0.713423 4.92261 1.0886e-06 5.20798L0.891779 9.55985L21.8664 5.27932L20.7606 4.35438e-06Z" transform="translate(82.9688 241.636) scale(2)" fill="#172023"/>
<path d="M19.6191 4.31621C18.763 4.03084 17.8355 3.74546 16.9081 3.46009C16.3374 3.28174 15.7666 3.13905 15.1959 2.9607C14.3041 2.711 13.4123 2.4613 12.4849 2.24728C11.9141 2.10459 11.3077 1.96191 10.737 1.81923C9.84522 1.6052 8.91777 1.42684 7.99032 1.21282C7.38391 1.1058 6.81318 0.96312 6.20677 0.856106C5.31499 0.677751 4.38755 0.535069 3.42443 0.356713C2.63966 0.214029 1.89057 0.107015 1.07013 2.17719e-06L-2.17719e-06 5.27932L20.9746 9.55985L21.9021 5.06529C21.153 4.81559 20.4039 4.56591 19.6191 4.31621Z" transform="translate(226.438 241.565) scale(2)" fill="#172023"/>
<path d="M1.78355 3.56711C2.76858 3.56711 3.56711 2.76859 3.56711 1.78356C3.56711 0.798529 2.76858 4.35438e-06 1.78355 4.35438e-06C0.79852 4.35438e-06 -4.35438e-06 0.798529 -4.35438e-06 1.78356C-4.35438e-06 2.76859 0.79852 3.56711 1.78355 3.56711Z" transform="translate(258.473 250.554) scale(2)" fill="#AF9604"/>
<path d="M1.78356 3.56711C2.76859 3.56711 3.56711 2.76858 3.56711 1.78355C3.56711 0.798523 2.76859 -2.17719e-06 1.78356 -2.17719e-06C0.798529 -2.17719e-06 4.35438e-06 0.798523 4.35438e-06 1.78355C4.35438e-06 2.76858 0.798529 3.56711 1.78356 3.56711Z" transform="translate(231.293 244.633) scale(2)" fill="#AF9604"/>
<path d="M1.78355 3.56711C2.76858 3.56711 3.56711 2.76859 3.56711 1.78356C3.56711 0.798529 2.76858 4.35438e-06 1.78355 4.35438e-06C0.798524 4.35438e-06 0 0.798529 0 1.78356C0 2.76859 0.798524 3.56711 1.78355 3.56711Z" transform="translate(88.25 250.554) scale(2)" fill="#AF9604"/>
<path d="M1.78356 3.56711C2.76859 3.56711 3.56711 2.76858 3.56711 1.78355C3.56711 0.798523 2.76859 -2.17719e-06 1.78356 -2.17719e-06C0.798526 -2.17719e-06 0 0.798523 0 1.78355C0 2.76858 0.798526 3.56711 1.78356 3.56711Z" transform="translate(115.43 244.633) scale(2)" fill="#AF9604"/>
<path d="M14.3108 58.0726C14.3108 58.0726 46.1294 -2.17719e-06 14.1681 -2.17719e-06C-17.7932 -2.17719e-06 14.3108 58.0726 14.3108 58.0726Z" transform="translate(148.379 237.855) scale(2)" fill="#E4E9ED"/>
<path d="M5.63604 0L1.0886e-06 2.81801L5.63604 11.9498L11.2364 2.81801L5.63604 0Z" transform="translate(165.73 257.188) scale(2)" fill="#1E2021"/>
<path d="M9.8809 -2.17719e-06H8.63241V0.2497V-2.17719e-06H7.38392C7.38392 -2.17719e-06 2.60399 5.6717 1.89057 13.7334C1.31983 20.1542 0.463722 32.7817 -2.17719e-06 41.9135C2.85369 42.1989 5.70738 42.3416 8.63241 42.3416C11.5574 42.3416 14.4468 42.1989 17.2648 41.9135C16.8011 32.7817 15.945 20.1542 15.3742 13.7334C14.6608 5.6717 9.8809 -2.17719e-06 9.8809 -2.17719e-06Z" transform="translate(159.738 269.245) scale(2)" fill="#1E2021"/>
<path d="M27.7521 2.17719e-06H-1.0886e-06C4.3162 13.0556 0.35671 19.0127 0.35671 19.0127L9.95224 21.1886H17.7999L27.3954 19.0127C27.3954 19.0127 23.4359 13.0556 27.7521 2.17719e-06Z" transform="translate(149.246 201.256) scale(2)" fill="#E2A379"/>
<path d="M-1.0886e-06 6.56348C-1.0886e-06 6.56348 5.99275 16.5871 13.4123 16.5871C20.8319 16.5871 27.0387 6.56348 27.0387 6.56348L13.4123 0L-1.0886e-06 6.56348Z" transform="translate(149.961 226.155) scale(2)" fill="#E2A379"/>
<path d="M62.9952 40.5224C62.9952 7.56227 48.9051 -5.44298e-07 31.4976 -5.44298e-07C14.1258 -5.44298e-07 1.0886e-06 7.56227 1.0886e-06 40.5224C1.0886e-06 51.6874 2.21161 60.4268 5.52902 67.1687C12.8059 82.0079 25.3978 87.1802 31.4976 87.1802C37.5973 87.1802 50.1892 82.0079 57.4661 67.1687C60.7836 60.4268 62.9952 51.6874 62.9952 40.5224Z" transform="translate(114.004 43.9468) scale(2)" fill="#F4B382"/>
<path d="M19.0484 2.47921C19.0484 3.40666 14.8035 5.86797 9.52419 5.86797C4.24486 5.86797 -2.17719e-06 3.37099 -2.17719e-06 2.47921C-2.17719e-06 1.90847 3.03204 0.303277 5.02963 0.017908C6.31378 -0.160447 9.48851 1.05237 9.48851 1.05237C9.48851 1.05237 12.6276 -0.160447 13.9117 0.017908C15.9806 0.303277 19.0484 2.47921 19.0484 2.47921Z" transform="translate(157.953 178.391) scale(2)" fill="#E5A173"/>
<path d="M19.0484 0C19.0484 0.927449 14.8035 4.42321 9.52419 4.42321C4.24486 4.42321 -2.17719e-06 0.891778 -2.17719e-06 0C-2.17719e-06 0 3.88815 0.46372 9.52419 0.46372C15.1602 0.46372 19.0484 0 19.0484 0Z" transform="translate(157.953 183.349) scale(2)" fill="#D89364"/>
<path d="M7.38128 21.6167C4.38491 22.1161 2.24465 21.6524 0.568107 11.7358C-1.10843 1.81923 1.17451 0.499398 4.17089 2.17719e-06L7.38128 21.6167Z" transform="translate(106.805 127.061) scale(2)" fill="#F4B382"/>
<path d="M-2.17719e-06 21.6167C2.99637 22.1161 5.10097 21.6524 6.81318 11.7358C8.52539 1.81923 6.20677 0.499398 3.2104 2.17719e-06L-2.17719e-06 21.6167Z" transform="translate(232.504 127.061) scale(2)" fill="#F4B382"/>
<path d="M62.9952 41.4141C62.9952 8.45405 52.1868 -5.44298e-07 31.4976 -5.44298e-07C10.8083 -5.44298e-07 1.0886e-06 8.45405 1.0886e-06 41.4141L14.1971 29.607C14.1971 29.607 23.6499 29.607 31.4976 29.607C39.3452 29.607 47.9776 17.0151 47.9776 17.0151L62.9952 41.4141Z" transform="translate(114.004 42.1633) scale(2)" fill="#47200D"/>
<path d="M1.99758 0.784765C0.499395 4.67291 -2.17719e-06 9.48851 -2.17719e-06 14.1614C-2.17719e-06 14.1614 3.13906 13.4837 3.13906 15.0889L4.13785 24.9341L5.52902 24.2564C5.45768 16.052 7.27691 2.17719e-06 7.27691 2.17719e-06L1.99758 0.784765Z" transform="translate(114.078 98.8804) scale(2)" fill="#47200D"/>
<path d="M5.27932 0.142685C6.7775 4.03084 7.2769 8.84643 7.2769 13.5193C7.2769 13.5193 4.13785 12.8416 4.13785 14.4468L3.13905 24.292L1.74788 23.6143C1.81922 15.4099 0 -2.17719e-06 0 -2.17719e-06L5.27932 0.142685Z" transform="translate(225.441 100.165) scale(2)" fill="#47200D"/>
<path d="M20.5822 5.52902L14.1971 -4.35438e-06L2.17719e-06 14.8392L13.0556 18.4776L20.5822 5.52902Z" transform="translate(177 229.936) scale(2)" fill="#D4D6D8"/>
<path d="M-2.17719e-06 5.52902L6.38513 -4.35438e-06L20.5822 14.8392L7.5266 18.4776L-2.17719e-06 5.52902Z" transform="translate(135.836 229.936) scale(2)" fill="#D4D6D8"/>
<path d="M40.3091 5.44298e-07C18.6211 5.44298e-07 -0.141878 13.3767 0.000806331 13.555C1.21362 15.1245 9.77469 24.506 9.77469 24.506L10.2027 30.0707C10.2027 30.0707 10.1314 35.243 15.161 35.243C20.1906 35.243 26.4331 36.6699 40.3448 36.6699C54.2565 36.6699 60.4277 35.243 65.5286 35.243C70.6653 35.243 70.5939 29.9281 70.5939 29.9281L70.915 24.506C73.3763 22.0804 79.3333 15.3029 80.6175 13.662C80.8315 13.448 62.0328 5.44298e-07 40.3091 5.44298e-07Z" transform="translate(96.2383 28.8223) scale(2)" fill="#191919"/>
<path d="M61.2829 6.09976L61.3186 6.06409C56.1463 3.88815 44.8386 0 30.6771 0C16.4801 0 5.20798 3.92382 2.17719e-06 6.09976C0.0356733 6.13543 0.0713433 6.13543 0.0713433 6.13543L0.463722 11.7001C5.85006 8.73942 16.8724 5.74305 30.6771 5.74305C44.4819 5.74305 55.5042 8.70375 60.8906 11.7001L61.2829 6.09976Z" transform="translate(115.645 65.6348) scale(2)" fill="black"/>
<path d="M15.5885 4.35188C16.623 2.81802 15.5529 0.178356 13.0916 1.03446C10.7373 1.89057 8.09762 0.0713417 7.99061 -5.44298e-07C7.88359 0.0713417 5.2796 1.8549 2.88964 1.03446C0.428333 0.178356 -0.6418 2.78235 0.392662 4.35188C1.53414 6.02842 1.71249 6.84885 1.71249 7.16989C1.71249 8.06167 -1.56925 9.95224 0.99907 14.1258C1.96219 15.6596 2.60427 15.4456 6.17138 15.8023C6.17138 15.8023 7.77658 16.373 7.99061 17.4432V16.9438V17.4432C8.20463 16.373 9.80983 15.8023 9.80983 15.8023C13.3769 15.4456 14.019 15.6596 14.9821 14.1258C17.5505 9.95224 14.2687 8.06167 14.2687 7.16989C14.2687 6.88452 14.4471 6.06409 15.5885 4.35188Z" transform="translate(161.02 40.0229) scale(2)" fill="#D3C624"/>
<path d="M9.19546 3.31741C9.12412 3.10338 8.94576 2.92503 8.69607 2.88936L6.27043 2.53265L5.16463 0.321039C4.9506 -0.107014 4.27285 -0.107014 4.05882 0.321039L2.95302 2.53265L0.527385 2.88936C0.277688 2.92503 0.099329 3.10338 0.0279868 3.31741C-0.0433554 3.53144 0.0279901 3.78114 0.170674 3.95949L1.91856 5.6717L1.4905 8.09734C1.45483 8.34704 1.56185 8.56106 1.7402 8.70375C1.91856 8.84643 2.20393 8.84643 2.38228 8.73942L4.55822 7.59794L6.73416 8.73942C6.84117 8.77509 6.91251 8.81076 7.01953 8.81076C7.16221 8.81076 7.26922 8.77509 7.37624 8.70375C7.55459 8.56106 7.6616 8.31137 7.62593 8.09734L7.19788 5.6717L8.94577 3.95949C9.19547 3.78114 9.2668 3.53144 9.19546 3.31741Z" transform="translate(167.742 48.0134) scale(2)" fill="#F7EEC1"/>
</svg>
