<svg width="1136" height="432" viewBox="0 0 1136 432" fill="none" xmlns="http://www.w3.org/2000/svg">
<path d="M31.4058 -2.64335e-06H0V9.80941H31.4058V-2.64335e-06Z" transform="matrix(-2.49492 -3.1267 3.12049 -2.50268 102.225 130.104)" fill="#C7CFE2"/>
<path d="M3.93643 20.5046C0.715365 20.0953 -1.02524 16.5029 0.645476 13.7124L4.44785 7.3589C7.0937 2.93789 11.7963 0.0105631 16.9394 -2.85111e-06C16.9682 -2.85111e-06 16.9971 -2.85111e-06 17.0259 -2.85111e-06H41.1686C45.7958 -2.85111e-06 50.1523 2.18381 52.9286 5.89524L70.1482 28.9168L3.93643 20.5046Z" transform="translate(442.51 39.2646) scale(4)" fill="#C7CFE2"/>
<path d="M23.0434 1.02267C22.6279 0.682897 22.1686 0.340336 21.6661 1.6292e-06H-5.14603e-06L34.2647 38.6585L53.8507 28.8405C53.8502 28.84 30.9715 7.50682 23.0434 1.02267Z" transform="translate(626.814 22.0869) scale(4)" fill="#C7CFE2"/>
<path d="M225.241 29.4545H205.206C202.305 29.4545 199.469 30.3154 197.055 31.9286L190.123 36.5626C189.296 37.1149 188.41 37.5453 187.5 37.9162L169.302 13.585C168.141 12.0324 169.246 9.81799 171.182 9.81799H178.693C177.213 8.52728 175.894 7.40173 174.847 6.54533C170.971 3.37443 163.626 -2.17228e-06 146.909 -2.17228e-06H122.753C112.104 -2.17228e-06 101.602 2.48578 92.0779 7.26048L57.5997 24.5453H14.6898C6.57691 24.5453 -1.86204e-07 31.139 -1.86204e-07 39.2725V83.4538L34.2757 93.2718H274.206V78.5445C274.206 51.4334 252.283 29.4545 225.241 29.4545ZM109.664 30.3226C106.443 29.9133 104.702 26.3209 106.373 23.5304L110.175 17.1769C112.821 12.7559 117.524 9.82856 122.667 9.81799C122.695 9.81799 122.724 9.81799 122.753 9.81799H146.896C151.523 9.81799 155.88 12.0018 158.656 15.7132L175.875 38.7348L109.664 30.3226Z" transform="translate(19.5781) scale(4)" fill="#FF6464"/>
<path d="M225.24 9.81855H4.89677C2.19045 9.81855 -1.76048e-06 7.62305 -1.76048e-06 4.90927C-1.76048e-06 2.19549 2.1899 -4.34455e-06 4.89677 -4.34455e-06H225.241C227.947 -4.34455e-06 230.138 2.19549 230.138 4.90927C230.138 7.62305 227.947 9.81855 225.24 9.81855Z" transform="translate(215.451 353.449) scale(4)" fill="#D2555A"/>
<path d="M24.4828 49.0905C38.0042 49.0905 48.9656 38.1012 48.9656 24.5452C48.9656 10.9893 38.0042 -3.93725e-06 24.4828 -3.93725e-06C10.9613 -3.93725e-06 -6.36482e-06 10.9893 -6.36482e-06 24.5452C-6.36482e-06 38.1012 10.9613 49.0905 24.4828 49.0905Z" transform="translate(822.613 215.998) scale(4)" fill="#D7DEED"/>
<path d="M29.379 58.9079C13.1783 58.9079 -1.35422e-07 45.6961 -1.35422e-07 29.454C-1.35422e-07 13.2119 13.1783 2.30804e-06 29.379 2.30804e-06C45.5798 2.30804e-06 58.758 13.2119 58.758 29.454C58.758 45.6955 45.5798 58.9079 29.379 58.9079ZM29.379 9.81743C18.577 9.81743 9.79301 18.6244 9.79301 29.4534C9.79301 40.2824 18.5776 49.0894 29.379 49.0894C40.181 49.0894 48.965 40.2824 48.965 29.4534C48.965 18.6244 40.1804 9.81743 29.379 9.81743Z" transform="translate(803.031 196.368) scale(4)" fill="#464655"/>
<path d="M9.79298 19.6359C15.2015 19.6359 19.586 15.2403 19.586 9.81797C19.586 4.39565 15.2015 -2.98687e-06 9.79298 -2.98687e-06C4.38446 -2.98687e-06 -5.41686e-06 4.39565 -5.41686e-06 9.81797C-5.41686e-06 15.2403 4.38446 19.6359 9.79298 19.6359Z" transform="translate(881.379 274.908) scale(4)" fill="#B8BFD4"/>
<path d="M44.0739 19.6418C43.6817 19.6418 43.2801 19.594 42.8835 19.4933L3.71106 9.67476C1.08574 9.01801 -0.511203 6.35261 0.148873 3.72558C0.799519 1.0891 3.46256 -0.521931 6.0829 0.154289L45.2553 9.97228C47.8807 10.629 49.4776 13.2944 48.8175 15.9215C48.2623 18.1559 46.2688 19.6418 44.0739 19.6418Z" transform="translate(0 314.156) scale(4)" fill="#D2555A"/>
<path d="M3.80873e-08 -3.93725e-06L6.92471 6.94239C8.76127 8.78364 9.79299 11.2805 9.79299 13.8848V34.3627L3.80873e-08 29.4534C3.80873e-08 29.4545 3.80873e-08 -3.93725e-06 3.80873e-08 -3.93725e-06Z" transform="translate(19.5781 215.998) scale(4)" fill="#D2555A"/>
<path d="M89.8161 23.011H4.89678C2.19046 23.011 -3.1147e-06 20.8155 -3.1147e-06 18.1017C-3.1147e-06 15.3879 2.1899 13.1924 4.89678 13.1924H89.8161C93.7416 13.1924 97.4331 11.6582 100.207 8.87819L107.628 1.43808C109.541 -0.479365 112.64 -0.479365 114.552 1.43808C116.465 3.35553 116.465 6.46248 114.552 8.37993L107.131 15.82C102.507 20.4563 96.3581 23.011 89.8161 23.011Z" transform="translate(293.779 222.133) scale(4)" fill="#D2555A"/>
<path d="M24.4828 49.0905C38.0043 49.0905 48.9656 38.1012 48.9656 24.5452C48.9656 10.9893 38.0043 -3.93725e-06 24.4828 -3.93725e-06C10.9613 -3.93725e-06 0 10.9893 0 24.5452C0 38.1012 10.9613 49.0905 24.4828 49.0905Z" transform="translate(117.533 215.998) scale(4)" fill="#D7DEED"/>
<path d="M29.379 58.9079C13.1783 58.9079 2.70843e-07 45.6961 2.70843e-07 29.454C2.70843e-07 13.2119 13.1783 2.30804e-06 29.379 2.30804e-06C45.5798 2.30804e-06 58.758 13.2119 58.758 29.454C58.7586 45.6955 45.5798 58.9079 29.379 58.9079ZM29.379 9.81743C18.577 9.81743 9.79301 18.6244 9.79301 29.4534C9.79301 40.2824 18.5776 49.0894 29.379 49.0894C40.1804 49.0894 48.965 40.2824 48.965 29.4534C48.9656 18.6244 40.181 9.81743 29.379 9.81743Z" transform="translate(97.916 196.368) scale(4)" fill="#464655"/>
<path d="M9.79299 19.6359C15.2015 19.6359 19.586 15.2403 19.586 9.81797C19.586 4.39565 15.2015 -2.98687e-06 9.79299 -2.98687e-06C4.38447 -2.98687e-06 0 4.39565 0 9.81797C0 15.2403 4.38447 19.6359 9.79299 19.6359Z" transform="translate(176.283 274.908) scale(4)" fill="#B8BFD4"/>
<path d="M2.53916e-08 5.26293L187.974 24.1081C190.597 24.3711 193.257 23.9601 195.642 22.8318C207.063 17.4271 245.548 3.64079 270.366 48.5426C267.654 24.0019 246.92 4.90925 221.719 4.90925H201.683C198.783 4.90925 195.947 5.7701 193.533 7.38335L186.6 12.0173C185.774 12.5695 184.888 13 183.978 13.3709C183.978 13.3709 182.206 15.493 172.353 14.1895L133.118 9.20458C100.328 5.09778 58.6099 2.64745e-06 54.0776 2.64745e-06H11.1675C6.66956 0.000558748 2.69412 2.07092 2.53916e-08 5.26293Z" transform="translate(33.6758 98.1836) scale(4)" fill="#FF8B8B"/>
<path d="M23.4205 14.7272H10.8929C6.67784 14.7272 2.93537 12.0229 1.60246 8.01398L0.143086 3.62467C-0.449872 1.84125 0.874162 -2.17227e-06 2.74844 -2.17227e-06H23.4205C26.1246 -2.17227e-06 28.3172 2.19827 28.3172 4.90926V9.81852C28.3167 12.5301 26.1246 14.7272 23.4205 14.7272Z" transform="translate(4.24023) scale(4)" fill="#FF6464"/>
</svg>
