<svg width="1174" height="380" viewBox="0 0 1174 380" fill="none" xmlns="http://www.w3.org/2000/svg">
<path d="M35.4 11.8V-1.57547e-06H5.17654e-07V11.8" transform="translate(500.805 111.993) scale(2)" fill="#9F3A37"/>
<path d="M35.4 0H0V76.7H35.4V0Z" transform="translate(500.805 159.193) scale(2)" fill="#9F3A37"/>
<path d="M8.85 47.1466C3.835 47.1466 5.17654e-07 43.3116 5.17654e-07 38.2966C5.17654e-07 34.4616 2.655 30.9216 6.49 29.7416C6.195 28.8566 5.9 27.6766 5.9 26.4966C5.9 20.8916 9.735 16.1716 15.045 14.9916C13.275 8.79665 16.815 2.30665 23.305 0.536646C27.435 -0.643354 31.86 0.536646 34.81 3.48665C41.005 -1.82335 50.445 -0.938353 55.46 5.25665C60.77 11.4516 59.885 20.8916 53.69 25.9066C51.035 28.2666 47.495 29.4466 43.955 29.4466C42.48 35.6416 35.99 39.4766 29.5 38.0016C29.205 38.0016 28.615 37.7066 28.32 37.7066L30.385 32.1016C30.975 32.3966 31.86 32.3966 32.45 32.3966C35.695 32.3966 38.35 29.7416 38.35 26.4966V26.2016C38.35 24.4316 39.53 23.2516 41.3 23.2516C41.595 23.2516 41.89 23.2516 42.185 23.2516C42.775 23.5466 43.365 23.5466 44.25 23.5466C49.265 23.5466 53.1 19.7116 53.1 14.6966C53.1 9.68165 49.265 5.84665 44.25 5.84665C41.3 5.84665 38.645 7.32165 36.875 9.68165C36.285 10.5666 35.4 11.1566 34.22 10.8616C33.04 10.8616 32.155 10.2716 31.86 9.09165C30.975 7.32165 28.91 5.84665 26.55 5.84665C23.305 5.84665 20.65 8.50165 20.65 11.7466C20.65 13.2216 21.24 14.9916 22.42 15.8766C23.6 17.0566 23.6 18.8266 22.42 20.0066C21.535 20.8916 20.355 21.1866 19.47 20.8916C16.52 19.7116 13.275 21.4816 12.095 24.4316C11.8 25.0216 11.8 25.9066 11.8 26.4966C11.8 28.2666 12.685 30.0366 13.865 30.9216C14.75 31.5116 15.045 32.6916 14.75 33.8716V34.1666C14.455 35.0516 13.865 35.9366 12.98 36.2316C12.095 36.5266 11.21 36.5266 10.325 35.9366C10.03 35.6416 9.44 35.3466 8.85 35.3466C7.08 35.3466 5.9 36.5266 5.9 38.2966C5.9 40.0667 7.08 41.2466 8.85 41.2466V47.1466Z" transform="translate(500.805) scale(2)" fill="#5C6373"/>
<path d="M8.85 47.1466C3.835 47.1466 3.33099e-06 43.3116 3.33099e-06 38.2966C3.33099e-06 34.4616 2.65501 30.9216 6.49001 29.7416C6.19501 28.8566 5.9 27.6766 5.9 26.4966C5.9 20.8916 9.73501 16.1716 15.34 14.9916C13.57 8.79665 17.11 2.30665 23.6 0.536647C27.73 -0.643353 32.155 0.536647 35.105 3.48665C41.3 -1.82335 50.74 -0.938354 55.755 5.25665C61.065 11.4516 60.18 20.8916 53.985 25.9066C51.33 28.2666 47.79 29.4466 44.25 29.4466C42.775 35.6416 36.285 39.4766 29.795 38.0016C29.5 38.0016 28.91 37.7066 28.615 37.7066L30.68 32.1016C30.975 32.3966 31.86 32.3966 32.45 32.3966C35.695 32.3966 38.35 29.7416 38.35 26.4966V26.2016C38.35 24.4316 39.53 23.2516 41.3 23.2516C41.595 23.2516 41.89 23.2516 42.185 23.2516C42.775 23.5466 43.365 23.5466 44.25 23.5466C49.265 23.5466 53.1 19.7116 53.1 14.6966C53.1 9.68165 49.265 5.84665 44.25 5.84665C41.3 5.84665 38.645 7.32164 36.875 9.68165C36.285 10.5666 35.4 11.1566 34.22 10.8616C33.04 10.8616 32.155 10.2716 31.86 9.09165C30.975 7.02665 28.91 5.55165 26.55 5.55165C23.305 5.55165 20.65 8.20665 20.65 11.4516C20.65 12.9266 21.24 14.6966 22.42 15.5816C23.6 16.7616 23.6 18.5316 22.42 19.7116C21.535 20.5966 20.355 20.8916 19.47 20.5966C16.52 19.4166 13.275 21.1866 12.095 24.1366C11.8 25.0216 11.8 25.9066 11.8 26.4966C11.8 28.2666 12.685 30.0366 13.865 30.9216C14.75 31.5116 15.045 32.6916 14.75 33.8716V34.1666C14.455 35.0516 13.865 35.9366 12.98 36.2316C12.095 36.5266 11.21 36.5266 10.325 35.9366C10.03 35.6416 9.44 35.3466 8.85 35.3466C7.08 35.3466 5.9 36.5266 5.9 38.2966C5.9 40.0666 7.08 41.2466 8.85 41.2466V47.1466Z" transform="translate(618.805 47.2) scale(2)" fill="#5C6373"/>
<path d="M59 0H0V11.8H59V0Z" transform="translate(477.195 135.593) scale(2)" fill="#DC8729"/>
<path d="M59 4.05121e-06H0V11.8H59V4.05121e-06Z" transform="translate(477.195 312.593) scale(2)" fill="#DC8729"/>
<path d="M35.4 11.8V-1.57547e-06H3.33099e-06V11.8" transform="translate(642.398 159.193) scale(2)" fill="#9F3A37"/>
<path d="M59 4.05121e-06H3.33099e-06V11.8H59V4.05121e-06Z" transform="translate(618.805 312.594) scale(2)" fill="#DC8729"/>
<path d="M59 0H3.33099e-06V11.8H59V0Z" transform="translate(618.805 182.793) scale(2)" fill="#DC8729"/>
<path d="M35.4 4.05121e-06H3.33099e-06V53.1H35.4V4.05121e-06Z" transform="translate(642.398 206.393) scale(2)" fill="#9F3A37"/>
<path d="M11.8 0H0V76.7H11.8V0Z" transform="translate(500.805 159.193) scale(2)" fill="#CB5940"/>
<path d="M11.8 4.05121e-06H3.33099e-06V53.1H11.8V4.05121e-06Z" transform="translate(642.406 206.393) scale(2)" fill="#CB5940"/>
<path d="M177 4.05121e-06H0V11.8H177V4.05121e-06Z" transform="translate(430 336.193) scale(2)" fill="#6B5936"/>
<path d="M44.2868 0H15.8167C6.95936 0 1.08605e-07 6.95936 1.08605e-07 15.8167V82.247H12.6534V18.9801C12.6534 15.5004 15.5004 12.6534 18.9801 12.6534H44.2868" transform="translate(876.562 189.901) scale(2)" fill="#A88C55"/>
<path d="M44.2868 31.6334V15.8167C44.2868 6.95936 37.3275 0 28.4701 0H4.63381e-06V12.6534H25.3068C28.7865 12.6534 31.6335 15.5004 31.6335 18.9801V31.6334" transform="translate(1066.33 189.902) scale(2)" fill="#A88C55"/>
<path d="M12.6534 25.3068V0H4.63381e-06V25.3068" transform="translate(1129.62 303.784) scale(2)" fill="#A88C55"/>
<path d="M6.32669 0H56.9402C60.4199 0 63.2669 2.84701 63.2669 6.32669V18.9801H-1.3998e-06V6.32669C-1.3998e-06 2.84701 2.84701 0 6.32669 0Z" transform="translate(952.594 341.747) scale(2)" fill="#6B5936"/>
<path d="M12.6534 0H-1.3998e-06V25.3068H12.6534" transform="translate(965.203 177.245) scale(2)" fill="#6B5936"/>
<path d="M25.3068 0H0V12.6534H25.3068V0Z" transform="translate(864 354.401) scale(2)" fill="#6B5936"/>
<path d="M4.63381e-06 0H12.6534V25.3068H4.63381e-06" transform="translate(1041.17 177.251) scale(2)" fill="#6B5936"/>
<path d="M25.3068 0H4.63381e-06V12.6534H25.3068V0Z" transform="translate(1117.05 354.4) scale(2)" fill="#6B5936"/>
<path d="M25.307 0H0V120.208H25.307V0Z" transform="translate(990.555 101.324) scale(2)" fill="#A88C55"/>
<path d="M44.2868 6.37594C42.3888 6.37594 40.4908 6.69227 38.9092 7.64128C34.4805 0.0492493 24.6741 -2.16509 17.0821 2.26359C11.388 5.74327 8.54103 12.3863 9.80637 19.0293H9.49004C4.11235 19.0293 -1.3998e-06 23.1417 -1.3998e-06 28.5194C-1.3998e-06 33.897 4.11235 38.0094 9.49004 38.0094C13.9187 38.0094 18.0311 34.846 18.9801 30.101C24.3578 32.6317 31.0008 31.6827 35.4295 27.8867C40.4908 32.948 48.3992 32.948 53.4605 27.8867C58.5219 22.8253 58.5219 14.917 53.4605 9.85562C50.9299 7.64128 47.7665 6.37594 44.2868 6.37594Z" transform="translate(996.805) scale(2)" fill="#A6A6A6"/>
<path d="M25.3068 0H0V6.32669H25.3068V0Z" transform="translate(990.484 132.961) scale(2)" fill="#4F4228"/>
<path d="M25.3068 0H0V6.32669H25.3068V0Z" transform="translate(990.484 158.267) scale(2)" fill="#4F4228"/>
<path d="M25.3068 0H0V6.32669H25.3068V0Z" transform="translate(990.484 183.573) scale(2)" fill="#4F4228"/>
<path d="M25.3068 0H0V6.32669H25.3068V0Z" transform="translate(990.484 208.879) scale(2)" fill="#4F4228"/>
<path d="M25.3068 0H0V6.32669H25.3068V0Z" transform="translate(990.484 234.187) scale(2)" fill="#4F4228"/>
<path d="M25.3068 0H0V6.32669H25.3068V0Z" transform="translate(990.484 259.494) scale(2)" fill="#4F4228"/>
<path d="M25.3068 0H0V6.32669H25.3068V0Z" transform="translate(990.484 284.801) scale(2)" fill="#4F4228"/>
<path d="M25.3068 0H0V6.32669H25.3068V0Z" transform="translate(990.484 310.111) scale(2)" fill="#4F4228"/>
<path d="M12.6534 25.3068C19.6417 25.3068 25.3068 19.6416 25.3068 12.6534C25.3068 5.66511 19.6417 0 12.6534 0C5.66512 0 4.63381e-06 5.66511 4.63381e-06 12.6534C4.63381e-06 19.6416 5.66512 25.3068 12.6534 25.3068Z" transform="translate(1117.05 253.169) scale(2)" fill="#A88C55"/>
<path d="M15.8167 9.49003V0H9.49004V9.49003H4.63381e-06V15.8167H25.3068V9.49003H15.8167Z" transform="translate(1117.05 253.169) scale(2)" fill="#4F4228"/>
<path d="M15.8167 31.6334C6.95936 31.6334 4.63381e-06 24.6741 4.63381e-06 15.8167C4.63381e-06 6.95936 6.95936 0 15.8167 0C24.6741 0 31.6335 6.95936 31.6335 15.8167C31.6335 24.6741 24.6741 31.6334 15.8167 31.6334ZM15.8167 6.32669C10.439 6.32669 6.32669 10.439 6.32669 15.8167C6.32669 21.1944 10.439 25.3068 15.8167 25.3068C21.1944 25.3068 25.3068 21.1944 25.3068 15.8167C25.3068 10.439 21.1944 6.32669 15.8167 6.32669Z" transform="translate(1110.73 246.845) scale(2)" fill="#6B5936"/>
<path d="M177 0H0V41.3H177V0Z" transform="translate(0 271.518) scale(2)" fill="#91AAB4"/>
<path d="M177 18.88L166.675 8.55499C164.905 6.78499 162.84 5.9 160.48 5.9H158.415C156.055 5.9 153.695 6.78499 152.22 8.55499L147.205 13.57C144.55 16.225 140.715 17.995 136.88 17.995H134.815C130.98 17.995 127.145 16.52 124.49 13.57L119.475 8.55499C117.705 6.78499 115.64 5.9 113.28 5.9H111.215C108.855 5.9 106.495 6.78499 105.02 8.55499L100.005 13.57C97.35 16.225 93.515 17.995 89.68 17.995H87.615C83.78 17.995 79.945 16.52 77.29 13.57L72.275 8.55499C70.505 6.78499 68.44 5.9 66.08 5.9H64.015C61.655 5.9 59.295 6.78499 57.82 8.55499L52.805 13.57C50.15 16.225 46.315 17.995 42.48 17.995H40.415C36.58 17.995 32.745 16.52 30.09 13.57L25.075 8.55499C23.305 6.78499 20.945 5.9 18.585 5.9H16.815C14.455 5.9 12.095 6.78499 10.62 8.55499L-3.9562e-09 18.88V10.62L6.195 4.425C9.145 1.475 12.685 1.3504e-06 16.815 1.3504e-06H18.88C22.715 1.3504e-06 26.55 1.475 29.205 4.425L34.22 9.44C35.99 11.21 38.055 12.095 40.415 12.095H42.48C44.84 12.095 47.2 11.21 48.675 9.44L53.69 4.425C56.345 1.77 60.18 1.3504e-06 64.015 1.3504e-06H66.08C69.915 1.3504e-06 73.75 1.475 76.405 4.425L81.42 9.44C83.19 11.21 85.255 12.095 87.615 12.095H89.68C92.04 12.095 94.4 11.21 95.875 9.44L100.89 4.425C103.545 1.77 107.38 1.3504e-06 111.215 1.3504e-06H113.28C117.115 1.3504e-06 120.95 1.475 123.605 4.425L128.62 9.44C130.39 11.21 132.455 12.095 134.815 12.095H136.88C139.24 12.095 141.6 11.21 143.075 9.44L148.09 4.425C150.745 1.77 154.58 1.3504e-06 158.415 1.3504e-06H160.48C164.315 1.3504e-06 168.15 1.475 170.805 4.425L177 10.62V18.88Z" transform="translate(0 283.318) scale(2)" fill="#3E606F"/>
<path d="M175.82 17.7L166.675 8.55499C164.905 6.78499 162.84 5.9 160.48 5.9H158.415C156.055 5.9 153.695 6.78499 152.22 8.55499L147.205 13.57C144.55 16.225 140.715 17.995 136.88 17.995H134.815C130.98 17.995 127.145 16.52 124.49 13.57L119.475 8.55499C117.705 6.78499 115.64 5.9 113.28 5.9H111.215C108.855 5.9 106.495 6.78499 105.02 8.55499L100.005 13.57C97.35 16.225 93.515 17.995 89.68 17.995H87.615C83.78 17.995 79.945 16.52 77.29 13.57L72.275 8.55499C70.505 6.78499 68.44 5.9 66.08 5.9H64.015C61.655 5.9 59.295 6.78499 57.82 8.55499L52.805 13.57C50.15 16.225 46.315 17.995 42.48 17.995H40.415C36.58 17.995 32.745 16.52 30.09 13.57L25.075 8.55499C23.305 6.78499 20.945 5.9 18.585 5.9H16.815C14.455 5.9 12.095 6.78499 10.62 8.55499L1.18 17.7H-3.95618e-09V10.62L6.195 4.425C9.145 1.475 12.685 1.3504e-06 16.815 1.3504e-06H18.88C22.715 1.3504e-06 26.55 1.475 29.205 4.425L34.22 9.44C35.99 11.21 38.055 12.095 40.415 12.095H42.48C44.84 12.095 47.2 11.21 48.675 9.44L53.69 4.425C56.345 1.77 60.18 1.3504e-06 64.015 1.3504e-06H66.08C69.915 1.3504e-06 73.75 1.475 76.405 4.425L81.42 9.44C83.19 11.21 85.255 12.095 87.615 12.095H89.68C92.04 12.095 94.4 11.21 95.875 9.44L100.89 4.425C103.545 1.77 107.38 1.3504e-06 111.215 1.3504e-06H113.28C117.115 1.3504e-06 120.95 1.475 123.605 4.425L128.62 9.44C130.39 11.21 132.455 12.095 134.815 12.095H136.88C139.24 12.095 141.6 11.21 143.075 9.44L148.09 4.425C150.745 1.77 154.58 1.3504e-06 158.415 1.3504e-06H160.48C164.315 1.3504e-06 168.15 1.475 170.805 4.425L177 10.62V17.7H175.82Z" transform="translate(0 318.718) scale(2)" fill="#3E606F"/>
<path d="M29.5 67.85L61.95 35.4L94.4 67.85V38.35L56.05 1.3504e-06L41.3 14.75L53.1 26.55L26.55 53.1L14.75 41.3L-1.57547e-06 56.05V64.9" transform="translate(165.203 94.5176) scale(2)" fill="#C9942C"/>
<path d="M118 0H0V11.8H118V0Z" transform="translate(0 247.918) scale(2)" fill="#313740"/>
<path d="M29.5 0H0V11.8H29.5V0Z" transform="translate(165.203 224.318) scale(2)" fill="#5C6373"/>
<path d="M32.45 1.3504e-06H1.23787e-06V64.9H41.3V8.85L32.45 1.3504e-06Z" transform="translate(82.6016 118.118) scale(2)" fill="#C9942C"/>
<path d="M38.35 11.8V23.6L29.5 32.45H11.8L4.05121e-06 20.65H20.65L26.55 14.75V1.3504e-06L38.35 11.8Z" transform="translate(277.297 206.618) scale(2)" fill="#7D828C"/>
<path d="M37.4646 2.38571e-06H-3.24097e-06V12.39H37.4646V2.38571e-06Z" transform="translate(271.039 147.794) scale(1.99998) rotate(135)" fill="#7D828C"/>
<path d="M29.5 29.5H-1.57547e-06V1.3504e-06H20.65L29.5 8.85V29.5Z" transform="translate(106.203 118.118) scale(2)" fill="#A6A6A6"/>
<path d="M41.3 0H0V23.6H41.3V0Z" transform="translate(82.6016 200.718) scale(2)" fill="#DFA738"/>
<path d="M11.8 0H0V23.6H11.8V0Z" transform="translate(82.6016 200.718) scale(2)" fill="#BF7D2C"/>
<path d="M23.6 0H0V76.7H23.6V0Z" transform="translate(11.8047 94.5176) scale(2)" fill="#A4A5A6"/>
<path d="M29.5 -1.31875e-09C25.665 -1.31875e-09 22.125 1.77 20.06 4.72C16.225 1.77 10.62 2.36 7.67 6.49C6.49 7.965 5.9 9.735 5.9 11.8C2.655 11.8 -1.688e-07 14.455 -1.688e-07 17.7C-1.688e-07 20.945 2.655 23.6 5.9 23.6C8.26 23.6 10.325 22.125 11.21 20.06C14.16 21.24 17.405 20.945 20.06 18.88C23.895 24.19 31.27 25.075 36.58 21.24C41.89 17.405 42.775 10.03 38.94 4.72C36.58 1.77 33.335 -1.31875e-09 29.5 -1.31875e-09Z" transform="translate(17.7031 0.117676) scale(2)" fill="#A4A5A6"/>
<path d="M35.4 0H0V11.8H35.4V0Z" transform="translate(0 70.9177) scale(2)" fill="#7D828C"/>
<path d="M23.6 0H0V5.9H23.6V0Z" transform="translate(11.7969 218.418) scale(2)" fill="#7D828C"/>
<path d="M23.6 0H0V5.9H23.6V0Z" transform="translate(11.7969 112.218) scale(2)" fill="#7D828C"/>
<path d="M5.9 0H0V53.1H5.9V0Z" transform="translate(29.5 118.118) scale(2)" fill="#7D828C"/>
<path d="M5.9 29.5588C2.655 29.5588 4.05121e-06 26.9038 4.05121e-06 23.6588C4.05121e-06 20.4138 2.655 17.7588 5.9 17.7588C6.49 17.7588 7.08 17.7588 7.67 18.0538C4.13 12.4488 5.9 5.36882 11.505 1.82882C17.11 -1.71118 24.19 0.0588178 27.73 5.66382C28.91 7.43382 29.5 9.49882 29.5 11.8588C29.5 12.1538 29.5 12.1538 29.5 12.4488C30.385 12.1538 31.565 11.8588 32.45 11.8588C37.465 11.8588 41.3 15.6938 41.3 20.7088C41.3 25.7238 37.465 29.5588 32.45 29.5588H5.9Z" transform="translate(271.398) scale(2)" fill="#91AAB4"/>
<path d="M5.9 0H4.05121e-06V5.9H5.9V0Z" transform="translate(253.695 253.818) scale(2)" fill="#313740"/>
<path d="M5.9 0H4.05121e-06V5.9H5.9V0Z" transform="translate(253.695 277.418) scale(2)" fill="#313740"/>
<path d="M5.9 0H4.05121e-06V5.9H5.9V0Z" transform="translate(277.297 277.418) scale(2)" fill="#313740"/>
</svg>
