<svg width="116" height="89" viewBox="0 0 116 89" fill="none" xmlns="http://www.w3.org/2000/svg">
<path d="M75.8571 39.7347H68.6327V10.8367C68.6327 8.84549 67.0135 7.22449 65.0204 7.22449H10.8367C8.84368 7.22449 7.22449 8.84549 7.22449 10.8367V39.7347H0V10.8367C0 4.86118 4.86118 0 10.8367 0H65.0204C70.996 0 75.8571 4.86118 75.8571 10.8367V39.7347Z" transform="translate(55.9902 14.449) scale(0.5)" fill="#6F6571"/>
<path d="M32.5102 0H0V7.22449H32.5102V0Z" transform="translate(32.5107 59.6021) scale(0.5)" fill="#6F6571"/>
<path d="M32.5102 0H0V7.22449H32.5102V0Z" transform="translate(32.5107 66.8265) scale(0.5)" fill="#6F6571"/>
<path d="M21.6735 0C9.70339 0 0 5.82204 0 13.0041V97.5306H43.3469V13.0041C43.3469 5.82204 33.6435 0 21.6735 0Z" transform="translate(46.959 32.5102) scale(0.5)" fill="#9C969E"/>
<path d="M14.449 79.4694V13.0041C14.449 6.7111 19.4163 1.46477 26.014 0.261889C24.6116 0.0907585 23.1604 0 21.6735 0C9.70339 0 0 5.82204 0 13.0041V97.5306H43.3469V79.4694H14.449Z" transform="translate(46.959 32.5102) scale(0.5)" fill="#867E88"/>
<path d="M14.449 0H0V18.0612H14.449V0Z" transform="translate(46.959 72.2449) scale(0.5)" fill="#6F6571"/>
<path d="M43.3469 0H0V7.22449H43.3469V0Z" transform="translate(46.959 39.7347) scale(0.5)" fill="#867E88"/>
<path d="M14.449 0H0V7.22449H14.449V0Z" transform="translate(46.959 39.7347) scale(0.5)" fill="#6F6571"/>
<path d="M68.6327 0H3.61224C1.61738 0 0 1.61738 0 3.61224V14.449H68.6327V0Z" transform="translate(41.541 79.4694) scale(0.5)" fill="#966464"/>
<path d="M21.6735 0C9.70339 0 0 5.82204 0 13.0041V97.5306H43.3469V13.0041C43.3469 5.82204 33.6435 0 21.6735 0Z" transform="translate(81.2754 23.4796) scale(0.5)" fill="#9C969E"/>
<path d="M14.449 79.4694V13.0041C14.449 6.7111 19.4163 1.46477 26.014 0.261889C24.6116 0.0907585 23.1604 0 21.6735 0C9.70339 0 0 5.82204 0 13.0041V97.5306H43.3469V79.4694H14.449Z" transform="translate(81.2754 23.4796) scale(0.5)" fill="#867E88"/>
<path d="M14.449 0H0V18.0612H14.449V0Z" transform="translate(81.2754 63.2143) scale(0.5)" fill="#6F6571"/>
<path d="M65.0204 32.5102H0V3.61224C0 1.61738 1.61738 0 3.61224 0H61.4082C63.403 0 65.0204 1.61738 65.0204 3.61224V32.5102Z" transform="translate(75.8574 70.4388) scale(0.5)" fill="#966464"/>
<path d="M21.6735 0H3.61224C1.61738 0 0 1.61738 0 3.61224V32.5102H18.0612V3.61224C18.0612 1.61738 19.6786 0 21.6735 0Z" transform="translate(75.8574 70.4388) scale(0.5)" fill="#7D5555"/>
<path d="M21.6735 0H3.61224C1.61738 0 0 1.61738 0 3.61224V14.449H18.0612V3.61224C18.0612 1.61738 19.6786 0 21.6735 0Z" transform="translate(41.541 79.4694) scale(0.5)" fill="#7D5555"/>
<path d="M3.61224 0C1.61558 0 0 1.61738 0 3.61225V50.5714H7.22449V3.61225C7.22449 1.61738 5.60891 0 3.61224 0Z" transform="translate(14.4492 9.03064) scale(0.5)" fill="#9C969E"/>
<path d="M7.22449 0H0V10.8367H7.22449V0Z" transform="translate(14.4492 28.8979) scale(0.5)" fill="#867E88"/>
<path d="M0 3.61224V68.6327H14.449V3.61224C14.449 1.61738 12.8316 0 10.8367 0H3.61224C1.61738 0 0 1.61738 0 3.61224Z" transform="translate(23.4795) scale(0.5)" fill="#AEA8AF"/>
<path d="M10.8367 0H3.61224C1.61738 0 0 1.61738 0 3.61224V68.6327H7.22449V3.61224C7.22449 1.61738 8.84187 0 10.8367 0Z" transform="translate(23.4795) scale(0.5)" fill="#9C969E"/>
<path d="M7.22449 0H0V54.1837H7.22449V0Z" transform="translate(27.0918 7.22449) scale(0.5)" fill="#BE8282"/>
<path d="M7.22449 0H0V54.1837H7.22449V0Z" transform="translate(23.4795 7.22449) scale(0.5)" fill="#AF7373"/>
<path d="M0 3.61224V108.367H57.7959V3.61224C57.7959 1.61738 56.1785 0 54.1837 0H3.61224C1.61738 0 0 1.61738 0 3.61224Z" transform="translate(5.41797 32.5102) scale(0.5)" fill="#966464"/>
<path d="M227.571 0H3.61224C1.61558 0 0 1.61738 0 3.61224C0 5.60711 1.61558 7.22449 3.61224 7.22449H227.571C229.568 7.22449 231.184 5.60711 231.184 3.61224C231.184 1.61738 229.568 0 227.571 0Z" transform="translate(0 84.8878) scale(0.5)" fill="#9C969E"/>
<path d="M28.898 0H0V21.6735H28.898V0Z" transform="translate(12.6426 43.3469) scale(0.5)" fill="#5D5360"/>
<path d="M28.898 0H0V10.8367H28.898V0Z" transform="translate(12.6426 43.3469) scale(0.5)" fill="#4B3F4E"/>
<path d="M7.22449 0H0V14.449H7.22449V0Z" transform="translate(18.0615 45.1531) scale(0.5)" fill="#AF7373"/>
<path d="M7.22449 0H0V7.22449H7.22449V0Z" transform="translate(18.0615 45.1531) scale(0.5)" fill="#966464"/>
<path d="M32.5102 28.898H3.61224C1.61558 28.898 0 27.2806 0 25.2857V3.61224C0 1.61738 1.61558 0 3.61224 0H32.5102C34.5069 0 36.1224 1.61738 36.1224 3.61224V25.2857C36.1224 27.2806 34.5069 28.898 32.5102 28.898ZM7.22449 21.6735H28.898V7.22449H7.22449V21.6735Z" transform="translate(10.8369 41.5408) scale(0.5)" fill="#6F6571"/>
<path d="M28.898 0H0V32.5102H28.898V0Z" transform="translate(12.6426 61.4081) scale(0.5)" fill="#5D5360"/>
<path d="M28.898 0H0V10.8367H28.898V0Z" transform="translate(12.6426 61.4081) scale(0.5)" fill="#4B3F4E"/>
<path d="M7.22449 0H0V25.2857H7.22449V0Z" transform="translate(18.0615 63.2143) scale(0.5)" fill="#AF7373"/>
<path d="M7.22449 0H0V7.22449H7.22449V0Z" transform="translate(18.0615 63.2143) scale(0.5)" fill="#966464"/>
<path d="M32.5102 39.7347H3.61224C1.61558 39.7347 0 38.1173 0 36.1225V3.61225C0 1.61738 1.61558 0 3.61224 0H32.5102C34.5069 0 36.1224 1.61738 36.1224 3.61225V36.1225C36.1224 38.1173 34.5069 39.7347 32.5102 39.7347ZM7.22449 32.5102H28.898V7.22449H7.22449V32.5102Z" transform="translate(10.8369 59.6021) scale(0.5)" fill="#6F6571"/>
<path d="M43.3469 0H0V7.22449H43.3469V0Z" transform="translate(81.2754 30.7041) scale(0.5)" fill="#867E88"/>
<path d="M14.449 0H0V7.22449H14.449V0Z" transform="translate(81.2754 30.7041) scale(0.5)" fill="#6F6571"/>
</svg>
