<svg width="89" height="89" viewBox="0 0 89 89" fill="none" xmlns="http://www.w3.org/2000/svg">
<path d="M177 0H0V41.3H177V0Z" transform="translate(0 67.8794) scale(0.5)" fill="#91AAB4"/>
<path d="M177 18.88L166.675 8.55499C164.905 6.78499 162.84 5.9 160.48 5.9H158.415C156.055 5.9 153.695 6.78499 152.22 8.55499L147.205 13.57C144.55 16.225 140.715 17.995 136.88 17.995H134.815C130.98 17.995 127.145 16.52 124.49 13.57L119.475 8.55499C117.705 6.78499 115.64 5.9 113.28 5.9H111.215C108.855 5.9 106.495 6.78499 105.02 8.55499L100.005 13.57C97.35 16.225 93.515 17.995 89.68 17.995H87.615C83.78 17.995 79.945 16.52 77.29 13.57L72.275 8.55499C70.505 6.78499 68.44 5.9 66.08 5.9H64.015C61.655 5.9 59.295 6.78499 57.82 8.55499L52.805 13.57C50.15 16.225 46.315 17.995 42.48 17.995H40.415C36.58 17.995 32.745 16.52 30.09 13.57L25.075 8.55499C23.305 6.78499 20.945 5.9 18.585 5.9H16.815C14.455 5.9 12.095 6.78499 10.62 8.55499L-3.9562e-09 18.88V10.62L6.195 4.425C9.145 1.475 12.685 1.3504e-06 16.815 1.3504e-06H18.88C22.715 1.3504e-06 26.55 1.475 29.205 4.425L34.22 9.44C35.99 11.21 38.055 12.095 40.415 12.095H42.48C44.84 12.095 47.2 11.21 48.675 9.44L53.69 4.425C56.345 1.77 60.18 1.3504e-06 64.015 1.3504e-06H66.08C69.915 1.3504e-06 73.75 1.475 76.405 4.425L81.42 9.44C83.19 11.21 85.255 12.095 87.615 12.095H89.68C92.04 12.095 94.4 11.21 95.875 9.44L100.89 4.425C103.545 1.77 107.38 1.3504e-06 111.215 1.3504e-06H113.28C117.115 1.3504e-06 120.95 1.475 123.605 4.425L128.62 9.44C130.39 11.21 132.455 12.095 134.815 12.095H136.88C139.24 12.095 141.6 11.21 143.075 9.44L148.09 4.425C150.745 1.77 154.58 1.3504e-06 158.415 1.3504e-06H160.48C164.315 1.3504e-06 168.15 1.475 170.805 4.425L177 10.62V18.88Z" transform="translate(0 70.8294) scale(0.5)" fill="#3E606F"/>
<path d="M175.82 17.7L166.675 8.55499C164.905 6.78499 162.84 5.9 160.48 5.9H158.415C156.055 5.9 153.695 6.78499 152.22 8.55499L147.205 13.57C144.55 16.225 140.715 17.995 136.88 17.995H134.815C130.98 17.995 127.145 16.52 124.49 13.57L119.475 8.55499C117.705 6.78499 115.64 5.9 113.28 5.9H111.215C108.855 5.9 106.495 6.78499 105.02 8.55499L100.005 13.57C97.35 16.225 93.515 17.995 89.68 17.995H87.615C83.78 17.995 79.945 16.52 77.29 13.57L72.275 8.55499C70.505 6.78499 68.44 5.9 66.08 5.9H64.015C61.655 5.9 59.295 6.78499 57.82 8.55499L52.805 13.57C50.15 16.225 46.315 17.995 42.48 17.995H40.415C36.58 17.995 32.745 16.52 30.09 13.57L25.075 8.55499C23.305 6.78499 20.945 5.9 18.585 5.9H16.815C14.455 5.9 12.095 6.78499 10.62 8.55499L1.18 17.7H-3.95618e-09V10.62L6.195 4.425C9.145 1.475 12.685 1.3504e-06 16.815 1.3504e-06H18.88C22.715 1.3504e-06 26.55 1.475 29.205 4.425L34.22 9.44C35.99 11.21 38.055 12.095 40.415 12.095H42.48C44.84 12.095 47.2 11.21 48.675 9.44L53.69 4.425C56.345 1.77 60.18 1.3504e-06 64.015 1.3504e-06H66.08C69.915 1.3504e-06 73.75 1.475 76.405 4.425L81.42 9.44C83.19 11.21 85.255 12.095 87.615 12.095H89.68C92.04 12.095 94.4 11.21 95.875 9.44L100.89 4.425C103.545 1.77 107.38 1.3504e-06 111.215 1.3504e-06H113.28C117.115 1.3504e-06 120.95 1.475 123.605 4.425L128.62 9.44C130.39 11.21 132.455 12.095 134.815 12.095H136.88C139.24 12.095 141.6 11.21 143.075 9.44L148.09 4.425C150.745 1.77 154.58 1.3504e-06 158.415 1.3504e-06H160.48C164.315 1.3504e-06 168.15 1.475 170.805 4.425L177 10.62V17.7H175.82Z" transform="translate(0 79.6794) scale(0.5)" fill="#3E606F"/>
<path d="M29.5 67.85L61.95 35.4L94.4 67.85V38.35L56.05 1.3504e-06L41.3 14.75L53.1 26.55L26.55 53.1L14.75 41.3L-1.57547e-06 56.05V64.9" transform="translate(41.3008 23.6294) scale(0.5)" fill="#C9942C"/>
<path d="M118 0H0V11.8H118V0Z" transform="translate(0 61.9794) scale(0.5)" fill="#313740"/>
<path d="M29.5 0H0V11.8H29.5V0Z" transform="translate(41.3008 56.0794) scale(0.5)" fill="#5C6373"/>
<path d="M32.45 1.3504e-06H1.23787e-06V64.9H41.3V8.85L32.45 1.3504e-06Z" transform="translate(20.6504 29.5294) scale(0.5)" fill="#C9942C"/>
<path d="M38.35 11.8V23.6L29.5 32.45H11.8L4.05121e-06 20.65H20.65L26.55 14.75V1.3504e-06L38.35 11.8Z" transform="translate(69.3242 51.6544) scale(0.5)" fill="#7D828C"/>
<path d="M37.4646 2.38571e-06H-3.24097e-06V12.39H37.4646V2.38571e-06Z" transform="translate(67.7598 36.9485) scale(0.499995) rotate(135)" fill="#7D828C"/>
<path d="M29.5 29.5H-1.57547e-06V1.3504e-06H20.65L29.5 8.85V29.5Z" transform="translate(26.5508 29.5294) scale(0.5)" fill="#A6A6A6"/>
<path d="M41.3 0H0V23.6H41.3V0Z" transform="translate(20.6504 50.1794) scale(0.5)" fill="#DFA738"/>
<path d="M11.8 0H0V23.6H11.8V0Z" transform="translate(20.6504 50.1794) scale(0.5)" fill="#BF7D2C"/>
<path d="M23.6 0H0V76.7H23.6V0Z" transform="translate(2.95117 23.6294) scale(0.5)" fill="#A4A5A6"/>
<path d="M29.5 -1.31875e-09C25.665 -1.31875e-09 22.125 1.77 20.06 4.72C16.225 1.77 10.62 2.36 7.67 6.49C6.49 7.965 5.9 9.735 5.9 11.8C2.655 11.8 -1.688e-07 14.455 -1.688e-07 17.7C-1.688e-07 20.945 2.655 23.6 5.9 23.6C8.26 23.6 10.325 22.125 11.21 20.06C14.16 21.24 17.405 20.945 20.06 18.88C23.895 24.19 31.27 25.075 36.58 21.24C41.89 17.405 42.775 10.03 38.94 4.72C36.58 1.77 33.335 -1.31875e-09 29.5 -1.31875e-09Z" transform="translate(4.42578 0.0294189) scale(0.5)" fill="#A4A5A6"/>
<path d="M35.4 0H0V11.8H35.4V0Z" transform="translate(0 17.7294) scale(0.5)" fill="#7D828C"/>
<path d="M23.6 0H0V5.9H23.6V0Z" transform="translate(2.94922 54.6044) scale(0.5)" fill="#7D828C"/>
<path d="M23.6 0H0V5.9H23.6V0Z" transform="translate(2.94922 28.0544) scale(0.5)" fill="#7D828C"/>
<path d="M5.9 0H0V53.1H5.9V0Z" transform="translate(7.375 29.5294) scale(0.5)" fill="#7D828C"/>
<path d="M5.9 29.5588C2.655 29.5588 4.05121e-06 26.9038 4.05121e-06 23.6588C4.05121e-06 20.4138 2.655 17.7588 5.9 17.7588C6.49 17.7588 7.08 17.7588 7.67 18.0538C4.13 12.4488 5.9 5.36882 11.505 1.82882C17.11 -1.71118 24.19 0.0588178 27.73 5.66382C28.91 7.43382 29.5 9.49882 29.5 11.8588C29.5 12.1538 29.5 12.1538 29.5 12.4488C30.385 12.1538 31.565 11.8588 32.45 11.8588C37.465 11.8588 41.3 15.6938 41.3 20.7088C41.3 25.7238 37.465 29.5588 32.45 29.5588H5.9Z" transform="translate(67.8496) scale(0.5)" fill="#91AAB4"/>
<path d="M5.9 0H4.05121e-06V5.9H5.9V0Z" transform="translate(63.4238 63.4544) scale(0.5)" fill="#313740"/>
<path d="M5.9 0H4.05121e-06V5.9H5.9V0Z" transform="translate(63.4238 69.3544) scale(0.5)" fill="#313740"/>
<path d="M5.9 0H4.05121e-06V5.9H5.9V0Z" transform="translate(69.3242 69.3544) scale(0.5)" fill="#313740"/>
</svg>
