<svg width="89" height="89" viewBox="0 0 89 89" fill="none" xmlns="http://www.w3.org/2000/svg">
<path d="M128.468 154.161H0V0H128.468V17.129V154.161Z" transform="translate(1.42773 1.42743) scale(0.5)" fill="#ECECEC"/>
<path d="M0 48.5323C0 70.3661 14.4226 88.8254 34.2581 94.9234V82.7903H48.5323V5.70968V0C21.7282 0 0 21.7282 0 48.5323Z" transform="translate(41.3945 7.13708) scale(0.5)" fill="#B6C1CE"/>
<path d="M131.323 0H0V5.70968H131.323V0Z" transform="translate(1.42773 75.6532) scale(0.5)" fill="#B6C1CE"/>
<path d="M105.629 28.5484H0V0H105.629V5.70968V28.5484Z" transform="translate(7.13672 7.13708) scale(0.5)" fill="#8C95A4"/>
<path d="M105.629 0H0V5.70968H105.629V0Z" transform="translate(7.13672 18.5565) scale(0.5)" fill="#798699"/>
<path d="M1.30684e-06 27.141H32.7735V4.30224V8.71228e-08C18.1311 3.53714 6.09508 13.6861 1.30684e-06 27.141Z" transform="translate(43.5645 7.84082) scale(0.5)" fill="#798699"/>
<path d="M28.5484 0V59.9516C28.5484 67.8338 22.1564 74.2258 14.2742 74.2258C6.39198 74.2258 0 67.8338 0 59.9516V0H28.5484Z" transform="translate(58.5234 49.9597) scale(0.5)" fill="#EABD8C"/>
<path d="M28.5484 0H0V8.56452H28.5484V0Z" transform="translate(58.5234 58.5242) scale(0.5)" fill="#D3A06C"/>
<path d="M28.5484 0H0V17.129H28.5484V0Z" transform="translate(58.5234 49.9597) scale(0.5)" fill="#B6C1CE"/>
<path d="M42.8226 85.6452C66.4728 85.6452 85.6452 66.4728 85.6452 42.8226C85.6452 19.1723 66.4728 0 42.8226 0C19.1723 0 0 19.1723 0 42.8226C0 66.4728 19.1723 85.6452 42.8226 85.6452Z" transform="translate(44.25 9.99194) scale(0.5)" fill="#ECECEC"/>
<path d="M0 31.4032C0 38.0464 2.07546 44.1958 5.59548 49.2717L31.4032 31.4032V0C14.0601 0 0 14.0601 0 31.4032Z" transform="translate(49.959 15.7016) scale(0.5)" fill="#FB5968"/>
<path d="M5.70968 11.4194C8.86304 11.4194 11.4194 8.86304 11.4194 5.70968C11.4194 2.55631 8.86304 0 5.70968 0C2.55631 0 0 2.55631 0 5.70968C0 8.86304 2.55631 11.4194 5.70968 11.4194Z" transform="translate(7.13672 38.5403) scale(0.5)" fill="#FCD770"/>
<path d="M5.70968 11.4194C8.86304 11.4194 11.4194 8.86304 11.4194 5.70968C11.4194 2.55631 8.86304 0 5.70968 0C2.55631 0 0 2.55631 0 5.70968C0 8.86304 2.55631 11.4194 5.70968 11.4194Z" transform="translate(15.7012 55.6693) scale(0.5)" fill="#FCD770"/>
<path d="M5.70968 11.4194C8.86304 11.4194 11.4194 8.86304 11.4194 5.70968C11.4194 2.55631 8.86304 0 5.70968 0C2.55631 0 0 2.55631 0 5.70968C0 8.86304 2.55631 11.4194 5.70968 11.4194Z" transform="translate(28.5488 44.25) scale(0.5)" fill="#FCD770"/>
<path d="M5.70968 11.4194C8.86304 11.4194 11.4194 8.86304 11.4194 5.70968C11.4194 2.55631 8.86304 0 5.70968 0C2.55631 0 0 2.55631 0 5.70968C0 8.86304 2.55631 11.4194 5.70968 11.4194Z" transform="translate(41.3945 51.3871) scale(0.5)" fill="#FCD770"/>
<path d="M25.8077 0L-2.61368e-06 17.8684C5.66971 26.0418 15.1078 31.4032 25.8077 31.4032C39.1769 31.4032 50.562 23.0357 55.0955 11.2652L25.8077 0Z" transform="translate(52.7578 31.4032) scale(0.5)" fill="#FCD770"/>
<path d="M29.1422 43.0595C30.5867 39.4539 31.4032 35.5256 31.4032 31.4032C31.4032 14.0601 17.3431 0 0 0V31.4032L29.1422 43.0595Z" transform="translate(65.6621 15.7016) scale(0.5)" fill="#8C95A4"/>
<path d="M177 62.8064C177 38.5831 158.032 18.7591 134.177 17.2746V0H0V159.871H114.194C114.194 169.318 121.876 177 131.323 177C140.769 177 148.452 169.318 148.452 159.871V119.903H154.161V114.194H148.452V105.121C165.17 98.3292 177 81.9339 177 62.8064ZM171.29 62.8064C171.29 84.8458 153.362 102.774 131.323 102.774C109.283 102.774 91.3548 84.8458 91.3548 62.8064C91.3548 40.7671 109.283 22.8387 131.323 22.8387C153.362 22.8387 171.29 40.7671 171.29 62.8064ZM117.048 19.4443C106.343 22.9786 97.3985 30.3698 91.8259 39.9677H17.129V17.129H117.048V19.4443ZM5.70968 154.161V5.70968H128.468V17.2746C126.532 17.3945 124.622 17.6086 122.758 17.9626V11.4194H11.4194V45.6774H89.0082C86.8556 50.9731 85.6452 56.7485 85.6452 62.8064C85.6452 81.9339 97.4756 98.3292 114.194 105.121V114.194H108.484V119.903H114.194V154.161H5.70968ZM142.742 159.871C142.742 166.169 137.62 171.29 131.323 171.29C125.025 171.29 119.903 166.169 119.903 159.871V119.903H142.742V159.871ZM142.742 114.194H119.903V106.979C123.56 107.927 127.374 108.484 131.323 108.484C135.271 108.484 139.085 107.927 142.742 106.979V114.194Z" transform="scale(0.5)" fill="black"/>
<path d="M8.56452 17.129C8.98132 17.129 9.37815 17.0634 9.77782 17.0063L19.3929 37.0701C17.9998 38.5917 17.129 40.6015 17.129 42.8226C17.129 47.5445 20.9716 51.3871 25.6936 51.3871C30.4155 51.3871 34.2581 47.5445 34.2581 42.8226C34.2581 41.6806 34.024 40.5958 33.6157 39.5966L47.279 27.4521C48.5037 28.1287 49.8912 28.5484 51.3871 28.5484C53.5539 28.5484 55.5123 27.7119 57.0226 26.3816L68.6589 32.8449C68.5818 33.3074 68.5161 33.7756 68.5161 34.2581C68.5161 38.98 72.3587 42.8226 77.0807 42.8226C81.8026 42.8226 85.6452 38.98 85.6452 34.2581C85.6452 29.5362 81.8026 25.6935 77.0807 25.6935C74.9138 25.6935 72.9526 26.53 71.4423 27.8604L59.8089 21.397C59.886 20.9345 59.9516 20.4692 59.9516 19.9839C59.9516 15.262 56.109 11.4194 51.3871 11.4194C46.6652 11.4194 42.8226 15.262 42.8226 19.9839C42.8226 21.1258 43.0567 22.2106 43.4649 23.2098L29.8017 35.3543C28.5769 34.6777 27.1895 34.2581 25.6936 34.2581C25.2625 34.2581 24.8514 34.3237 24.4374 34.3837L14.8366 14.3513C16.2469 12.8268 17.129 10.8027 17.129 8.56452C17.129 3.84261 13.2864 0 8.56452 0C3.84261 0 0 3.84261 0 8.56452C0 13.2864 3.84261 17.129 8.56452 17.129ZM77.0807 31.4032C78.6565 31.4032 79.9355 32.6822 79.9355 34.2581C79.9355 35.8339 78.6565 37.1129 77.0807 37.1129C75.5048 37.1129 74.2258 35.8339 74.2258 34.2581C74.2258 32.6822 75.5048 31.4032 77.0807 31.4032ZM51.3871 17.129C52.963 17.129 54.2419 18.408 54.2419 19.9839C54.2419 21.5597 52.963 22.8387 51.3871 22.8387C49.8112 22.8387 48.5323 21.5597 48.5323 19.9839C48.5323 18.408 49.8112 17.129 51.3871 17.129ZM28.5484 42.8226C28.5484 44.3984 27.2694 45.6774 25.6936 45.6774C24.1177 45.6774 22.8387 44.3984 22.8387 42.8226C22.8387 41.2467 24.1177 39.9677 25.6936 39.9677C27.2694 39.9677 28.5484 41.2467 28.5484 42.8226ZM8.56452 5.70968C10.1404 5.70968 11.4194 6.98865 11.4194 8.56452C11.4194 10.1404 10.1404 11.4194 8.56452 11.4194C6.98865 11.4194 5.70968 10.1404 5.70968 8.56452C5.70968 6.98865 6.98865 5.70968 8.56452 5.70968Z" transform="translate(5.70898 37.1129) scale(0.5)" fill="black"/>
<path d="M5.70968 0H0V5.70968H5.70968V0Z" transform="translate(51.3867 71.371) scale(0.5)" fill="black"/>
<path d="M85.6452 0H0V5.70968H85.6452V0Z" transform="translate(5.70898 71.371) scale(0.5)" fill="black"/>
<path d="M97.0645 0H0V5.70968H97.0645V0Z" transform="translate(5.70898 65.6613) scale(0.5)" fill="black"/>
<path d="M68.5161 0H0V5.70968H68.5161V0Z" transform="translate(5.70898 25.6935) scale(0.5)" fill="black"/>
<path d="M68.5161 0H0V5.70968H68.5161V0Z" transform="translate(5.70898 31.4032) scale(0.5)" fill="black"/>
<path d="M0 34.2581C0 53.1485 15.3676 68.5161 34.2581 68.5161C41.7463 68.5161 48.8606 66.1409 54.8357 61.6502L51.4014 57.0882C46.4282 60.8309 40.5016 62.8064 34.2581 62.8064C25.3938 62.8064 17.4602 58.744 12.2187 52.3806L34.5921 37.464L59.5662 47.4531C58.3729 49.7399 56.8741 51.8781 55.0698 53.7966L59.2293 57.7048C65.2188 51.3357 68.5161 43.0053 68.5161 34.2581C68.5161 15.3676 53.1485 0 34.2581 0C15.3676 0 0 15.3676 0 34.2581ZM9.0527 47.6301C6.92584 43.6391 5.70968 39.0885 5.70968 34.2581C5.70968 19.4814 16.9977 7.29126 31.4032 5.85527V32.7307L9.0527 47.6301ZM62.8064 34.2581C62.8064 36.9616 62.4239 39.6166 61.6959 42.1574L37.1129 32.3253V5.85527C51.5184 7.29126 62.8064 19.4814 62.8064 34.2581Z" transform="translate(48.5332 14.2742) scale(0.5)" fill="black"/>
</svg>
