<svg width="89" height="92" viewBox="0 0 89 92" fill="none" xmlns="http://www.w3.org/2000/svg">
<path d="M5.80313 -6.0187e-06H0V40.6228H5.80313V-6.0187e-06Z" transform="translate(10.1553 63.8359) scale(0.5)" fill="black"/>
<path d="M5.80313 -6.0187e-06H-4.98099e-06V40.6228H5.80313V-6.0187e-06Z" transform="translate(75.4424 63.8359) scale(0.5)" fill="black"/>
<path d="M20.3116 92.8527C31.5294 92.8527 40.6232 88.178 40.6232 60.9348C40.6232 33.6916 31.5294 -8.30165e-07 20.3116 -8.30165e-07C9.09383 -8.30165e-07 -5.18853e-08 33.6907 -5.18853e-08 60.9344C-5.18853e-08 88.178 9.09383 92.8527 20.3116 92.8527Z" transform="translate(1.45068 20.3114) scale(0.5)" fill="#FCAD3A"/>
<path d="M23.213 98.6558C6.94183 98.6558 5.99924e-08 88.2418 5.99924e-08 63.8362C5.99924e-08 37.1803 8.83242 9.33936e-07 23.213 9.33936e-07C37.5935 9.33936e-07 46.4259 37.1799 46.4259 63.8362C46.4259 88.2418 39.4841 98.6558 23.213 98.6558ZM23.213 5.80356C15.7717 5.80356 5.80313 34.4949 5.80313 63.8362C5.80313 90.6127 14.4035 92.8527 23.213 92.8527C32.0224 92.8527 40.6228 90.6127 40.6228 63.8362C40.6228 34.4949 30.6542 5.80356 23.213 5.80356Z" transform="translate(0 18.8605) scale(0.5)" fill="black"/>
<path d="M20.3116 27.2955C31.5294 27.2955 40.6232 42.6583 40.6232 29.479C40.6232 16.2996 31.5294 7.00452e-07 20.3116 7.00452e-07C9.09383 7.00452e-07 -5.18853e-08 16.3 -5.18853e-08 29.4794C-5.18853e-08 42.6587 9.09383 27.2955 20.3116 27.2955Z" transform="translate(1.45068 18.8607) scale(0.5)" fill="white"/>
<path d="M41.2769 40.6376C39.1007 40.6376 36.791 39.1853 34.2246 37.5705C31.0588 35.5784 27.1183 33.0991 23.213 33.0991C19.3076 33.0991 15.3671 35.5784 12.2013 37.5705C8.74402 39.7455 5.7653 41.6284 2.92346 40.06C0.332385 38.6268 5.99924e-08 35.2043 5.99924e-08 32.3807C5.99924e-08 17.4068 10.1382 -5.44796e-07 23.213 -5.44796e-07C36.2877 -5.44796e-07 46.4259 17.4068 46.4259 32.3807C46.4259 35.2026 46.0935 38.6263 43.5012 40.0583C42.7701 40.4621 42.0314 40.6376 41.2769 40.6376ZM23.213 27.2947C28.79 27.2947 33.7171 30.3949 37.3164 32.657C38.3275 33.2937 39.6116 34.1005 40.4923 34.5285C40.5633 34.0728 40.6228 33.3868 40.6228 32.3812C40.6228 20.6657 32.4258 5.80356 23.213 5.80356C14.0001 5.80356 5.80313 20.6657 5.80313 32.3812C5.80313 33.3864 5.86264 34.0728 5.93362 34.5285C6.81431 34.1005 8.09837 33.2937 9.10955 32.657C12.7088 30.3949 17.6359 27.2947 23.213 27.2947Z" transform="translate(0 17.4096) scale(0.5)" fill="black"/>
<path d="M20.3116 69.6393C31.5294 69.6393 40.6232 66.1327 40.6232 45.7008C40.6232 25.2689 31.5294 -1.50467e-06 20.3116 -1.50467e-06C9.09383 -1.50467e-06 -1.34902e-06 25.2689 -1.34902e-06 45.7008C-1.34902e-06 66.1327 9.09383 69.6393 20.3116 69.6393Z" transform="translate(66.7373 31.9181) scale(0.5)" fill="#83D816"/>
<path d="M23.213 75.4428C12.4058 75.4428 3.42443e-06 72.3919 3.42443e-06 48.6026C3.42443e-06 28.7857 9.04155 -2.74992e-06 23.213 -2.74992e-06C37.3844 -2.74992e-06 46.4259 28.7857 46.4259 48.6026C46.4259 72.3919 34.0201 75.4428 23.213 75.4428ZM23.213 5.80356C14.9157 5.80356 5.80313 28.2025 5.80313 48.6026C5.80313 68.016 14.4035 69.6393 23.213 69.6393C32.0224 69.6393 40.6228 68.0156 40.6228 48.6026C40.6228 28.203 31.5103 5.80356 23.213 5.80356Z" transform="translate(65.2866 30.467) scale(0.5)" fill="black"/>
<path d="M20.3116 27.2959C31.5294 27.2959 40.6232 42.6587 40.6232 29.4794C40.6232 16.3 31.5294 -2.74992e-06 20.3116 -2.74992e-06C9.09383 -2.74992e-06 -1.34902e-06 16.3 -1.34902e-06 29.4794C-1.34902e-06 42.6587 9.09383 27.2959 20.3116 27.2959Z" transform="translate(66.7373 30.467) scale(0.5)" fill="white"/>
<path d="M41.2782 40.6377C39.102 40.6377 36.7923 39.1853 34.2259 37.5705C31.0601 35.5784 27.1195 33.0991 23.2142 33.0991C19.3089 33.0991 15.3683 35.5784 12.2026 37.5705C8.74827 39.7455 5.76403 41.6297 2.92473 40.06C0.331959 38.628 -5.60361e-06 35.2043 -5.60361e-06 32.3824C0.00126953 17.4073 10.1399 2.02353e-06 23.2147 2.02353e-06C36.2894 2.02353e-06 46.4276 17.4068 46.4276 32.3807C46.4276 35.2026 46.0952 38.6263 43.5029 40.0583C42.7714 40.4621 42.0326 40.6377 41.2782 40.6377ZM23.2142 27.2942C28.7912 27.2942 33.7184 30.3945 37.3176 32.6566C38.3288 33.2933 39.6129 34.1 40.4936 34.5281C40.5645 34.0724 40.6241 33.3864 40.6241 32.3807C40.6241 20.6652 32.4271 5.80313 23.2142 5.80313C14.0014 5.80313 5.8044 20.6652 5.8044 32.3807C5.8044 33.386 5.86391 34.0724 5.9349 34.5281C6.81559 34.1 8.09965 33.2933 9.11084 32.6566C12.7101 30.3949 17.6372 27.2942 23.2142 27.2942Z" transform="translate(65.2861 29.0163) scale(0.5)" fill="black"/>
<path d="M34.8196 5.99924e-08H75.4424L110.262 177H-7.7828e-07L34.8196 5.99924e-08Z" transform="translate(15.959 1.45087) scale(0.5)" fill="#777777"/>
<path d="M113.164 182.803H2.90227C2.03476 182.803 1.21357 182.414 0.66059 181.746C0.110583 181.075 -0.112567 180.195 0.0540508 179.343L34.8741 2.34327C35.144 0.980578 36.3363 0 37.7219 0H78.3447C79.7303 0 80.9226 0.980578 81.1925 2.34157L116.012 179.342C116.179 180.193 115.956 181.074 115.406 181.744C114.853 182.414 114.032 182.803 113.164 182.803ZM6.43057 177H109.637L75.9581 5.80313H40.1085L6.43057 177Z" transform="translate(14.5078) scale(0.5)" fill="black"/>
<path d="M5.80313 171.197H1.29713e-06V153.787H5.80313V171.197ZM5.80313 147.983H1.29713e-06V130.574H5.80313V147.983ZM5.80313 124.771H1.29713e-06V107.361H5.80313V124.771ZM5.80313 101.558H1.29713e-06V84.1478H5.80313V101.558ZM5.80313 78.3442H1.29713e-06V60.9344H5.80313V78.3442ZM5.80313 55.1312H1.29713e-06V37.7214H5.80313V55.1312ZM5.80313 31.9183H1.29713e-06V14.5085H5.80313V31.9183ZM5.80313 8.70491H1.29713e-06V-5.18853e-08H5.80313V8.70491Z" transform="translate(42.0737 2.90155) scale(0.5)" fill="white"/>
</svg>
