<svg width="89" height="69" viewBox="0 0 89 69" fill="none" xmlns="http://www.w3.org/2000/svg">
<path d="M60.1048 -7.23511e-07C60.2564 3.7653 60.4072 7.53059 60.5592 11.2959C57.6275 11.2959 56.1623 11.2959 53.231 11.2959C53.3822 7.53059 53.5338 3.7653 53.6846 -7.23511e-07C47.7401 -7.23511e-07 41.796 -7.23511e-07 35.8515 -7.23511e-07C23.9015 45.3837 11.9496 90.7663 -1.18608e-07 136.151C16.0717 136.151 32.1434 136.151 48.2147 136.151C48.3659 132.385 48.517 128.62 48.6686 124.855C54.1529 124.855 59.6373 124.855 65.1212 124.855C65.2735 128.62 65.4243 132.385 65.5751 136.151C81.6468 136.151 97.7181 136.151 113.79 136.151C101.84 90.767 89.8883 45.3841 77.9383 -7.23511e-07C71.9942 -7.23511e-07 66.0497 -7.23511e-07 60.1048 -7.23511e-07ZM52.5505 28.209C55.4464 28.209 58.3423 28.2075 61.2385 28.2082C61.659 38.6782 62.0792 49.149 62.5005 59.6186C58.7632 59.6186 55.0262 59.6186 51.2885 59.6186C51.7106 49.1494 52.1304 38.679 52.5505 28.209ZM49.3476 107.941C49.7677 97.4717 50.189 87.0017 50.6096 76.5321C54.7997 76.5321 58.9898 76.5313 63.1795 76.5313C63.6004 87.0009 64.0213 97.4717 64.4414 107.941C59.4107 107.941 54.3787 107.941 49.3476 107.941Z" transform="translate(15.8027) scale(0.5)" fill="black"/>
<path d="M6.07118 -7.23511e-07C3.64286 -7.23511e-07 2.42833 -7.23511e-07 5.40854e-06 -7.23511e-07C15.1424 45.3837 30.2813 90.767 45.4245 136.151C50.8956 136.151 56.3671 136.151 61.8382 136.151C43.25 90.7663 24.6606 45.3837 6.07118 -7.23511e-07Z" transform="translate(57.5811) scale(0.5)" fill="black"/>
<path d="M55.767 -7.23511e-07C37.1776 45.3841 18.5878 90.7663 0 136.151C5.47149 136.151 10.9426 136.151 16.4141 136.151C31.5553 90.767 46.6962 45.3841 61.8382 -7.23511e-07C59.4099 -7.2351e-07 58.1954 -7.23511e-07 55.767 -7.23511e-07Z" transform="scale(0.5)" fill="black"/>
</svg>
