<svg width="89" height="89" viewBox="0 0 89 89" fill="none" xmlns="http://www.w3.org/2000/svg">
<path d="M160.406 132H4.74751e-08V51H33.1878L80.2031 0L127.22 51H160.406V132Z" transform="translate(4.11035 21) scale(0.5)" fill="#E6BE94"/>
<path d="M33.1875 0H2.0256e-06V36H33.1875V0Z" transform="translate(35.915 69) scale(0.5)" fill="#996459"/>
<path d="M32.4961 0H0.691408C0.309406 0 2.0256e-06 0.335625 2.0256e-06 0.75V12H33.1875V0.75C33.1875 0.335625 32.8781 0 32.4961 0Z" transform="translate(35.915 63) scale(0.5)" fill="#4BB9EC"/>
<path d="M28.2152 12L32.7229 4.66425C33.2874 3.74438 33.3413 2.56088 32.8605 1.58513C32.3796 0.609375 31.4427 0 30.4219 0H2.76562C1.23693 0 0 1.34175 0 3V21C0 22.6583 1.23693 24 2.76562 24H30.4219C31.4427 24 32.3799 23.3906 32.8608 22.4149C33.3417 21.4391 33.2874 20.2556 32.7232 19.3358L28.2152 12Z" transform="translate(42.8672 3.00006) scale(0.5)" fill="#FF4F19"/>
<path d="M2.76562 45C1.23693 45 0 43.6582 0 42V3C0 1.34175 1.23693 0 2.76562 0C4.29432 0 5.53125 1.34175 5.53125 3V42C5.53125 43.6582 4.29432 45 2.76562 45Z" transform="translate(42.8672) scale(0.5)" fill="#5C546A"/>
<path d="M0.211409 1.85175C0.638007 0.729751 1.64816 0 2.76651 0H55.3134C56.2585 0 57.139 0.524251 57.6469 1.38863L77.0062 34.3886C77.549 35.3145 77.5815 36.4834 77.0982 37.4441C76.6121 38.4023 75.6829 38.9996 74.6727 38.9996H33.1884C32.4538 38.9996 31.7516 38.6831 31.2331 38.1206L0.81121 5.12063C0.0195497 4.26263 -0.218299 2.97375 0.211409 1.85175Z" transform="translate(49.7432 27) scale(0.5)" fill="#FF4F19"/>
<path d="M77.227 1.85175C76.8 0.729376 75.7899 0 74.6719 0H22.125C21.1799 0 20.2994 0.524251 19.7915 1.38863L0.432161 34.3886C-0.110593 35.3145 -0.143089 36.4834 0.340204 37.4441C0.826608 38.4023 1.75551 39 2.76566 39H44.25C44.9846 39 45.6868 38.6835 46.2053 38.121L76.6272 5.121C77.4185 4.26263 77.6563 2.97375 77.227 1.85175Z" transform="translate(0 27) scale(0.5)" fill="#FF4F19"/>
<path d="M96.7214 56.9594C96.0137 56.9594 95.3061 56.6665 94.7661 56.0804L49.7435 7.24266L4.72118 56.0804C3.64086 57.2523 1.89056 57.2523 0.810243 56.0804C-0.27008 54.9085 -0.27008 53.0099 0.810243 51.838L47.7882 0.878907C48.8685 -0.292968 50.6188 -0.292968 51.6991 0.878907L98.677 51.838C99.7574 53.0099 99.7574 54.9085 98.677 56.0804C98.1364 56.6662 97.4291 56.9594 96.7214 56.9594Z" transform="translate(19.3784 19.4999) scale(0.5)" fill="#E3001E"/>
<path d="M16.5938 36C25.7582 36 33.1875 27.9411 33.1875 18C33.1875 8.05888 25.7582 0 16.5938 0C7.42928 0 2.4476e-06 8.05888 2.4476e-06 18C2.4476e-06 27.9411 7.42928 36 16.5938 36Z" transform="translate(35.9531 37.5001) scale(0.5)" fill="#FFEBB7"/>
<path d="M11.0625 0C9.5338 0 8.29687 1.34175 8.29687 3V9H2.76562C1.23693 9 0 10.3418 0 12C0 13.6582 1.23693 15 2.76562 15H11.0625C12.5912 15 13.8281 13.6582 13.8281 12V3C13.8281 1.34175 12.5912 0 11.0625 0Z" transform="translate(38.7188 40.5) scale(0.5)" fill="#5C546A"/>
<path d="M13.8281 7.5C13.8281 3.35775 10.7327 0 6.91406 0C3.09543 0 2.0256e-06 3.35775 2.0256e-06 7.5C2.0256e-06 8.01375 0.0487408 8.51513 0.139315 9H2.0256e-06V21H13.8281V9H13.6888C13.7797 8.51513 13.8281 8.01375 13.8281 7.5Z" transform="translate(58.04 52.5) scale(0.5)" fill="#4BB9EC"/>
<path d="M9.67968 0C4.34272 0 0 4.71075 0 10.5V24C0 25.6583 1.23693 27 2.76562 27H16.5937C18.1224 27 19.3594 25.6583 19.3594 24V10.5C19.3594 4.71075 15.0166 0 9.67968 0ZM9.67968 6C11.9672 6 13.8281 8.01863 13.8281 10.5V12H5.53125V10.5C5.53125 8.01863 7.39217 6 9.67968 6ZM5.53125 21V18H13.8281V21H5.53125Z" transform="translate(56.6953 51) scale(0.5)" fill="#7E5C62"/>
<path d="M13.8281 0H2.4476e-06V18H13.8281V0Z" transform="translate(23.5078 70.5) scale(0.5)" fill="#4BB9EC"/>
<path d="M16.5937 0H2.76562C1.23693 0 0 1.34175 0 3V21C0 22.6583 1.23693 24 2.76562 24H16.5937C18.1224 24 19.3594 22.6583 19.3594 21V3C19.3594 1.34175 18.1224 0 16.5937 0ZM13.8281 6V9H5.53125V6H13.8281ZM5.53125 18V15H13.8281V18H5.53125Z" transform="translate(22.125 69) scale(0.5)" fill="#7E5C62"/>
<path d="M13.8281 0H0V18H13.8281V0Z" transform="translate(11.0244 70.5) scale(0.5)" fill="#4BB9EC"/>
<path d="M16.5937 0H2.76562C1.23692 0 -6.11901e-07 1.34175 -6.11901e-07 3V21C-6.11901e-07 22.6583 1.23692 24 2.76562 24H16.5937C18.1224 24 19.3594 22.6583 19.3594 21V3C19.3594 1.34175 18.1224 0 16.5937 0ZM13.8281 6V9H5.53125V6H13.8281ZM5.53125 18V15H13.8281V18H5.53125Z" transform="translate(9.6416 69) scale(0.5)" fill="#7E5C62"/>
<path d="M13.8281 0H0V18H13.8281V0Z" transform="translate(70.5234 70.5) scale(0.5)" fill="#4BB9EC"/>
<path d="M16.5937 0H2.76562C1.23693 0 0 1.34175 0 3V21C0 22.6583 1.23693 24 2.76562 24H16.5937C18.1224 24 19.3594 22.6583 19.3594 21V3C19.3594 1.34175 18.1224 0 16.5937 0ZM13.8281 6V9H5.53125V6H13.8281ZM5.53125 18V15H13.8281V18H5.53125Z" transform="translate(69.1406 69) scale(0.5)" fill="#7E5C62"/>
<path d="M13.8281 0H4.47321e-06V18H13.8281V0Z" transform="translate(58.04 70.5) scale(0.5)" fill="#4BB9EC"/>
<path d="M16.5937 0H2.76563C1.23693 0 2.0256e-06 1.34175 2.0256e-06 3V21C2.0256e-06 22.6583 1.23693 24 2.76563 24H16.5937C18.1224 24 19.3594 22.6583 19.3594 21V3C19.3594 1.34175 18.1224 0 16.5937 0ZM13.8281 6V9H5.53125V6H13.8281ZM5.53125 18V15H13.8281V18H5.53125Z" transform="translate(56.6572 69) scale(0.5)" fill="#7E5C62"/>
<path d="M13.8281 7.5C13.8281 3.35775 10.7327 0 6.91406 0C3.09542 0 -4.05121e-06 3.35775 -4.05121e-06 7.5C-4.05121e-06 8.01375 0.0487453 8.51513 0.13932 9H-4.05121e-06V21H13.8281V9H13.6888C13.7794 8.51513 13.8281 8.01375 13.8281 7.5Z" transform="translate(70.4482 52.5) scale(0.5)" fill="#4BB9EC"/>
<path d="M9.67969 0C4.34272 0 2.0256e-06 4.71075 2.0256e-06 10.5V24C2.0256e-06 25.6583 1.23693 27 2.76563 27H16.5937C18.1224 27 19.3594 25.6583 19.3594 24V10.5C19.3594 4.71075 15.0167 0 9.67969 0ZM9.67969 6C11.9672 6 13.8281 8.01863 13.8281 10.5V12H5.53125V10.5C5.53125 8.01863 7.39217 6 9.67969 6ZM5.53125 21V18H13.8281V21H5.53125Z" transform="translate(69.1025 51) scale(0.5)" fill="#7E5C62"/>
<path d="M13.8281 7.5C13.8281 3.35775 10.7327 0 6.91406 0C3.09543 0 -9.49502e-08 3.35775 -9.49502e-08 7.5C-9.49502e-08 8.01375 0.048744 8.51513 0.139318 9H-9.49502e-08V21H13.8281V9H13.6888C13.7794 8.51513 13.8281 8.01375 13.8281 7.5Z" transform="translate(10.9873 52.5) scale(0.5)" fill="#4BB9EC"/>
<path d="M9.67968 0C4.34272 0 -6.11901e-07 4.71075 -6.11901e-07 10.5V24C-6.11901e-07 25.6583 1.23692 27 2.76562 27H16.5937C18.1224 27 19.3594 25.6583 19.3594 24V10.5C19.3594 4.71075 15.0166 0 9.67968 0ZM9.67968 6C11.9672 6 13.8281 8.01863 13.8281 10.5V12H5.53125V10.5C5.53125 8.01863 7.39217 6 9.67968 6ZM5.53125 21V18H13.8281V21H5.53125Z" transform="translate(9.6416 51) scale(0.5)" fill="#7E5C62"/>
<path d="M13.8281 7.5C13.8281 3.35775 10.7327 0 6.91406 0C3.09542 0 -2.0256e-06 3.35775 -2.0256e-06 7.5C-2.0256e-06 8.01375 0.0487421 8.51513 0.139316 9H-2.0256e-06V21H13.8281V9H13.6888C13.7794 8.51513 13.8281 8.01375 13.8281 7.5Z" transform="translate(23.3945 52.5) scale(0.5)" fill="#4BB9EC"/>
<path d="M9.67969 0C4.34272 0 1.2238e-06 4.71075 1.2238e-06 10.5V24C1.2238e-06 25.6583 1.23693 27 2.76563 27H16.5937C18.1224 27 19.3594 25.6583 19.3594 24V10.5C19.3594 4.71075 15.0163 0 9.67969 0ZM9.67969 6C11.9672 6 13.8281 8.01863 13.8281 10.5V12H5.53125V10.5C5.53125 8.01863 7.39182 6 9.67969 6ZM5.53125 21V18H13.8281V21H5.53125Z" transform="translate(22.0498 51) scale(0.5)" fill="#7E5C62"/>
<path d="M19.3594 42C8.68441 42 0 32.5796 0 21C0 9.42037 8.68441 0 19.3594 0C30.0343 0 38.7187 9.42037 38.7187 21C38.7187 32.5796 30.0343 42 19.3594 42ZM19.3594 6C11.7349 6 5.53125 12.7286 5.53125 21C5.53125 29.2714 11.7349 36 19.3594 36C26.9839 36 33.1875 29.2714 33.1875 21C33.1875 12.7286 26.9839 6 19.3594 6Z" transform="translate(34.5703 36) scale(0.5)" fill="#7E5C62"/>
<path d="M30.4219 0H8.29687C3.72184 0 0 4.03725 0 9V51C0 52.6582 1.23693 54 2.76562 54C4.29432 54 5.53125 52.6582 5.53125 51V18H16.518V51H22.0493V18H33.1875V51C33.1875 52.6582 34.4244 54 35.9531 54C37.4818 54 38.7187 52.6582 38.7187 51V9C38.7187 4.03725 34.9969 0 30.4219 0ZM33.1875 12H5.53125V9C5.53125 7.34475 6.77094 6 8.29687 6H30.4219C31.9478 6 33.1875 7.34475 33.1875 9V12Z" transform="translate(34.5703 61.5) scale(0.5)" fill="#7E5C62"/>
<path d="M174.234 6H2.76562C1.23693 6 0 4.65825 0 3C0 1.34175 1.23693 0 2.76562 0H174.234C175.763 0 177 1.34175 177 3C177 4.65825 175.763 6 174.234 6Z" transform="translate(0 85.5) scale(0.5)" fill="#5C546A"/>
</svg>
