<svg width="948" height="872" viewBox="0 0 948 872" fill="none" xmlns="http://www.w3.org/2000/svg">
<path d="M214.781 162.576H6.35683e-08V62.8136H44.438L107.391 0L170.345 62.8136H214.781V162.576Z" transform="translate(44.0312 206.916) scale(4)" fill="#E6BE94"/>
<path d="M44.4375 0H2.71225e-06V44.339H44.4375V0Z" transform="translate(384.719 679.864) scale(4)" fill="#996459"/>
<path d="M43.5117 0H0.925784C0.41429 0 2.71225e-06 0.413369 2.71225e-06 0.923729V14.7797H44.4375V0.923729C44.4375 0.413369 44.0232 0 43.5117 0Z" transform="translate(384.719 620.746) scale(4)" fill="#4BB9EC"/>
<path d="M37.7797 14.7797L43.8154 5.74467C44.5713 4.61172 44.6435 3.15407 43.9996 1.9523C43.3557 0.75053 42.1013 0 40.7344 0H3.70312C1.65622 0 0 1.65255 0 3.69492V25.8644C0 27.9068 1.65622 29.5593 3.70312 29.5593H40.7344C42.1013 29.5593 43.3562 28.8088 44.0001 27.607C44.6439 26.4053 44.5713 24.9476 43.8158 23.8147L37.7797 14.7797Z" transform="translate(459.188 29.5596) scale(4)" fill="#FF4F19"/>
<path d="M3.70312 55.4237C1.65622 55.4237 0 53.7712 0 51.7288V3.69492C0 1.65255 1.65622 0 3.70312 0C5.75003 0 7.40625 1.65255 7.40625 3.69492V51.7288C7.40625 53.7712 5.75003 55.4237 3.70312 55.4237Z" transform="translate(459.188) scale(4)" fill="#5C546A"/>
<path d="M0.283074 2.28069C0.85428 0.89879 2.20686 0 3.70431 0H74.0637C75.3292 0 76.5082 0.645688 77.1882 1.71029L103.11 42.3544C103.837 43.4947 103.88 44.9343 103.233 46.1176C102.582 47.2977 101.338 48.0334 99.9855 48.0334H44.4387C43.455 48.0334 42.5149 47.6436 41.8206 46.9508L1.0862 6.30676C0.0261767 5.25001 -0.292299 3.66259 0.283074 2.28069Z" transform="translate(532.844 266.034) scale(4)" fill="#FF4F19"/>
<path d="M103.406 2.28069C102.834 0.898328 101.481 0 99.9844 0H29.625C28.3595 0 27.1805 0.645688 26.5005 1.71029L0.578656 42.3544C-0.148082 43.4947 -0.191594 44.9343 0.455527 46.1176C1.10681 47.2977 2.3506 48.0339 3.70317 48.0339H59.25C60.2337 48.0339 61.1738 47.6441 61.8681 46.9513L102.603 6.30722C103.662 5.25002 103.981 3.66259 103.406 2.28069Z" transform="translate(0 266.034) scale(4)" fill="#FF4F19"/>
<path d="M129.508 70.1534C128.561 70.1534 127.613 69.7927 126.89 69.0708L66.6057 8.92033L6.32158 69.0708C4.87505 70.5141 2.53143 70.5141 1.0849 69.0708C-0.361632 67.6275 -0.361632 65.289 1.0849 63.8457L63.9876 1.0825C65.4341 -0.36083 67.7777 -0.36083 69.2242 1.0825L132.127 63.8457C133.573 65.289 133.573 67.6275 132.127 69.0708C131.403 69.7922 130.456 70.1534 129.508 70.1534Z" transform="translate(207.578 192.134) scale(4)" fill="#E3001E"/>
<path d="M22.2188 44.339C34.4898 44.339 44.4375 34.4134 44.4375 22.1695C44.4375 9.92562 34.4898 0 22.2188 0C9.94767 0 3.2773e-06 9.92562 3.2773e-06 22.1695C3.2773e-06 34.4134 9.94767 44.339 22.2188 44.339Z" transform="translate(385.125 369.492) scale(4)" fill="#FFEBB7"/>
<path d="M14.8125 0C12.7656 0 11.1094 1.65255 11.1094 3.69492V11.0847H3.70312C1.65622 11.0847 0 12.7373 0 14.7797C0 16.822 1.65622 18.4746 3.70312 18.4746H14.8125C16.8594 18.4746 18.5156 16.822 18.5156 14.7797V3.69492C18.5156 1.65255 16.8594 0 14.8125 0Z" transform="translate(414.75 399.051) scale(4)" fill="#5C546A"/>
<path d="M18.5156 9.23729C18.5156 4.13553 14.3709 0 9.25781 0C4.14472 0 2.71225e-06 4.13553 2.71225e-06 9.23729C2.71225e-06 9.87004 0.0652632 10.4876 0.18654 11.0847H2.71225e-06V25.8644H18.5156V11.0847H18.3291C18.4508 10.4876 18.5156 9.87004 18.5156 9.23729Z" transform="translate(621.719 517.289) scale(4)" fill="#4BB9EC"/>
<path d="M12.9609 0C5.81483 0 0 5.80194 0 12.9322V29.5593C0 31.6017 1.65622 33.2542 3.70312 33.2542H22.2187C24.2656 33.2542 25.9219 31.6017 25.9219 29.5593V12.9322C25.9219 5.80194 20.107 0 12.9609 0ZM12.9609 7.38983C16.0239 7.38983 18.5156 9.87605 18.5156 12.9322V14.7797H7.40625V12.9322C7.40625 9.87605 9.89799 7.38983 12.9609 7.38983ZM7.40625 25.8644V22.1695H18.5156V25.8644H7.40625Z" transform="translate(607.312 502.509) scale(4)" fill="#7E5C62"/>
<path d="M18.5156 0H3.2773e-06V22.1695H18.5156V0Z" transform="translate(251.812 694.644) scale(4)" fill="#4BB9EC"/>
<path d="M22.2187 0H3.70312C1.65622 0 0 1.65255 0 3.69492V25.8644C0 27.9068 1.65622 29.5593 3.70312 29.5593H22.2187C24.2656 29.5593 25.9219 27.9068 25.9219 25.8644V3.69492C25.9219 1.65255 24.2656 0 22.2187 0ZM18.5156 7.38983V11.0847H7.40625V7.38983H18.5156ZM7.40625 22.1695V18.4746H18.5156V22.1695H7.40625Z" transform="translate(237 679.864) scale(4)" fill="#7E5C62"/>
<path d="M18.5156 0H0V22.1695H18.5156V0Z" transform="translate(118.094 694.644) scale(4)" fill="#4BB9EC"/>
<path d="M22.2187 0H3.70312C1.65622 0 -8.19325e-07 1.65255 -8.19325e-07 3.69492V25.8644C-8.19325e-07 27.9068 1.65622 29.5593 3.70312 29.5593H22.2187C24.2656 29.5593 25.9219 27.9068 25.9219 25.8644V3.69492C25.9219 1.65255 24.2656 0 22.2187 0ZM18.5156 7.38983V11.0847H7.40625V7.38983H18.5156ZM7.40625 22.1695V18.4746H18.5156V22.1695H7.40625Z" transform="translate(103.281 679.864) scale(4)" fill="#7E5C62"/>
<path d="M18.5156 0H0V22.1695H18.5156V0Z" transform="translate(755.438 694.644) scale(4)" fill="#4BB9EC"/>
<path d="M22.2187 0H3.70312C1.65622 0 0 1.65255 0 3.69492V25.8644C0 27.9068 1.65622 29.5593 3.70312 29.5593H22.2187C24.2656 29.5593 25.9219 27.9068 25.9219 25.8644V3.69492C25.9219 1.65255 24.2656 0 22.2187 0ZM18.5156 7.38983V11.0847H7.40625V7.38983H18.5156ZM7.40625 22.1695V18.4746H18.5156V22.1695H7.40625Z" transform="translate(740.625 679.864) scale(4)" fill="#7E5C62"/>
<path d="M18.5156 0H5.98955e-06V22.1695H18.5156V0Z" transform="translate(621.719 694.644) scale(4)" fill="#4BB9EC"/>
<path d="M22.2187 0H3.70313C1.65622 0 2.71225e-06 1.65255 2.71225e-06 3.69492V25.8644C2.71225e-06 27.9068 1.65622 29.5593 3.70313 29.5593H22.2187C24.2656 29.5593 25.9219 27.9068 25.9219 25.8644V3.69492C25.9219 1.65255 24.2656 0 22.2187 0ZM18.5156 7.38983V11.0847H7.40625V7.38983H18.5156ZM7.40625 22.1695V18.4746H18.5156V22.1695H7.40625Z" transform="translate(606.906 679.864) scale(4)" fill="#7E5C62"/>
<path d="M18.5156 9.23729C18.5156 4.13553 14.3709 0 9.25781 0C4.14472 0 -5.4245e-06 4.13553 -5.4245e-06 9.23729C-5.4245e-06 9.87004 0.0652691 10.4876 0.186546 11.0847H-5.4245e-06V25.8644H18.5156V11.0847H18.3291C18.4504 10.4876 18.5156 9.87004 18.5156 9.23729Z" transform="translate(754.633 517.289) scale(4)" fill="#4BB9EC"/>
<path d="M12.9609 0C5.81483 0 2.71225e-06 5.80194 2.71225e-06 12.9322V29.5593C2.71225e-06 31.6017 1.65622 33.2542 3.70313 33.2542H22.2187C24.2656 33.2542 25.9219 31.6017 25.9219 29.5593V12.9322C25.9219 5.80194 20.107 0 12.9609 0ZM12.9609 7.38983C16.0239 7.38983 18.5156 9.87605 18.5156 12.9322V14.7797H7.40625V12.9322C7.40625 9.87605 9.89799 7.38983 12.9609 7.38983ZM7.40625 25.8644V22.1695H18.5156V25.8644H7.40625Z" transform="translate(740.219 502.509) scale(4)" fill="#7E5C62"/>
<path d="M18.5156 9.23729C18.5156 4.13553 14.3709 0 9.25781 0C4.14472 0 -1.27137e-07 4.13553 -1.27137e-07 9.23729C-1.27137e-07 9.87004 0.0652674 10.4876 0.186545 11.0847H-1.27137e-07V25.8644H18.5156V11.0847H18.3291C18.4504 10.4876 18.5156 9.87004 18.5156 9.23729Z" transform="translate(117.695 517.289) scale(4)" fill="#4BB9EC"/>
<path d="M12.9609 0C5.81483 0 -8.19325e-07 5.80194 -8.19325e-07 12.9322V29.5593C-8.19325e-07 31.6017 1.65622 33.2542 3.70312 33.2542H22.2187C24.2656 33.2542 25.9219 31.6017 25.9219 29.5593V12.9322C25.9219 5.80194 20.107 0 12.9609 0ZM12.9609 7.38983C16.0239 7.38983 18.5156 9.87605 18.5156 12.9322V14.7797H7.40625V12.9322C7.40625 9.87605 9.89799 7.38983 12.9609 7.38983ZM7.40625 25.8644V22.1695H18.5156V25.8644H7.40625Z" transform="translate(103.281 502.509) scale(4)" fill="#7E5C62"/>
<path d="M18.5156 9.23729C18.5156 4.13553 14.3709 0 9.25781 0C4.14472 0 -2.71225e-06 4.13553 -2.71225e-06 9.23729C-2.71225e-06 9.87004 0.0652648 10.4876 0.186542 11.0847H-2.71225e-06V25.8644H18.5156V11.0847H18.3291C18.4503 10.4876 18.5156 9.87004 18.5156 9.23729Z" transform="translate(250.602 517.289) scale(4)" fill="#4BB9EC"/>
<path d="M12.9609 0C5.81483 0 1.63865e-06 5.80194 1.63865e-06 12.9322V29.5593C1.63865e-06 31.6017 1.65622 33.2542 3.70313 33.2542H22.2187C24.2656 33.2542 25.9219 31.6017 25.9219 29.5593V12.9322C25.9219 5.80194 20.1066 0 12.9609 0ZM12.9609 7.38983C16.0239 7.38983 18.5156 9.87605 18.5156 12.9322V14.7797H7.40625V12.9322C7.40625 9.87605 9.89753 7.38983 12.9609 7.38983ZM7.40625 25.8644V22.1695H18.5156V25.8644H7.40625Z" transform="translate(236.195 502.509) scale(4)" fill="#7E5C62"/>
<path d="M25.9219 51.7288C11.6283 51.7288 0 40.1263 0 25.8644C0 11.6025 11.6283 0 25.9219 0C40.2155 0 51.8437 11.6025 51.8437 25.8644C51.8437 40.1263 40.2155 51.7288 25.9219 51.7288ZM25.9219 7.38983C15.7128 7.38983 7.40625 15.6771 7.40625 25.8644C7.40625 36.0518 15.7128 44.339 25.9219 44.339C36.1309 44.339 44.4375 36.0518 44.4375 25.8644C44.4375 15.6771 36.1309 7.38983 25.9219 7.38983Z" transform="translate(370.312 354.712) scale(4)" fill="#7E5C62"/>
<path d="M40.7344 0H11.1094C4.98348 0 0 4.97243 0 11.0847V62.8136C0 64.8559 1.65622 66.5085 3.70312 66.5085C5.75003 66.5085 7.40625 64.8559 7.40625 62.8136V22.1695H22.1174V62.8136H29.5236V22.1695H44.4375V62.8136C44.4375 64.8559 46.0937 66.5085 48.1406 66.5085C50.1875 66.5085 51.8437 64.8559 51.8437 62.8136V11.0847C51.8437 4.97243 46.8603 0 40.7344 0ZM44.4375 14.7797H7.40625V11.0847C7.40625 9.04608 9.06617 7.38983 11.1094 7.38983H40.7344C42.7776 7.38983 44.4375 9.04608 44.4375 11.0847V14.7797Z" transform="translate(370.312 605.966) scale(4)" fill="#7E5C62"/>
<path d="M233.297 7.38983H3.70312C1.65622 7.38983 0 5.73728 0 3.69492C0 1.65255 1.65622 0 3.70312 0H233.297C235.344 0 237 1.65255 237 3.69492C237 5.73728 235.344 7.38983 233.297 7.38983Z" transform="translate(0 842.441) scale(4)" fill="#5C546A"/>
</svg>
