<svg width="196" height="168" viewBox="0 0 196 168" fill="none" xmlns="http://www.w3.org/2000/svg">
<path d="M5.32121 10.6331C8.26004 10.6331 10.6424 8.25278 10.6424 5.31654C10.6424 2.3803 8.26004 0 5.32121 0C2.38239 0 0 2.3803 0 5.31654C0 8.25278 2.38239 10.6331 5.32121 10.6331Z" transform="translate(69.9639 31.6663)" fill="#C68E5C"/>
<path d="M5.32121 10.6331C8.26004 10.6331 10.6424 8.25278 10.6424 5.31654C10.6424 2.3803 8.26004 0 5.32121 0C2.38239 0 -4.74293e-06 2.3803 -4.74293e-06 5.31654C-4.74293e-06 8.25278 2.38239 10.6331 5.32121 10.6331Z" transform="translate(113.836 31.6663)" fill="#C68E5C"/>
<path d="M43.8008 26.2322C43.8008 37.1989 35.7206 43.597 25.1832 44.6825C24.1147 44.7975 23.0175 44.8514 21.9022 44.8514C20.7869 44.8514 19.6897 44.7939 18.6176 44.6825C18.0815 44.6286 17.5491 44.5603 17.0275 44.4776C7.27795 42.9356 -1.71273e-06 36.6417 -1.71273e-06 26.2322C-1.71273e-06 23.8635 0.374153 21.4193 1.07209 19.0182C2.19094 15.1506 4.13724 11.3944 6.67715 8.25643C6.95776 7.90777 7.24917 7.5627 7.54777 7.22842C11.3936 2.91509 16.4159 -4.93621e-07 21.9022 -4.93621e-07C33.9973 -4.93621e-07 43.8008 14.1477 43.8008 26.2322Z" transform="translate(75.3193 12.0198)" fill="#D8A166"/>
<path d="M8.60115 8.77549e-07C8.60115 3.48553 6.67571 6.31112 4.30057 6.31112C1.92544 6.31112 2.32755e-06 3.48553 2.32755e-06 8.77549e-07H8.60115Z" transform="translate(92.9219 40.7305)" fill="white"/>
<path d="M5.21221 1.79722C5.21221 1.79722 5.1032 1.78284 4.93231 1.73612C4.84813 1.70808 4.74092 1.68579 4.63407 1.66818C4.5265 1.64661 4.41714 1.62073 4.28546 1.60132C4.16135 1.57401 4.02823 1.5528 3.89081 1.53518C3.75841 1.50571 3.61163 1.50643 3.4742 1.47983C3.32922 1.4766 3.18855 1.45216 3.04249 1.45108C2.89823 1.43886 2.75181 1.44317 2.6061 1.43742C2.4604 1.44353 2.31434 1.44029 2.17007 1.45215C2.02401 1.45467 1.88335 1.47696 1.73872 1.48163C1.60129 1.50823 1.45451 1.50787 1.32248 1.53734C1.18505 1.5546 1.05194 1.5758 0.927824 1.60312C0.797951 1.62073 0.682468 1.65093 0.572741 1.67465C0.461575 1.69622 0.359043 1.71455 0.278816 1.73863C0.112967 1.78033 -1.18573e-06 1.79758 -1.18573e-06 1.79758C-1.18573e-06 1.79758 0.0212272 1.6937 0.0903012 1.52332C0.123399 1.43634 0.169449 1.33354 0.239962 1.2293C0.307237 1.12111 0.38926 1.00033 0.498627 0.888546C0.551872 0.830676 0.610513 0.772804 0.671673 0.711698C0.73643 0.657422 0.806944 0.605304 0.879615 0.549231C1.02388 0.433849 1.19692 0.351178 1.3768 0.258801C1.5628 0.18835 1.75815 0.105316 1.96753 0.0722474C2.17403 0.0183307 2.39097 0.0140187 2.60647 3.94897e-07C2.82196 0.0140187 3.03853 0.0194112 3.24539 0.0733279C3.45442 0.107834 3.65013 0.189067 3.83576 0.260597C4.01528 0.352974 4.18869 0.436005 4.33259 0.551027C4.40526 0.6071 4.47578 0.658502 4.54053 0.713497C4.60169 0.774603 4.66069 0.831753 4.71358 0.889983C4.82115 0.999973 4.90965 1.12506 4.97872 1.23505C5.05355 1.34288 5.09492 1.44209 5.12406 1.52512C5.18702 1.69046 5.21221 1.79722 5.21221 1.79722Z" transform="translate(84.6885 33.4275)" fill="black"/>
<path d="M5.21221 1.79722C5.21221 1.79722 5.1032 1.78284 4.93232 1.73612C4.84813 1.70808 4.74092 1.68579 4.63407 1.66818C4.5265 1.64661 4.41714 1.62073 4.28547 1.60132C4.16135 1.57401 4.02823 1.5528 3.8908 1.53518C3.75841 1.50571 3.61163 1.50643 3.47421 1.47983C3.32922 1.4766 3.18855 1.45216 3.04249 1.45108C2.89823 1.43886 2.75181 1.44317 2.60611 1.43742C2.4604 1.44353 2.31434 1.44029 2.17007 1.45215C2.02401 1.45467 1.88334 1.47696 1.73872 1.48163C1.60129 1.50823 1.45451 1.50787 1.32247 1.53734C1.18505 1.5546 1.05194 1.5758 0.927822 1.60312C0.797948 1.62073 0.682466 1.65093 0.572739 1.67465C0.461573 1.69622 0.359035 1.71455 0.278809 1.73863C0.112959 1.78033 2.23972e-06 1.79758 2.23972e-06 1.79758C2.23972e-06 1.79758 0.0212252 1.6937 0.0902991 1.52332C0.123397 1.43634 0.169452 1.33354 0.239965 1.2293C0.30724 1.12111 0.389263 1.00033 0.49863 0.888546C0.551875 0.830676 0.610511 0.772804 0.671671 0.711698C0.736427 0.657422 0.806942 0.605304 0.879613 0.549231C1.02388 0.433849 1.19692 0.351178 1.3768 0.258801C1.56279 0.18835 1.75814 0.105316 1.96752 0.0722474C2.17403 0.0183307 2.39096 0.0140187 2.60646 3.94897e-07C2.82195 0.0140187 3.03853 0.0194112 3.24539 0.0733279C3.45441 0.107834 3.65013 0.189067 3.83577 0.260597C4.01529 0.352974 4.18868 0.436005 4.33259 0.551027C4.40526 0.6071 4.47577 0.658502 4.54053 0.713497C4.60169 0.774603 4.6607 0.831753 4.71358 0.889983C4.82115 0.999973 4.90965 1.12506 4.97873 1.23505C5.05356 1.34288 5.09493 1.44209 5.12407 1.52512C5.18702 1.69046 5.21221 1.79722 5.21221 1.79722Z" transform="translate(104.544 33.4275)" fill="black"/>
<path d="M7.9471 5.39885C7.9471 8.94656 5.65183 11.8257 2.82412 11.8257C1.78081 11.8257 0.809463 11.4339 2.23972e-06 10.7618C1.11886 6.89414 3.06515 3.13795 5.60506 -5.48468e-08C7.01532 1.14663 7.9471 3.13795 7.9471 5.39885Z" transform="translate(76.3926 20.2761)" fill="#333333"/>
<path d="M5.09426e-06 5.39885C5.09426e-06 8.94656 2.29527 11.8257 5.12299 11.8257C6.16629 11.8257 7.13765 11.4339 7.94711 10.7618C6.82825 6.89414 4.88194 3.13795 2.34204 -5.48468e-08C0.931777 1.14663 5.09426e-06 3.13795 5.09426e-06 5.39885Z" transform="translate(110.095 20.2761)" fill="#333333"/>
<path d="M44.0023 2.59878C43.8008 3.79214 43.5957 4.98549 43.3871 6.17525C42.6208 10.5605 41.8149 14.9313 40.9659 19.295C40.6349 20.9879 40.3003 22.6773 39.9586 24.3667C28.1764 21.3438 15.8223 21.3438 4.04011 24.3667C3.69833 22.6773 3.36376 20.9879 3.03278 19.295C2.18734 14.9313 1.37788 10.5605 0.615187 6.17525C0.406526 4.98549 0.201466 3.79214 4.83076e-07 2.59878C14.4624 -0.86626 29.5399 -0.86626 44.0023 2.59878Z" transform="translate(75.1758)" fill="#939799"/>
<path d="M42.7719 1.20234C42.0056 5.58756 41.1997 9.9584 40.3507 14.3221C27.8958 12.665 14.8761 12.665 2.41759 14.3221C1.57215 9.9584 0.762689 5.58756 -2.59105e-06 1.20234C14.099 -0.40078 28.6693 -0.40078 42.7719 1.20234Z" transform="translate(75.792 4.9729)" fill="#FBB03B"/>
<path d="M165.116 39.7114C165.157 40.8113 165.084 41.9004 164.906 42.9751C164.591 44.9269 163.929 46.832 162.96 48.6867C162.427 49.6967 159.091 49.5278 159.091 48.489V48.4099C159.091 46.5228 158.743 44.7077 158.073 42.9751C157.637 41.8213 157.055 40.7035 156.336 39.6215C150.488 30.7936 135.755 24.3811 116.402 21.0095C116.959 24.7909 117.791 31.4334 118.211 39.6215C118.268 40.7106 118.316 41.8321 118.357 42.9751C118.849 57.4104 117.904 75.7205 112.218 91.6187C110.384 96.73 108.066 101.593 105.142 105.996C103.785 108.045 102.299 109.993 100.667 111.823C100.021 112.553 97.6062 112.42 97.3719 111.64C96.9438 110.209 96.3703 108.279 95.7241 105.996C94.5852 102.025 93.204 96.9816 91.8713 91.6187C89.3027 81.2559 86.928 69.7106 86.928 62.4283H78.5356C78.5356 69.7106 76.1609 81.2559 73.5843 91.6187C72.2515 96.9816 70.8703 102.025 69.7314 105.996C69.0852 108.279 68.5117 110.209 68.0836 111.64C67.8575 112.42 65.4423 112.553 64.7961 111.823C63.1645 109.993 61.6783 108.045 60.3213 105.996C57.3973 101.593 55.0791 96.73 53.2456 91.6187C47.5592 75.7205 46.6141 57.4104 47.1069 42.9751C47.1472 41.8321 47.1957 40.7106 47.2522 39.6215C47.6723 31.3903 48.5123 24.719 49.0696 20.9484C29.5468 24.3056 14.6684 30.7397 8.78811 39.6215C8.06923 40.7035 7.48766 41.8213 7.05148 42.9751C6.38107 44.7077 6.03375 46.5228 6.03375 48.4099V48.489C6.04182 49.5242 2.71397 49.7183 2.18087 48.7083C1.20352 46.8464 0.541182 44.9341 0.21809 42.9751C0.0726983 42.0873 -8.87399e-07 41.1923 -8.87399e-07 40.2901C-8.87399e-07 40.0672 0.00807987 39.8444 0.0161572 39.6215C0.710805 22.1705 28.7714 7.68492 65.9027 4.29895C70.5149 3.8784 74.1254 2.27888 75.0866 0.230044L75.1916 0C77.5987 0.111428 80.0623 0.168939 82.5662 0.168939C85.0702 0.168939 87.5338 0.115022 89.9327 0L90.062 0.273176C91.0151 2.30763 94.5772 3.89637 99.1489 4.3349C135.666 7.83229 164.422 22.6019 165.108 39.6215C165.116 39.6503 165.116 39.6826 165.116 39.7114Z" transform="translate(15.1387 55.6963)" fill="#D8A166"/>
<path opacity="0.29" d="M21.1706 2.83961C17.8832 3.38956 14.3292 3.68789 10.6136 3.68789C6.88187 3.68789 3.30362 3.38597 5.916e-07 2.83242C1.55892 2.13151 2.66552 1.23289 3.134 0.230044L3.239 0C5.64604 0.111428 8.10962 0.168939 10.6136 0.168939C13.1176 0.168939 15.5811 0.115022 17.9801 0L18.1093 0.273176C18.5697 1.26165 19.6521 2.14228 21.1706 2.83961Z" transform="translate(87.0742 55.6963)" fill="#4D4D4D"/>
<path d="M165.092 35.0997H150.055C144.704 26.2718 135.739 19.8593 116.386 16.4877C117.953 27.1344 121.717 60.4944 112.194 87.0969C112.008 87.6109 111.822 88.1213 111.628 88.6317C111.459 89.081 111.281 89.5268 111.103 89.9725H54.3279C54.1502 89.5268 53.9725 89.081 53.8029 88.6317C53.706 88.3765 53.6091 88.1213 53.5121 87.8661C53.4152 87.6109 53.3263 87.3521 53.2375 87.0969C43.6901 60.4441 47.4865 27.0086 49.0535 16.4266C29.5306 19.7838 20.4178 26.2179 15.0367 35.0997H2.5636e-06C0.565414 20.8657 19.3371 8.61228 46.396 2.73896C50.677 1.808 55.168 1.0388 59.8205 0.445713C61.0967 0.283963 62.381 0.136589 63.6734 6.58162e-07C64.6184 4.2702 72.7038 7.60584 82.55 7.60584C92.3478 7.60584 100.417 4.29895 101.411 0.0539151C102.703 0.194098 103.987 0.352255 105.255 0.521194C109.859 1.13584 114.31 1.93022 118.567 2.88274C145.375 8.88546 164.535 21.2432 165.092 35.0997Z" transform="translate(15.1455 60.218)" fill="#939799"/>
<path d="M18.5051 5.26529e-06C18.077 1.65345 17.6651 3.26016 17.2531 4.79499C16.5908 7.23921 15.9607 9.50371 15.3873 11.5022H5.97721C4.56368 9.36712 3.28747 7.12419 2.14049 4.79499C1.36507 3.23141 0.65426 1.63188 -1.8734e-06 5.26529e-06H18.5051Z" transform="translate(69.4824 150.191)" fill="#FFC373"/>
<path d="M18.5132 5.26529e-06C17.859 1.63188 17.1482 3.23141 16.3727 4.79499C15.2258 7.12419 13.9495 9.36712 12.536 11.5022H3.11784C2.54435 9.50371 1.91432 7.23921 1.25198 4.79499C0.840039 3.26016 0.428092 1.65345 -5.81741e-06 5.26529e-06H18.5132Z" transform="translate(107.72 150.191)" fill="#FFC373"/>
<path d="M72.1708 2.88274C67.9141 1.93022 63.4635 1.13584 58.8594 0.521193C57.5913 0.352255 56.307 0.194098 55.0146 0.0539151C54.0211 4.29895 45.9519 7.60584 36.1541 7.60584C26.3078 7.60584 18.2224 4.2702 17.2774 6.58162e-07C15.985 0.136589 14.7007 0.283963 13.4245 0.445713C8.77197 1.0388 4.28098 1.808 4.5356e-06 2.73896C4.69697 7.47644 13.9649 11.1155 25.3159 12.5543V31.7436C25.3159 34.3905 30.1373 36.5361 36.0854 36.5361C42.0335 36.5361 46.8549 34.3902 46.8549 31.7436V12.5719C58.1567 11.1604 67.4093 7.57061 72.1708 2.88274Z" transform="translate(61.5654 60.218)" fill="#FBB03B"/>
<path d="M41.5901 0.0539151C40.5966 4.29895 32.5274 7.60584 22.7296 7.60584C12.8833 7.60584 4.79793 4.2702 3.85289 6.58162e-07C2.56052 0.136589 1.27622 0.283963 5.91601e-07 0.445713C1.41353 5.46715 11.074 9.36352 22.7296 9.36352C34.3286 9.36352 43.9487 5.50668 45.4349 0.521194C44.1668 0.352255 42.8825 0.194098 41.5901 0.0539151Z" transform="translate(74.9688 60.218)" fill="#555160"/>
<path d="M4.84639 0H0V23.5785H4.84639V0Z" transform="translate(95.2812 69.5818)" fill="#555160"/>
<path opacity="0.29" d="M-1.8734e-06 5.26529e-06H18.5051C18.077 1.65345 17.6651 3.26016 17.2531 4.79499H2.14049C1.36507 3.23141 0.65426 1.63188 -1.8734e-06 5.26529e-06Z" transform="translate(69.4824 150.191)" fill="#4D4D4D"/>
<path opacity="0.29" d="M18.5132 5.26529e-06C17.859 1.63188 17.1482 3.23141 16.3727 4.79499H1.25198C0.840039 3.26016 0.428092 1.65345 -5.81741e-06 5.26529e-06H18.5132Z" transform="translate(107.72 150.191)" fill="#4D4D4D"/>
<path opacity="0.29" d="M0.0161572 3.94897e-06H8.78813C8.06925 1.08193 7.48767 2.1998 7.0515 3.35361H0.21809C0.0726985 2.46579 -8.87401e-07 1.57077 -8.87401e-07 0.668565C-8.87401e-07 0.445709 0.00807989 0.222859 0.0161572 3.94897e-06Z" transform="translate(15.1387 95.3179)" fill="#4D4D4D"/>
<path opacity="0.29" d="M8.78004 0.089865C8.82042 1.18976 8.74772 2.27888 8.57002 3.35361H1.73662C1.30044 2.1998 0.718882 1.08193 1.5776e-06 3.94897e-06H8.77195C8.78003 0.0287595 8.78004 0.0611095 8.78004 0.089865Z" transform="translate(171.434 95.3179)" fill="#4D4D4D"/>
<path d="M0.394085 1.8871L9.63735 0.0100286C9.91137 -0.0463051 10.1671 0.141426 10.2219 0.404222L13.8389 18.1237C13.8937 18.4052 13.711 18.668 13.4552 18.7243L4.19369 20.6014C3.91967 20.6577 3.66392 20.47 3.60914 20.2072L0.0105066 2.48781C-0.0443168 2.20623 0.120107 1.94344 0.394085 1.8871Z" transform="matrix(-0.884274 0.466968 -0.471981 -0.881609 194.384 111.212)" fill="#2B8272"/>
<path d="M9.15427 4.43222L8.31397 0.208855C8.29569 0.0774576 8.14954 -0.0163844 8.02167 0.00239355L0.203256 1.5979C0.075381 1.61667 -0.015945 1.76685 0.00232948 1.89825L0.84263 6.12161C0.860905 6.25301 1.00705 6.34685 1.13493 6.32807C1.2628 6.30929 1.35413 6.15912 1.33586 6.02772L0.550378 2.04838L7.87557 0.546715L8.66104 4.52606C8.67932 4.65746 8.82547 4.7513 8.95334 4.73252C9.08122 4.69501 9.17254 4.56361 9.15427 4.43222Z" transform="matrix(-0.884274 0.466968 -0.471981 -0.881609 193.047 110.784)" fill="#4B9587"/>
<path d="M0.439556 0.939806L9.82897 0.00129143C10.103 -0.0174865 10.3405 0.170245 10.377 0.45177L12.6239 19.3725C12.6421 19.6541 12.4594 19.8981 12.1855 19.9169L2.79604 20.8554C2.52201 20.8742 2.28454 20.6864 2.24803 20.4049L0.00115457 1.48413C-0.0171199 1.22133 0.183853 0.958536 0.439556 0.939806Z" transform="matrix(-0.884274 0.466968 -0.471981 -0.881609 193.283 114.054)" fill="#359685"/>
<path d="M8.42324 0.227295C8.40496 0.0958977 8.29536 -0.0167222 8.14922 0.00205575L0.221201 0.790394C0.0933263 0.809172 -0.0162741 0.921792 0.00200041 1.07197L0.422128 5.37044C0.440402 5.50184 0.550003 5.61446 0.696152 5.59568C0.824027 5.5769 0.933627 5.46428 0.915353 5.31411L0.531728 1.27843L7.96652 0.546377L8.35014 4.58205C8.36842 4.71345 8.47802 4.82607 8.62417 4.80729C8.75204 4.78852 8.86164 4.6759 8.84337 4.52572C8.84341 4.52577 8.42324 0.227295 8.42324 0.227295Z" transform="matrix(-0.884274 0.466968 -0.471981 -0.881609 192.002 113.671)" fill="#53A697"/>
<path d="M0.511499 0H10.1018C10.3759 0 10.6133 0.22524 10.6133 0.525591V20.1408C10.6133 20.4224 10.3941 20.6664 10.1018 20.6664H0.511499C0.237475 20.6664 -2.77431e-07 20.4412 -2.77431e-07 20.1408V0.525591C4.61045e-05 0.22524 0.219247 0 0.511499 0Z" transform="matrix(-0.884274 0.466968 -0.471981 -0.881609 191.161 116.787)" fill="#3DB39E"/>
<path d="M0.730747 9.38528C0.730747 11.4688 2.3748 13.1394 4.3842 13.1394C6.39361 13.1394 8.03766 11.45 8.03766 9.38528C8.03766 7.32053 6.39361 5.63118 4.3842 5.63118C2.3748 5.63118 0.730747 7.32053 0.730747 9.38528ZM2.42958 9.29144H2.7036C2.75842 8.82219 3.01413 8.46555 3.28815 8.31537C3.3247 8.29659 3.37948 8.27782 3.41603 8.27782C3.56218 8.27782 3.67178 8.39044 3.67178 8.52183C3.67178 8.63445 3.61695 8.69079 3.56218 8.7283C3.36125 8.93476 3.19683 9.17878 3.19683 9.51668C3.19683 9.94838 3.34298 10.1549 3.63523 10.1549C4.34765 10.1549 4.01885 8.40921 5.18795 8.40921C5.62636 8.40921 5.99171 8.67201 6.06481 9.29144H6.33883C6.46671 9.29144 6.57631 9.38528 6.57631 9.51668C6.57631 9.64808 6.46671 9.74192 6.33883 9.74192H6.06481C6.00998 10.1173 5.86388 10.4364 5.6264 10.6054C5.58985 10.6429 5.53508 10.6617 5.46198 10.6617C5.31583 10.6617 5.20623 10.5491 5.20623 10.3989C5.20623 10.3238 5.24278 10.2675 5.31583 10.1924C5.46198 10.0423 5.57158 9.79826 5.57158 9.51673C5.57158 9.12254 5.38893 8.97236 5.18795 8.97236C4.54858 8.97236 4.84088 10.718 3.63523 10.718C3.10545 10.718 2.75838 10.3802 2.68533 9.74197H2.4113C2.28343 9.74197 2.17383 9.64813 2.17383 9.51673C2.1921 9.38528 2.3017 9.29144 2.42958 9.29144ZM8.49434 15.0165C8.34819 15.0165 8.22031 15.1479 8.22031 15.298V18.2075H0.548049V15.298C0.548049 15.1479 0.420174 15.0165 0.274024 15.0165C0.127875 15.0165 -2.1515e-07 15.1479 -2.1515e-07 15.298V18.489C-2.1515e-07 18.6392 0.127875 18.7706 0.274024 18.7706H8.49434C8.64049 18.7706 8.76836 18.6392 8.76836 18.489V15.298C8.76836 15.1479 8.64049 15.0165 8.49434 15.0165ZM8.49434 -2.69075e-08H0.274071C0.127922 -2.69075e-08 4.64951e-05 0.131398 4.64951e-05 0.281573V3.47258C4.64951e-05 3.62275 0.127922 3.75415 0.274071 3.75415C0.42022 3.75415 0.548095 3.62275 0.548095 3.47258V0.563147H8.22036V3.47258C8.22036 3.62275 8.34823 3.75415 8.49438 3.75415C8.64053 3.75415 8.76841 3.62275 8.76841 3.47258V0.281573C8.76836 0.131398 8.64049 -2.69075e-08 8.49434 -2.69075e-08ZM3.8362 15.7673C3.8362 16.0864 4.07368 16.3304 4.3842 16.3304C4.69473 16.3304 4.93221 16.0864 4.93221 15.7673C4.93221 15.4482 4.69473 15.2042 4.3842 15.2042C4.07368 15.2042 3.8362 15.467 3.8362 15.7673ZM4.93221 3.00332C4.93221 2.68424 4.69473 2.44022 4.3842 2.44022C4.07368 2.44022 3.8362 2.68424 3.8362 3.00332C3.8362 3.3224 4.07368 3.56642 4.3842 3.56642C4.69473 3.56642 4.93221 3.3224 4.93221 3.00332Z" transform="matrix(-0.884274 0.466968 -0.471981 -0.881609 189.616 117.342)" fill="#81CEC0"/>
<path d="M0.393966 1.88769L9.63443 0.0100317C9.90838 -0.0463196 10.164 0.141471 10.2188 0.404348L13.8347 18.1293C13.8895 18.411 13.7068 18.6739 13.4512 18.7302L4.19242 20.6078C3.91848 20.6642 3.66281 20.4764 3.60805 20.2135L0.0105035 2.48858C-0.0443034 2.20692 0.120071 1.94404 0.393966 1.88769Z" transform="matrix(0.858718 0.512448 0.517632 -0.855604 1.77344 112.236)" fill="#2B8272"/>
<path d="M9.1515 4.4336L8.31145 0.20892C8.29318 0.0774817 8.14708 -0.0163895 8.01924 0.0023943L0.203194 1.5984C0.0753582 1.61718 -0.0159402 1.7674 0.00232877 1.89884L0.842376 6.12352C0.860644 6.25496 1.00675 6.34883 1.13459 6.33005C1.26242 6.31126 1.35372 6.16104 1.33545 6.0296L0.550212 2.04901L7.87318 0.546885L8.65842 4.52747C8.67669 4.65891 8.8228 4.75278 8.95063 4.734C9.07847 4.69648 9.16977 4.56504 9.1515 4.4336Z" transform="matrix(0.858718 0.512448 0.517632 -0.855604 3.13086 111.879)" fill="#4B9587"/>
<path d="M0.439423 0.940099L9.826 0.00129183C10.0999 -0.0174919 10.3373 0.170298 10.3738 0.451911L12.62 19.3786C12.6383 19.6602 12.4557 19.9043 12.1818 19.9231L2.79519 20.8619C2.52125 20.8807 2.28384 20.6929 2.24735 20.4113L0.00115422 1.48459C-0.0171147 1.22171 0.183797 0.958835 0.439423 0.940099Z" transform="matrix(0.858718 0.512448 0.517632 -0.855604 2.72168 115.132)" fill="#359685"/>
<path d="M8.42069 0.227366C8.40242 0.0959276 8.29286 -0.0167274 8.14675 0.00205639L0.221134 0.790641C0.0932981 0.809425 -0.0162691 0.92208 0.00199981 1.0723L0.422 5.37212C0.440269 5.50356 0.549836 5.61621 0.695942 5.59743C0.823778 5.57864 0.933345 5.46599 0.915076 5.31577L0.531568 1.27883L7.96411 0.546547L8.34762 4.58349C8.36589 4.71492 8.47545 4.82758 8.62156 4.8088C8.74939 4.79001 8.85896 4.67736 8.84069 4.52713C8.84074 4.52718 8.42069 0.227366 8.42069 0.227366Z" transform="matrix(0.858718 0.512448 0.517632 -0.855604 4.02246 114.815)" fill="#53A697"/>
<path d="M0.511345 0H10.0988C10.3727 0 10.6101 0.22531 10.6101 0.525755V20.1471C10.6101 20.4288 10.391 20.6729 10.0988 20.6729H0.511345C0.237403 20.6729 -2.77347e-07 20.4476 -2.77347e-07 20.1471V0.525755C4.60905e-05 0.22531 0.219181 0 0.511345 0Z" transform="matrix(0.858718 0.512448 0.517632 -0.855604 4.69727 117.971)" fill="#3DB39E"/>
<path d="M0.730526 9.38821C0.730526 11.4724 2.37408 13.1435 4.38288 13.1435C6.39167 13.1435 8.03523 11.4536 8.03523 9.38821C8.03523 7.32281 6.39167 5.63294 4.38288 5.63294C2.37408 5.63294 0.730526 7.32281 0.730526 9.38821ZM2.42884 9.29434H2.70278C2.75759 8.82494 3.01322 8.46819 3.28716 8.31797C3.3237 8.29918 3.37846 8.2804 3.41499 8.2804C3.5611 8.2804 3.67067 8.39306 3.67067 8.52449C3.67067 8.63715 3.61586 8.6935 3.5611 8.73102C3.36023 8.93755 3.19586 9.18164 3.19586 9.51965C3.19586 9.95149 3.34196 10.1581 3.63413 10.1581C4.34634 10.1581 4.01764 8.41184 5.18639 8.41184C5.62465 8.41184 5.98989 8.67472 6.06297 9.29434H6.33691C6.46475 9.29434 6.57432 9.38821 6.57432 9.51965C6.57432 9.65109 6.46475 9.74496 6.33691 9.74496H6.06297C6.00816 10.1205 5.8621 10.4397 5.6247 10.6087C5.58816 10.6463 5.5334 10.665 5.46033 10.665C5.31422 10.665 5.20466 10.5524 5.20466 10.4022C5.20466 10.3271 5.24119 10.2707 5.31422 10.1956C5.46033 10.0454 5.56989 9.80131 5.56989 9.5197C5.56989 9.12538 5.3873 8.97516 5.18639 8.97516C4.5472 8.97516 4.83942 10.7214 3.63413 10.7214C3.10451 10.7214 2.75754 10.3834 2.68451 9.74501H2.41057C2.28274 9.74501 2.17317 9.65114 2.17317 9.5197C2.19144 9.38821 2.30101 9.29434 2.42884 9.29434ZM8.49177 15.0212C8.34566 15.0212 8.21783 15.1526 8.21783 15.3028V18.2132H0.547883V15.3028C0.547883 15.1526 0.420047 15.0212 0.273941 15.0212C0.127836 15.0212 -2.15085e-07 15.1526 -2.15085e-07 15.3028V18.4948C-2.15085e-07 18.645 0.127836 18.7765 0.273941 18.7765H8.49177C8.63787 18.7765 8.76571 18.645 8.76571 18.4948V15.3028C8.76571 15.1526 8.63787 15.0212 8.49177 15.0212ZM8.49177 -2.69159e-08H0.273988C0.127883 -2.69159e-08 4.64811e-05 0.131439 4.64811e-05 0.281661V3.47366C4.64811e-05 3.62389 0.127883 3.75532 0.273988 3.75532C0.420093 3.75532 0.547929 3.62389 0.547929 3.47366V0.563322H8.21787V3.47366C8.21787 3.62389 8.34571 3.75532 8.49181 3.75532C8.63792 3.75532 8.76575 3.62389 8.76575 3.47366V0.281661C8.76571 0.131439 8.63787 -2.69159e-08 8.49177 -2.69159e-08ZM3.83504 15.7722C3.83504 16.0914 4.07244 16.3355 4.38288 16.3355C4.69331 16.3355 4.93071 16.0914 4.93071 15.7722C4.93071 15.453 4.69331 15.2089 4.38288 15.2089C4.07244 15.2089 3.83504 15.4718 3.83504 15.7722ZM4.93071 3.00426C4.93071 2.68508 4.69331 2.44098 4.38288 2.44098C4.07244 2.44098 3.83504 2.68508 3.83504 3.00426C3.83504 3.32344 4.07244 3.56753 4.38288 3.56753C4.69331 3.56753 4.93071 3.32344 4.93071 3.00426Z" transform="matrix(0.858718 0.512448 0.517632 -0.855604 5.9668 117.636)" fill="#81CEC0"/>
</svg>
