<svg width="116" height="89" viewBox="0 0 116 89" fill="none" xmlns="http://www.w3.org/2000/svg">
<path d="M202.286 0H0V140.878H202.286V0Z" transform="translate(7.22461 16.2551) scale(0.5)" fill="#FFE1B2"/>
<path d="M202.286 0H0V21.6735H202.286V0Z" transform="translate(7.22461 75.8571) scale(0.5)" fill="#FFB980"/>
<path d="M202.286 0H0V25.2857H202.286V0Z" transform="translate(7.22461 12.6429) scale(0.5)" fill="#FFB980"/>
<path d="M54.1837 0H3.61224C1.61738 0 0 1.61738 0 3.61224V111.98H57.7959V3.61224C57.7959 1.61738 56.1785 0 54.1837 0Z" transform="translate(16.2549 28.8979) scale(0.5)" fill="#7E5C62"/>
<path d="M227.571 7.22449H3.61224C1.61558 7.22449 0 5.60891 0 3.61224C0 1.61558 1.61558 0 3.61224 0H227.571C229.568 0 231.184 1.61558 231.184 3.61224C231.184 5.60891 229.568 7.22449 227.571 7.22449Z" transform="translate(0 84.8878) scale(0.5)" fill="#5C546A"/>
<path d="M3.61224 14.449C1.61558 14.449 0 12.8334 0 10.8367V3.61224C0 1.61558 1.61558 0 3.61224 0C5.60891 0 7.22449 1.61558 7.22449 3.61224V10.8367C7.22449 12.8334 5.60891 14.449 3.61224 14.449Z" transform="translate(37.9287 55.9898) scale(0.5)" fill="#5C546A"/>
<path d="M10.8367 43.3469C4.8517 43.3469 0 38.4952 0 32.5102V7.22449C0 3.23431 3.23431 0 7.22449 0H21.6735V32.5102C21.6735 38.4952 16.8218 43.3469 10.8367 43.3469Z" transform="translate(3.6123) scale(0.5)" fill="#FF4F19"/>
<path d="M10.8367 43.3469C4.8517 43.3469 0 38.4952 0 32.5102V0H21.6735V32.5102C21.6735 38.4952 16.8218 43.3469 10.8367 43.3469Z" transform="translate(14.4492) scale(0.5)" fill="#E9001E"/>
<path d="M10.8367 43.3469C4.8517 43.3469 0 38.4952 0 32.5102V0H21.6735V32.5102C21.6735 38.4952 16.8218 43.3469 10.8367 43.3469Z" transform="translate(25.2861) scale(0.5)" fill="#FF4F19"/>
<path d="M10.8367 43.3469C4.8517 43.3469 0 38.4952 0 32.5102V0H21.6735V32.5102C21.6735 38.4952 16.8218 43.3469 10.8367 43.3469Z" transform="translate(36.1221) scale(0.5)" fill="#E9001E"/>
<path d="M10.8367 43.3469C4.8517 43.3469 0 38.4952 0 32.5102V0H21.6735V32.5102C21.6735 38.4952 16.8218 43.3469 10.8367 43.3469Z" transform="translate(46.959) scale(0.5)" fill="#FF4F19"/>
<path d="M10.8367 43.3469C4.8517 43.3469 0 38.4952 0 32.5102V0H21.6735V32.5102C21.6735 38.4952 16.8218 43.3469 10.8367 43.3469Z" transform="translate(57.7959) scale(0.5)" fill="#E9001E"/>
<path d="M10.8367 43.3469C4.8517 43.3469 0 38.4952 0 32.5102V0H21.6735V32.5102C21.6735 38.4952 16.8218 43.3469 10.8367 43.3469Z" transform="translate(68.6328) scale(0.5)" fill="#FF4F19"/>
<path d="M10.8367 43.3469C4.8517 43.3469 0 38.4952 0 32.5102V0H21.6735V32.5102C21.6735 38.4952 16.8218 43.3469 10.8367 43.3469Z" transform="translate(79.4697) scale(0.5)" fill="#E9001E"/>
<path d="M10.8367 43.3469C4.8517 43.3469 0 38.4952 0 32.5102V0H21.6735V32.5102C21.6735 38.4952 16.8218 43.3469 10.8367 43.3469Z" transform="translate(90.3057) scale(0.5)" fill="#FF4F19"/>
<path d="M10.8367 43.3469C4.8517 43.3469 0 38.4952 0 32.5102V0H14.449C18.4392 0 21.6735 3.23431 21.6735 7.22449V32.5102C21.6735 38.4952 16.8218 43.3469 10.8367 43.3469Z" transform="translate(101.143) scale(0.5)" fill="#E9001E"/>
<path d="M93.9184 0H3.61224C1.61738 0 0 1.61738 0 3.61225V75.8571C0 77.852 1.61738 79.4694 3.61224 79.4694H93.9184C95.9132 79.4694 97.5306 77.852 97.5306 75.8571V3.61225C97.5306 1.61738 95.9132 0 93.9184 0Z" transform="translate(52.3779 30.7041) scale(0.5)" fill="#53DCFF"/>
<path d="M77.7608 79.4694H96.9111C98.906 79.4694 100.523 77.852 100.523 75.8571V71.5812L28.9422 0H2.99274C1.71266 0 0.641622 0.704386 -2.70081e-06 1.70859L77.7608 79.4694Z" transform="translate(50.8809 30.7041) scale(0.5)" fill="#B3F4FF"/>
<path d="M-4.29924e-06 0L51.4478 51.4479V36.1224L15.3254 0H-4.29924e-06Z" transform="translate(75.4189 30.7041) scale(0.5)" fill="white"/>
<path d="M97.5306 86.6939H7.22449C3.24199 86.6939 0 83.4519 0 79.4694V7.22449C0 3.24199 3.24199 0 7.22449 0H97.5306C101.513 0 104.755 3.24199 104.755 7.22449V79.4694C104.755 83.4519 101.513 86.6939 97.5306 86.6939ZM7.22449 7.22449V79.4694H97.5378L97.5306 7.22449H7.22449Z" transform="translate(50.5713 28.8979) scale(0.5)" fill="#7E5C62"/>
<path d="M39.7347 39.7347H3.61224C1.61738 39.7347 0 38.1173 0 36.1225V3.61225C0 1.61738 1.61738 0 3.61224 0H39.7347C41.7296 0 43.3469 1.61738 43.3469 3.61225V36.1225C43.3469 38.1173 41.7296 39.7347 39.7347 39.7347Z" transform="translate(19.8672 32.5102) scale(0.5)" fill="#53DCFF"/>
<path d="M21.7182 0H3.61224C1.61738 0 0 1.61738 0 3.61225V8.93308L30.8016 39.7347H39.7347C41.7296 39.7347 43.3469 38.1173 43.3469 36.1225V21.6288L21.7182 0Z" transform="translate(19.8672 32.5102) scale(0.5)" fill="#B3F4FF"/>
</svg>
