<svg width="420" height="534" viewBox="0 0 420 534" fill="none" xmlns="http://www.w3.org/2000/svg">
<path d="M22.857 0H0V39.9997H22.857V0Z" transform="translate(308.572 248.57) scale(3)" fill="#F0BC5E"/>
<path d="M74.2852 0H0V62.8567H74.2852V0Z" transform="translate(8.57812 291.427) scale(3)" fill="#F0BC5E"/>
<path d="M72.1024 37.1426L64.4339 33.3084C63.4625 32.8226 62.8567 31.8455 62.8567 30.7541V22.857H65.7139C68.8653 22.857 71.4281 20.2942 71.4281 17.1427V5.71425C71.4281 2.56284 68.8653 0 65.7139 0H14.2856C11.1342 0 8.57137 2.56284 8.57137 5.71425V17.1427C8.57137 20.2942 11.1342 22.857 14.2856 22.857H17.1427V30.7541C17.1427 31.8455 16.537 32.8255 15.5628 33.3112L7.89709 37.1426C3.02569 39.5826 0 44.474 0 49.9197V122.856C0 127.582 3.84569 131.428 8.57137 131.428H71.4281C76.1538 131.428 79.9995 127.582 79.9995 122.856V49.9197C79.9995 44.474 76.9738 39.5826 72.1024 37.1426ZM14.2856 5.71425H22.857V11.4285H28.5712V5.71425H37.1426V11.4285H42.8569V5.71425H51.4282V11.4285H57.1425V5.71425H65.7139L65.7196 17.1427H14.2856V5.71425ZM74.2852 122.856C74.2852 124.433 73.0052 125.713 71.4281 125.713H8.57137C6.99424 125.713 5.71425 124.433 5.71425 122.856V49.9197C5.71425 46.654 7.53138 43.7169 10.4514 42.254L18.1199 38.4198C21.0399 36.9598 22.857 34.0198 22.857 30.7541V22.857H57.1425V30.7541C57.1425 34.0226 58.9596 36.9598 61.8796 38.4226L69.5481 42.2569C72.4681 43.7169 74.2852 46.654 74.2852 49.9197V122.856Z" transform="translate(0 137.142) scale(3)" fill="black"/>
<path d="M28.5712 0H11.4285V11.4285H0V28.5712H11.4285V39.9997H28.5712V28.5712H39.9997V11.4285H28.5712V0ZM34.2855 17.1427V22.857H22.857V34.2855H17.1427V22.857H5.71425V17.1427H17.1427V5.71425H22.857V17.1427H34.2855Z" transform="translate(60 325.712) scale(3)" fill="black"/>
<path d="M51.4282 5.71425V0H0V5.71425H17.1427V28.1084L14.2856 36.6798V42.8569H0V48.5711H11.4285V125.713H17.1427V137.142H22.857V174.285H28.5712V137.142H34.2855V125.713H39.9997V48.5711H51.4282V42.8569H37.1426V36.6798L34.2855 28.1084V5.71425H51.4282ZM28.5712 131.428H22.857V125.713H28.5712V131.428ZM34.2855 54.2854H22.857V59.9996H34.2855V68.571H28.5712V74.2852H34.2855V82.8566H22.857V88.5708H34.2855V97.1422H28.5712V102.856H34.2855V119.999H17.1427V48.5711H34.2855V54.2854ZM31.4284 37.6055V42.8569H19.9999V37.6055L22.857 29.0341V5.71425H28.5712V29.0341L31.4284 37.6055Z" transform="translate(265.717) scale(3)" fill="black"/>
</svg>
