<svg width="89" height="81" viewBox="0 0 89 81" fill="none" xmlns="http://www.w3.org/2000/svg">
<path d="M54.931 64.0862C54.931 79.2548 42.6341 91.5517 27.4655 91.5517C12.2969 91.5517 0 79.2548 0 64.0862C0 48.9161 12.2954 0 27.4655 0C42.6356 0 54.931 48.9161 54.931 64.0862Z" transform="scale(0.5)" fill="#50BB65"/>
<path d="M54.931 64.0862C54.931 79.2548 42.6341 91.5517 27.4655 91.5517C12.2969 91.5517 0 79.2548 0 64.0862C0 48.9161 12.2954 0 27.4655 0C42.6356 0 54.931 48.9161 54.931 64.0862Z" transform="translate(61.0352 6.10345) scale(0.5)" fill="#50BB65"/>
<path d="M28.7289 4.31514L24.4138 -2.23515e-06L14.3645 10.0493L4.31514 -2.23515e-06L6.75201e-07 4.31514L11.3127 15.6279V84.5541H17.4162V15.6279L28.7289 4.31514Z" transform="translate(6.55078 30.9643) scale(0.5)" fill="#8C6239"/>
<path d="M28.7289 4.31514L24.4138 -2.23515e-06L14.3645 10.0493L4.31514 -2.23515e-06L-2.23515e-06 4.31514L11.3127 15.6279V72.3472H17.4162V15.6279L28.7289 4.31514Z" transform="translate(67.5859 37.0677) scale(0.5)" fill="#8C6239"/>
<path d="M0 98.3449L82.3966 5.12222e-07L164.793 98.3449H0Z" transform="translate(3.05078 31.6982) scale(0.5)" fill="#C69C6D"/>
<path d="M0 67.1379L27.4655 0V67.1379H0Z" transform="translate(30.5176 47.3017) scale(0.5)" fill="#C7B299"/>
<path d="M18.3103 67.1379L0 45.7759L45.7759 0L18.3103 67.1379Z" transform="translate(21.3633 47.3018) scale(0.5)" fill="#8C6239"/>
<path d="M6.10345 0H0V6.10345H6.10345V0Z" transform="translate(48.8281 73.2414) scale(0.5)" fill="#8C6239"/>
<path d="M6.10345 0H0V6.10345H6.10345V0Z" transform="translate(48.8281 67.1379) scale(0.5)" fill="#8C6239"/>
<path d="M99.9958 3.91841L95.3145 -6.05353e-07L6.10345 106.481V99.6144H0V114.873H7.03422L99.9958 3.91841Z" transform="translate(1.52539 23.4342) scale(0.5)" fill="#754C24"/>
<path d="M99.9958 114.873V99.6144H93.8924V106.481L4.68135 -6.05353e-07L-6.05353e-07 3.91841L92.9616 114.873H99.9958Z" transform="translate(36.9766 23.4342) scale(0.5)" fill="#754C24"/>
</svg>
