<svg width="354" height="354" viewBox="0 0 354 354" fill="none" xmlns="http://www.w3.org/2000/svg">
<path d="M0 11.4194V0H28.5484V11.4194" transform="translate(148.453 5.70972) scale(2)" fill="#DFA738"/>
<path d="M34.2581 14.2742H28.5484V5.70968H5.70968V14.2742H0V2.85484C0 1.14194 1.14194 0 2.85484 0H31.4032C33.1161 0 34.2581 1.14194 34.2581 2.85484V14.2742Z" transform="translate(142.742) scale(2)" fill="black"/>
<path d="M51.3871 11.4194V5.70968L45.6774 0H5.70968L0 5.70968V11.4194" transform="translate(125.613 28.5483) scale(2)" fill="#BF7D2C"/>
<path d="M57.0968 14.2742H51.3871V9.70645L47.3903 5.70968H9.70645L5.70968 9.70645V14.2742H0V8.56452C0 7.70807 0.285482 7.1371 0.856449 6.56613L6.56613 0.856452C7.13709 0.285484 7.70807 0 8.56452 0H48.5323C49.3887 0 49.9597 0.285484 50.5307 0.856452L56.2403 6.56613C56.8113 7.1371 57.0968 7.70807 57.0968 8.56452V14.2742Z" transform="translate(119.902 22.8386) scale(2)" fill="black"/>
<path d="M8.56452 0H77.0807C81.9339 0 85.6452 3.71129 85.6452 8.56452V65.6613C85.6452 70.5145 81.9339 74.2258 77.0807 74.2258H8.56452C3.71129 74.2258 0 70.5145 0 65.6613V8.56452C0 3.71129 3.71129 0 8.56452 0Z" transform="translate(91.3555 51.3872) scale(2)" fill="#DCA046"/>
<path d="M79.9355 79.9355H11.4194C5.13871 79.9355 0 74.7968 0 68.5161V11.4194C0 5.13871 5.13871 0 11.4194 0H79.9355C86.2161 0 91.3548 5.13871 91.3548 11.4194V68.5161C91.3548 74.7968 86.2161 79.9355 79.9355 79.9355ZM11.4194 5.70968C8.27903 5.70968 5.70968 8.27903 5.70968 11.4194V68.5161C5.70968 71.6565 8.27903 74.2258 11.4194 74.2258H79.9355C83.0758 74.2258 85.6452 71.6565 85.6452 68.5161V11.4194C85.6452 8.27903 83.0758 5.70968 79.9355 5.70968H11.4194Z" transform="translate(85.6445 45.6775) scale(2)" fill="black"/>
<path d="M5.70968 0H22.8387V28.5484H5.70968C2.56935 28.5484 0 25.979 0 22.8387V5.70968C0 2.56936 2.56935 0 5.70968 0Z" transform="translate(114.195 74.2258) scale(2)" fill="#A6A6A6"/>
<path d="M25.6936 34.2581H8.56452C3.71129 34.2581 0 30.5468 0 25.6935V8.56452C0 3.71129 3.71129 0 8.56452 0H25.6936C27.4065 0 28.5484 1.14194 28.5484 2.85484V31.4032C28.5484 33.1161 27.4065 34.2581 25.6936 34.2581ZM8.56452 5.70968C6.85161 5.70968 5.70968 6.85161 5.70968 8.56452V25.6935C5.70968 27.4065 6.85161 28.5484 8.56452 28.5484H22.8387V5.70968H8.56452Z" transform="translate(108.484 68.5161) scale(2)" fill="black"/>
<path d="M17.129 28.5484H0V0H17.129C20.2694 0 22.8387 2.56936 22.8387 5.70968V22.8387C22.8387 25.979 20.2694 28.5484 17.129 28.5484Z" transform="translate(194.129 74.2258) scale(2)" fill="#A6A6A6"/>
<path d="M19.9839 34.2581H2.85484C1.14194 34.2581 0 33.1161 0 31.4032V2.85484C0 1.14194 1.14194 0 2.85484 0H19.9839C24.8371 0 28.5484 3.71129 28.5484 8.56452V25.6935C28.5484 30.5468 24.8371 34.2581 19.9839 34.2581ZM5.70968 28.5484H19.9839C21.6968 28.5484 22.8387 27.4065 22.8387 25.6935V8.56452C22.8387 6.85161 21.6968 5.70968 19.9839 5.70968H5.70968V28.5484Z" transform="translate(188.418 68.5161) scale(2)" fill="black"/>
<path d="M5.70968 11.4194C8.86304 11.4194 11.4194 8.86304 11.4194 5.70968C11.4194 2.55631 8.86304 0 5.70968 0C2.55631 0 0 2.55631 0 5.70968C0 8.86304 2.55631 11.4194 5.70968 11.4194Z" transform="translate(125.613 154.161) scale(2)" fill="#A6A6A6"/>
<path d="M8.56452 17.129C3.71129 17.129 0 13.4177 0 8.56452C0 3.71129 3.71129 0 8.56452 0C13.4177 0 17.129 3.71129 17.129 8.56452C17.129 13.4177 13.4177 17.129 8.56452 17.129ZM8.56452 5.70968C6.85161 5.70968 5.70968 6.85161 5.70968 8.56452C5.70968 10.2774 6.85161 11.4194 8.56452 11.4194C10.2774 11.4194 11.4194 10.2774 11.4194 8.56452C11.4194 6.85161 10.2774 5.70968 8.56452 5.70968Z" transform="translate(119.902 148.452) scale(2)" fill="black"/>
<path d="M5.70968 11.4194C8.86304 11.4194 11.4194 8.86304 11.4194 5.70968C11.4194 2.55631 8.86304 0 5.70968 0C2.55631 0 0 2.55631 0 5.70968C0 8.86304 2.55631 11.4194 5.70968 11.4194Z" transform="translate(205.547 154.161) scale(2)" fill="#A6A6A6"/>
<path d="M8.56452 17.129C3.71129 17.129 0 13.4177 0 8.56452C0 3.71129 3.71129 0 8.56452 0C13.4177 0 17.129 3.71129 17.129 8.56452C17.129 13.4177 13.4177 17.129 8.56452 17.129ZM8.56452 5.70968C6.85161 5.70968 5.70968 6.85161 5.70968 8.56452C5.70968 10.2774 6.85161 11.4194 8.56452 11.4194C10.2774 11.4194 11.4194 10.2774 11.4194 8.56452C11.4194 6.85161 10.2774 5.70968 8.56452 5.70968Z" transform="translate(199.84 148.452) scale(2)" fill="black"/>
<path d="M68.5161 0H0V11.4194H68.5161V0Z" transform="translate(108.484 222.677) scale(2)" fill="#BF7D2C"/>
<path d="M71.371 17.129H2.85484C1.14194 17.129 0 15.9871 0 14.2742V2.85484C0 1.14194 1.14194 0 2.85484 0H71.371C73.0839 0 74.2258 1.14194 74.2258 2.85484V14.2742C74.2258 15.9871 73.0839 17.129 71.371 17.129ZM5.70968 11.4194H68.5161V5.70968H5.70968V11.4194Z" transform="translate(102.773 216.968) scale(2)" fill="black"/>
<path d="M5.70967 2.35231e-06H-2.61368e-06V16.2726H5.70967V2.35231e-06Z" transform="translate(158.508 241.771) scale(1.99998) rotate(135)" fill="black"/>
<path d="M5.70968 0H0V16.2726H5.70968V0Z" transform="translate(192.746 241.768) scale(1.99998) rotate(135)" fill="black"/>
<path d="M5.70968 0H-2.17807e-06V16.2726H5.70968V0Z" transform="translate(227 241.759) scale(1.99998) rotate(135)" fill="black"/>
<path d="M51.3871 0L0 51.3871H171.29L119.903 0H51.3871Z" transform="translate(5.71094 245.516) scale(2)" fill="#A4A5A6"/>
<path d="M174.145 57.0968H2.85484C1.14194 57.0968 0 55.9548 0 54.2419C0 53.3855 0.285484 52.8145 0.856452 52.2435L52.2435 0.856449C52.8145 0.285482 53.3855 0 54.2419 0H122.758C123.615 0 124.185 0.285482 124.756 0.856449L176.144 52.2435C177.285 53.3855 177.285 55.0984 176.144 56.2403C175.573 56.8113 175.002 57.0968 174.145 57.0968ZM9.70645 51.3871H167.294L121.616 5.70968H55.3839L9.70645 51.3871Z" transform="translate(0 239.806) scale(2)" fill="black"/>
<path d="M68.5161 0L17.129 51.3871H0L51.3871 0H68.5161Z" transform="translate(5.71094 245.516) scale(2)" fill="#5C6373"/>
<path d="M19.9839 57.0968H2.85484C1.14194 57.0968 0 55.9548 0 54.2419C0 53.3855 0.285484 52.8145 0.856452 52.2435L52.2435 0.856449C52.8145 0.285482 53.3855 0 54.2419 0H71.371C73.0839 0 74.2258 1.14194 74.2258 2.85484C74.2258 3.71129 73.9403 4.28226 73.3694 4.85323L21.9823 56.2403C21.4113 56.8113 20.8403 57.0968 19.9839 57.0968ZM9.70645 51.3871H18.8419L64.5194 5.70968H55.3839L9.70645 51.3871Z" transform="translate(0 239.806) scale(2)" fill="black"/>
<path d="M0 0L51.3871 51.3871H68.5161L17.129 0H0Z" transform="translate(211.258 245.516) scale(2)" fill="#5C6373"/>
<path d="M71.371 57.0968H54.2419C53.3855 57.0968 52.8145 56.8113 52.2435 56.2403L0.856449 4.85323C-0.285486 3.71129 -0.285486 1.99839 0.856449 0.856449C1.42742 0.285482 1.99839 0 2.85484 0H19.9839C20.8403 0 21.4113 0.285482 21.9823 0.856449L73.3694 52.2435C74.5113 53.3855 74.5113 55.0984 73.3694 56.2403C72.7984 56.8113 72.2274 57.0968 71.371 57.0968ZM55.3839 51.3871H64.5194L18.8419 5.70968H9.70646L55.3839 51.3871Z" transform="translate(205.547 239.806) scale(2)" fill="black"/>
<path d="M57.0968 0H0V5.70968H57.0968V0Z" transform="translate(119.902 262.645) scale(2)" fill="black"/>
<path d="M79.9355 0H0V5.70968H79.9355V0Z" transform="translate(97.0664 285.484) scale(2)" fill="black"/>
<path d="M102.774 0H0V5.70968H102.774V0Z" transform="translate(74.2266 308.323) scale(2)" fill="black"/>
<path d="M68.5161 0H0V11.4194H68.5161V0Z" transform="translate(108.484 199.839) scale(2)" fill="#5C6373"/>
<path d="M71.371 17.129H2.85484C1.14194 17.129 0 15.9871 0 14.2742V2.85484C0 1.14194 1.14194 0 2.85484 0H71.371C73.0839 0 74.2258 1.14194 74.2258 2.85484V14.2742C74.2258 15.9871 73.0839 17.129 71.371 17.129ZM5.70968 11.4194H68.5161V5.70968H5.70968V11.4194Z" transform="translate(102.773 194.129) scale(2)" fill="black"/>
<path d="M14.2742 14.2742C14.2742 6.28065 20.5548 0 28.5484 0C36.5419 0 42.8226 6.28065 42.8226 14.2742V28.5484H0V19.9839C0 15.1306 3.71129 11.4194 8.56452 11.4194C13.4177 11.4194 17.129 15.1306 17.129 19.9839" transform="translate(5.71094 119.903) scale(2)" fill="#406928"/>
<path d="M45.6774 34.2178H2.85484C1.14194 34.2178 0 33.0759 0 31.363V22.7985C0 16.5178 5.13871 11.3791 11.4194 11.3791C12.5613 11.3791 13.9887 11.6646 15.1306 11.9501C17.9855 2.81462 27.6919 -2.03861 36.5419 0.81623C43.679 3.1001 48.5323 9.66623 48.5323 17.0888V31.363C48.5323 33.0759 47.3903 34.2178 45.6774 34.2178ZM5.70968 28.5082H42.8226V17.0888C42.8226 10.8082 37.6839 5.66946 31.4032 5.66946C25.6935 5.66946 20.8403 9.66623 19.9839 15.3759C21.9823 17.3743 22.8387 19.9437 22.8387 22.7985H17.129C17.129 19.6582 14.5597 17.0888 11.4194 17.0888C8.27903 17.0888 5.70968 19.6582 5.70968 22.7985V28.5082Z" transform="translate(0 114.274) scale(2)" fill="black"/>
<path d="M28.5484 14.2742C28.5484 6.28065 22.2677 0 14.2742 0C6.28065 0 0 6.28065 0 14.2742V28.5484H42.8226V19.9839C42.8226 15.1306 39.1113 11.4194 34.2581 11.4194C29.4048 11.4194 25.6936 15.1306 25.6936 19.9839" transform="translate(262.645 119.903) scale(2)" fill="#406928"/>
<path d="M45.6774 34.2581H2.85484C1.14194 34.2581 0 33.1161 0 31.4032V17.129C0 7.70806 7.70806 0 17.129 0C24.5516 0 31.1177 4.85323 33.4016 11.9903C39.3968 9.99194 45.9629 13.1323 47.9613 19.1274C48.2468 20.2694 48.5323 21.4113 48.5323 22.8387V31.4032C48.5323 33.1161 47.3903 34.2581 45.6774 34.2581ZM5.70968 28.5484H42.8226V22.8387C42.8226 19.6984 40.2532 17.129 37.1129 17.129C33.9726 17.129 31.4032 19.6984 31.4032 22.8387H25.6935C25.6935 19.9839 26.55 17.4145 28.5484 15.4161C27.6919 9.13548 21.6968 4.85323 15.7016 5.70968C9.99193 6.56613 5.99516 11.4194 5.99516 17.129V28.5484H5.70968Z" transform="translate(256.934 114.194) scale(2)" fill="black"/>
<path d="M17.9855 13.9368C21.1258 10.2255 20.5548 4.80132 16.8435 1.94648C13.1323 -0.908358 7.99355 -0.622874 4.85323 2.80293C2.28387 5.94326 2.28387 10.7965 4.85323 13.9368C1.7129 17.0771 0 21.3594 0 25.6416C0 33.6352 5.13871 39.9158 11.4194 39.9158C17.7 39.9158 22.8387 33.6352 22.8387 25.6416C22.8387 21.3594 21.1258 17.0771 17.9855 13.9368Z" transform="translate(5.71094 5.81348) scale(2)" fill="#589137"/>
<path d="M14.2742 45.6774C6.28065 45.6774 0 37.9694 0 28.5484C0 24.2661 1.42742 19.9839 3.99677 16.5581C3.14032 14.8452 2.85484 13.1323 2.85484 11.4194C2.85484 5.13871 7.99355 0 14.2742 0C20.5548 0 25.6936 5.13871 25.6936 11.4194C25.6936 13.1323 25.4081 14.8452 24.5516 16.5581C27.121 19.9839 28.5484 24.2661 28.5484 28.5484C28.5484 37.9694 22.2677 45.6774 14.2742 45.6774ZM14.2742 5.70968C11.1339 5.70968 8.56452 8.27903 8.56452 11.4194C8.56452 12.8468 9.13548 13.9887 9.99194 15.1306C10.8484 16.2726 10.8484 17.9855 9.70645 19.1274C7.1371 21.4113 5.70968 24.8371 5.70968 28.5484C5.70968 34.829 9.42097 39.9677 14.2742 39.9677C19.1274 39.9677 22.8387 34.829 22.8387 28.5484C22.8387 24.8371 21.4113 21.4113 18.8419 19.1274C17.7 17.9855 17.4145 16.2726 18.5565 15.1306C19.4129 13.9887 19.9839 12.8468 19.9839 11.4194C19.9839 8.27903 17.4145 5.70968 14.2742 5.70968Z" transform="scale(2)" fill="black"/>
<path d="M5.70968 0H0V28.5484H5.70968V0Z" transform="translate(22.8398 85.6453) scale(2)" fill="black"/>
<path d="M8.56452 0H0V5.70968H8.56452V0Z" transform="translate(11.418 102.774) scale(2)" fill="black"/>
<path d="M4.85323 14.0287C1.71291 10.3174 2.28387 4.89323 5.99516 2.0384C9.70645 -1.10193 15.1306 -0.53096 17.9855 3.18033C20.5548 6.32065 20.5548 11.1739 17.9855 14.3142C21.1258 17.169 22.8387 21.4513 22.8387 25.7336C22.8387 33.7271 17.7 40.0078 11.4194 40.0078C5.13871 40.0078 0 33.7271 0 25.7336C0 21.4513 1.71291 17.169 4.85323 14.0287Z" transform="translate(302.613 5.62964) scale(2)" fill="#589137"/>
<path d="M14.2742 45.6774C6.28065 45.6774 0 37.9694 0 28.5484C0 24.2661 1.42742 19.9839 3.99678 16.5581C3.14033 14.8452 2.85484 13.1323 2.85484 11.4194C2.85484 5.13871 7.99355 0 14.2742 0C20.5548 0 25.6936 5.13871 25.6936 11.4194C25.6936 13.1323 25.4081 14.8452 24.5516 16.5581C27.121 19.9839 28.5484 24.2661 28.5484 28.5484C28.5484 37.9694 22.2677 45.6774 14.2742 45.6774ZM14.2742 5.70968C11.1339 5.70968 8.56452 8.27903 8.56452 11.4194C8.56452 12.8468 9.13548 13.9887 9.99194 15.1306C10.8484 16.2726 10.8484 17.9855 9.70646 19.1274C7.1371 21.4113 5.70968 24.8371 5.70968 28.5484C5.70968 34.829 9.42097 39.9677 14.2742 39.9677C19.1274 39.9677 22.8387 34.829 22.8387 28.5484C22.8387 24.8371 21.4113 21.4113 18.8419 19.1274C17.7 17.9855 17.4145 16.2726 18.5565 15.1306C19.4129 13.9887 19.9839 12.8468 19.9839 11.4194C19.9839 8.27903 17.4145 5.70968 14.2742 5.70968Z" transform="translate(296.902) scale(2)" fill="black"/>
<path d="M5.70968 0H0V28.5484H5.70968V0Z" transform="translate(319.742 85.6453) scale(2)" fill="black"/>
<path d="M8.56452 0H0V5.70968H8.56452V0Z" transform="translate(325.453 102.774) scale(2)" fill="black"/>
<path d="M51.3871 0H0V5.70968H51.3871V0Z" transform="translate(0 194.129) scale(2)" fill="black"/>
<path d="M51.3871 0H0V5.70968H51.3871V0Z" transform="translate(251.227 194.129) scale(2)" fill="black"/>
</svg>
