<svg width="354" height="356" viewBox="0 0 354 356" fill="none" xmlns="http://www.w3.org/2000/svg">
<path d="M-3.42102e-06 0H29.5V144.55H-3.42102e-06V0Z" transform="translate(289.102 59) scale(2)" fill="#999999"/>
<path d="M-3.42102e-06 0H26.55V17.7H-3.42102e-06V0Z" transform="translate(200.602 5.8999) scale(2)" fill="#FF3D53"/>
<path d="M9.56535e-08 153.4H64.9V26.55V0H9.56535e-08V153.4Z" transform="translate(5.89844 41.3) scale(2)" fill="#CCCCCC"/>
<path d="M-6.07681e-07 0H47.2V11.8H-6.07681e-07V0Z" transform="translate(23.5977 106.2) scale(2)" fill="#0378A3"/>
<path d="M-6.07681e-07 0H47.2V11.8H-6.07681e-07V0Z" transform="translate(23.5977 153.4) scale(2)" fill="#0378A3"/>
<path d="M-6.07681e-07 0H47.2V11.8H-6.07681e-07V0Z" transform="translate(23.5977 200.6) scale(2)" fill="#0378A3"/>
<path d="M-6.07681e-07 0H47.2V11.8H-6.07681e-07V0Z" transform="translate(23.5977 247.8) scale(2)" fill="#0378A3"/>
<path d="M109.15 141.6H2.20566e-06V26.55L53.1 0L109.15 26.55V73.75V141.6Z" transform="translate(94.3984 64.8999) scale(2)" fill="#E6E6E6"/>
<path d="M-6.07681e-07 0H47.2V11.8H-6.07681e-07V0Z" transform="translate(23.6016 59) scale(2)" fill="#0378A3"/>
<path d="M9.56535e-08 0C7.33075 0 14.75 5.94425 14.75 13.275C14.7301 13.8355 14.6737 14.3942 14.5819 14.9477C18.5197 14.014 22.4687 16.4496 23.4024 20.3874C23.666 21.4989 23.666 22.6567 23.4024 23.7681C23.9544 23.6671 24.5138 23.6107 25.075 23.6C30.2729 23.6 32.45 23.6 35.4 29.5H9.56535e-08V0Z" transform="translate(5.89844 289.1) scale(2)" fill="#55D08F"/>
<path d="M2.20566e-06 0H20.65V26.55H2.20566e-06V0Z" transform="translate(118 135.7) scale(2)" fill="#29ABE2"/>
<path d="M2.20566e-06 0H20.65V26.55H2.20566e-06V0Z" transform="translate(182.898 135.7) scale(2)" fill="#06AAE9"/>
<path d="M-3.42102e-06 0H20.65V26.55H-3.42102e-06V0Z" transform="translate(247.801 135.7) scale(2)" fill="#06AAE9"/>
<path d="M2.20566e-06 0H20.65V26.55H2.20566e-06V0Z" transform="translate(118 212.4) scale(2)" fill="#29ABE2"/>
<path d="M2.20566e-06 0H20.65V26.55H2.20566e-06V0Z" transform="translate(182.898 212.4) scale(2)" fill="#29ABE2"/>
<path d="M-3.42102e-06 0H20.65V26.55H-3.42102e-06V0Z" transform="translate(247.801 212.4) scale(2)" fill="#29ABE2"/>
<path d="M2.20566e-06 0H17.7V29.5H2.20566e-06V0Z" transform="translate(165.199 289.1) scale(2)" fill="#0378A3"/>
<path d="M-3.42102e-06 0H17.7V29.5H-3.42102e-06V0Z" transform="translate(200.602 289.1) scale(2)" fill="#83D8EF"/>
<path d="M5.9 11.8C9.15848 11.8 11.8 9.15848 11.8 5.9C11.8 2.64152 9.15848 0 5.9 0C2.64152 0 -3.42102e-06 2.64152 -3.42102e-06 5.9C-3.42102e-06 9.15848 2.64152 11.8 5.9 11.8Z" transform="translate(188.801 88.5) scale(2)" fill="#FFBC44"/>
<path d="M11.8 0C18.3169 0 23.6 5.28308 23.6 11.8V29.5C23.6 36.0169 18.3169 41.3 11.8 41.3C5.28308 41.3 -3.42102e-06 36.0169 -3.42102e-06 29.5V11.8C-3.42102e-06 5.28308 5.28271 0 11.8 0Z" transform="translate(300.898 230.1) scale(2)" fill="#55D08F"/>
<path d="M11.8 0C18.3169 0 23.6 5.28308 23.6 11.8V29.5C23.6 36.0169 18.3169 41.3 11.8 41.3C5.28308 41.3 -3.42102e-06 36.0169 -3.42102e-06 29.5V11.8C-3.42102e-06 5.28308 5.28271 0 11.8 0Z" transform="translate(253.699 230.1) scale(2)" fill="#55D08F"/>
<path d="M162.25 112.1C157.589 112.113 153.211 114.336 150.45 118.091C145.636 111.55 136.431 110.149 129.89 114.963C126.111 117.743 123.886 122.159 123.9 126.85V141.6H76.7C75.0709 141.6 73.75 142.921 73.75 144.55C73.75 146.179 75.0709 147.5 76.7 147.5H79.65V171.1H50.15V60.826L100.335 35.7304L153.4 60.8673V106.2C153.4 107.829 154.721 109.15 156.35 109.15C157.979 109.15 159.3 107.829 159.3 106.2V59C159.296 57.8639 158.639 56.8314 157.613 56.345L147.5 51.5453V32.45H174.05C175.679 32.45 177 31.1291 177 29.5C177 27.8709 175.679 26.55 174.05 26.55H144.55C142.921 26.55 141.6 27.8709 141.6 29.5V48.7487L103.25 30.5826V23.6H126.85C128.479 23.6 129.8 22.2791 129.8 20.65V2.95C129.8 1.32086 128.479 0 126.85 0H100.3C98.6709 0 97.35 1.32086 97.35 2.95V30.6269L70.8 43.9019V20.65C70.8 19.0209 69.4791 17.7 67.85 17.7H2.95C1.32086 17.7 0 19.0209 0 20.65V144.55C0 146.179 1.32086 147.5 2.95 147.5C8.4075 147.5 14.75 152.011 14.75 157.825C14.7397 158.132 14.708 158.437 14.6556 158.74L14.6055 159.117C14.4023 160.734 15.548 162.209 17.1646 162.412C17.5046 162.455 17.8493 162.438 18.1838 162.362C18.509 162.289 18.8417 162.251 19.175 162.25C21.5911 162.222 23.5723 164.158 23.6 166.574C23.6041 166.94 23.5624 167.305 23.4761 167.66C23.1125 169.249 24.1056 170.83 25.6938 171.194C26.0658 171.279 26.4508 171.291 26.8273 171.23C27.2222 171.153 27.6227 171.11 28.025 171.1C32.9456 171.1 33.5769 171.1 35.7098 175.369C36.438 176.827 38.2106 177.419 39.6687 176.69C41.1267 175.962 41.7185 174.189 40.9903 172.731C37.6863 166.126 34.4619 165.3 29.3968 165.209C28.736 160.651 25.1432 157.079 20.5822 156.444C19.3977 148.902 13.452 143.002 5.9 141.877V23.6H64.9V46.8519L45.8814 56.3627C44.882 56.862 44.2507 57.8831 44.25 59V174.05C44.25 175.679 45.5709 177 47.2 177H129.8C131.429 177 132.75 175.679 132.75 174.05C132.75 172.421 131.429 171.1 129.8 171.1H120.95V147.5H124.195C125.388 153.289 129.911 157.812 135.7 159.005V174.05C135.7 175.679 137.021 177 138.65 177C140.279 177 141.6 175.679 141.6 174.05V159.005C145.15 158.261 148.302 156.234 150.45 153.312C152.598 156.234 155.75 158.261 159.3 159.005V174.05C159.3 175.679 160.621 177 162.25 177C163.879 177 165.2 175.679 165.2 174.05V159.005C172.063 157.594 176.991 151.557 177 144.55V126.85C176.99 118.708 170.392 112.11 162.25 112.1ZM103.25 5.9H123.9V17.7H103.25V5.9ZM85.55 147.5H97.35V171.1H85.55V147.5ZM115.05 171.1H103.25V147.5H115.05V171.1ZM138.65 153.4C133.762 153.4 129.8 149.438 129.8 144.55V126.85C129.8 121.962 133.762 118 138.65 118C143.538 118 147.5 121.962 147.5 126.85V144.55C147.5 149.438 143.537 153.4 138.65 153.4ZM171.1 144.55C171.1 149.438 167.138 153.4 162.25 153.4C157.362 153.4 153.4 149.438 153.4 144.55V126.85C153.4 121.962 157.362 118 162.25 118C167.138 118 171.1 121.962 171.1 126.85V144.55Z" transform="scale(2)" fill="black"/>
<path d="M2.95 17.7H50.15C51.7791 17.7 53.1 16.3791 53.1 14.75V2.95C53.1 1.32086 51.7791 0 50.15 0H2.95C1.32086 0 9.56535e-08 1.32086 9.56535e-08 2.95V14.75C9.56535e-08 16.3791 1.32049 17.7 2.95 17.7ZM5.9 5.9H47.2V11.8H5.9V5.9Z" transform="translate(17.6992 53.1001) scale(2)" fill="black"/>
<path d="M32.45 14.75C32.45 13.1209 31.1291 11.8 29.5 11.8H5.9V5.9H32.45C34.0791 5.9 35.4 4.57914 35.4 2.95C35.4 1.32086 34.0791 0 32.45 0H2.95C1.32086 0 9.56535e-08 1.32086 9.56535e-08 2.95V14.75C9.56535e-08 16.3791 1.32086 17.7 2.95 17.7H29.5C31.1291 17.7 32.45 16.3791 32.45 14.75Z" transform="translate(17.6992 100.3) scale(2)" fill="black"/>
<path d="M26.55 5.9C28.1791 5.9 29.5 4.57914 29.5 2.95C29.5 1.32086 28.1791 0 26.55 0H2.95C1.32086 0 9.56535e-08 1.32086 9.56535e-08 2.95V14.75C9.56535e-08 16.3791 1.32086 17.7 2.95 17.7H26.55C28.1791 17.7 29.5 16.3791 29.5 14.75C29.5 13.1209 28.1791 11.8 26.55 11.8H5.9V5.9H26.55Z" transform="translate(17.6992 147.5) scale(2)" fill="black"/>
<path d="M26.55 5.9C28.1791 5.9 29.5 4.57914 29.5 2.95C29.5 1.32086 28.1791 0 26.55 0H2.95C1.32086 0 9.56535e-08 1.32086 9.56535e-08 2.95V14.75C9.56535e-08 16.3791 1.32086 17.7 2.95 17.7H26.55C28.1791 17.7 29.5 16.3791 29.5 14.75C29.5 13.1209 28.1791 11.8 26.55 11.8H5.9V5.9H26.55Z" transform="translate(17.6992 194.7) scale(2)" fill="black"/>
<path d="M26.55 5.9C28.1791 5.9 29.5 4.57914 29.5 2.95C29.5 1.32086 28.1791 0 26.55 0H2.95C1.32086 0 9.56535e-08 1.32086 9.56535e-08 2.95V14.75C9.56535e-08 16.3791 1.32086 17.7 2.95 17.7H26.55C28.1791 17.7 29.5 16.3791 29.5 14.75C29.5 13.1209 28.1791 11.8 26.55 11.8H5.9V5.9H26.55Z" transform="translate(17.6992 241.9) scale(2)" fill="black"/>
<path d="M26.55 2.95C26.55 1.32086 25.2291 0 23.6 0H2.95C1.32086 0 2.20566e-06 1.32086 2.20566e-06 2.95V29.5C2.20566e-06 31.1291 1.32086 32.45 2.95 32.45H23.6C25.2291 32.45 26.55 31.1291 26.55 29.5V2.95ZM20.65 26.55H5.9V5.9H20.65V26.55Z" transform="translate(112.102 129.8) scale(2)" fill="black"/>
<path d="M26.55 2.95C26.55 1.32086 25.2291 0 23.6 0H2.95C1.32086 0 2.20566e-06 1.32086 2.20566e-06 2.95V29.5C2.20566e-06 31.1291 1.32086 32.45 2.95 32.45H23.6C25.2291 32.45 26.55 31.1291 26.55 29.5V2.95ZM20.65 26.55H5.9V5.9H20.65V26.55Z" transform="translate(177 129.8) scale(2)" fill="black"/>
<path d="M26.55 2.95C26.55 1.32086 25.2291 0 23.6 0H2.95C1.32086 0 -3.42102e-06 1.32086 -3.42102e-06 2.95V29.5C-3.42102e-06 31.1291 1.32086 32.45 2.95 32.45H23.6C25.2291 32.45 26.55 31.1291 26.55 29.5V2.95ZM20.65 26.55H5.9V5.9H20.65V26.55Z" transform="translate(241.898 129.8) scale(2)" fill="black"/>
<path d="M23.6 0H2.95C1.32086 0 2.20566e-06 1.32086 2.20566e-06 2.95V29.5C2.20566e-06 31.1291 1.32086 32.45 2.95 32.45H23.6C25.2291 32.45 26.55 31.1291 26.55 29.5V2.95C26.55 1.32086 25.2291 0 23.6 0ZM20.65 26.55H5.9V5.9H20.65V26.55Z" transform="translate(112.102 206.5) scale(2)" fill="black"/>
<path d="M23.6 0H2.95C1.32086 0 2.20566e-06 1.32086 2.20566e-06 2.95V29.5C2.20566e-06 31.1291 1.32086 32.45 2.95 32.45H23.6C25.2291 32.45 26.55 31.1291 26.55 29.5V2.95C26.55 1.32086 25.2291 0 23.6 0ZM20.65 26.55H5.9V5.9H20.65V26.55Z" transform="translate(177 206.5) scale(2)" fill="black"/>
<path d="M23.6 0H2.95C1.32086 0 -3.42102e-06 1.32086 -3.42102e-06 2.95V8.85C-3.42102e-06 10.4791 1.32086 11.8 2.95 11.8C4.57913 11.8 5.9 10.4791 5.9 8.85V5.9H20.65C20.65 7.52914 21.9709 8.85 23.6 8.85C25.2291 8.85 26.55 7.52914 26.55 5.9V2.95C26.55 1.32086 25.2291 0 23.6 0Z" transform="translate(241.898 206.5) scale(2)" fill="black"/>
<path d="M17.7 8.85C17.7 3.96222 13.7378 0 8.85 0C3.96222 0 2.20566e-06 3.96222 2.20566e-06 8.85C2.20566e-06 13.7378 3.96222 17.7 8.85 17.7C13.7378 17.7 17.7 13.7378 17.7 8.85ZM5.9 8.85C5.9 7.22086 7.22086 5.9 8.85 5.9C10.4791 5.9 11.8 7.22086 11.8 8.85C11.8 10.4791 10.4791 11.8 8.85 11.8C7.22086 11.8 5.9 10.4791 5.9 8.85Z" transform="translate(182.898 82.6001) scale(2)" fill="black"/>
<path d="M8.85 5.9C10.4791 5.9 11.8 4.57914 11.8 2.95C11.8 1.32086 10.4791 0 8.85 0H2.95C1.32086 0 -3.42102e-06 1.32086 -3.42102e-06 2.95C-3.42102e-06 4.57914 1.32086 5.9 2.95 5.9H8.85Z" transform="translate(289.102 342.2) scale(2)" fill="black"/>
<path d="M5.9 0H2.95C1.32086 0 -3.42102e-06 1.32086 -3.42102e-06 2.95C-3.42102e-06 4.57914 1.32086 5.9 2.95 5.9H5.9C7.52913 5.9 8.85 4.57914 8.85 2.95C8.85 1.32086 7.52913 0 5.9 0Z" transform="translate(336.301 342.2) scale(2)" fill="black"/>
</svg>
