<svg width="70" height="85" viewBox="0 0 70 85" fill="none" xmlns="http://www.w3.org/2000/svg">
<path d="M52.498 5.83304V11.6661H1.16959e-06V5.83304C0.00925209 2.61537 2.61537 0.0092502 5.83304 -7.25955e-07H46.6646C49.8823 0.0092502 52.4884 2.61537 52.498 5.83304Z" transform="translate(18.9609 78.7162) scale(0.5)" fill="#BDC3C7"/>
<path d="M40.8319 5.83304V11.6661H7.66286e-07V5.83304C0.00925169 2.61537 2.61537 0.00924867 5.83304 -2.25853e-06H34.9986C38.2162 0.00957906 40.8223 2.61537 40.8319 5.83304Z" transform="translate(21.8779 72.883) scale(0.5)" fill="#BDC3C7"/>
<path d="M23.3325 0H0V52.498H23.3325V0Z" transform="translate(26.2529 46.6342) scale(0.5)" fill="#BDC3C7"/>
<path d="M34.9986 5.83304C34.9751 9.04476 32.3772 11.6429 29.1655 11.6661H5.83304C2.61537 11.6565 0.00925266 9.05071 1.73423e-06 5.83304C0.023129 2.62098 2.62132 0.0231248 5.83304 -2.50051e-06H29.1655C32.3832 0.00957881 34.989 2.6157 34.9986 5.83304Z" transform="translate(23.3359 40.801) scale(0.5)" fill="#BDC3C7"/>
<path d="M23.3325 -2.41985e-06H0V34.9986H23.3325V-2.41985e-06Z" transform="translate(26.2529 23.3017) scale(0.5)" fill="#BDC3C7"/>
<path d="M40.8316 5.83304C40.8081 9.04476 38.2103 11.6429 34.9986 11.6661H5.83304C2.61537 11.6565 0.00924899 9.05071 -1.93588e-06 5.83304C0.0231254 2.62099 2.62131 0.0231282 5.83304 9.07444e-07H34.9986C38.2159 0.00925183 40.822 2.61537 40.8316 5.83304Z" transform="translate(21.8779 17.4686) scale(0.5)" fill="#BDC3C7"/>
<path d="M17.4994 2.82316e-07V15.6327H-4.03308e-08V2.82316e-07C2.20899 2.52088 5.39792 3.96633 8.74972 3.96633C12.1015 3.96633 15.2905 2.52088 17.4994 2.82316e-07Z" transform="translate(27.71 9.65222) scale(0.5)" fill="#BDC3C7"/>
<path d="M23.2187 11.6048C23.2164 13.6538 22.6733 15.6659 21.6438 17.4378C21.2668 18.1075 20.8168 18.7336 20.3021 19.3045C16.5875 23.5008 10.4052 24.444 5.60829 21.5465C0.811357 18.6493 -1.23112 12.7383 0.754199 7.49768C2.73918 2.25703 8.18501 -0.817584 13.6979 0.190436C19.2108 1.19846 23.2161 6.00068 23.2187 11.6048Z" transform="translate(26.3096) scale(0.5)" fill="#BDC3C7"/>
<path d="M49.5813 -1.85522e-06V17.4994H26.2488C21.4225 17.5137 17.5133 21.4225 17.4991 26.2492H-1.00827e-08C0.0218057 11.7612 11.7609 0.0218062 26.2488 0.000330874H49.5813V-1.85522e-06Z" transform="translate(1.46094 27.6765) scale(0.5)" fill="#BDC3C7"/>
<path d="M43.7483 8.74973C43.741 13.579 39.8279 17.4922 34.9986 17.4995H-2.98448e-06V5.32417e-06H34.9986C37.3202 -0.00296819 39.5474 0.91783 41.1891 2.55921C42.8308 4.20059 43.7513 6.42808 43.7483 8.74973Z" transform="translate(37.9189 27.6765) scale(0.5)" fill="#BDC3C7"/>
<path d="M43.7483 32.0822C43.7387 35.2999 41.1329 37.906 37.9152 37.9152H29.1655C13.0689 37.8888 0.026428 24.8463 -3.22647e-06 8.74972V1.97621e-06H11.6661V8.74972C11.6737 18.411 19.5039 26.2412 29.1655 26.2492H37.9152C41.1326 26.2584 43.7387 28.8645 43.7483 32.0822Z" transform="translate(48.126 36.4261) scale(0.5)" fill="#BDC3C7"/>
<path d="M33.6568 29.1655V49.5813H21.9908V29.1655C21.9832 19.5043 14.1529 11.674 4.49132 11.6661H-2.41985e-06C2.09996 8.06086 2.09996 3.60522 -2.41985e-06 -4.53722e-08H4.49132C20.5883 0.0264312 33.6304 13.0689 33.6568 29.1655Z" transform="translate(37.1309 2.8858) scale(0.5)" fill="#BDC3C7"/>
<path d="M52.498 5.83304V11.6661H1.16959e-06V5.83304C0.00925209 2.61537 2.61537 0.0092502 5.83304 -7.25955e-07H46.6646C49.8823 0.0092502 52.4884 2.61537 52.498 5.83304Z" transform="translate(18.9609 78.7162) scale(0.5)" fill="#A1A4A6"/>
<path d="M40.8319 5.83304V11.6661H7.66286e-07V5.83304C0.00925169 2.61537 2.61537 0.00924867 5.83304 -2.25853e-06H34.9986C38.2162 0.00957906 40.8223 2.61537 40.8319 5.83304Z" transform="translate(21.8779 72.883) scale(0.5)" fill="#7F8C8D"/>
<path d="M23.3325 0H0V52.498H23.3325V0Z" transform="translate(26.2529 46.6342) scale(0.5)" fill="#A1A4A6"/>
<path d="M34.9986 5.83304C34.9751 9.04476 32.3772 11.6429 29.1655 11.6661H5.83304C2.61537 11.6565 0.00925266 9.05071 1.73423e-06 5.83304C0.023129 2.62098 2.62132 0.0231248 5.83304 -2.50051e-06H29.1655C32.3832 0.00957881 34.989 2.6157 34.9986 5.83304Z" transform="translate(23.3359 40.801) scale(0.5)" fill="#7F8C8D"/>
<path d="M23.3325 -2.41985e-06H0V34.9986H23.3325V-2.41985e-06Z" transform="translate(26.2529 23.3017) scale(0.5)" fill="#A1A4A6"/>
<path d="M40.8316 5.83304C40.8081 9.04476 38.2103 11.6429 34.9986 11.6661H5.83304C2.61537 11.6565 0.00924899 9.05071 -1.93588e-06 5.83304C0.0231254 2.62099 2.62131 0.0231282 5.83304 9.07444e-07H34.9986C38.2159 0.00925183 40.822 2.61537 40.8316 5.83304Z" transform="translate(21.8779 17.4686) scale(0.5)" fill="#7F8C8D"/>
<path d="M17.4994 2.82316e-07V15.6327H-4.03308e-08V2.82316e-07C2.20899 2.52088 5.39792 3.96633 8.74972 3.96633C12.1015 3.96633 15.2905 2.52088 17.4994 2.82316e-07Z" transform="translate(27.71 9.65222) scale(0.5)" fill="#A1A4A6"/>
<path d="M23.2187 11.6048C23.2164 13.6538 22.6733 15.6659 21.6438 17.4378C21.2668 18.1075 20.8168 18.7336 20.3021 19.3045C16.5875 23.5008 10.4052 24.444 5.60829 21.5465C0.811357 18.6493 -1.23112 12.7383 0.754199 7.49768C2.73918 2.25703 8.18501 -0.817584 13.6979 0.190436C19.2108 1.19846 23.2161 6.00068 23.2187 11.6048Z" transform="translate(26.3096) scale(0.5)" fill="#7F8C8D"/>
<path d="M49.5813 -1.85522e-06V17.4994H26.2488C21.4225 17.5137 17.5133 21.4225 17.4991 26.2492H-1.00827e-08C0.0218057 11.7612 11.7609 0.0218062 26.2488 0.000330874H49.5813V-1.85522e-06Z" transform="translate(1.46094 27.6765) scale(0.5)" fill="#A1A4A6"/>
<path d="M43.7483 8.74973C43.741 13.579 39.8279 17.4922 34.9986 17.4995H-2.98448e-06V5.32417e-06H34.9986C37.3202 -0.00296819 39.5474 0.91783 41.1891 2.55921C42.8308 4.20059 43.7513 6.42808 43.7483 8.74973Z" transform="translate(37.9189 27.6765) scale(0.5)" fill="#A1A4A6"/>
<path d="M23.3386 25.4325C23.5533 32.0971 18.3361 37.6794 11.6725 37.9152C5.00884 37.6794 -0.208355 32.0971 0.00639899 25.4325C0.00639899 17.7912 11.6725 -3.30713e-06 11.6725 -3.30713e-06C11.6725 -3.30713e-06 23.3386 17.7912 23.3386 25.4325Z" transform="translate(0 46.6339) scale(0.5)" fill="#4482C3"/>
<path d="M43.7483 32.0822C43.7387 35.2999 41.1329 37.906 37.9152 37.9152H29.1655C13.0689 37.8888 0.026428 24.8463 -3.22647e-06 8.74972V1.97621e-06H11.6661V8.74972C11.6737 18.411 19.5039 26.2412 29.1655 26.2492H37.9152C41.1326 26.2584 43.7387 28.8645 43.7483 32.0822Z" transform="translate(48.126 36.4261) scale(0.5)" fill="#547580"/>
<path d="M33.6568 29.1655V49.5813H21.9908V29.1655C21.9832 19.5043 14.1529 11.674 4.49132 11.6661H-2.41985e-06C2.09996 8.06086 2.09996 3.60522 -2.41985e-06 -4.53722e-08H4.49132C20.5883 0.0264312 33.6304 13.0689 33.6568 29.1655Z" transform="translate(37.1309 2.8858) scale(0.5)" fill="#547580"/>
</svg>
