<svg width="354" height="356" viewBox="0 0 354 356" fill="none" xmlns="http://www.w3.org/2000/svg">
<path d="M147.286 0H0V13.8297H147.286V0Z" transform="translate(29.7109 319.466) scale(2)" fill="#D7D7E6"/>
<path d="M124.467 49.7444L62.2337 3.37639e-07L0 49.7444V126.403H124.467V49.7444Z" transform="translate(52.5312 66.6599) scale(2)" fill="#F5A55B"/>
<path d="M85.0426 0L9.75988e-08 66.3926L17.0541 83.4332L85.0426 29.8725L152.995 83.3966L170.085 66.3926L85.0426 0Z" transform="translate(6.91406 6.91504) scale(2)" fill="#FF5A5A"/>
<path d="M38.7232 0H0V38.7232H38.7232V0Z" transform="translate(85.7266 203.297) scale(2)" fill="#D7D7E6"/>
<path d="M35.9572 0H0V64.3081H35.9572V0Z" transform="translate(193.602 190.85) scale(2)" fill="#D7D7E6"/>
<path d="M154.312 89.5702C155.686 90.6524 157.651 90.5383 158.89 89.305L175.981 72.3007C176.684 71.6009 177.053 70.6329 176.994 69.6426C176.934 68.6524 176.452 67.7352 175.67 67.1246L151.65 48.3722C150.145 47.1967 147.972 47.4646 146.798 48.97C145.622 50.475 145.89 52.6477 147.395 53.8229L168.326 70.1633L156.185 82.2429L90.6391 30.6142C89.3844 29.6257 87.6155 29.6257 86.3601 30.6142L20.7835 82.275L8.66765 70.1685L88.4999 7.8436L126.002 37.1214C127.507 38.2963 129.679 38.0286 130.855 36.5236C132.03 35.0183 131.762 32.8456 130.257 31.6708L90.6273 0.732023C89.3774 -0.244008 87.6224 -0.244008 86.3722 0.732023L1.32996 67.1246C0.548583 67.7345 0.0669634 68.65 0.00645849 69.6388C-0.0540464 70.6277 0.312786 71.5954 1.01361 72.2955L18.0677 89.3361C18.7384 90.0065 19.6235 90.3478 20.5124 90.3478C21.2648 90.3478 22.0202 90.103 22.6512 89.6062L22.8089 89.4824V156.276H14.8568C12.9476 156.276 11.3994 157.824 11.3994 159.733V173.563C11.3994 175.472 12.9476 177.02 14.8568 177.02H162.143C164.052 177.02 165.601 175.472 165.601 173.563V159.733C165.601 157.824 164.052 156.276 162.143 156.276H154.191V89.4744L154.312 89.5702ZM46.3194 136.914V105.106H58.7661V136.914H46.3194ZM65.6809 105.106H78.1277V136.914H65.6809V105.106ZM93.3403 105.106V117.553H85.0425V105.106H93.3403ZM85.0425 124.467H93.3403V136.914H85.0425V124.467ZM100.255 98.8824H129.298V156.276H100.255V98.8824ZM147.276 117.553H136.212V105.106H147.276V117.553ZM136.212 124.467H147.276V136.914H136.212V124.467ZM136.212 98.191V95.425C136.212 93.5155 134.664 91.9676 132.755 91.9676H96.7978C94.8886 91.9676 93.3403 93.5155 93.3403 95.425V98.191H81.5851H42.8619C42.7454 98.191 42.6299 98.1972 42.5162 98.2082C42.4024 98.1968 42.287 98.191 42.1704 98.191H29.7237V85.7442H50.1225C52.0317 85.7442 53.5799 84.1963 53.5799 82.2868C53.5799 80.3773 52.0317 78.8294 50.1225 78.8294H36.3315L52.1309 66.3826H124.874L140.676 78.8294H77.4362C75.527 78.8294 73.9788 80.3773 73.9788 82.2868C73.9788 84.1963 75.527 85.7442 77.4362 85.7442H147.276V98.191H136.212ZM39.4045 117.553H29.7237V105.106H39.4045V117.553ZM29.7237 124.467H39.4045V136.914H29.7237V124.467ZM88.5003 37.7313L116.096 59.4678H60.9087L88.5003 37.7313ZM29.7237 143.829H42.1704C42.287 143.829 42.4024 143.823 42.5162 143.812C42.6299 143.823 42.7454 143.829 42.8619 143.829H81.5851H93.3403V156.276H29.7237V143.829ZM158.686 170.105H18.3142V163.191H158.686V170.105ZM136.212 156.276V143.829H147.276V156.276H136.212Z" transform="scale(2)" fill="black"/>
<path d="M3.45742 6.91485C4.36672 6.91485 5.25874 6.54491 5.90147 5.90183C6.54456 5.25875 6.91485 4.36673 6.91485 3.45743C6.91485 2.54812 6.5449 1.65611 5.90147 1.00957C5.25874 0.366486 4.36672 0 3.45742 0C2.54812 0 1.65611 0.366486 1.01303 1.00957C0.369948 1.65265 -4.64254e-06 2.54466 -4.64254e-06 3.45743C-4.64254e-06 4.36673 0.369602 5.25875 1.01303 5.90183C1.65646 6.54491 2.54812 6.91485 3.45742 6.91485Z" transform="translate(272.828 80.2124) scale(2)" fill="black"/>
<path d="M3.45743 0C2.54812 0 1.6561 0.369942 1.01302 1.01302C0.369942 1.6561 0 2.54812 0 3.45743C0 4.36673 0.369596 5.25875 1.01302 5.90183C1.65645 6.54491 2.54812 6.91485 3.45743 6.91485C4.36673 6.91485 5.25874 6.54491 5.90148 5.90183C6.54456 5.25875 6.91485 4.36673 6.91485 3.45743C6.91485 2.54812 6.54491 1.6561 5.90148 1.01302C5.25874 0.369942 4.36673 0 3.45743 0Z" transform="translate(121.68 157.659) scale(2)" fill="black"/>
<path d="M3.45743 0C2.54812 0 1.6561 0.369942 1.01302 1.01302C0.369942 1.6561 0 2.54812 0 3.45743C0 4.36673 0.369596 5.25875 1.01302 5.90183C1.65645 6.54491 2.54812 6.91485 3.45743 6.91485C4.36673 6.91485 5.25874 6.54491 5.90148 5.90183C6.54456 5.25875 6.91485 4.36673 6.91485 3.45743C6.91485 2.54812 6.54491 1.6561 5.90148 1.01302C5.25874 0.369942 4.36673 0 3.45743 0Z" transform="translate(210.883 248.243) scale(2)" fill="black"/>
</svg>
